%TF.GenerationSoftware,KiCad,Pcbnew,10.0.1*%
%TF.CreationDate,2026-06-23T18:22:49+02:00*%
%TF.ProjectId,MMS3_hat_templates,4d4d5333-5f68-4617-945f-74656d706c61,R0*%
%TF.SameCoordinates,Original*%
%TF.FileFunction,Paste,Top*%
%TF.FilePolarity,Positive*%
%FSLAX46Y46*%
G04 Gerber Fmt 4.6, Leading zero omitted, Abs format (unit mm)*
G04 Created by KiCad (PCBNEW 10.0.1) date 2026-06-23 18:22:49*
%MOMM*%
%LPD*%
G01*
G04 APERTURE LIST*
G04 Aperture macros list*
%AMRoundRect*
0 Rectangle with rounded corners*
0 $1 Rounding radius*
0 $2 $3 $4 $5 $6 $7 $8 $9 X,Y pos of 4 corners*
0 Add a 4 corners polygon primitive as box body*
4,1,4,$2,$3,$4,$5,$6,$7,$8,$9,$2,$3,0*
0 Add four circle primitives for the rounded corners*
1,1,$1+$1,$2,$3*
1,1,$1+$1,$4,$5*
1,1,$1+$1,$6,$7*
1,1,$1+$1,$8,$9*
0 Add four rect primitives between the rounded corners*
20,1,$1+$1,$2,$3,$4,$5,0*
20,1,$1+$1,$4,$5,$6,$7,0*
20,1,$1+$1,$6,$7,$8,$9,0*
20,1,$1+$1,$8,$9,$2,$3,0*%
G04 Aperture macros list end*
%ADD10RoundRect,0.200000X0.275000X-0.200000X0.275000X0.200000X-0.275000X0.200000X-0.275000X-0.200000X0*%
%ADD11RoundRect,0.220000X-0.255000X0.220000X-0.255000X-0.220000X0.255000X-0.220000X0.255000X0.220000X0*%
%ADD12RoundRect,0.100000X-0.100000X0.637500X-0.100000X-0.637500X0.100000X-0.637500X0.100000X0.637500X0*%
%ADD13RoundRect,0.200000X-0.275000X0.200000X-0.275000X-0.200000X0.275000X-0.200000X0.275000X0.200000X0*%
%ADD14RoundRect,0.100000X-0.100000X0.640000X-0.100000X-0.640000X0.100000X-0.640000X0.100000X0.640000X0*%
%ADD15RoundRect,0.250000X-1.000000X-0.300000X1.000000X-0.300000X1.000000X0.300000X-1.000000X0.300000X0*%
%ADD16RoundRect,0.250000X-0.920000X-1.550000X0.920000X-1.550000X0.920000X1.550000X-0.920000X1.550000X0*%
%ADD17R,1.000000X3.000000*%
%ADD18RoundRect,0.225000X-0.225000X-0.250000X0.225000X-0.250000X0.225000X0.250000X-0.225000X0.250000X0*%
%ADD19RoundRect,0.220000X-0.220000X-0.255000X0.220000X-0.255000X0.220000X0.255000X-0.220000X0.255000X0*%
%ADD20RoundRect,0.250000X-0.350000X0.450000X-0.350000X-0.450000X0.350000X-0.450000X0.350000X0.450000X0*%
%ADD21RoundRect,0.225000X-0.250000X0.225000X-0.250000X-0.225000X0.250000X-0.225000X0.250000X0.225000X0*%
%ADD22RoundRect,0.225000X0.250000X-0.225000X0.250000X0.225000X-0.250000X0.225000X-0.250000X-0.225000X0*%
%ADD23RoundRect,0.250000X-0.425000X-0.650000X0.425000X-0.650000X0.425000X0.650000X-0.425000X0.650000X0*%
%ADD24RoundRect,0.200000X-0.200000X-0.275000X0.200000X-0.275000X0.200000X0.275000X-0.200000X0.275000X0*%
G04 APERTURE END LIST*
D10*
%TO.C,R22*%
X127800000Y-127680000D03*
X127800000Y-129320000D03*
%TD*%
D11*
%TO.C,D11*%
X127800000Y-132290000D03*
X127800000Y-130710000D03*
%TD*%
%TO.C,D9*%
X119700000Y-132290000D03*
X119700000Y-130710000D03*
%TD*%
%TO.C,D6*%
X113700000Y-132290000D03*
X113700000Y-130710000D03*
%TD*%
%TO.C,D7*%
X115700000Y-132290000D03*
X115700000Y-130710000D03*
%TD*%
%TO.C,D8*%
X117700000Y-132290000D03*
X117700000Y-130710000D03*
%TD*%
D10*
%TO.C,R15*%
X109700000Y-127680000D03*
X109700000Y-129320000D03*
%TD*%
%TO.C,R12*%
X107700000Y-127680000D03*
X107700000Y-129320000D03*
%TD*%
%TO.C,R18*%
X115700000Y-127680000D03*
X115700000Y-129320000D03*
%TD*%
%TO.C,R21*%
X121700000Y-127680000D03*
X121700000Y-129320000D03*
%TD*%
%TO.C,R20*%
X119700000Y-127680000D03*
X119700000Y-129320000D03*
%TD*%
D11*
%TO.C,D5*%
X111700000Y-132290000D03*
X111700000Y-130710000D03*
%TD*%
%TO.C,D2*%
X107700000Y-132290000D03*
X107700000Y-130710000D03*
%TD*%
D10*
%TO.C,R16*%
X111700000Y-127680000D03*
X111700000Y-129320000D03*
%TD*%
D11*
%TO.C,D4*%
X109700000Y-132290000D03*
X109700000Y-130710000D03*
%TD*%
D10*
%TO.C,R19*%
X117700000Y-127680000D03*
X117700000Y-129320000D03*
%TD*%
%TO.C,R17*%
X113700000Y-127680000D03*
X113700000Y-129320000D03*
%TD*%
D12*
%TO.C,U1*%
X147875000Y-101337500D03*
X147225000Y-101337500D03*
X146575000Y-101337500D03*
X145925000Y-101337500D03*
X145275000Y-101337500D03*
X144625000Y-101337500D03*
X143975000Y-101337500D03*
X143325000Y-101337500D03*
X142675000Y-101337500D03*
X142025000Y-101337500D03*
X141375000Y-101337500D03*
X140725000Y-101337500D03*
X140725000Y-107062500D03*
X141375000Y-107062500D03*
X142025000Y-107062500D03*
X142675000Y-107062500D03*
X143325000Y-107062500D03*
X143975000Y-107062500D03*
X144625000Y-107062500D03*
X145275000Y-107062500D03*
X145925000Y-107062500D03*
X146575000Y-107062500D03*
X147225000Y-107062500D03*
X147875000Y-107062500D03*
%TD*%
D13*
%TO.C,R3*%
X155900000Y-107980000D03*
X155900000Y-109620000D03*
%TD*%
D14*
%TO.C,U3*%
X163450000Y-99700000D03*
X162800000Y-99700000D03*
X162150000Y-99700000D03*
X161500000Y-99700000D03*
X160860000Y-99700000D03*
X160200000Y-99700000D03*
X159560000Y-99700000D03*
X158910000Y-99700000D03*
X158260000Y-99700000D03*
X157610000Y-99700000D03*
X157610000Y-105420000D03*
X158260000Y-105420000D03*
X158910000Y-105420000D03*
X159560000Y-105420000D03*
X160200000Y-105420000D03*
X160860000Y-105420000D03*
X161500000Y-105420000D03*
X162150000Y-105420000D03*
X162800000Y-105420000D03*
X163450000Y-105420000D03*
%TD*%
D11*
%TO.C,D18*%
X141800000Y-130710000D03*
X141800000Y-132290000D03*
%TD*%
%TO.C,D10*%
X121700000Y-130710000D03*
X121700000Y-132290000D03*
%TD*%
D15*
%TO.C,U4*%
X93970000Y-99185000D03*
X93970000Y-96885000D03*
X93970000Y-94585000D03*
D16*
X88000000Y-96885000D03*
%TD*%
D10*
%TO.C,R27*%
X137800000Y-129320000D03*
X137800000Y-127680000D03*
%TD*%
D17*
%TO.C,J2*%
X108950000Y-93038272D03*
X108950000Y-98078272D03*
X111490000Y-93038272D03*
X111490000Y-98078272D03*
X114030000Y-93038272D03*
X114030000Y-98078272D03*
X116570000Y-93038272D03*
X116570000Y-98078272D03*
X119110000Y-93038272D03*
X119110000Y-98078272D03*
X121650000Y-93038272D03*
X121650000Y-98078272D03*
X124190000Y-93038272D03*
X124190000Y-98078272D03*
X126730000Y-93038272D03*
X126730000Y-98078272D03*
X129270000Y-93038272D03*
X129270000Y-98078272D03*
X131810000Y-93038272D03*
X131810000Y-98078272D03*
X134350000Y-93038272D03*
X134350000Y-98078272D03*
X136890000Y-93038272D03*
X136890000Y-98078272D03*
X139430000Y-93038272D03*
X139430000Y-98078272D03*
X141970000Y-93038272D03*
X141970000Y-98078272D03*
X144510000Y-93038272D03*
X144510000Y-98078272D03*
X147050000Y-93038272D03*
X147050000Y-98078272D03*
%TD*%
D18*
%TO.C,C16*%
X96060000Y-94585000D03*
X97620000Y-94585000D03*
%TD*%
D11*
%TO.C,D13*%
X131800000Y-130710000D03*
X131800000Y-132290000D03*
%TD*%
%TO.C,D16*%
X137800000Y-130710000D03*
X137800000Y-132290000D03*
%TD*%
D13*
%TO.C,R6*%
X153000000Y-105180000D03*
X153000000Y-106820000D03*
%TD*%
D18*
%TO.C,C18*%
X96160000Y-96885000D03*
X97720000Y-96885000D03*
%TD*%
D11*
%TO.C,D12*%
X129800000Y-130710000D03*
X129800000Y-132290000D03*
%TD*%
D10*
%TO.C,R8*%
X152694704Y-101780539D03*
X152694704Y-100140539D03*
%TD*%
D19*
%TO.C,D3*%
X175375000Y-98005000D03*
X176955000Y-98005000D03*
%TD*%
D13*
%TO.C,R9*%
X151600000Y-105180000D03*
X151600000Y-106820000D03*
%TD*%
D10*
%TO.C,R28*%
X139800000Y-129320000D03*
X139800000Y-127680000D03*
%TD*%
%TO.C,R1*%
X150694704Y-101780539D03*
X150694704Y-100140539D03*
%TD*%
%TO.C,R26*%
X135800000Y-129320000D03*
X135800000Y-127680000D03*
%TD*%
D13*
%TO.C,R2*%
X154694704Y-100140539D03*
X154694704Y-101780539D03*
%TD*%
D20*
%TO.C,X1*%
X159430000Y-94060000D03*
X159430000Y-96260000D03*
X161190000Y-96260000D03*
X161190000Y-94060000D03*
%TD*%
D21*
%TO.C,C5*%
X157810000Y-94380000D03*
X157810000Y-95940000D03*
%TD*%
D10*
%TO.C,R24*%
X131800000Y-129320000D03*
X131800000Y-127680000D03*
%TD*%
D18*
%TO.C,C3*%
X157850000Y-97860000D03*
X159410000Y-97860000D03*
%TD*%
D22*
%TO.C,C1*%
X149050000Y-106980000D03*
X149050000Y-105420000D03*
%TD*%
D11*
%TO.C,D15*%
X135800000Y-130710000D03*
X135800000Y-132290000D03*
%TD*%
D23*
%TO.C,S1*%
X171625000Y-102300000D03*
X175775000Y-102300000D03*
%TD*%
D22*
%TO.C,C4*%
X162510000Y-96040000D03*
X162510000Y-94480000D03*
%TD*%
D11*
%TO.C,D14*%
X133800000Y-130710000D03*
X133800000Y-132290000D03*
%TD*%
D10*
%TO.C,R23*%
X129800000Y-129320000D03*
X129800000Y-127680000D03*
%TD*%
%TO.C,R25*%
X133800000Y-129320000D03*
X133800000Y-127680000D03*
%TD*%
%TO.C,R10*%
X168800000Y-102920000D03*
X168800000Y-101280000D03*
%TD*%
D13*
%TO.C,R4*%
X156200000Y-98180000D03*
X156200000Y-99820000D03*
%TD*%
D10*
%TO.C,R29*%
X141800000Y-129320000D03*
X141800000Y-127680000D03*
%TD*%
D24*
%TO.C,R7*%
X172280000Y-98000000D03*
X173920000Y-98000000D03*
%TD*%
D11*
%TO.C,D17*%
X139800000Y-130710000D03*
X139800000Y-132290000D03*
%TD*%
M02*
