%TF.GenerationSoftware,KiCad,Pcbnew,10.0.1*%
%TF.CreationDate,2026-06-23T18:22:49+02:00*%
%TF.ProjectId,MMS3_hat_templates,4d4d5333-5f68-4617-945f-74656d706c61,R0*%
%TF.SameCoordinates,Original*%
%TF.FileFunction,Legend,Top*%
%TF.FilePolarity,Positive*%
%FSLAX46Y46*%
G04 Gerber Fmt 4.6, Leading zero omitted, Abs format (unit mm)*
G04 Created by KiCad (PCBNEW 10.0.1) date 2026-06-23 18:22:49*
%MOMM*%
%LPD*%
G01*
G04 APERTURE LIST*
G04 Aperture macros list*
%AMRoundRect*
0 Rectangle with rounded corners*
0 $1 Rounding radius*
0 $2 $3 $4 $5 $6 $7 $8 $9 X,Y pos of 4 corners*
0 Add a 4 corners polygon primitive as box body*
4,1,4,$2,$3,$4,$5,$6,$7,$8,$9,$2,$3,0*
0 Add four circle primitives for the rounded corners*
1,1,$1+$1,$2,$3*
1,1,$1+$1,$4,$5*
1,1,$1+$1,$6,$7*
1,1,$1+$1,$8,$9*
0 Add four rect primitives between the rounded corners*
20,1,$1+$1,$2,$3,$4,$5,0*
20,1,$1+$1,$4,$5,$6,$7,0*
20,1,$1+$1,$6,$7,$8,$9,0*
20,1,$1+$1,$8,$9,$2,$3,0*%
G04 Aperture macros list end*
%ADD10C,0.500000*%
%ADD11C,0.100000*%
%ADD12C,0.150000*%
%ADD13C,0.187500*%
%ADD14C,0.120000*%
%ADD15C,0.127000*%
%ADD16RoundRect,0.219000X0.294000X-0.219000X0.294000X0.219000X-0.294000X0.219000X-0.294000X-0.219000X0*%
%ADD17RoundRect,0.239000X-0.274000X0.239000X-0.274000X-0.239000X0.274000X-0.239000X0.274000X0.239000X0*%
%ADD18RoundRect,0.100000X-0.100000X0.637500X-0.100000X-0.637500X0.100000X-0.637500X0.100000X0.637500X0*%
%ADD19RoundRect,0.219000X-0.294000X0.219000X-0.294000X-0.219000X0.294000X-0.219000X0.294000X0.219000X0*%
%ADD20RoundRect,0.100000X-0.100000X0.640000X-0.100000X-0.640000X0.100000X-0.640000X0.100000X0.640000X0*%
%ADD21RoundRect,0.250000X-1.000000X-0.300000X1.000000X-0.300000X1.000000X0.300000X-1.000000X0.300000X0*%
%ADD22C,0.500000*%
%ADD23RoundRect,0.250000X-0.920000X-1.550000X0.920000X-1.550000X0.920000X1.550000X-0.920000X1.550000X0*%
%ADD24C,3.100000*%
%ADD25C,4.700000*%
%ADD26R,1.000000X3.000000*%
%ADD27RoundRect,0.244000X-0.244000X-0.269000X0.244000X-0.269000X0.244000X0.269000X-0.244000X0.269000X0*%
%ADD28C,1.296000*%
%ADD29RoundRect,0.239000X-0.239000X-0.274000X0.239000X-0.274000X0.239000X0.274000X-0.239000X0.274000X0*%
%ADD30C,2.700000*%
%ADD31RoundRect,0.250000X-0.350000X0.450000X-0.350000X-0.450000X0.350000X-0.450000X0.350000X0.450000X0*%
%ADD32RoundRect,0.244000X-0.269000X0.244000X-0.269000X-0.244000X0.269000X-0.244000X0.269000X0.244000X0*%
%ADD33RoundRect,0.244000X0.269000X-0.244000X0.269000X0.244000X-0.269000X0.244000X-0.269000X-0.244000X0*%
%ADD34RoundRect,0.287778X-0.489222X-0.714222X0.489222X-0.714222X0.489222X0.714222X-0.489222X0.714222X0*%
%ADD35R,1.700000X1.700000*%
%ADD36C,1.700000*%
%ADD37RoundRect,0.219000X-0.219000X-0.294000X0.219000X-0.294000X0.219000X0.294000X-0.219000X0.294000X0*%
G04 APERTURE END LIST*
D10*
G36*
X152478102Y-131934392D02*
G01*
X152539773Y-131996063D01*
X152614286Y-132145087D01*
X152614286Y-132741340D01*
X152539773Y-132890364D01*
X152478101Y-132952035D01*
X152329078Y-133026547D01*
X151970922Y-133026547D01*
X151923810Y-133002991D01*
X151923810Y-131883436D01*
X151970922Y-131859880D01*
X152329078Y-131859880D01*
X152478102Y-131934392D01*
G37*
G36*
X146406671Y-131101058D02*
G01*
X146567115Y-131261502D01*
X146661905Y-131640655D01*
X146661905Y-132412438D01*
X146567115Y-132791592D01*
X146406672Y-132952035D01*
X146257650Y-133026547D01*
X145899493Y-133026547D01*
X145750470Y-132952035D01*
X145590027Y-132791592D01*
X145495238Y-132412435D01*
X145495238Y-131640658D01*
X145590027Y-131261502D01*
X145750471Y-131101058D01*
X145899493Y-131026547D01*
X146257649Y-131026547D01*
X146406671Y-131101058D01*
G37*
G36*
X157315832Y-134632854D02*
G01*
X144717460Y-134632854D01*
X144717460Y-131609880D01*
X144995238Y-131609880D01*
X144995238Y-132443214D01*
X144996076Y-132451722D01*
X144995534Y-132455366D01*
X144998233Y-132473621D01*
X145000042Y-132491987D01*
X145001451Y-132495389D01*
X145002702Y-132503848D01*
X145121751Y-132980039D01*
X145138240Y-133026190D01*
X145149305Y-133041124D01*
X145156418Y-133058296D01*
X145187509Y-133096180D01*
X145425604Y-133334276D01*
X145444775Y-133350009D01*
X145449102Y-133354998D01*
X145456623Y-133359732D01*
X145463489Y-133365367D01*
X145469585Y-133367892D01*
X145490578Y-133381107D01*
X145728673Y-133500154D01*
X145774445Y-133517669D01*
X145783404Y-133518305D01*
X145791703Y-133521743D01*
X145840476Y-133526547D01*
X146316667Y-133526547D01*
X146365440Y-133521743D01*
X146373738Y-133518305D01*
X146382698Y-133517669D01*
X146428470Y-133500154D01*
X146666565Y-133381107D01*
X146687556Y-133367892D01*
X146693654Y-133365367D01*
X146700521Y-133359730D01*
X146708040Y-133354998D01*
X146712364Y-133350012D01*
X146731539Y-133334276D01*
X146969634Y-133096180D01*
X147000725Y-133058296D01*
X147007838Y-133041123D01*
X147018903Y-133026190D01*
X147035393Y-132980038D01*
X147154441Y-132503848D01*
X147155691Y-132495389D01*
X147157101Y-132491987D01*
X147158909Y-132473621D01*
X147161609Y-132455366D01*
X147161066Y-132451722D01*
X147161905Y-132443214D01*
X147161905Y-131609880D01*
X147733334Y-131609880D01*
X147733334Y-132919404D01*
X147738138Y-132968177D01*
X147741575Y-132976475D01*
X147742212Y-132985434D01*
X147759727Y-133031207D01*
X147878774Y-133269303D01*
X147883908Y-133277459D01*
X147885191Y-133281307D01*
X147889346Y-133286098D01*
X147904882Y-133310778D01*
X147928564Y-133331317D01*
X147949102Y-133354998D01*
X147973778Y-133370531D01*
X147978573Y-133374690D01*
X147982422Y-133375973D01*
X147990578Y-133381107D01*
X148228673Y-133500154D01*
X148274445Y-133517669D01*
X148283404Y-133518305D01*
X148291703Y-133521743D01*
X148340476Y-133526547D01*
X148697619Y-133526547D01*
X148746392Y-133521743D01*
X148754690Y-133518305D01*
X148763649Y-133517669D01*
X148809422Y-133500154D01*
X148890880Y-133459425D01*
X148915869Y-133484414D01*
X149005989Y-133521743D01*
X149103535Y-133521743D01*
X149193655Y-133484414D01*
X149262629Y-133415440D01*
X149299958Y-133325320D01*
X149304762Y-133276547D01*
X149304762Y-131609880D01*
X149299958Y-131561107D01*
X149642900Y-131561107D01*
X149642900Y-131658653D01*
X149680229Y-131748773D01*
X149749203Y-131817747D01*
X149839323Y-131855076D01*
X149888096Y-131859880D01*
X149995239Y-131859880D01*
X149995239Y-132919404D01*
X150000043Y-132968177D01*
X150003480Y-132976475D01*
X150004117Y-132985434D01*
X150021632Y-133031207D01*
X150140679Y-133269303D01*
X150145813Y-133277459D01*
X150147096Y-133281307D01*
X150151251Y-133286098D01*
X150166787Y-133310778D01*
X150190469Y-133331317D01*
X150211007Y-133354998D01*
X150235683Y-133370531D01*
X150240478Y-133374690D01*
X150244327Y-133375973D01*
X150252483Y-133381107D01*
X150490578Y-133500154D01*
X150536350Y-133517669D01*
X150545309Y-133518305D01*
X150553608Y-133521743D01*
X150602381Y-133526547D01*
X150840477Y-133526547D01*
X150889250Y-133521743D01*
X150979370Y-133484414D01*
X151048344Y-133415440D01*
X151085673Y-133325320D01*
X151085673Y-133227774D01*
X151048344Y-133137654D01*
X150979370Y-133068680D01*
X150889250Y-133031351D01*
X150840477Y-133026547D01*
X150661398Y-133026547D01*
X150550625Y-132971160D01*
X150495239Y-132860387D01*
X150495239Y-131859880D01*
X150840477Y-131859880D01*
X150889250Y-131855076D01*
X150979370Y-131817747D01*
X151048344Y-131748773D01*
X151085673Y-131658653D01*
X151085673Y-131609880D01*
X151423810Y-131609880D01*
X151423810Y-134109880D01*
X151428614Y-134158653D01*
X151465943Y-134248773D01*
X151534917Y-134317747D01*
X151625037Y-134355076D01*
X151722583Y-134355076D01*
X151812703Y-134317747D01*
X151881677Y-134248773D01*
X151919006Y-134158653D01*
X151923810Y-134109880D01*
X151923810Y-133526547D01*
X152388095Y-133526547D01*
X152436868Y-133521743D01*
X152445166Y-133518305D01*
X152454125Y-133517669D01*
X152499898Y-133500154D01*
X152737994Y-133381107D01*
X152758985Y-133367893D01*
X152765084Y-133365367D01*
X152771950Y-133359732D01*
X152779469Y-133354999D01*
X152783795Y-133350011D01*
X152802968Y-133334276D01*
X152922016Y-133215228D01*
X152937749Y-133196055D01*
X152942736Y-133191731D01*
X152947470Y-133184210D01*
X152953106Y-133177343D01*
X152955631Y-133171246D01*
X152968845Y-133150256D01*
X153087893Y-132912160D01*
X153105408Y-132866388D01*
X153106044Y-132857428D01*
X153109482Y-132849130D01*
X153114286Y-132800357D01*
X153114286Y-132086071D01*
X153109482Y-132037298D01*
X153106044Y-132028999D01*
X153105408Y-132020040D01*
X153087893Y-131974268D01*
X152968845Y-131736172D01*
X152955631Y-131715181D01*
X152953106Y-131709085D01*
X152947470Y-131702217D01*
X152942736Y-131694697D01*
X152937749Y-131690372D01*
X152922016Y-131671200D01*
X152860696Y-131609880D01*
X153685715Y-131609880D01*
X153685715Y-132919404D01*
X153690519Y-132968177D01*
X153693956Y-132976475D01*
X153694593Y-132985434D01*
X153712108Y-133031207D01*
X153831155Y-133269303D01*
X153836289Y-133277459D01*
X153837572Y-133281307D01*
X153841727Y-133286098D01*
X153857263Y-133310778D01*
X153880945Y-133331317D01*
X153901483Y-133354998D01*
X153926159Y-133370531D01*
X153930954Y-133374690D01*
X153934803Y-133375973D01*
X153942959Y-133381107D01*
X154181054Y-133500154D01*
X154226826Y-133517669D01*
X154235785Y-133518305D01*
X154244084Y-133521743D01*
X154292857Y-133526547D01*
X154650000Y-133526547D01*
X154698773Y-133521743D01*
X154707071Y-133518305D01*
X154716030Y-133517669D01*
X154761803Y-133500154D01*
X154843261Y-133459425D01*
X154868250Y-133484414D01*
X154958370Y-133521743D01*
X155055916Y-133521743D01*
X155146036Y-133484414D01*
X155215010Y-133415440D01*
X155252339Y-133325320D01*
X155257143Y-133276547D01*
X155257143Y-131609880D01*
X155252339Y-131561107D01*
X155595281Y-131561107D01*
X155595281Y-131658653D01*
X155632610Y-131748773D01*
X155701584Y-131817747D01*
X155791704Y-131855076D01*
X155840477Y-131859880D01*
X155947620Y-131859880D01*
X155947620Y-132919404D01*
X155952424Y-132968177D01*
X155955861Y-132976475D01*
X155956498Y-132985434D01*
X155974013Y-133031207D01*
X156093060Y-133269303D01*
X156098194Y-133277459D01*
X156099477Y-133281307D01*
X156103632Y-133286098D01*
X156119168Y-133310778D01*
X156142850Y-133331317D01*
X156163388Y-133354998D01*
X156188064Y-133370531D01*
X156192859Y-133374690D01*
X156196708Y-133375973D01*
X156204864Y-133381107D01*
X156442959Y-133500154D01*
X156488731Y-133517669D01*
X156497690Y-133518305D01*
X156505989Y-133521743D01*
X156554762Y-133526547D01*
X156792858Y-133526547D01*
X156841631Y-133521743D01*
X156931751Y-133484414D01*
X157000725Y-133415440D01*
X157038054Y-133325320D01*
X157038054Y-133227774D01*
X157000725Y-133137654D01*
X156931751Y-133068680D01*
X156841631Y-133031351D01*
X156792858Y-133026547D01*
X156613779Y-133026547D01*
X156503006Y-132971160D01*
X156447620Y-132860387D01*
X156447620Y-131859880D01*
X156792858Y-131859880D01*
X156841631Y-131855076D01*
X156931751Y-131817747D01*
X157000725Y-131748773D01*
X157038054Y-131658653D01*
X157038054Y-131561107D01*
X157000725Y-131470987D01*
X156931751Y-131402013D01*
X156841631Y-131364684D01*
X156792858Y-131359880D01*
X156447620Y-131359880D01*
X156447620Y-130776547D01*
X156442816Y-130727774D01*
X156405487Y-130637654D01*
X156336513Y-130568680D01*
X156246393Y-130531351D01*
X156148847Y-130531351D01*
X156058727Y-130568680D01*
X155989753Y-130637654D01*
X155952424Y-130727774D01*
X155947620Y-130776547D01*
X155947620Y-131359880D01*
X155840477Y-131359880D01*
X155791704Y-131364684D01*
X155701584Y-131402013D01*
X155632610Y-131470987D01*
X155595281Y-131561107D01*
X155252339Y-131561107D01*
X155215010Y-131470987D01*
X155146036Y-131402013D01*
X155055916Y-131364684D01*
X154958370Y-131364684D01*
X154868250Y-131402013D01*
X154799276Y-131470987D01*
X154761947Y-131561107D01*
X154757143Y-131609880D01*
X154757143Y-132934899D01*
X154740006Y-132952035D01*
X154590983Y-133026547D01*
X154351874Y-133026547D01*
X154241101Y-132971160D01*
X154185715Y-132860387D01*
X154185715Y-131609880D01*
X154180911Y-131561107D01*
X154143582Y-131470987D01*
X154074608Y-131402013D01*
X153984488Y-131364684D01*
X153886942Y-131364684D01*
X153796822Y-131402013D01*
X153727848Y-131470987D01*
X153690519Y-131561107D01*
X153685715Y-131609880D01*
X152860696Y-131609880D01*
X152802968Y-131552152D01*
X152783795Y-131536417D01*
X152779470Y-131531430D01*
X152771951Y-131526697D01*
X152765084Y-131521061D01*
X152758984Y-131518534D01*
X152737994Y-131505321D01*
X152499898Y-131386273D01*
X152454126Y-131368758D01*
X152445166Y-131368121D01*
X152436868Y-131364684D01*
X152388095Y-131359880D01*
X151911905Y-131359880D01*
X151863132Y-131364684D01*
X151854833Y-131368121D01*
X151845874Y-131368758D01*
X151800102Y-131386273D01*
X151788594Y-131392026D01*
X151722583Y-131364684D01*
X151625037Y-131364684D01*
X151534917Y-131402013D01*
X151465943Y-131470987D01*
X151428614Y-131561107D01*
X151423810Y-131609880D01*
X151085673Y-131609880D01*
X151085673Y-131561107D01*
X151048344Y-131470987D01*
X150979370Y-131402013D01*
X150889250Y-131364684D01*
X150840477Y-131359880D01*
X150495239Y-131359880D01*
X150495239Y-130776547D01*
X150490435Y-130727774D01*
X150453106Y-130637654D01*
X150384132Y-130568680D01*
X150294012Y-130531351D01*
X150196466Y-130531351D01*
X150106346Y-130568680D01*
X150037372Y-130637654D01*
X150000043Y-130727774D01*
X149995239Y-130776547D01*
X149995239Y-131359880D01*
X149888096Y-131359880D01*
X149839323Y-131364684D01*
X149749203Y-131402013D01*
X149680229Y-131470987D01*
X149642900Y-131561107D01*
X149299958Y-131561107D01*
X149262629Y-131470987D01*
X149193655Y-131402013D01*
X149103535Y-131364684D01*
X149005989Y-131364684D01*
X148915869Y-131402013D01*
X148846895Y-131470987D01*
X148809566Y-131561107D01*
X148804762Y-131609880D01*
X148804762Y-132934899D01*
X148787625Y-132952035D01*
X148638602Y-133026547D01*
X148399493Y-133026547D01*
X148288720Y-132971160D01*
X148233334Y-132860387D01*
X148233334Y-131609880D01*
X148228530Y-131561107D01*
X148191201Y-131470987D01*
X148122227Y-131402013D01*
X148032107Y-131364684D01*
X147934561Y-131364684D01*
X147844441Y-131402013D01*
X147775467Y-131470987D01*
X147738138Y-131561107D01*
X147733334Y-131609880D01*
X147161905Y-131609880D01*
X147161066Y-131601371D01*
X147161609Y-131597728D01*
X147158909Y-131579472D01*
X147157101Y-131561107D01*
X147155691Y-131557704D01*
X147154441Y-131549246D01*
X147035393Y-131073056D01*
X147018903Y-131026904D01*
X147007835Y-131011967D01*
X147000724Y-130994798D01*
X146969634Y-130956913D01*
X146731539Y-130718818D01*
X146712369Y-130703086D01*
X146708042Y-130698097D01*
X146700517Y-130693360D01*
X146693654Y-130687728D01*
X146687558Y-130685203D01*
X146666566Y-130671989D01*
X146428471Y-130552940D01*
X146382698Y-130535425D01*
X146373738Y-130534788D01*
X146365440Y-130531351D01*
X146316667Y-130526547D01*
X145840476Y-130526547D01*
X145791703Y-130531351D01*
X145783404Y-130534788D01*
X145774445Y-130535425D01*
X145728673Y-130552940D01*
X145490577Y-130671988D01*
X145469583Y-130685203D01*
X145463489Y-130687728D01*
X145456623Y-130693362D01*
X145449102Y-130698097D01*
X145444776Y-130703084D01*
X145425604Y-130718818D01*
X145187509Y-130956913D01*
X145156419Y-130994798D01*
X145149307Y-131011967D01*
X145138240Y-131026904D01*
X145121751Y-131073055D01*
X145002702Y-131549246D01*
X145001451Y-131557704D01*
X145000042Y-131561107D01*
X144998233Y-131579472D01*
X144995534Y-131597728D01*
X144996076Y-131601371D01*
X144995238Y-131609880D01*
X144717460Y-131609880D01*
X144717460Y-130248769D01*
X157315832Y-130248769D01*
X157315832Y-134632854D01*
G37*
G36*
X99749530Y-132534392D02*
G01*
X99811201Y-132596063D01*
X99885714Y-132745087D01*
X99885714Y-133341340D01*
X99811201Y-133490364D01*
X99749529Y-133552035D01*
X99600506Y-133626547D01*
X99242350Y-133626547D01*
X99195238Y-133602991D01*
X99195238Y-132483436D01*
X99242350Y-132459880D01*
X99600506Y-132459880D01*
X99749530Y-132534392D01*
G37*
G36*
X104587260Y-135232854D02*
G01*
X94965079Y-135232854D01*
X94965079Y-131376547D01*
X95242857Y-131376547D01*
X95242857Y-133876547D01*
X95247661Y-133925320D01*
X95284990Y-134015440D01*
X95353964Y-134084414D01*
X95444084Y-134121743D01*
X95541630Y-134121743D01*
X95631750Y-134084414D01*
X95700724Y-134015440D01*
X95738053Y-133925320D01*
X95742857Y-133876547D01*
X95742857Y-132209880D01*
X96433333Y-132209880D01*
X96433333Y-133876547D01*
X96438137Y-133925320D01*
X96475466Y-134015440D01*
X96544440Y-134084414D01*
X96634560Y-134121743D01*
X96732106Y-134121743D01*
X96822226Y-134084414D01*
X96891200Y-134015440D01*
X96928529Y-133925320D01*
X96933333Y-133876547D01*
X96933333Y-132551529D01*
X96950470Y-132534391D01*
X97099492Y-132459880D01*
X97338601Y-132459880D01*
X97449375Y-132515267D01*
X97504761Y-132626039D01*
X97504761Y-133876547D01*
X97509565Y-133925320D01*
X97546894Y-134015440D01*
X97615868Y-134084414D01*
X97705988Y-134121743D01*
X97803534Y-134121743D01*
X97893654Y-134084414D01*
X97962628Y-134015440D01*
X97999957Y-133925320D01*
X98004761Y-133876547D01*
X98004761Y-132567023D01*
X97999957Y-132518250D01*
X97996519Y-132509951D01*
X97995883Y-132500992D01*
X97978368Y-132455220D01*
X97859321Y-132217125D01*
X97854760Y-132209880D01*
X98695238Y-132209880D01*
X98695238Y-134709880D01*
X98700042Y-134758653D01*
X98737371Y-134848773D01*
X98806345Y-134917747D01*
X98896465Y-134955076D01*
X98994011Y-134955076D01*
X99084131Y-134917747D01*
X99153105Y-134848773D01*
X99190434Y-134758653D01*
X99195238Y-134709880D01*
X99195238Y-134126547D01*
X99659523Y-134126547D01*
X99708296Y-134121743D01*
X99716594Y-134118305D01*
X99725553Y-134117669D01*
X99771326Y-134100154D01*
X100009422Y-133981107D01*
X100030413Y-133967893D01*
X100036512Y-133965367D01*
X100043378Y-133959732D01*
X100050897Y-133954999D01*
X100055223Y-133950011D01*
X100074396Y-133934276D01*
X100193444Y-133815228D01*
X100209177Y-133796055D01*
X100214164Y-133791731D01*
X100218898Y-133784210D01*
X100224534Y-133777343D01*
X100227059Y-133771246D01*
X100240273Y-133750256D01*
X100359321Y-133512160D01*
X100376836Y-133466388D01*
X100377472Y-133457428D01*
X100380910Y-133449130D01*
X100385714Y-133400357D01*
X100385714Y-132686071D01*
X100380910Y-132637298D01*
X100377472Y-132628999D01*
X100376836Y-132620040D01*
X100359321Y-132574268D01*
X100240273Y-132336172D01*
X100227059Y-132315181D01*
X100224534Y-132309085D01*
X100218898Y-132302217D01*
X100214164Y-132294697D01*
X100209177Y-132290372D01*
X100193444Y-132271200D01*
X100132124Y-132209880D01*
X100957143Y-132209880D01*
X100957143Y-133519404D01*
X100961947Y-133568177D01*
X100965384Y-133576475D01*
X100966021Y-133585434D01*
X100983536Y-133631207D01*
X101102583Y-133869303D01*
X101107717Y-133877459D01*
X101109000Y-133881307D01*
X101113155Y-133886098D01*
X101128691Y-133910778D01*
X101152373Y-133931317D01*
X101172911Y-133954998D01*
X101197587Y-133970531D01*
X101202382Y-133974690D01*
X101206231Y-133975973D01*
X101214387Y-133981107D01*
X101452482Y-134100154D01*
X101498254Y-134117669D01*
X101507213Y-134118305D01*
X101515512Y-134121743D01*
X101564285Y-134126547D01*
X101921428Y-134126547D01*
X101970201Y-134121743D01*
X101978499Y-134118305D01*
X101987458Y-134117669D01*
X102033231Y-134100154D01*
X102114689Y-134059425D01*
X102139678Y-134084414D01*
X102229798Y-134121743D01*
X102327344Y-134121743D01*
X102417464Y-134084414D01*
X102486438Y-134015440D01*
X102523767Y-133925320D01*
X102528571Y-133876547D01*
X102528571Y-132209880D01*
X102523767Y-132161107D01*
X102866709Y-132161107D01*
X102866709Y-132258653D01*
X102904038Y-132348773D01*
X102973012Y-132417747D01*
X103063132Y-132455076D01*
X103111905Y-132459880D01*
X103219048Y-132459880D01*
X103219048Y-133519404D01*
X103223852Y-133568177D01*
X103227289Y-133576475D01*
X103227926Y-133585434D01*
X103245441Y-133631207D01*
X103364488Y-133869303D01*
X103369622Y-133877459D01*
X103370905Y-133881307D01*
X103375060Y-133886098D01*
X103390596Y-133910778D01*
X103414278Y-133931317D01*
X103434816Y-133954998D01*
X103459492Y-133970531D01*
X103464287Y-133974690D01*
X103468136Y-133975973D01*
X103476292Y-133981107D01*
X103714387Y-134100154D01*
X103760159Y-134117669D01*
X103769118Y-134118305D01*
X103777417Y-134121743D01*
X103826190Y-134126547D01*
X104064286Y-134126547D01*
X104113059Y-134121743D01*
X104203179Y-134084414D01*
X104272153Y-134015440D01*
X104309482Y-133925320D01*
X104309482Y-133827774D01*
X104272153Y-133737654D01*
X104203179Y-133668680D01*
X104113059Y-133631351D01*
X104064286Y-133626547D01*
X103885207Y-133626547D01*
X103774434Y-133571160D01*
X103719048Y-133460387D01*
X103719048Y-132459880D01*
X104064286Y-132459880D01*
X104113059Y-132455076D01*
X104203179Y-132417747D01*
X104272153Y-132348773D01*
X104309482Y-132258653D01*
X104309482Y-132161107D01*
X104272153Y-132070987D01*
X104203179Y-132002013D01*
X104113059Y-131964684D01*
X104064286Y-131959880D01*
X103719048Y-131959880D01*
X103719048Y-131376547D01*
X103714244Y-131327774D01*
X103676915Y-131237654D01*
X103607941Y-131168680D01*
X103517821Y-131131351D01*
X103420275Y-131131351D01*
X103330155Y-131168680D01*
X103261181Y-131237654D01*
X103223852Y-131327774D01*
X103219048Y-131376547D01*
X103219048Y-131959880D01*
X103111905Y-131959880D01*
X103063132Y-131964684D01*
X102973012Y-132002013D01*
X102904038Y-132070987D01*
X102866709Y-132161107D01*
X102523767Y-132161107D01*
X102486438Y-132070987D01*
X102417464Y-132002013D01*
X102327344Y-131964684D01*
X102229798Y-131964684D01*
X102139678Y-132002013D01*
X102070704Y-132070987D01*
X102033375Y-132161107D01*
X102028571Y-132209880D01*
X102028571Y-133534899D01*
X102011434Y-133552035D01*
X101862411Y-133626547D01*
X101623302Y-133626547D01*
X101512529Y-133571160D01*
X101457143Y-133460387D01*
X101457143Y-132209880D01*
X101452339Y-132161107D01*
X101415010Y-132070987D01*
X101346036Y-132002013D01*
X101255916Y-131964684D01*
X101158370Y-131964684D01*
X101068250Y-132002013D01*
X100999276Y-132070987D01*
X100961947Y-132161107D01*
X100957143Y-132209880D01*
X100132124Y-132209880D01*
X100074396Y-132152152D01*
X100055223Y-132136417D01*
X100050898Y-132131430D01*
X100043379Y-132126697D01*
X100036512Y-132121061D01*
X100030412Y-132118534D01*
X100009422Y-132105321D01*
X99771326Y-131986273D01*
X99725554Y-131968758D01*
X99716594Y-131968121D01*
X99708296Y-131964684D01*
X99659523Y-131959880D01*
X99183333Y-131959880D01*
X99134560Y-131964684D01*
X99126261Y-131968121D01*
X99117302Y-131968758D01*
X99071530Y-131986273D01*
X99060022Y-131992026D01*
X98994011Y-131964684D01*
X98896465Y-131964684D01*
X98806345Y-132002013D01*
X98737371Y-132070987D01*
X98700042Y-132161107D01*
X98695238Y-132209880D01*
X97854760Y-132209880D01*
X97854186Y-132208968D01*
X97852904Y-132205121D01*
X97848747Y-132200328D01*
X97833212Y-132175649D01*
X97809531Y-132155110D01*
X97788993Y-132131430D01*
X97764313Y-132115894D01*
X97759521Y-132111738D01*
X97755673Y-132110455D01*
X97747517Y-132105321D01*
X97509421Y-131986273D01*
X97463649Y-131968758D01*
X97454689Y-131968121D01*
X97446391Y-131964684D01*
X97397618Y-131959880D01*
X97040475Y-131959880D01*
X96991702Y-131964684D01*
X96983403Y-131968121D01*
X96974444Y-131968758D01*
X96928672Y-131986273D01*
X96847214Y-132027001D01*
X96822226Y-132002013D01*
X96732106Y-131964684D01*
X96634560Y-131964684D01*
X96544440Y-132002013D01*
X96475466Y-132070987D01*
X96438137Y-132161107D01*
X96433333Y-132209880D01*
X95742857Y-132209880D01*
X95742857Y-131376547D01*
X95738053Y-131327774D01*
X95700724Y-131237654D01*
X95631750Y-131168680D01*
X95541630Y-131131351D01*
X95444084Y-131131351D01*
X95353964Y-131168680D01*
X95284990Y-131237654D01*
X95247661Y-131327774D01*
X95242857Y-131376547D01*
X94965079Y-131376547D01*
X94965079Y-130853573D01*
X104587260Y-130853573D01*
X104587260Y-135232854D01*
G37*
D11*
X108109800Y-137079047D02*
X108157419Y-136936190D01*
X108157419Y-136936190D02*
X108157419Y-136698095D01*
X108157419Y-136698095D02*
X108109800Y-136602857D01*
X108109800Y-136602857D02*
X108062180Y-136555238D01*
X108062180Y-136555238D02*
X107966942Y-136507619D01*
X107966942Y-136507619D02*
X107871704Y-136507619D01*
X107871704Y-136507619D02*
X107776466Y-136555238D01*
X107776466Y-136555238D02*
X107728847Y-136602857D01*
X107728847Y-136602857D02*
X107681228Y-136698095D01*
X107681228Y-136698095D02*
X107633609Y-136888571D01*
X107633609Y-136888571D02*
X107585990Y-136983809D01*
X107585990Y-136983809D02*
X107538371Y-137031428D01*
X107538371Y-137031428D02*
X107443133Y-137079047D01*
X107443133Y-137079047D02*
X107347895Y-137079047D01*
X107347895Y-137079047D02*
X107252657Y-137031428D01*
X107252657Y-137031428D02*
X107205038Y-136983809D01*
X107205038Y-136983809D02*
X107157419Y-136888571D01*
X107157419Y-136888571D02*
X107157419Y-136650476D01*
X107157419Y-136650476D02*
X107205038Y-136507619D01*
X107633609Y-136079047D02*
X107633609Y-135745714D01*
X108157419Y-135602857D02*
X108157419Y-136079047D01*
X108157419Y-136079047D02*
X107157419Y-136079047D01*
X107157419Y-136079047D02*
X107157419Y-135602857D01*
X108157419Y-134698095D02*
X108157419Y-135174285D01*
X108157419Y-135174285D02*
X107157419Y-135174285D01*
X108157419Y-133840952D02*
X108157419Y-134412380D01*
X108157419Y-134126666D02*
X107157419Y-134126666D01*
X107157419Y-134126666D02*
X107300276Y-134221904D01*
X107300276Y-134221904D02*
X107395514Y-134317142D01*
X107395514Y-134317142D02*
X107443133Y-134412380D01*
X112109800Y-137079047D02*
X112157419Y-136936190D01*
X112157419Y-136936190D02*
X112157419Y-136698095D01*
X112157419Y-136698095D02*
X112109800Y-136602857D01*
X112109800Y-136602857D02*
X112062180Y-136555238D01*
X112062180Y-136555238D02*
X111966942Y-136507619D01*
X111966942Y-136507619D02*
X111871704Y-136507619D01*
X111871704Y-136507619D02*
X111776466Y-136555238D01*
X111776466Y-136555238D02*
X111728847Y-136602857D01*
X111728847Y-136602857D02*
X111681228Y-136698095D01*
X111681228Y-136698095D02*
X111633609Y-136888571D01*
X111633609Y-136888571D02*
X111585990Y-136983809D01*
X111585990Y-136983809D02*
X111538371Y-137031428D01*
X111538371Y-137031428D02*
X111443133Y-137079047D01*
X111443133Y-137079047D02*
X111347895Y-137079047D01*
X111347895Y-137079047D02*
X111252657Y-137031428D01*
X111252657Y-137031428D02*
X111205038Y-136983809D01*
X111205038Y-136983809D02*
X111157419Y-136888571D01*
X111157419Y-136888571D02*
X111157419Y-136650476D01*
X111157419Y-136650476D02*
X111205038Y-136507619D01*
X111633609Y-136079047D02*
X111633609Y-135745714D01*
X112157419Y-135602857D02*
X112157419Y-136079047D01*
X112157419Y-136079047D02*
X111157419Y-136079047D01*
X111157419Y-136079047D02*
X111157419Y-135602857D01*
X112157419Y-134698095D02*
X112157419Y-135174285D01*
X112157419Y-135174285D02*
X111157419Y-135174285D01*
X111157419Y-134459999D02*
X111157419Y-133840952D01*
X111157419Y-133840952D02*
X111538371Y-134174285D01*
X111538371Y-134174285D02*
X111538371Y-134031428D01*
X111538371Y-134031428D02*
X111585990Y-133936190D01*
X111585990Y-133936190D02*
X111633609Y-133888571D01*
X111633609Y-133888571D02*
X111728847Y-133840952D01*
X111728847Y-133840952D02*
X111966942Y-133840952D01*
X111966942Y-133840952D02*
X112062180Y-133888571D01*
X112062180Y-133888571D02*
X112109800Y-133936190D01*
X112109800Y-133936190D02*
X112157419Y-134031428D01*
X112157419Y-134031428D02*
X112157419Y-134317142D01*
X112157419Y-134317142D02*
X112109800Y-134412380D01*
X112109800Y-134412380D02*
X112062180Y-134459999D01*
X114109800Y-137079047D02*
X114157419Y-136936190D01*
X114157419Y-136936190D02*
X114157419Y-136698095D01*
X114157419Y-136698095D02*
X114109800Y-136602857D01*
X114109800Y-136602857D02*
X114062180Y-136555238D01*
X114062180Y-136555238D02*
X113966942Y-136507619D01*
X113966942Y-136507619D02*
X113871704Y-136507619D01*
X113871704Y-136507619D02*
X113776466Y-136555238D01*
X113776466Y-136555238D02*
X113728847Y-136602857D01*
X113728847Y-136602857D02*
X113681228Y-136698095D01*
X113681228Y-136698095D02*
X113633609Y-136888571D01*
X113633609Y-136888571D02*
X113585990Y-136983809D01*
X113585990Y-136983809D02*
X113538371Y-137031428D01*
X113538371Y-137031428D02*
X113443133Y-137079047D01*
X113443133Y-137079047D02*
X113347895Y-137079047D01*
X113347895Y-137079047D02*
X113252657Y-137031428D01*
X113252657Y-137031428D02*
X113205038Y-136983809D01*
X113205038Y-136983809D02*
X113157419Y-136888571D01*
X113157419Y-136888571D02*
X113157419Y-136650476D01*
X113157419Y-136650476D02*
X113205038Y-136507619D01*
X113633609Y-136079047D02*
X113633609Y-135745714D01*
X114157419Y-135602857D02*
X114157419Y-136079047D01*
X114157419Y-136079047D02*
X113157419Y-136079047D01*
X113157419Y-136079047D02*
X113157419Y-135602857D01*
X114157419Y-134698095D02*
X114157419Y-135174285D01*
X114157419Y-135174285D02*
X113157419Y-135174285D01*
X113490752Y-133936190D02*
X114157419Y-133936190D01*
X113109800Y-134174285D02*
X113824085Y-134412380D01*
X113824085Y-134412380D02*
X113824085Y-133793333D01*
X110109800Y-137079047D02*
X110157419Y-136936190D01*
X110157419Y-136936190D02*
X110157419Y-136698095D01*
X110157419Y-136698095D02*
X110109800Y-136602857D01*
X110109800Y-136602857D02*
X110062180Y-136555238D01*
X110062180Y-136555238D02*
X109966942Y-136507619D01*
X109966942Y-136507619D02*
X109871704Y-136507619D01*
X109871704Y-136507619D02*
X109776466Y-136555238D01*
X109776466Y-136555238D02*
X109728847Y-136602857D01*
X109728847Y-136602857D02*
X109681228Y-136698095D01*
X109681228Y-136698095D02*
X109633609Y-136888571D01*
X109633609Y-136888571D02*
X109585990Y-136983809D01*
X109585990Y-136983809D02*
X109538371Y-137031428D01*
X109538371Y-137031428D02*
X109443133Y-137079047D01*
X109443133Y-137079047D02*
X109347895Y-137079047D01*
X109347895Y-137079047D02*
X109252657Y-137031428D01*
X109252657Y-137031428D02*
X109205038Y-136983809D01*
X109205038Y-136983809D02*
X109157419Y-136888571D01*
X109157419Y-136888571D02*
X109157419Y-136650476D01*
X109157419Y-136650476D02*
X109205038Y-136507619D01*
X109633609Y-136079047D02*
X109633609Y-135745714D01*
X110157419Y-135602857D02*
X110157419Y-136079047D01*
X110157419Y-136079047D02*
X109157419Y-136079047D01*
X109157419Y-136079047D02*
X109157419Y-135602857D01*
X110157419Y-134698095D02*
X110157419Y-135174285D01*
X110157419Y-135174285D02*
X109157419Y-135174285D01*
X109252657Y-134412380D02*
X109205038Y-134364761D01*
X109205038Y-134364761D02*
X109157419Y-134269523D01*
X109157419Y-134269523D02*
X109157419Y-134031428D01*
X109157419Y-134031428D02*
X109205038Y-133936190D01*
X109205038Y-133936190D02*
X109252657Y-133888571D01*
X109252657Y-133888571D02*
X109347895Y-133840952D01*
X109347895Y-133840952D02*
X109443133Y-133840952D01*
X109443133Y-133840952D02*
X109585990Y-133888571D01*
X109585990Y-133888571D02*
X110157419Y-134459999D01*
X110157419Y-134459999D02*
X110157419Y-133840952D01*
X116109800Y-137079047D02*
X116157419Y-136936190D01*
X116157419Y-136936190D02*
X116157419Y-136698095D01*
X116157419Y-136698095D02*
X116109800Y-136602857D01*
X116109800Y-136602857D02*
X116062180Y-136555238D01*
X116062180Y-136555238D02*
X115966942Y-136507619D01*
X115966942Y-136507619D02*
X115871704Y-136507619D01*
X115871704Y-136507619D02*
X115776466Y-136555238D01*
X115776466Y-136555238D02*
X115728847Y-136602857D01*
X115728847Y-136602857D02*
X115681228Y-136698095D01*
X115681228Y-136698095D02*
X115633609Y-136888571D01*
X115633609Y-136888571D02*
X115585990Y-136983809D01*
X115585990Y-136983809D02*
X115538371Y-137031428D01*
X115538371Y-137031428D02*
X115443133Y-137079047D01*
X115443133Y-137079047D02*
X115347895Y-137079047D01*
X115347895Y-137079047D02*
X115252657Y-137031428D01*
X115252657Y-137031428D02*
X115205038Y-136983809D01*
X115205038Y-136983809D02*
X115157419Y-136888571D01*
X115157419Y-136888571D02*
X115157419Y-136650476D01*
X115157419Y-136650476D02*
X115205038Y-136507619D01*
X115633609Y-136079047D02*
X115633609Y-135745714D01*
X116157419Y-135602857D02*
X116157419Y-136079047D01*
X116157419Y-136079047D02*
X115157419Y-136079047D01*
X115157419Y-136079047D02*
X115157419Y-135602857D01*
X116157419Y-134698095D02*
X116157419Y-135174285D01*
X116157419Y-135174285D02*
X115157419Y-135174285D01*
X115157419Y-133888571D02*
X115157419Y-134364761D01*
X115157419Y-134364761D02*
X115633609Y-134412380D01*
X115633609Y-134412380D02*
X115585990Y-134364761D01*
X115585990Y-134364761D02*
X115538371Y-134269523D01*
X115538371Y-134269523D02*
X115538371Y-134031428D01*
X115538371Y-134031428D02*
X115585990Y-133936190D01*
X115585990Y-133936190D02*
X115633609Y-133888571D01*
X115633609Y-133888571D02*
X115728847Y-133840952D01*
X115728847Y-133840952D02*
X115966942Y-133840952D01*
X115966942Y-133840952D02*
X116062180Y-133888571D01*
X116062180Y-133888571D02*
X116109800Y-133936190D01*
X116109800Y-133936190D02*
X116157419Y-134031428D01*
X116157419Y-134031428D02*
X116157419Y-134269523D01*
X116157419Y-134269523D02*
X116109800Y-134364761D01*
X116109800Y-134364761D02*
X116062180Y-134412380D01*
X118109800Y-137079047D02*
X118157419Y-136936190D01*
X118157419Y-136936190D02*
X118157419Y-136698095D01*
X118157419Y-136698095D02*
X118109800Y-136602857D01*
X118109800Y-136602857D02*
X118062180Y-136555238D01*
X118062180Y-136555238D02*
X117966942Y-136507619D01*
X117966942Y-136507619D02*
X117871704Y-136507619D01*
X117871704Y-136507619D02*
X117776466Y-136555238D01*
X117776466Y-136555238D02*
X117728847Y-136602857D01*
X117728847Y-136602857D02*
X117681228Y-136698095D01*
X117681228Y-136698095D02*
X117633609Y-136888571D01*
X117633609Y-136888571D02*
X117585990Y-136983809D01*
X117585990Y-136983809D02*
X117538371Y-137031428D01*
X117538371Y-137031428D02*
X117443133Y-137079047D01*
X117443133Y-137079047D02*
X117347895Y-137079047D01*
X117347895Y-137079047D02*
X117252657Y-137031428D01*
X117252657Y-137031428D02*
X117205038Y-136983809D01*
X117205038Y-136983809D02*
X117157419Y-136888571D01*
X117157419Y-136888571D02*
X117157419Y-136650476D01*
X117157419Y-136650476D02*
X117205038Y-136507619D01*
X117633609Y-136079047D02*
X117633609Y-135745714D01*
X118157419Y-135602857D02*
X118157419Y-136079047D01*
X118157419Y-136079047D02*
X117157419Y-136079047D01*
X117157419Y-136079047D02*
X117157419Y-135602857D01*
X118157419Y-134698095D02*
X118157419Y-135174285D01*
X118157419Y-135174285D02*
X117157419Y-135174285D01*
X117157419Y-133936190D02*
X117157419Y-134126666D01*
X117157419Y-134126666D02*
X117205038Y-134221904D01*
X117205038Y-134221904D02*
X117252657Y-134269523D01*
X117252657Y-134269523D02*
X117395514Y-134364761D01*
X117395514Y-134364761D02*
X117585990Y-134412380D01*
X117585990Y-134412380D02*
X117966942Y-134412380D01*
X117966942Y-134412380D02*
X118062180Y-134364761D01*
X118062180Y-134364761D02*
X118109800Y-134317142D01*
X118109800Y-134317142D02*
X118157419Y-134221904D01*
X118157419Y-134221904D02*
X118157419Y-134031428D01*
X118157419Y-134031428D02*
X118109800Y-133936190D01*
X118109800Y-133936190D02*
X118062180Y-133888571D01*
X118062180Y-133888571D02*
X117966942Y-133840952D01*
X117966942Y-133840952D02*
X117728847Y-133840952D01*
X117728847Y-133840952D02*
X117633609Y-133888571D01*
X117633609Y-133888571D02*
X117585990Y-133936190D01*
X117585990Y-133936190D02*
X117538371Y-134031428D01*
X117538371Y-134031428D02*
X117538371Y-134221904D01*
X117538371Y-134221904D02*
X117585990Y-134317142D01*
X117585990Y-134317142D02*
X117633609Y-134364761D01*
X117633609Y-134364761D02*
X117728847Y-134412380D01*
X120109800Y-137079047D02*
X120157419Y-136936190D01*
X120157419Y-136936190D02*
X120157419Y-136698095D01*
X120157419Y-136698095D02*
X120109800Y-136602857D01*
X120109800Y-136602857D02*
X120062180Y-136555238D01*
X120062180Y-136555238D02*
X119966942Y-136507619D01*
X119966942Y-136507619D02*
X119871704Y-136507619D01*
X119871704Y-136507619D02*
X119776466Y-136555238D01*
X119776466Y-136555238D02*
X119728847Y-136602857D01*
X119728847Y-136602857D02*
X119681228Y-136698095D01*
X119681228Y-136698095D02*
X119633609Y-136888571D01*
X119633609Y-136888571D02*
X119585990Y-136983809D01*
X119585990Y-136983809D02*
X119538371Y-137031428D01*
X119538371Y-137031428D02*
X119443133Y-137079047D01*
X119443133Y-137079047D02*
X119347895Y-137079047D01*
X119347895Y-137079047D02*
X119252657Y-137031428D01*
X119252657Y-137031428D02*
X119205038Y-136983809D01*
X119205038Y-136983809D02*
X119157419Y-136888571D01*
X119157419Y-136888571D02*
X119157419Y-136650476D01*
X119157419Y-136650476D02*
X119205038Y-136507619D01*
X119633609Y-136079047D02*
X119633609Y-135745714D01*
X120157419Y-135602857D02*
X120157419Y-136079047D01*
X120157419Y-136079047D02*
X119157419Y-136079047D01*
X119157419Y-136079047D02*
X119157419Y-135602857D01*
X120157419Y-134698095D02*
X120157419Y-135174285D01*
X120157419Y-135174285D02*
X119157419Y-135174285D01*
X119157419Y-134459999D02*
X119157419Y-133793333D01*
X119157419Y-133793333D02*
X120157419Y-134221904D01*
X122109800Y-137079047D02*
X122157419Y-136936190D01*
X122157419Y-136936190D02*
X122157419Y-136698095D01*
X122157419Y-136698095D02*
X122109800Y-136602857D01*
X122109800Y-136602857D02*
X122062180Y-136555238D01*
X122062180Y-136555238D02*
X121966942Y-136507619D01*
X121966942Y-136507619D02*
X121871704Y-136507619D01*
X121871704Y-136507619D02*
X121776466Y-136555238D01*
X121776466Y-136555238D02*
X121728847Y-136602857D01*
X121728847Y-136602857D02*
X121681228Y-136698095D01*
X121681228Y-136698095D02*
X121633609Y-136888571D01*
X121633609Y-136888571D02*
X121585990Y-136983809D01*
X121585990Y-136983809D02*
X121538371Y-137031428D01*
X121538371Y-137031428D02*
X121443133Y-137079047D01*
X121443133Y-137079047D02*
X121347895Y-137079047D01*
X121347895Y-137079047D02*
X121252657Y-137031428D01*
X121252657Y-137031428D02*
X121205038Y-136983809D01*
X121205038Y-136983809D02*
X121157419Y-136888571D01*
X121157419Y-136888571D02*
X121157419Y-136650476D01*
X121157419Y-136650476D02*
X121205038Y-136507619D01*
X121633609Y-136079047D02*
X121633609Y-135745714D01*
X122157419Y-135602857D02*
X122157419Y-136079047D01*
X122157419Y-136079047D02*
X121157419Y-136079047D01*
X121157419Y-136079047D02*
X121157419Y-135602857D01*
X122157419Y-134698095D02*
X122157419Y-135174285D01*
X122157419Y-135174285D02*
X121157419Y-135174285D01*
X121585990Y-134221904D02*
X121538371Y-134317142D01*
X121538371Y-134317142D02*
X121490752Y-134364761D01*
X121490752Y-134364761D02*
X121395514Y-134412380D01*
X121395514Y-134412380D02*
X121347895Y-134412380D01*
X121347895Y-134412380D02*
X121252657Y-134364761D01*
X121252657Y-134364761D02*
X121205038Y-134317142D01*
X121205038Y-134317142D02*
X121157419Y-134221904D01*
X121157419Y-134221904D02*
X121157419Y-134031428D01*
X121157419Y-134031428D02*
X121205038Y-133936190D01*
X121205038Y-133936190D02*
X121252657Y-133888571D01*
X121252657Y-133888571D02*
X121347895Y-133840952D01*
X121347895Y-133840952D02*
X121395514Y-133840952D01*
X121395514Y-133840952D02*
X121490752Y-133888571D01*
X121490752Y-133888571D02*
X121538371Y-133936190D01*
X121538371Y-133936190D02*
X121585990Y-134031428D01*
X121585990Y-134031428D02*
X121585990Y-134221904D01*
X121585990Y-134221904D02*
X121633609Y-134317142D01*
X121633609Y-134317142D02*
X121681228Y-134364761D01*
X121681228Y-134364761D02*
X121776466Y-134412380D01*
X121776466Y-134412380D02*
X121966942Y-134412380D01*
X121966942Y-134412380D02*
X122062180Y-134364761D01*
X122062180Y-134364761D02*
X122109800Y-134317142D01*
X122109800Y-134317142D02*
X122157419Y-134221904D01*
X122157419Y-134221904D02*
X122157419Y-134031428D01*
X122157419Y-134031428D02*
X122109800Y-133936190D01*
X122109800Y-133936190D02*
X122062180Y-133888571D01*
X122062180Y-133888571D02*
X121966942Y-133840952D01*
X121966942Y-133840952D02*
X121776466Y-133840952D01*
X121776466Y-133840952D02*
X121681228Y-133888571D01*
X121681228Y-133888571D02*
X121633609Y-133936190D01*
X121633609Y-133936190D02*
X121585990Y-134031428D01*
X170980000Y-98015000D02*
X169180000Y-98015000D01*
X170980000Y-98015000D02*
X170380000Y-97615000D01*
X170980000Y-98015000D02*
X170380000Y-98415000D01*
D12*
X165186104Y-104780952D02*
X165224200Y-104819048D01*
X165224200Y-104819048D02*
X165262295Y-104933333D01*
X165262295Y-104933333D02*
X165262295Y-105009524D01*
X165262295Y-105009524D02*
X165224200Y-105123810D01*
X165224200Y-105123810D02*
X165148009Y-105200000D01*
X165148009Y-105200000D02*
X165071819Y-105238095D01*
X165071819Y-105238095D02*
X164919438Y-105276191D01*
X164919438Y-105276191D02*
X164805152Y-105276191D01*
X164805152Y-105276191D02*
X164652771Y-105238095D01*
X164652771Y-105238095D02*
X164576580Y-105200000D01*
X164576580Y-105200000D02*
X164500390Y-105123810D01*
X164500390Y-105123810D02*
X164462295Y-105009524D01*
X164462295Y-105009524D02*
X164462295Y-104933333D01*
X164462295Y-104933333D02*
X164500390Y-104819048D01*
X164500390Y-104819048D02*
X164538485Y-104780952D01*
X165262295Y-104438095D02*
X164462295Y-104438095D01*
X164843247Y-104438095D02*
X164843247Y-103980952D01*
X165262295Y-103980952D02*
X164462295Y-103980952D01*
X164462295Y-103676191D02*
X164462295Y-103180953D01*
X164462295Y-103180953D02*
X164767057Y-103447619D01*
X164767057Y-103447619D02*
X164767057Y-103333334D01*
X164767057Y-103333334D02*
X164805152Y-103257143D01*
X164805152Y-103257143D02*
X164843247Y-103219048D01*
X164843247Y-103219048D02*
X164919438Y-103180953D01*
X164919438Y-103180953D02*
X165109914Y-103180953D01*
X165109914Y-103180953D02*
X165186104Y-103219048D01*
X165186104Y-103219048D02*
X165224200Y-103257143D01*
X165224200Y-103257143D02*
X165262295Y-103333334D01*
X165262295Y-103333334D02*
X165262295Y-103561905D01*
X165262295Y-103561905D02*
X165224200Y-103638096D01*
X165224200Y-103638096D02*
X165186104Y-103676191D01*
X164538485Y-102876191D02*
X164500390Y-102838095D01*
X164500390Y-102838095D02*
X164462295Y-102761905D01*
X164462295Y-102761905D02*
X164462295Y-102571429D01*
X164462295Y-102571429D02*
X164500390Y-102495238D01*
X164500390Y-102495238D02*
X164538485Y-102457143D01*
X164538485Y-102457143D02*
X164614676Y-102419048D01*
X164614676Y-102419048D02*
X164690866Y-102419048D01*
X164690866Y-102419048D02*
X164805152Y-102457143D01*
X164805152Y-102457143D02*
X165262295Y-102914286D01*
X165262295Y-102914286D02*
X165262295Y-102419048D01*
X164728961Y-102152381D02*
X165262295Y-101961905D01*
X165262295Y-101961905D02*
X164728961Y-101771428D01*
X164462295Y-101314285D02*
X164462295Y-101238095D01*
X164462295Y-101238095D02*
X164500390Y-101161904D01*
X164500390Y-101161904D02*
X164538485Y-101123809D01*
X164538485Y-101123809D02*
X164614676Y-101085714D01*
X164614676Y-101085714D02*
X164767057Y-101047619D01*
X164767057Y-101047619D02*
X164957533Y-101047619D01*
X164957533Y-101047619D02*
X165109914Y-101085714D01*
X165109914Y-101085714D02*
X165186104Y-101123809D01*
X165186104Y-101123809D02*
X165224200Y-101161904D01*
X165224200Y-101161904D02*
X165262295Y-101238095D01*
X165262295Y-101238095D02*
X165262295Y-101314285D01*
X165262295Y-101314285D02*
X165224200Y-101390476D01*
X165224200Y-101390476D02*
X165186104Y-101428571D01*
X165186104Y-101428571D02*
X165109914Y-101466666D01*
X165109914Y-101466666D02*
X164957533Y-101504762D01*
X164957533Y-101504762D02*
X164767057Y-101504762D01*
X164767057Y-101504762D02*
X164614676Y-101466666D01*
X164614676Y-101466666D02*
X164538485Y-101428571D01*
X164538485Y-101428571D02*
X164500390Y-101390476D01*
X164500390Y-101390476D02*
X164462295Y-101314285D01*
X164462295Y-100552380D02*
X164462295Y-100476190D01*
X164462295Y-100476190D02*
X164500390Y-100399999D01*
X164500390Y-100399999D02*
X164538485Y-100361904D01*
X164538485Y-100361904D02*
X164614676Y-100323809D01*
X164614676Y-100323809D02*
X164767057Y-100285714D01*
X164767057Y-100285714D02*
X164957533Y-100285714D01*
X164957533Y-100285714D02*
X165109914Y-100323809D01*
X165109914Y-100323809D02*
X165186104Y-100361904D01*
X165186104Y-100361904D02*
X165224200Y-100399999D01*
X165224200Y-100399999D02*
X165262295Y-100476190D01*
X165262295Y-100476190D02*
X165262295Y-100552380D01*
X165262295Y-100552380D02*
X165224200Y-100628571D01*
X165224200Y-100628571D02*
X165186104Y-100666666D01*
X165186104Y-100666666D02*
X165109914Y-100704761D01*
X165109914Y-100704761D02*
X164957533Y-100742857D01*
X164957533Y-100742857D02*
X164767057Y-100742857D01*
X164767057Y-100742857D02*
X164614676Y-100704761D01*
X164614676Y-100704761D02*
X164538485Y-100666666D01*
X164538485Y-100666666D02*
X164500390Y-100628571D01*
X164500390Y-100628571D02*
X164462295Y-100552380D01*
X164462295Y-100019047D02*
X164462295Y-99523809D01*
X164462295Y-99523809D02*
X164767057Y-99790475D01*
X164767057Y-99790475D02*
X164767057Y-99676190D01*
X164767057Y-99676190D02*
X164805152Y-99599999D01*
X164805152Y-99599999D02*
X164843247Y-99561904D01*
X164843247Y-99561904D02*
X164919438Y-99523809D01*
X164919438Y-99523809D02*
X165109914Y-99523809D01*
X165109914Y-99523809D02*
X165186104Y-99561904D01*
X165186104Y-99561904D02*
X165224200Y-99599999D01*
X165224200Y-99599999D02*
X165262295Y-99676190D01*
X165262295Y-99676190D02*
X165262295Y-99904761D01*
X165262295Y-99904761D02*
X165224200Y-99980952D01*
X165224200Y-99980952D02*
X165186104Y-100019047D01*
D11*
X128209800Y-136819047D02*
X128257419Y-136676190D01*
X128257419Y-136676190D02*
X128257419Y-136438095D01*
X128257419Y-136438095D02*
X128209800Y-136342857D01*
X128209800Y-136342857D02*
X128162180Y-136295238D01*
X128162180Y-136295238D02*
X128066942Y-136247619D01*
X128066942Y-136247619D02*
X127971704Y-136247619D01*
X127971704Y-136247619D02*
X127876466Y-136295238D01*
X127876466Y-136295238D02*
X127828847Y-136342857D01*
X127828847Y-136342857D02*
X127781228Y-136438095D01*
X127781228Y-136438095D02*
X127733609Y-136628571D01*
X127733609Y-136628571D02*
X127685990Y-136723809D01*
X127685990Y-136723809D02*
X127638371Y-136771428D01*
X127638371Y-136771428D02*
X127543133Y-136819047D01*
X127543133Y-136819047D02*
X127447895Y-136819047D01*
X127447895Y-136819047D02*
X127352657Y-136771428D01*
X127352657Y-136771428D02*
X127305038Y-136723809D01*
X127305038Y-136723809D02*
X127257419Y-136628571D01*
X127257419Y-136628571D02*
X127257419Y-136390476D01*
X127257419Y-136390476D02*
X127305038Y-136247619D01*
X127733609Y-135819047D02*
X127733609Y-135485714D01*
X128257419Y-135342857D02*
X128257419Y-135819047D01*
X128257419Y-135819047D02*
X127257419Y-135819047D01*
X127257419Y-135819047D02*
X127257419Y-135342857D01*
X128257419Y-134438095D02*
X128257419Y-134914285D01*
X128257419Y-134914285D02*
X127257419Y-134914285D01*
X128257419Y-133580952D02*
X128257419Y-134152380D01*
X128257419Y-133866666D02*
X127257419Y-133866666D01*
X127257419Y-133866666D02*
X127400276Y-133961904D01*
X127400276Y-133961904D02*
X127495514Y-134057142D01*
X127495514Y-134057142D02*
X127543133Y-134152380D01*
X130209800Y-136819047D02*
X130257419Y-136676190D01*
X130257419Y-136676190D02*
X130257419Y-136438095D01*
X130257419Y-136438095D02*
X130209800Y-136342857D01*
X130209800Y-136342857D02*
X130162180Y-136295238D01*
X130162180Y-136295238D02*
X130066942Y-136247619D01*
X130066942Y-136247619D02*
X129971704Y-136247619D01*
X129971704Y-136247619D02*
X129876466Y-136295238D01*
X129876466Y-136295238D02*
X129828847Y-136342857D01*
X129828847Y-136342857D02*
X129781228Y-136438095D01*
X129781228Y-136438095D02*
X129733609Y-136628571D01*
X129733609Y-136628571D02*
X129685990Y-136723809D01*
X129685990Y-136723809D02*
X129638371Y-136771428D01*
X129638371Y-136771428D02*
X129543133Y-136819047D01*
X129543133Y-136819047D02*
X129447895Y-136819047D01*
X129447895Y-136819047D02*
X129352657Y-136771428D01*
X129352657Y-136771428D02*
X129305038Y-136723809D01*
X129305038Y-136723809D02*
X129257419Y-136628571D01*
X129257419Y-136628571D02*
X129257419Y-136390476D01*
X129257419Y-136390476D02*
X129305038Y-136247619D01*
X129733609Y-135819047D02*
X129733609Y-135485714D01*
X130257419Y-135342857D02*
X130257419Y-135819047D01*
X130257419Y-135819047D02*
X129257419Y-135819047D01*
X129257419Y-135819047D02*
X129257419Y-135342857D01*
X130257419Y-134438095D02*
X130257419Y-134914285D01*
X130257419Y-134914285D02*
X129257419Y-134914285D01*
X129352657Y-134152380D02*
X129305038Y-134104761D01*
X129305038Y-134104761D02*
X129257419Y-134009523D01*
X129257419Y-134009523D02*
X129257419Y-133771428D01*
X129257419Y-133771428D02*
X129305038Y-133676190D01*
X129305038Y-133676190D02*
X129352657Y-133628571D01*
X129352657Y-133628571D02*
X129447895Y-133580952D01*
X129447895Y-133580952D02*
X129543133Y-133580952D01*
X129543133Y-133580952D02*
X129685990Y-133628571D01*
X129685990Y-133628571D02*
X130257419Y-134199999D01*
X130257419Y-134199999D02*
X130257419Y-133580952D01*
X132209800Y-136819047D02*
X132257419Y-136676190D01*
X132257419Y-136676190D02*
X132257419Y-136438095D01*
X132257419Y-136438095D02*
X132209800Y-136342857D01*
X132209800Y-136342857D02*
X132162180Y-136295238D01*
X132162180Y-136295238D02*
X132066942Y-136247619D01*
X132066942Y-136247619D02*
X131971704Y-136247619D01*
X131971704Y-136247619D02*
X131876466Y-136295238D01*
X131876466Y-136295238D02*
X131828847Y-136342857D01*
X131828847Y-136342857D02*
X131781228Y-136438095D01*
X131781228Y-136438095D02*
X131733609Y-136628571D01*
X131733609Y-136628571D02*
X131685990Y-136723809D01*
X131685990Y-136723809D02*
X131638371Y-136771428D01*
X131638371Y-136771428D02*
X131543133Y-136819047D01*
X131543133Y-136819047D02*
X131447895Y-136819047D01*
X131447895Y-136819047D02*
X131352657Y-136771428D01*
X131352657Y-136771428D02*
X131305038Y-136723809D01*
X131305038Y-136723809D02*
X131257419Y-136628571D01*
X131257419Y-136628571D02*
X131257419Y-136390476D01*
X131257419Y-136390476D02*
X131305038Y-136247619D01*
X131733609Y-135819047D02*
X131733609Y-135485714D01*
X132257419Y-135342857D02*
X132257419Y-135819047D01*
X132257419Y-135819047D02*
X131257419Y-135819047D01*
X131257419Y-135819047D02*
X131257419Y-135342857D01*
X132257419Y-134438095D02*
X132257419Y-134914285D01*
X132257419Y-134914285D02*
X131257419Y-134914285D01*
X131257419Y-134199999D02*
X131257419Y-133580952D01*
X131257419Y-133580952D02*
X131638371Y-133914285D01*
X131638371Y-133914285D02*
X131638371Y-133771428D01*
X131638371Y-133771428D02*
X131685990Y-133676190D01*
X131685990Y-133676190D02*
X131733609Y-133628571D01*
X131733609Y-133628571D02*
X131828847Y-133580952D01*
X131828847Y-133580952D02*
X132066942Y-133580952D01*
X132066942Y-133580952D02*
X132162180Y-133628571D01*
X132162180Y-133628571D02*
X132209800Y-133676190D01*
X132209800Y-133676190D02*
X132257419Y-133771428D01*
X132257419Y-133771428D02*
X132257419Y-134057142D01*
X132257419Y-134057142D02*
X132209800Y-134152380D01*
X132209800Y-134152380D02*
X132162180Y-134199999D01*
X134209800Y-136819047D02*
X134257419Y-136676190D01*
X134257419Y-136676190D02*
X134257419Y-136438095D01*
X134257419Y-136438095D02*
X134209800Y-136342857D01*
X134209800Y-136342857D02*
X134162180Y-136295238D01*
X134162180Y-136295238D02*
X134066942Y-136247619D01*
X134066942Y-136247619D02*
X133971704Y-136247619D01*
X133971704Y-136247619D02*
X133876466Y-136295238D01*
X133876466Y-136295238D02*
X133828847Y-136342857D01*
X133828847Y-136342857D02*
X133781228Y-136438095D01*
X133781228Y-136438095D02*
X133733609Y-136628571D01*
X133733609Y-136628571D02*
X133685990Y-136723809D01*
X133685990Y-136723809D02*
X133638371Y-136771428D01*
X133638371Y-136771428D02*
X133543133Y-136819047D01*
X133543133Y-136819047D02*
X133447895Y-136819047D01*
X133447895Y-136819047D02*
X133352657Y-136771428D01*
X133352657Y-136771428D02*
X133305038Y-136723809D01*
X133305038Y-136723809D02*
X133257419Y-136628571D01*
X133257419Y-136628571D02*
X133257419Y-136390476D01*
X133257419Y-136390476D02*
X133305038Y-136247619D01*
X133733609Y-135819047D02*
X133733609Y-135485714D01*
X134257419Y-135342857D02*
X134257419Y-135819047D01*
X134257419Y-135819047D02*
X133257419Y-135819047D01*
X133257419Y-135819047D02*
X133257419Y-135342857D01*
X134257419Y-134438095D02*
X134257419Y-134914285D01*
X134257419Y-134914285D02*
X133257419Y-134914285D01*
X133590752Y-133676190D02*
X134257419Y-133676190D01*
X133209800Y-133914285D02*
X133924085Y-134152380D01*
X133924085Y-134152380D02*
X133924085Y-133533333D01*
X136209800Y-136819047D02*
X136257419Y-136676190D01*
X136257419Y-136676190D02*
X136257419Y-136438095D01*
X136257419Y-136438095D02*
X136209800Y-136342857D01*
X136209800Y-136342857D02*
X136162180Y-136295238D01*
X136162180Y-136295238D02*
X136066942Y-136247619D01*
X136066942Y-136247619D02*
X135971704Y-136247619D01*
X135971704Y-136247619D02*
X135876466Y-136295238D01*
X135876466Y-136295238D02*
X135828847Y-136342857D01*
X135828847Y-136342857D02*
X135781228Y-136438095D01*
X135781228Y-136438095D02*
X135733609Y-136628571D01*
X135733609Y-136628571D02*
X135685990Y-136723809D01*
X135685990Y-136723809D02*
X135638371Y-136771428D01*
X135638371Y-136771428D02*
X135543133Y-136819047D01*
X135543133Y-136819047D02*
X135447895Y-136819047D01*
X135447895Y-136819047D02*
X135352657Y-136771428D01*
X135352657Y-136771428D02*
X135305038Y-136723809D01*
X135305038Y-136723809D02*
X135257419Y-136628571D01*
X135257419Y-136628571D02*
X135257419Y-136390476D01*
X135257419Y-136390476D02*
X135305038Y-136247619D01*
X135733609Y-135819047D02*
X135733609Y-135485714D01*
X136257419Y-135342857D02*
X136257419Y-135819047D01*
X136257419Y-135819047D02*
X135257419Y-135819047D01*
X135257419Y-135819047D02*
X135257419Y-135342857D01*
X136257419Y-134438095D02*
X136257419Y-134914285D01*
X136257419Y-134914285D02*
X135257419Y-134914285D01*
X135257419Y-133628571D02*
X135257419Y-134104761D01*
X135257419Y-134104761D02*
X135733609Y-134152380D01*
X135733609Y-134152380D02*
X135685990Y-134104761D01*
X135685990Y-134104761D02*
X135638371Y-134009523D01*
X135638371Y-134009523D02*
X135638371Y-133771428D01*
X135638371Y-133771428D02*
X135685990Y-133676190D01*
X135685990Y-133676190D02*
X135733609Y-133628571D01*
X135733609Y-133628571D02*
X135828847Y-133580952D01*
X135828847Y-133580952D02*
X136066942Y-133580952D01*
X136066942Y-133580952D02*
X136162180Y-133628571D01*
X136162180Y-133628571D02*
X136209800Y-133676190D01*
X136209800Y-133676190D02*
X136257419Y-133771428D01*
X136257419Y-133771428D02*
X136257419Y-134009523D01*
X136257419Y-134009523D02*
X136209800Y-134104761D01*
X136209800Y-134104761D02*
X136162180Y-134152380D01*
X138209800Y-136819047D02*
X138257419Y-136676190D01*
X138257419Y-136676190D02*
X138257419Y-136438095D01*
X138257419Y-136438095D02*
X138209800Y-136342857D01*
X138209800Y-136342857D02*
X138162180Y-136295238D01*
X138162180Y-136295238D02*
X138066942Y-136247619D01*
X138066942Y-136247619D02*
X137971704Y-136247619D01*
X137971704Y-136247619D02*
X137876466Y-136295238D01*
X137876466Y-136295238D02*
X137828847Y-136342857D01*
X137828847Y-136342857D02*
X137781228Y-136438095D01*
X137781228Y-136438095D02*
X137733609Y-136628571D01*
X137733609Y-136628571D02*
X137685990Y-136723809D01*
X137685990Y-136723809D02*
X137638371Y-136771428D01*
X137638371Y-136771428D02*
X137543133Y-136819047D01*
X137543133Y-136819047D02*
X137447895Y-136819047D01*
X137447895Y-136819047D02*
X137352657Y-136771428D01*
X137352657Y-136771428D02*
X137305038Y-136723809D01*
X137305038Y-136723809D02*
X137257419Y-136628571D01*
X137257419Y-136628571D02*
X137257419Y-136390476D01*
X137257419Y-136390476D02*
X137305038Y-136247619D01*
X137733609Y-135819047D02*
X137733609Y-135485714D01*
X138257419Y-135342857D02*
X138257419Y-135819047D01*
X138257419Y-135819047D02*
X137257419Y-135819047D01*
X137257419Y-135819047D02*
X137257419Y-135342857D01*
X138257419Y-134438095D02*
X138257419Y-134914285D01*
X138257419Y-134914285D02*
X137257419Y-134914285D01*
X137257419Y-133676190D02*
X137257419Y-133866666D01*
X137257419Y-133866666D02*
X137305038Y-133961904D01*
X137305038Y-133961904D02*
X137352657Y-134009523D01*
X137352657Y-134009523D02*
X137495514Y-134104761D01*
X137495514Y-134104761D02*
X137685990Y-134152380D01*
X137685990Y-134152380D02*
X138066942Y-134152380D01*
X138066942Y-134152380D02*
X138162180Y-134104761D01*
X138162180Y-134104761D02*
X138209800Y-134057142D01*
X138209800Y-134057142D02*
X138257419Y-133961904D01*
X138257419Y-133961904D02*
X138257419Y-133771428D01*
X138257419Y-133771428D02*
X138209800Y-133676190D01*
X138209800Y-133676190D02*
X138162180Y-133628571D01*
X138162180Y-133628571D02*
X138066942Y-133580952D01*
X138066942Y-133580952D02*
X137828847Y-133580952D01*
X137828847Y-133580952D02*
X137733609Y-133628571D01*
X137733609Y-133628571D02*
X137685990Y-133676190D01*
X137685990Y-133676190D02*
X137638371Y-133771428D01*
X137638371Y-133771428D02*
X137638371Y-133961904D01*
X137638371Y-133961904D02*
X137685990Y-134057142D01*
X137685990Y-134057142D02*
X137733609Y-134104761D01*
X137733609Y-134104761D02*
X137828847Y-134152380D01*
X140209800Y-136819047D02*
X140257419Y-136676190D01*
X140257419Y-136676190D02*
X140257419Y-136438095D01*
X140257419Y-136438095D02*
X140209800Y-136342857D01*
X140209800Y-136342857D02*
X140162180Y-136295238D01*
X140162180Y-136295238D02*
X140066942Y-136247619D01*
X140066942Y-136247619D02*
X139971704Y-136247619D01*
X139971704Y-136247619D02*
X139876466Y-136295238D01*
X139876466Y-136295238D02*
X139828847Y-136342857D01*
X139828847Y-136342857D02*
X139781228Y-136438095D01*
X139781228Y-136438095D02*
X139733609Y-136628571D01*
X139733609Y-136628571D02*
X139685990Y-136723809D01*
X139685990Y-136723809D02*
X139638371Y-136771428D01*
X139638371Y-136771428D02*
X139543133Y-136819047D01*
X139543133Y-136819047D02*
X139447895Y-136819047D01*
X139447895Y-136819047D02*
X139352657Y-136771428D01*
X139352657Y-136771428D02*
X139305038Y-136723809D01*
X139305038Y-136723809D02*
X139257419Y-136628571D01*
X139257419Y-136628571D02*
X139257419Y-136390476D01*
X139257419Y-136390476D02*
X139305038Y-136247619D01*
X139733609Y-135819047D02*
X139733609Y-135485714D01*
X140257419Y-135342857D02*
X140257419Y-135819047D01*
X140257419Y-135819047D02*
X139257419Y-135819047D01*
X139257419Y-135819047D02*
X139257419Y-135342857D01*
X140257419Y-134438095D02*
X140257419Y-134914285D01*
X140257419Y-134914285D02*
X139257419Y-134914285D01*
X139257419Y-134199999D02*
X139257419Y-133533333D01*
X139257419Y-133533333D02*
X140257419Y-133961904D01*
X142209800Y-136819047D02*
X142257419Y-136676190D01*
X142257419Y-136676190D02*
X142257419Y-136438095D01*
X142257419Y-136438095D02*
X142209800Y-136342857D01*
X142209800Y-136342857D02*
X142162180Y-136295238D01*
X142162180Y-136295238D02*
X142066942Y-136247619D01*
X142066942Y-136247619D02*
X141971704Y-136247619D01*
X141971704Y-136247619D02*
X141876466Y-136295238D01*
X141876466Y-136295238D02*
X141828847Y-136342857D01*
X141828847Y-136342857D02*
X141781228Y-136438095D01*
X141781228Y-136438095D02*
X141733609Y-136628571D01*
X141733609Y-136628571D02*
X141685990Y-136723809D01*
X141685990Y-136723809D02*
X141638371Y-136771428D01*
X141638371Y-136771428D02*
X141543133Y-136819047D01*
X141543133Y-136819047D02*
X141447895Y-136819047D01*
X141447895Y-136819047D02*
X141352657Y-136771428D01*
X141352657Y-136771428D02*
X141305038Y-136723809D01*
X141305038Y-136723809D02*
X141257419Y-136628571D01*
X141257419Y-136628571D02*
X141257419Y-136390476D01*
X141257419Y-136390476D02*
X141305038Y-136247619D01*
X141733609Y-135819047D02*
X141733609Y-135485714D01*
X142257419Y-135342857D02*
X142257419Y-135819047D01*
X142257419Y-135819047D02*
X141257419Y-135819047D01*
X141257419Y-135819047D02*
X141257419Y-135342857D01*
X142257419Y-134438095D02*
X142257419Y-134914285D01*
X142257419Y-134914285D02*
X141257419Y-134914285D01*
X141685990Y-133961904D02*
X141638371Y-134057142D01*
X141638371Y-134057142D02*
X141590752Y-134104761D01*
X141590752Y-134104761D02*
X141495514Y-134152380D01*
X141495514Y-134152380D02*
X141447895Y-134152380D01*
X141447895Y-134152380D02*
X141352657Y-134104761D01*
X141352657Y-134104761D02*
X141305038Y-134057142D01*
X141305038Y-134057142D02*
X141257419Y-133961904D01*
X141257419Y-133961904D02*
X141257419Y-133771428D01*
X141257419Y-133771428D02*
X141305038Y-133676190D01*
X141305038Y-133676190D02*
X141352657Y-133628571D01*
X141352657Y-133628571D02*
X141447895Y-133580952D01*
X141447895Y-133580952D02*
X141495514Y-133580952D01*
X141495514Y-133580952D02*
X141590752Y-133628571D01*
X141590752Y-133628571D02*
X141638371Y-133676190D01*
X141638371Y-133676190D02*
X141685990Y-133771428D01*
X141685990Y-133771428D02*
X141685990Y-133961904D01*
X141685990Y-133961904D02*
X141733609Y-134057142D01*
X141733609Y-134057142D02*
X141781228Y-134104761D01*
X141781228Y-134104761D02*
X141876466Y-134152380D01*
X141876466Y-134152380D02*
X142066942Y-134152380D01*
X142066942Y-134152380D02*
X142162180Y-134104761D01*
X142162180Y-134104761D02*
X142209800Y-134057142D01*
X142209800Y-134057142D02*
X142257419Y-133961904D01*
X142257419Y-133961904D02*
X142257419Y-133771428D01*
X142257419Y-133771428D02*
X142209800Y-133676190D01*
X142209800Y-133676190D02*
X142162180Y-133628571D01*
X142162180Y-133628571D02*
X142066942Y-133580952D01*
X142066942Y-133580952D02*
X141876466Y-133580952D01*
X141876466Y-133580952D02*
X141781228Y-133628571D01*
X141781228Y-133628571D02*
X141733609Y-133676190D01*
X141733609Y-133676190D02*
X141685990Y-133771428D01*
D12*
X172428571Y-105354819D02*
X172095238Y-104878628D01*
X171857143Y-105354819D02*
X171857143Y-104354819D01*
X171857143Y-104354819D02*
X172238095Y-104354819D01*
X172238095Y-104354819D02*
X172333333Y-104402438D01*
X172333333Y-104402438D02*
X172380952Y-104450057D01*
X172380952Y-104450057D02*
X172428571Y-104545295D01*
X172428571Y-104545295D02*
X172428571Y-104688152D01*
X172428571Y-104688152D02*
X172380952Y-104783390D01*
X172380952Y-104783390D02*
X172333333Y-104831009D01*
X172333333Y-104831009D02*
X172238095Y-104878628D01*
X172238095Y-104878628D02*
X171857143Y-104878628D01*
X172857143Y-104831009D02*
X173190476Y-104831009D01*
X173333333Y-105354819D02*
X172857143Y-105354819D01*
X172857143Y-105354819D02*
X172857143Y-104354819D01*
X172857143Y-104354819D02*
X173333333Y-104354819D01*
X173714286Y-105307200D02*
X173857143Y-105354819D01*
X173857143Y-105354819D02*
X174095238Y-105354819D01*
X174095238Y-105354819D02*
X174190476Y-105307200D01*
X174190476Y-105307200D02*
X174238095Y-105259580D01*
X174238095Y-105259580D02*
X174285714Y-105164342D01*
X174285714Y-105164342D02*
X174285714Y-105069104D01*
X174285714Y-105069104D02*
X174238095Y-104973866D01*
X174238095Y-104973866D02*
X174190476Y-104926247D01*
X174190476Y-104926247D02*
X174095238Y-104878628D01*
X174095238Y-104878628D02*
X173904762Y-104831009D01*
X173904762Y-104831009D02*
X173809524Y-104783390D01*
X173809524Y-104783390D02*
X173761905Y-104735771D01*
X173761905Y-104735771D02*
X173714286Y-104640533D01*
X173714286Y-104640533D02*
X173714286Y-104545295D01*
X173714286Y-104545295D02*
X173761905Y-104450057D01*
X173761905Y-104450057D02*
X173809524Y-104402438D01*
X173809524Y-104402438D02*
X173904762Y-104354819D01*
X173904762Y-104354819D02*
X174142857Y-104354819D01*
X174142857Y-104354819D02*
X174285714Y-104402438D01*
X174714286Y-104831009D02*
X175047619Y-104831009D01*
X175190476Y-105354819D02*
X174714286Y-105354819D01*
X174714286Y-105354819D02*
X174714286Y-104354819D01*
X174714286Y-104354819D02*
X175190476Y-104354819D01*
X175476191Y-104354819D02*
X176047619Y-104354819D01*
X175761905Y-105354819D02*
X175761905Y-104354819D01*
X158104819Y-113738094D02*
X158104819Y-113119047D01*
X158104819Y-113119047D02*
X158485771Y-113452380D01*
X158485771Y-113452380D02*
X158485771Y-113309523D01*
X158485771Y-113309523D02*
X158533390Y-113214285D01*
X158533390Y-113214285D02*
X158581009Y-113166666D01*
X158581009Y-113166666D02*
X158676247Y-113119047D01*
X158676247Y-113119047D02*
X158914342Y-113119047D01*
X158914342Y-113119047D02*
X159009580Y-113166666D01*
X159009580Y-113166666D02*
X159057200Y-113214285D01*
X159057200Y-113214285D02*
X159104819Y-113309523D01*
X159104819Y-113309523D02*
X159104819Y-113595237D01*
X159104819Y-113595237D02*
X159057200Y-113690475D01*
X159057200Y-113690475D02*
X159009580Y-113738094D01*
X158104819Y-112833332D02*
X159104819Y-112499999D01*
X159104819Y-112499999D02*
X158104819Y-112166666D01*
X158104819Y-111928570D02*
X158104819Y-111309523D01*
X158104819Y-111309523D02*
X158485771Y-111642856D01*
X158485771Y-111642856D02*
X158485771Y-111499999D01*
X158485771Y-111499999D02*
X158533390Y-111404761D01*
X158533390Y-111404761D02*
X158581009Y-111357142D01*
X158581009Y-111357142D02*
X158676247Y-111309523D01*
X158676247Y-111309523D02*
X158914342Y-111309523D01*
X158914342Y-111309523D02*
X159009580Y-111357142D01*
X159009580Y-111357142D02*
X159057200Y-111404761D01*
X159057200Y-111404761D02*
X159104819Y-111499999D01*
X159104819Y-111499999D02*
X159104819Y-111785713D01*
X159104819Y-111785713D02*
X159057200Y-111880951D01*
X159057200Y-111880951D02*
X159009580Y-111928570D01*
X160702438Y-113161904D02*
X160654819Y-113257142D01*
X160654819Y-113257142D02*
X160654819Y-113399999D01*
X160654819Y-113399999D02*
X160702438Y-113542856D01*
X160702438Y-113542856D02*
X160797676Y-113638094D01*
X160797676Y-113638094D02*
X160892914Y-113685713D01*
X160892914Y-113685713D02*
X161083390Y-113733332D01*
X161083390Y-113733332D02*
X161226247Y-113733332D01*
X161226247Y-113733332D02*
X161416723Y-113685713D01*
X161416723Y-113685713D02*
X161511961Y-113638094D01*
X161511961Y-113638094D02*
X161607200Y-113542856D01*
X161607200Y-113542856D02*
X161654819Y-113399999D01*
X161654819Y-113399999D02*
X161654819Y-113304761D01*
X161654819Y-113304761D02*
X161607200Y-113161904D01*
X161607200Y-113161904D02*
X161559580Y-113114285D01*
X161559580Y-113114285D02*
X161226247Y-113114285D01*
X161226247Y-113114285D02*
X161226247Y-113304761D01*
X161654819Y-112685713D02*
X160654819Y-112685713D01*
X160654819Y-112685713D02*
X161654819Y-112114285D01*
X161654819Y-112114285D02*
X160654819Y-112114285D01*
X161654819Y-111638094D02*
X160654819Y-111638094D01*
X160654819Y-111638094D02*
X160654819Y-111399999D01*
X160654819Y-111399999D02*
X160702438Y-111257142D01*
X160702438Y-111257142D02*
X160797676Y-111161904D01*
X160797676Y-111161904D02*
X160892914Y-111114285D01*
X160892914Y-111114285D02*
X161083390Y-111066666D01*
X161083390Y-111066666D02*
X161226247Y-111066666D01*
X161226247Y-111066666D02*
X161416723Y-111114285D01*
X161416723Y-111114285D02*
X161511961Y-111161904D01*
X161511961Y-111161904D02*
X161607200Y-111257142D01*
X161607200Y-111257142D02*
X161654819Y-111399999D01*
X161654819Y-111399999D02*
X161654819Y-111638094D01*
X164157200Y-114019046D02*
X164204819Y-113876189D01*
X164204819Y-113876189D02*
X164204819Y-113638094D01*
X164204819Y-113638094D02*
X164157200Y-113542856D01*
X164157200Y-113542856D02*
X164109580Y-113495237D01*
X164109580Y-113495237D02*
X164014342Y-113447618D01*
X164014342Y-113447618D02*
X163919104Y-113447618D01*
X163919104Y-113447618D02*
X163823866Y-113495237D01*
X163823866Y-113495237D02*
X163776247Y-113542856D01*
X163776247Y-113542856D02*
X163728628Y-113638094D01*
X163728628Y-113638094D02*
X163681009Y-113828570D01*
X163681009Y-113828570D02*
X163633390Y-113923808D01*
X163633390Y-113923808D02*
X163585771Y-113971427D01*
X163585771Y-113971427D02*
X163490533Y-114019046D01*
X163490533Y-114019046D02*
X163395295Y-114019046D01*
X163395295Y-114019046D02*
X163300057Y-113971427D01*
X163300057Y-113971427D02*
X163252438Y-113923808D01*
X163252438Y-113923808D02*
X163204819Y-113828570D01*
X163204819Y-113828570D02*
X163204819Y-113590475D01*
X163204819Y-113590475D02*
X163252438Y-113447618D01*
X163204819Y-113114284D02*
X164204819Y-112876189D01*
X164204819Y-112876189D02*
X163490533Y-112685713D01*
X163490533Y-112685713D02*
X164204819Y-112495237D01*
X164204819Y-112495237D02*
X163204819Y-112257142D01*
X164204819Y-111876189D02*
X163204819Y-111876189D01*
X163204819Y-111209523D02*
X163204819Y-111019047D01*
X163204819Y-111019047D02*
X163252438Y-110923809D01*
X163252438Y-110923809D02*
X163347676Y-110828571D01*
X163347676Y-110828571D02*
X163538152Y-110780952D01*
X163538152Y-110780952D02*
X163871485Y-110780952D01*
X163871485Y-110780952D02*
X164061961Y-110828571D01*
X164061961Y-110828571D02*
X164157200Y-110923809D01*
X164157200Y-110923809D02*
X164204819Y-111019047D01*
X164204819Y-111019047D02*
X164204819Y-111209523D01*
X164204819Y-111209523D02*
X164157200Y-111304761D01*
X164157200Y-111304761D02*
X164061961Y-111399999D01*
X164061961Y-111399999D02*
X163871485Y-111447618D01*
X163871485Y-111447618D02*
X163538152Y-111447618D01*
X163538152Y-111447618D02*
X163347676Y-111399999D01*
X163347676Y-111399999D02*
X163252438Y-111304761D01*
X163252438Y-111304761D02*
X163204819Y-111209523D01*
X167202228Y-98942856D02*
X167249847Y-98799999D01*
X167249847Y-98799999D02*
X167249847Y-98561904D01*
X167249847Y-98561904D02*
X167202228Y-98466666D01*
X167202228Y-98466666D02*
X167154608Y-98419047D01*
X167154608Y-98419047D02*
X167059370Y-98371428D01*
X167059370Y-98371428D02*
X166964132Y-98371428D01*
X166964132Y-98371428D02*
X166868894Y-98419047D01*
X166868894Y-98419047D02*
X166821275Y-98466666D01*
X166821275Y-98466666D02*
X166773656Y-98561904D01*
X166773656Y-98561904D02*
X166726037Y-98752380D01*
X166726037Y-98752380D02*
X166678418Y-98847618D01*
X166678418Y-98847618D02*
X166630799Y-98895237D01*
X166630799Y-98895237D02*
X166535561Y-98942856D01*
X166535561Y-98942856D02*
X166440323Y-98942856D01*
X166440323Y-98942856D02*
X166345085Y-98895237D01*
X166345085Y-98895237D02*
X166297466Y-98847618D01*
X166297466Y-98847618D02*
X166249847Y-98752380D01*
X166249847Y-98752380D02*
X166249847Y-98514285D01*
X166249847Y-98514285D02*
X166297466Y-98371428D01*
X166726037Y-97942856D02*
X166726037Y-97609523D01*
X167249847Y-97466666D02*
X167249847Y-97942856D01*
X167249847Y-97942856D02*
X166249847Y-97942856D01*
X166249847Y-97942856D02*
X166249847Y-97466666D01*
X167249847Y-96561904D02*
X167249847Y-97038094D01*
X167249847Y-97038094D02*
X166249847Y-97038094D01*
X168859791Y-98442857D02*
X168859791Y-98919047D01*
X168859791Y-98919047D02*
X167859791Y-98919047D01*
X168335981Y-98109523D02*
X168335981Y-97776190D01*
X168859791Y-97633333D02*
X168859791Y-98109523D01*
X168859791Y-98109523D02*
X167859791Y-98109523D01*
X167859791Y-98109523D02*
X167859791Y-97633333D01*
X168859791Y-97204761D02*
X167859791Y-97204761D01*
X167859791Y-97204761D02*
X167859791Y-96966666D01*
X167859791Y-96966666D02*
X167907410Y-96823809D01*
X167907410Y-96823809D02*
X168002648Y-96728571D01*
X168002648Y-96728571D02*
X168097886Y-96680952D01*
X168097886Y-96680952D02*
X168288362Y-96633333D01*
X168288362Y-96633333D02*
X168431219Y-96633333D01*
X168431219Y-96633333D02*
X168621695Y-96680952D01*
X168621695Y-96680952D02*
X168716933Y-96728571D01*
X168716933Y-96728571D02*
X168812172Y-96823809D01*
X168812172Y-96823809D02*
X168859791Y-96966666D01*
X168859791Y-96966666D02*
X168859791Y-97204761D01*
D13*
X81080497Y-104532098D02*
X81080497Y-103032098D01*
X81080497Y-103032098D02*
X81580497Y-104103527D01*
X81580497Y-104103527D02*
X82080497Y-103032098D01*
X82080497Y-103032098D02*
X82080497Y-104532098D01*
X82794783Y-104532098D02*
X82794783Y-103032098D01*
X82794783Y-103032098D02*
X83294783Y-104103527D01*
X83294783Y-104103527D02*
X83794783Y-103032098D01*
X83794783Y-103032098D02*
X83794783Y-104532098D01*
X84437641Y-104460670D02*
X84651927Y-104532098D01*
X84651927Y-104532098D02*
X85009069Y-104532098D01*
X85009069Y-104532098D02*
X85151927Y-104460670D01*
X85151927Y-104460670D02*
X85223355Y-104389241D01*
X85223355Y-104389241D02*
X85294784Y-104246384D01*
X85294784Y-104246384D02*
X85294784Y-104103527D01*
X85294784Y-104103527D02*
X85223355Y-103960670D01*
X85223355Y-103960670D02*
X85151927Y-103889241D01*
X85151927Y-103889241D02*
X85009069Y-103817812D01*
X85009069Y-103817812D02*
X84723355Y-103746384D01*
X84723355Y-103746384D02*
X84580498Y-103674955D01*
X84580498Y-103674955D02*
X84509069Y-103603527D01*
X84509069Y-103603527D02*
X84437641Y-103460670D01*
X84437641Y-103460670D02*
X84437641Y-103317812D01*
X84437641Y-103317812D02*
X84509069Y-103174955D01*
X84509069Y-103174955D02*
X84580498Y-103103527D01*
X84580498Y-103103527D02*
X84723355Y-103032098D01*
X84723355Y-103032098D02*
X85080498Y-103032098D01*
X85080498Y-103032098D02*
X85294784Y-103103527D01*
X85794783Y-103032098D02*
X86723355Y-103032098D01*
X86723355Y-103032098D02*
X86223355Y-103603527D01*
X86223355Y-103603527D02*
X86437640Y-103603527D01*
X86437640Y-103603527D02*
X86580498Y-103674955D01*
X86580498Y-103674955D02*
X86651926Y-103746384D01*
X86651926Y-103746384D02*
X86723355Y-103889241D01*
X86723355Y-103889241D02*
X86723355Y-104246384D01*
X86723355Y-104246384D02*
X86651926Y-104389241D01*
X86651926Y-104389241D02*
X86580498Y-104460670D01*
X86580498Y-104460670D02*
X86437640Y-104532098D01*
X86437640Y-104532098D02*
X86009069Y-104532098D01*
X86009069Y-104532098D02*
X85866212Y-104460670D01*
X85866212Y-104460670D02*
X85794783Y-104389241D01*
X88509068Y-104532098D02*
X88509068Y-103032098D01*
X88509068Y-103746384D02*
X89366211Y-103746384D01*
X89366211Y-104532098D02*
X89366211Y-103032098D01*
X90723355Y-104532098D02*
X90723355Y-103746384D01*
X90723355Y-103746384D02*
X90651926Y-103603527D01*
X90651926Y-103603527D02*
X90509069Y-103532098D01*
X90509069Y-103532098D02*
X90223355Y-103532098D01*
X90223355Y-103532098D02*
X90080497Y-103603527D01*
X90723355Y-104460670D02*
X90580497Y-104532098D01*
X90580497Y-104532098D02*
X90223355Y-104532098D01*
X90223355Y-104532098D02*
X90080497Y-104460670D01*
X90080497Y-104460670D02*
X90009069Y-104317812D01*
X90009069Y-104317812D02*
X90009069Y-104174955D01*
X90009069Y-104174955D02*
X90080497Y-104032098D01*
X90080497Y-104032098D02*
X90223355Y-103960670D01*
X90223355Y-103960670D02*
X90580497Y-103960670D01*
X90580497Y-103960670D02*
X90723355Y-103889241D01*
X91223355Y-103532098D02*
X91794783Y-103532098D01*
X91437640Y-103032098D02*
X91437640Y-104317812D01*
X91437640Y-104317812D02*
X91509069Y-104460670D01*
X91509069Y-104460670D02*
X91651926Y-104532098D01*
X91651926Y-104532098D02*
X91794783Y-104532098D01*
X81080497Y-106947014D02*
X81080497Y-105447014D01*
X81080497Y-106161300D02*
X81937640Y-106161300D01*
X81937640Y-106947014D02*
X81937640Y-105447014D01*
X83294784Y-106947014D02*
X83294784Y-106161300D01*
X83294784Y-106161300D02*
X83223355Y-106018443D01*
X83223355Y-106018443D02*
X83080498Y-105947014D01*
X83080498Y-105947014D02*
X82794784Y-105947014D01*
X82794784Y-105947014D02*
X82651926Y-106018443D01*
X83294784Y-106875586D02*
X83151926Y-106947014D01*
X83151926Y-106947014D02*
X82794784Y-106947014D01*
X82794784Y-106947014D02*
X82651926Y-106875586D01*
X82651926Y-106875586D02*
X82580498Y-106732728D01*
X82580498Y-106732728D02*
X82580498Y-106589871D01*
X82580498Y-106589871D02*
X82651926Y-106447014D01*
X82651926Y-106447014D02*
X82794784Y-106375586D01*
X82794784Y-106375586D02*
X83151926Y-106375586D01*
X83151926Y-106375586D02*
X83294784Y-106304157D01*
X83794784Y-105947014D02*
X84366212Y-105947014D01*
X84009069Y-105447014D02*
X84009069Y-106732728D01*
X84009069Y-106732728D02*
X84080498Y-106875586D01*
X84080498Y-106875586D02*
X84223355Y-106947014D01*
X84223355Y-106947014D02*
X84366212Y-106947014D01*
X84866212Y-106375586D02*
X86009070Y-106375586D01*
X86723355Y-106947014D02*
X86723355Y-105447014D01*
X86723355Y-106161300D02*
X87580498Y-106161300D01*
X87580498Y-106947014D02*
X87580498Y-105447014D01*
X88937642Y-106947014D02*
X88937642Y-106161300D01*
X88937642Y-106161300D02*
X88866213Y-106018443D01*
X88866213Y-106018443D02*
X88723356Y-105947014D01*
X88723356Y-105947014D02*
X88437642Y-105947014D01*
X88437642Y-105947014D02*
X88294784Y-106018443D01*
X88937642Y-106875586D02*
X88794784Y-106947014D01*
X88794784Y-106947014D02*
X88437642Y-106947014D01*
X88437642Y-106947014D02*
X88294784Y-106875586D01*
X88294784Y-106875586D02*
X88223356Y-106732728D01*
X88223356Y-106732728D02*
X88223356Y-106589871D01*
X88223356Y-106589871D02*
X88294784Y-106447014D01*
X88294784Y-106447014D02*
X88437642Y-106375586D01*
X88437642Y-106375586D02*
X88794784Y-106375586D01*
X88794784Y-106375586D02*
X88937642Y-106304157D01*
X89437642Y-105947014D02*
X90009070Y-105947014D01*
X89651927Y-105447014D02*
X89651927Y-106732728D01*
X89651927Y-106732728D02*
X89723356Y-106875586D01*
X89723356Y-106875586D02*
X89866213Y-106947014D01*
X89866213Y-106947014D02*
X90009070Y-106947014D01*
X81651926Y-109290502D02*
X81509069Y-109361930D01*
X81509069Y-109361930D02*
X81223355Y-109361930D01*
X81223355Y-109361930D02*
X81080497Y-109290502D01*
X81080497Y-109290502D02*
X81009069Y-109147644D01*
X81009069Y-109147644D02*
X81009069Y-108576216D01*
X81009069Y-108576216D02*
X81080497Y-108433359D01*
X81080497Y-108433359D02*
X81223355Y-108361930D01*
X81223355Y-108361930D02*
X81509069Y-108361930D01*
X81509069Y-108361930D02*
X81651926Y-108433359D01*
X81651926Y-108433359D02*
X81723355Y-108576216D01*
X81723355Y-108576216D02*
X81723355Y-108719073D01*
X81723355Y-108719073D02*
X81009069Y-108861930D01*
X82223354Y-109361930D02*
X83009069Y-108361930D01*
X82223354Y-108361930D02*
X83009069Y-109361930D01*
X83580497Y-108361930D02*
X83580497Y-109861930D01*
X83580497Y-108433359D02*
X83723355Y-108361930D01*
X83723355Y-108361930D02*
X84009069Y-108361930D01*
X84009069Y-108361930D02*
X84151926Y-108433359D01*
X84151926Y-108433359D02*
X84223355Y-108504787D01*
X84223355Y-108504787D02*
X84294783Y-108647644D01*
X84294783Y-108647644D02*
X84294783Y-109076216D01*
X84294783Y-109076216D02*
X84223355Y-109219073D01*
X84223355Y-109219073D02*
X84151926Y-109290502D01*
X84151926Y-109290502D02*
X84009069Y-109361930D01*
X84009069Y-109361930D02*
X83723355Y-109361930D01*
X83723355Y-109361930D02*
X83580497Y-109290502D01*
X85580498Y-109361930D02*
X85580498Y-108576216D01*
X85580498Y-108576216D02*
X85509069Y-108433359D01*
X85509069Y-108433359D02*
X85366212Y-108361930D01*
X85366212Y-108361930D02*
X85080498Y-108361930D01*
X85080498Y-108361930D02*
X84937640Y-108433359D01*
X85580498Y-109290502D02*
X85437640Y-109361930D01*
X85437640Y-109361930D02*
X85080498Y-109361930D01*
X85080498Y-109361930D02*
X84937640Y-109290502D01*
X84937640Y-109290502D02*
X84866212Y-109147644D01*
X84866212Y-109147644D02*
X84866212Y-109004787D01*
X84866212Y-109004787D02*
X84937640Y-108861930D01*
X84937640Y-108861930D02*
X85080498Y-108790502D01*
X85080498Y-108790502D02*
X85437640Y-108790502D01*
X85437640Y-108790502D02*
X85580498Y-108719073D01*
X86294783Y-108361930D02*
X86294783Y-109361930D01*
X86294783Y-108504787D02*
X86366212Y-108433359D01*
X86366212Y-108433359D02*
X86509069Y-108361930D01*
X86509069Y-108361930D02*
X86723355Y-108361930D01*
X86723355Y-108361930D02*
X86866212Y-108433359D01*
X86866212Y-108433359D02*
X86937641Y-108576216D01*
X86937641Y-108576216D02*
X86937641Y-109361930D01*
X88294784Y-109361930D02*
X88294784Y-107861930D01*
X88294784Y-109290502D02*
X88151926Y-109361930D01*
X88151926Y-109361930D02*
X87866212Y-109361930D01*
X87866212Y-109361930D02*
X87723355Y-109290502D01*
X87723355Y-109290502D02*
X87651926Y-109219073D01*
X87651926Y-109219073D02*
X87580498Y-109076216D01*
X87580498Y-109076216D02*
X87580498Y-108647644D01*
X87580498Y-108647644D02*
X87651926Y-108504787D01*
X87651926Y-108504787D02*
X87723355Y-108433359D01*
X87723355Y-108433359D02*
X87866212Y-108361930D01*
X87866212Y-108361930D02*
X88151926Y-108361930D01*
X88151926Y-108361930D02*
X88294784Y-108433359D01*
X89580498Y-109290502D02*
X89437641Y-109361930D01*
X89437641Y-109361930D02*
X89151927Y-109361930D01*
X89151927Y-109361930D02*
X89009069Y-109290502D01*
X89009069Y-109290502D02*
X88937641Y-109147644D01*
X88937641Y-109147644D02*
X88937641Y-108576216D01*
X88937641Y-108576216D02*
X89009069Y-108433359D01*
X89009069Y-108433359D02*
X89151927Y-108361930D01*
X89151927Y-108361930D02*
X89437641Y-108361930D01*
X89437641Y-108361930D02*
X89580498Y-108433359D01*
X89580498Y-108433359D02*
X89651927Y-108576216D01*
X89651927Y-108576216D02*
X89651927Y-108719073D01*
X89651927Y-108719073D02*
X88937641Y-108861930D01*
X90294783Y-109361930D02*
X90294783Y-108361930D01*
X90294783Y-108647644D02*
X90366212Y-108504787D01*
X90366212Y-108504787D02*
X90437641Y-108433359D01*
X90437641Y-108433359D02*
X90580498Y-108361930D01*
X90580498Y-108361930D02*
X90723355Y-108361930D01*
X80866212Y-110276846D02*
X81366212Y-111776846D01*
X81366212Y-111776846D02*
X81866212Y-110276846D01*
X82937640Y-111705418D02*
X82794783Y-111776846D01*
X82794783Y-111776846D02*
X82509069Y-111776846D01*
X82509069Y-111776846D02*
X82366211Y-111705418D01*
X82366211Y-111705418D02*
X82294783Y-111562560D01*
X82294783Y-111562560D02*
X82294783Y-110991132D01*
X82294783Y-110991132D02*
X82366211Y-110848275D01*
X82366211Y-110848275D02*
X82509069Y-110776846D01*
X82509069Y-110776846D02*
X82794783Y-110776846D01*
X82794783Y-110776846D02*
X82937640Y-110848275D01*
X82937640Y-110848275D02*
X83009069Y-110991132D01*
X83009069Y-110991132D02*
X83009069Y-111133989D01*
X83009069Y-111133989D02*
X82294783Y-111276846D01*
X83651925Y-111776846D02*
X83651925Y-110776846D01*
X83651925Y-111062560D02*
X83723354Y-110919703D01*
X83723354Y-110919703D02*
X83794783Y-110848275D01*
X83794783Y-110848275D02*
X83937640Y-110776846D01*
X83937640Y-110776846D02*
X84080497Y-110776846D01*
X84509068Y-111705418D02*
X84651925Y-111776846D01*
X84651925Y-111776846D02*
X84937639Y-111776846D01*
X84937639Y-111776846D02*
X85080496Y-111705418D01*
X85080496Y-111705418D02*
X85151925Y-111562560D01*
X85151925Y-111562560D02*
X85151925Y-111491132D01*
X85151925Y-111491132D02*
X85080496Y-111348275D01*
X85080496Y-111348275D02*
X84937639Y-111276846D01*
X84937639Y-111276846D02*
X84723354Y-111276846D01*
X84723354Y-111276846D02*
X84580496Y-111205418D01*
X84580496Y-111205418D02*
X84509068Y-111062560D01*
X84509068Y-111062560D02*
X84509068Y-110991132D01*
X84509068Y-110991132D02*
X84580496Y-110848275D01*
X84580496Y-110848275D02*
X84723354Y-110776846D01*
X84723354Y-110776846D02*
X84937639Y-110776846D01*
X84937639Y-110776846D02*
X85080496Y-110848275D01*
X85794782Y-111776846D02*
X85794782Y-110776846D01*
X85794782Y-110276846D02*
X85723354Y-110348275D01*
X85723354Y-110348275D02*
X85794782Y-110419703D01*
X85794782Y-110419703D02*
X85866211Y-110348275D01*
X85866211Y-110348275D02*
X85794782Y-110276846D01*
X85794782Y-110276846D02*
X85794782Y-110419703D01*
X86723354Y-111776846D02*
X86580497Y-111705418D01*
X86580497Y-111705418D02*
X86509068Y-111633989D01*
X86509068Y-111633989D02*
X86437640Y-111491132D01*
X86437640Y-111491132D02*
X86437640Y-111062560D01*
X86437640Y-111062560D02*
X86509068Y-110919703D01*
X86509068Y-110919703D02*
X86580497Y-110848275D01*
X86580497Y-110848275D02*
X86723354Y-110776846D01*
X86723354Y-110776846D02*
X86937640Y-110776846D01*
X86937640Y-110776846D02*
X87080497Y-110848275D01*
X87080497Y-110848275D02*
X87151926Y-110919703D01*
X87151926Y-110919703D02*
X87223354Y-111062560D01*
X87223354Y-111062560D02*
X87223354Y-111491132D01*
X87223354Y-111491132D02*
X87151926Y-111633989D01*
X87151926Y-111633989D02*
X87080497Y-111705418D01*
X87080497Y-111705418D02*
X86937640Y-111776846D01*
X86937640Y-111776846D02*
X86723354Y-111776846D01*
X87866211Y-110776846D02*
X87866211Y-111776846D01*
X87866211Y-110919703D02*
X87937640Y-110848275D01*
X87937640Y-110848275D02*
X88080497Y-110776846D01*
X88080497Y-110776846D02*
X88294783Y-110776846D01*
X88294783Y-110776846D02*
X88437640Y-110848275D01*
X88437640Y-110848275D02*
X88509069Y-110991132D01*
X88509069Y-110991132D02*
X88509069Y-111776846D01*
X91151926Y-111776846D02*
X90294783Y-111776846D01*
X90723354Y-111776846D02*
X90723354Y-110276846D01*
X90723354Y-110276846D02*
X90580497Y-110491132D01*
X90580497Y-110491132D02*
X90437640Y-110633989D01*
X90437640Y-110633989D02*
X90294783Y-110705418D01*
X91794782Y-111633989D02*
X91866211Y-111705418D01*
X91866211Y-111705418D02*
X91794782Y-111776846D01*
X91794782Y-111776846D02*
X91723354Y-111705418D01*
X91723354Y-111705418D02*
X91794782Y-111633989D01*
X91794782Y-111633989D02*
X91794782Y-111776846D01*
X92794783Y-110276846D02*
X92937640Y-110276846D01*
X92937640Y-110276846D02*
X93080497Y-110348275D01*
X93080497Y-110348275D02*
X93151926Y-110419703D01*
X93151926Y-110419703D02*
X93223354Y-110562560D01*
X93223354Y-110562560D02*
X93294783Y-110848275D01*
X93294783Y-110848275D02*
X93294783Y-111205418D01*
X93294783Y-111205418D02*
X93223354Y-111491132D01*
X93223354Y-111491132D02*
X93151926Y-111633989D01*
X93151926Y-111633989D02*
X93080497Y-111705418D01*
X93080497Y-111705418D02*
X92937640Y-111776846D01*
X92937640Y-111776846D02*
X92794783Y-111776846D01*
X92794783Y-111776846D02*
X92651926Y-111705418D01*
X92651926Y-111705418D02*
X92580497Y-111633989D01*
X92580497Y-111633989D02*
X92509068Y-111491132D01*
X92509068Y-111491132D02*
X92437640Y-111205418D01*
X92437640Y-111205418D02*
X92437640Y-110848275D01*
X92437640Y-110848275D02*
X92509068Y-110562560D01*
X92509068Y-110562560D02*
X92580497Y-110419703D01*
X92580497Y-110419703D02*
X92651926Y-110348275D01*
X92651926Y-110348275D02*
X92794783Y-110276846D01*
X81080497Y-114191762D02*
X81080497Y-112691762D01*
X81080497Y-112691762D02*
X81580497Y-113763191D01*
X81580497Y-113763191D02*
X82080497Y-112691762D01*
X82080497Y-112691762D02*
X82080497Y-114191762D01*
X83437641Y-114191762D02*
X83437641Y-113406048D01*
X83437641Y-113406048D02*
X83366212Y-113263191D01*
X83366212Y-113263191D02*
X83223355Y-113191762D01*
X83223355Y-113191762D02*
X82937641Y-113191762D01*
X82937641Y-113191762D02*
X82794783Y-113263191D01*
X83437641Y-114120334D02*
X83294783Y-114191762D01*
X83294783Y-114191762D02*
X82937641Y-114191762D01*
X82937641Y-114191762D02*
X82794783Y-114120334D01*
X82794783Y-114120334D02*
X82723355Y-113977476D01*
X82723355Y-113977476D02*
X82723355Y-113834619D01*
X82723355Y-113834619D02*
X82794783Y-113691762D01*
X82794783Y-113691762D02*
X82937641Y-113620334D01*
X82937641Y-113620334D02*
X83294783Y-113620334D01*
X83294783Y-113620334D02*
X83437641Y-113548905D01*
X84794784Y-114191762D02*
X84794784Y-112691762D01*
X84794784Y-114120334D02*
X84651926Y-114191762D01*
X84651926Y-114191762D02*
X84366212Y-114191762D01*
X84366212Y-114191762D02*
X84223355Y-114120334D01*
X84223355Y-114120334D02*
X84151926Y-114048905D01*
X84151926Y-114048905D02*
X84080498Y-113906048D01*
X84080498Y-113906048D02*
X84080498Y-113477476D01*
X84080498Y-113477476D02*
X84151926Y-113334619D01*
X84151926Y-113334619D02*
X84223355Y-113263191D01*
X84223355Y-113263191D02*
X84366212Y-113191762D01*
X84366212Y-113191762D02*
X84651926Y-113191762D01*
X84651926Y-113191762D02*
X84794784Y-113263191D01*
X86080498Y-114120334D02*
X85937641Y-114191762D01*
X85937641Y-114191762D02*
X85651927Y-114191762D01*
X85651927Y-114191762D02*
X85509069Y-114120334D01*
X85509069Y-114120334D02*
X85437641Y-113977476D01*
X85437641Y-113977476D02*
X85437641Y-113406048D01*
X85437641Y-113406048D02*
X85509069Y-113263191D01*
X85509069Y-113263191D02*
X85651927Y-113191762D01*
X85651927Y-113191762D02*
X85937641Y-113191762D01*
X85937641Y-113191762D02*
X86080498Y-113263191D01*
X86080498Y-113263191D02*
X86151927Y-113406048D01*
X86151927Y-113406048D02*
X86151927Y-113548905D01*
X86151927Y-113548905D02*
X85437641Y-113691762D01*
X88437640Y-113406048D02*
X88651926Y-113477476D01*
X88651926Y-113477476D02*
X88723355Y-113548905D01*
X88723355Y-113548905D02*
X88794783Y-113691762D01*
X88794783Y-113691762D02*
X88794783Y-113906048D01*
X88794783Y-113906048D02*
X88723355Y-114048905D01*
X88723355Y-114048905D02*
X88651926Y-114120334D01*
X88651926Y-114120334D02*
X88509069Y-114191762D01*
X88509069Y-114191762D02*
X87937640Y-114191762D01*
X87937640Y-114191762D02*
X87937640Y-112691762D01*
X87937640Y-112691762D02*
X88437640Y-112691762D01*
X88437640Y-112691762D02*
X88580498Y-112763191D01*
X88580498Y-112763191D02*
X88651926Y-112834619D01*
X88651926Y-112834619D02*
X88723355Y-112977476D01*
X88723355Y-112977476D02*
X88723355Y-113120334D01*
X88723355Y-113120334D02*
X88651926Y-113263191D01*
X88651926Y-113263191D02*
X88580498Y-113334619D01*
X88580498Y-113334619D02*
X88437640Y-113406048D01*
X88437640Y-113406048D02*
X87937640Y-113406048D01*
X89294783Y-113191762D02*
X89651926Y-114191762D01*
X90009069Y-113191762D02*
X89651926Y-114191762D01*
X89651926Y-114191762D02*
X89509069Y-114548905D01*
X89509069Y-114548905D02*
X89437640Y-114620334D01*
X89437640Y-114620334D02*
X89294783Y-114691762D01*
X80937640Y-115106678D02*
X81294783Y-116606678D01*
X81294783Y-116606678D02*
X81580497Y-115535250D01*
X81580497Y-115535250D02*
X81866212Y-116606678D01*
X81866212Y-116606678D02*
X82223355Y-115106678D01*
X83009069Y-116606678D02*
X82866212Y-116535250D01*
X82866212Y-116535250D02*
X82794783Y-116463821D01*
X82794783Y-116463821D02*
X82723355Y-116320964D01*
X82723355Y-116320964D02*
X82723355Y-115892392D01*
X82723355Y-115892392D02*
X82794783Y-115749535D01*
X82794783Y-115749535D02*
X82866212Y-115678107D01*
X82866212Y-115678107D02*
X83009069Y-115606678D01*
X83009069Y-115606678D02*
X83223355Y-115606678D01*
X83223355Y-115606678D02*
X83366212Y-115678107D01*
X83366212Y-115678107D02*
X83437641Y-115749535D01*
X83437641Y-115749535D02*
X83509069Y-115892392D01*
X83509069Y-115892392D02*
X83509069Y-116320964D01*
X83509069Y-116320964D02*
X83437641Y-116463821D01*
X83437641Y-116463821D02*
X83366212Y-116535250D01*
X83366212Y-116535250D02*
X83223355Y-116606678D01*
X83223355Y-116606678D02*
X83009069Y-116606678D01*
X84151926Y-115606678D02*
X84151926Y-116892392D01*
X84151926Y-116892392D02*
X84080498Y-117035250D01*
X84080498Y-117035250D02*
X83937641Y-117106678D01*
X83937641Y-117106678D02*
X83866212Y-117106678D01*
X84151926Y-115106678D02*
X84080498Y-115178107D01*
X84080498Y-115178107D02*
X84151926Y-115249535D01*
X84151926Y-115249535D02*
X84223355Y-115178107D01*
X84223355Y-115178107D02*
X84151926Y-115106678D01*
X84151926Y-115106678D02*
X84151926Y-115249535D01*
X85437641Y-116535250D02*
X85294784Y-116606678D01*
X85294784Y-116606678D02*
X85009070Y-116606678D01*
X85009070Y-116606678D02*
X84866212Y-116535250D01*
X84866212Y-116535250D02*
X84794784Y-116392392D01*
X84794784Y-116392392D02*
X84794784Y-115820964D01*
X84794784Y-115820964D02*
X84866212Y-115678107D01*
X84866212Y-115678107D02*
X85009070Y-115606678D01*
X85009070Y-115606678D02*
X85294784Y-115606678D01*
X85294784Y-115606678D02*
X85437641Y-115678107D01*
X85437641Y-115678107D02*
X85509070Y-115820964D01*
X85509070Y-115820964D02*
X85509070Y-115963821D01*
X85509070Y-115963821D02*
X84794784Y-116106678D01*
X86794784Y-116535250D02*
X86651926Y-116606678D01*
X86651926Y-116606678D02*
X86366212Y-116606678D01*
X86366212Y-116606678D02*
X86223355Y-116535250D01*
X86223355Y-116535250D02*
X86151926Y-116463821D01*
X86151926Y-116463821D02*
X86080498Y-116320964D01*
X86080498Y-116320964D02*
X86080498Y-115892392D01*
X86080498Y-115892392D02*
X86151926Y-115749535D01*
X86151926Y-115749535D02*
X86223355Y-115678107D01*
X86223355Y-115678107D02*
X86366212Y-115606678D01*
X86366212Y-115606678D02*
X86651926Y-115606678D01*
X86651926Y-115606678D02*
X86794784Y-115678107D01*
X87437640Y-116606678D02*
X87437640Y-115606678D01*
X87437640Y-115106678D02*
X87366212Y-115178107D01*
X87366212Y-115178107D02*
X87437640Y-115249535D01*
X87437640Y-115249535D02*
X87509069Y-115178107D01*
X87509069Y-115178107D02*
X87437640Y-115106678D01*
X87437640Y-115106678D02*
X87437640Y-115249535D01*
X88723355Y-116535250D02*
X88580498Y-116606678D01*
X88580498Y-116606678D02*
X88294784Y-116606678D01*
X88294784Y-116606678D02*
X88151926Y-116535250D01*
X88151926Y-116535250D02*
X88080498Y-116392392D01*
X88080498Y-116392392D02*
X88080498Y-115820964D01*
X88080498Y-115820964D02*
X88151926Y-115678107D01*
X88151926Y-115678107D02*
X88294784Y-115606678D01*
X88294784Y-115606678D02*
X88580498Y-115606678D01*
X88580498Y-115606678D02*
X88723355Y-115678107D01*
X88723355Y-115678107D02*
X88794784Y-115820964D01*
X88794784Y-115820964D02*
X88794784Y-115963821D01*
X88794784Y-115963821D02*
X88080498Y-116106678D01*
X90080498Y-116535250D02*
X89937640Y-116606678D01*
X89937640Y-116606678D02*
X89651926Y-116606678D01*
X89651926Y-116606678D02*
X89509069Y-116535250D01*
X89509069Y-116535250D02*
X89437640Y-116463821D01*
X89437640Y-116463821D02*
X89366212Y-116320964D01*
X89366212Y-116320964D02*
X89366212Y-115892392D01*
X89366212Y-115892392D02*
X89437640Y-115749535D01*
X89437640Y-115749535D02*
X89509069Y-115678107D01*
X89509069Y-115678107D02*
X89651926Y-115606678D01*
X89651926Y-115606678D02*
X89937640Y-115606678D01*
X89937640Y-115606678D02*
X90080498Y-115678107D01*
X90723354Y-116606678D02*
X90723354Y-115106678D01*
X91366212Y-116606678D02*
X91366212Y-115820964D01*
X91366212Y-115820964D02*
X91294783Y-115678107D01*
X91294783Y-115678107D02*
X91151926Y-115606678D01*
X91151926Y-115606678D02*
X90937640Y-115606678D01*
X90937640Y-115606678D02*
X90794783Y-115678107D01*
X90794783Y-115678107D02*
X90723354Y-115749535D01*
X93151926Y-116535250D02*
X93366212Y-116606678D01*
X93366212Y-116606678D02*
X93723354Y-116606678D01*
X93723354Y-116606678D02*
X93866212Y-116535250D01*
X93866212Y-116535250D02*
X93937640Y-116463821D01*
X93937640Y-116463821D02*
X94009069Y-116320964D01*
X94009069Y-116320964D02*
X94009069Y-116178107D01*
X94009069Y-116178107D02*
X93937640Y-116035250D01*
X93937640Y-116035250D02*
X93866212Y-115963821D01*
X93866212Y-115963821D02*
X93723354Y-115892392D01*
X93723354Y-115892392D02*
X93437640Y-115820964D01*
X93437640Y-115820964D02*
X93294783Y-115749535D01*
X93294783Y-115749535D02*
X93223354Y-115678107D01*
X93223354Y-115678107D02*
X93151926Y-115535250D01*
X93151926Y-115535250D02*
X93151926Y-115392392D01*
X93151926Y-115392392D02*
X93223354Y-115249535D01*
X93223354Y-115249535D02*
X93294783Y-115178107D01*
X93294783Y-115178107D02*
X93437640Y-115106678D01*
X93437640Y-115106678D02*
X93794783Y-115106678D01*
X93794783Y-115106678D02*
X94009069Y-115178107D01*
X94509068Y-115606678D02*
X95294783Y-115606678D01*
X95294783Y-115606678D02*
X94509068Y-116606678D01*
X94509068Y-116606678D02*
X95294783Y-116606678D01*
X95866211Y-116463821D02*
X95937640Y-116535250D01*
X95937640Y-116535250D02*
X95866211Y-116606678D01*
X95866211Y-116606678D02*
X95794783Y-116535250D01*
X95794783Y-116535250D02*
X95866211Y-116463821D01*
X95866211Y-116463821D02*
X95866211Y-116606678D01*
D12*
X149238095Y-102554819D02*
X149238095Y-103364342D01*
X149238095Y-103364342D02*
X149285714Y-103459580D01*
X149285714Y-103459580D02*
X149333333Y-103507200D01*
X149333333Y-103507200D02*
X149428571Y-103554819D01*
X149428571Y-103554819D02*
X149619047Y-103554819D01*
X149619047Y-103554819D02*
X149714285Y-103507200D01*
X149714285Y-103507200D02*
X149761904Y-103459580D01*
X149761904Y-103459580D02*
X149809523Y-103364342D01*
X149809523Y-103364342D02*
X149809523Y-102554819D01*
X150809523Y-103554819D02*
X150238095Y-103554819D01*
X150523809Y-103554819D02*
X150523809Y-102554819D01*
X150523809Y-102554819D02*
X150428571Y-102697676D01*
X150428571Y-102697676D02*
X150333333Y-102792914D01*
X150333333Y-102792914D02*
X150238095Y-102840533D01*
X84438095Y-90154819D02*
X84438095Y-89154819D01*
X84438095Y-89631009D02*
X85009523Y-89631009D01*
X85009523Y-90154819D02*
X85009523Y-89154819D01*
X86009523Y-90154819D02*
X85438095Y-90154819D01*
X85723809Y-90154819D02*
X85723809Y-89154819D01*
X85723809Y-89154819D02*
X85628571Y-89297676D01*
X85628571Y-89297676D02*
X85533333Y-89392914D01*
X85533333Y-89392914D02*
X85438095Y-89440533D01*
X165474819Y-109253333D02*
X166189104Y-109253333D01*
X166189104Y-109253333D02*
X166331961Y-109300952D01*
X166331961Y-109300952D02*
X166427200Y-109396190D01*
X166427200Y-109396190D02*
X166474819Y-109539047D01*
X166474819Y-109539047D02*
X166474819Y-109634285D01*
X165474819Y-108300952D02*
X165474819Y-108777142D01*
X165474819Y-108777142D02*
X165951009Y-108824761D01*
X165951009Y-108824761D02*
X165903390Y-108777142D01*
X165903390Y-108777142D02*
X165855771Y-108681904D01*
X165855771Y-108681904D02*
X165855771Y-108443809D01*
X165855771Y-108443809D02*
X165903390Y-108348571D01*
X165903390Y-108348571D02*
X165951009Y-108300952D01*
X165951009Y-108300952D02*
X166046247Y-108253333D01*
X166046247Y-108253333D02*
X166284342Y-108253333D01*
X166284342Y-108253333D02*
X166379580Y-108300952D01*
X166379580Y-108300952D02*
X166427200Y-108348571D01*
X166427200Y-108348571D02*
X166474819Y-108443809D01*
X166474819Y-108443809D02*
X166474819Y-108681904D01*
X166474819Y-108681904D02*
X166427200Y-108777142D01*
X166427200Y-108777142D02*
X166379580Y-108824761D01*
%TO.C,D11*%
X128530000Y-132300000D02*
X128530000Y-130010000D01*
X128530000Y-130010000D02*
X127070000Y-130010000D01*
X127070000Y-130010000D02*
X127070000Y-132300000D01*
%TO.C,D9*%
X120430000Y-132300000D02*
X120430000Y-130010000D01*
X120430000Y-130010000D02*
X118970000Y-130010000D01*
X118970000Y-130010000D02*
X118970000Y-132300000D01*
%TO.C,D6*%
X114430000Y-132300000D02*
X114430000Y-130010000D01*
X114430000Y-130010000D02*
X112970000Y-130010000D01*
X112970000Y-130010000D02*
X112970000Y-132300000D01*
%TO.C,D7*%
X116430000Y-132300000D02*
X116430000Y-130010000D01*
X116430000Y-130010000D02*
X114970000Y-130010000D01*
X114970000Y-130010000D02*
X114970000Y-132300000D01*
%TO.C,D8*%
X118430000Y-132300000D02*
X118430000Y-130010000D01*
X118430000Y-130010000D02*
X116970000Y-130010000D01*
X116970000Y-130010000D02*
X116970000Y-132300000D01*
%TO.C,D5*%
X112430000Y-132300000D02*
X112430000Y-130010000D01*
X112430000Y-130010000D02*
X110970000Y-130010000D01*
X110970000Y-130010000D02*
X110970000Y-132300000D01*
%TO.C,D2*%
X108430000Y-132300000D02*
X108430000Y-130010000D01*
X108430000Y-130010000D02*
X106970000Y-130010000D01*
X106970000Y-130010000D02*
X106970000Y-132300000D01*
%TO.C,D4*%
X110430000Y-132300000D02*
X110430000Y-130010000D01*
X110430000Y-130010000D02*
X108970000Y-130010000D01*
X108970000Y-130010000D02*
X108970000Y-132300000D01*
%TO.C,U1*%
D14*
X140265000Y-106510000D02*
X140265000Y-101890000D01*
X148335000Y-101890000D02*
X148335000Y-106510000D01*
X147880000Y-100340000D02*
X147640000Y-100010000D01*
X148120000Y-100010000D01*
X147880000Y-100340000D01*
G36*
X147880000Y-100340000D02*
G01*
X147640000Y-100010000D01*
X148120000Y-100010000D01*
X147880000Y-100340000D01*
G37*
%TO.C,U3*%
D12*
X157150000Y-102560000D02*
X157150000Y-100360000D01*
X157150000Y-102560000D02*
X157150000Y-104760000D01*
X163910000Y-102560000D02*
X163910000Y-100360000D01*
X163910000Y-102560000D02*
X163910000Y-104760000D01*
D14*
X163455000Y-98700000D02*
X163215000Y-98370000D01*
X163695000Y-98370000D01*
X163455000Y-98700000D01*
G36*
X163455000Y-98700000D02*
G01*
X163215000Y-98370000D01*
X163695000Y-98370000D01*
X163455000Y-98700000D01*
G37*
%TO.C,D18*%
D12*
X141070000Y-130010000D02*
X141070000Y-132300000D01*
X142530000Y-130010000D02*
X141070000Y-130010000D01*
X142530000Y-132300000D02*
X142530000Y-130010000D01*
%TO.C,D10*%
X120970000Y-130010000D02*
X120970000Y-132300000D01*
X122430000Y-130010000D02*
X120970000Y-130010000D01*
X122430000Y-132300000D02*
X122430000Y-130010000D01*
%TO.C,U4*%
X89430000Y-93555000D02*
X92370000Y-93555000D01*
X89430000Y-100215000D02*
X89430000Y-93555000D01*
X92370000Y-93555000D02*
X92370000Y-100215000D01*
X92370000Y-100215000D02*
X89430000Y-100215000D01*
X92780000Y-99885000D02*
G75*
G02*
X92720000Y-99885000I-30000J0D01*
G01*
X92720000Y-99885000D02*
G75*
G02*
X92780000Y-99885000I30000J0D01*
G01*
%TO.C,J2*%
D14*
X107620000Y-92958272D02*
X108190000Y-92958272D01*
X107620000Y-98158272D02*
X107620000Y-92958272D01*
X107620000Y-98158272D02*
X108190000Y-98158272D01*
X108190000Y-92958272D02*
X108190000Y-91598272D01*
X109710000Y-92958272D02*
X110730000Y-92958272D01*
X109710000Y-98158272D02*
X110730000Y-98158272D01*
X112250000Y-92958272D02*
X113270000Y-92958272D01*
X112250000Y-98158272D02*
X113270000Y-98158272D01*
X114790000Y-92958272D02*
X115810000Y-92958272D01*
X114790000Y-98158272D02*
X115810000Y-98158272D01*
X117330000Y-92958272D02*
X118350000Y-92958272D01*
X117330000Y-98158272D02*
X118350000Y-98158272D01*
X119870000Y-92958272D02*
X120890000Y-92958272D01*
X119870000Y-98158272D02*
X120890000Y-98158272D01*
X122410000Y-92958272D02*
X123430000Y-92958272D01*
X122410000Y-98158272D02*
X123430000Y-98158272D01*
X124950000Y-92958272D02*
X125970000Y-92958272D01*
X124950000Y-98158272D02*
X125970000Y-98158272D01*
X127490000Y-92958272D02*
X128510000Y-92958272D01*
X127490000Y-98158272D02*
X128510000Y-98158272D01*
X130030000Y-92958272D02*
X131050000Y-92958272D01*
X130030000Y-98158272D02*
X131050000Y-98158272D01*
X132570000Y-92958272D02*
X133590000Y-92958272D01*
X132570000Y-98158272D02*
X133590000Y-98158272D01*
X135110000Y-92958272D02*
X136130000Y-92958272D01*
X135110000Y-98158272D02*
X136130000Y-98158272D01*
X137650000Y-92958272D02*
X138670000Y-92958272D01*
X137650000Y-98158272D02*
X138670000Y-98158272D01*
X140190000Y-92958272D02*
X141210000Y-92958272D01*
X140190000Y-98158272D02*
X141210000Y-98158272D01*
X142730000Y-92958272D02*
X143750000Y-92958272D01*
X142730000Y-98158272D02*
X143750000Y-98158272D01*
X145270000Y-92958272D02*
X146290000Y-92958272D01*
X145270000Y-98158272D02*
X146290000Y-98158272D01*
X147810000Y-92958272D02*
X148380000Y-92958272D01*
X147810000Y-98158272D02*
X148380000Y-98158272D01*
X148380000Y-98158272D02*
X148380000Y-92958272D01*
%TO.C,D13*%
D12*
X131070000Y-130010000D02*
X131070000Y-132300000D01*
X132530000Y-130010000D02*
X131070000Y-130010000D01*
X132530000Y-132300000D02*
X132530000Y-130010000D01*
%TO.C,D16*%
X137070000Y-130010000D02*
X137070000Y-132300000D01*
X138530000Y-130010000D02*
X137070000Y-130010000D01*
X138530000Y-132300000D02*
X138530000Y-130010000D01*
%TO.C,D12*%
X129070000Y-130010000D02*
X129070000Y-132300000D01*
X130530000Y-130010000D02*
X129070000Y-130010000D01*
X130530000Y-132300000D02*
X130530000Y-130010000D01*
%TO.C,D3*%
X174675000Y-97275000D02*
X174675000Y-98735000D01*
X174675000Y-98735000D02*
X176965000Y-98735000D01*
X176965000Y-97275000D02*
X174675000Y-97275000D01*
%TO.C,X1*%
X158610000Y-93160000D02*
X158610000Y-94760000D01*
X159960000Y-93160000D02*
X158610000Y-93160000D01*
%TO.C,D15*%
X135070000Y-130010000D02*
X135070000Y-132300000D01*
X136530000Y-130010000D02*
X135070000Y-130010000D01*
X136530000Y-132300000D02*
X136530000Y-130010000D01*
%TO.C,S1*%
D15*
X171700000Y-100850000D02*
X175700000Y-100850000D01*
X171700000Y-101080000D02*
X171700000Y-100850000D01*
X171700000Y-103750000D02*
X171700000Y-103520000D01*
X175700000Y-100850000D02*
X175700000Y-101080000D01*
X175700000Y-103750000D02*
X171700000Y-103750000D01*
X175700000Y-103750000D02*
X175700000Y-103520000D01*
%TO.C,D14*%
D12*
X133070000Y-130010000D02*
X133070000Y-132300000D01*
X134530000Y-130010000D02*
X133070000Y-130010000D01*
X134530000Y-132300000D02*
X134530000Y-130010000D01*
%TO.C,J5*%
D14*
X157180000Y-107540000D02*
X157180000Y-110300000D01*
X162370000Y-107540000D02*
X157180000Y-107540000D01*
X162370000Y-107540000D02*
X162370000Y-110300000D01*
X162370000Y-110300000D02*
X157180000Y-110300000D01*
X163640000Y-107540000D02*
X165020000Y-107540000D01*
X165020000Y-107540000D02*
X165020000Y-108920000D01*
%TO.C,D17*%
D12*
X139070000Y-130010000D02*
X139070000Y-132300000D01*
X140530000Y-130010000D02*
X139070000Y-130010000D01*
X140530000Y-132300000D02*
X140530000Y-130010000D01*
%TD*%
%LPC*%
D16*
%TO.C,R22*%
X127800000Y-127680000D03*
X127800000Y-129320000D03*
%TD*%
D17*
%TO.C,D11*%
X127800000Y-132290000D03*
X127800000Y-130710000D03*
%TD*%
%TO.C,D9*%
X119700000Y-132290000D03*
X119700000Y-130710000D03*
%TD*%
%TO.C,D6*%
X113700000Y-132290000D03*
X113700000Y-130710000D03*
%TD*%
%TO.C,D7*%
X115700000Y-132290000D03*
X115700000Y-130710000D03*
%TD*%
%TO.C,D8*%
X117700000Y-132290000D03*
X117700000Y-130710000D03*
%TD*%
D16*
%TO.C,R15*%
X109700000Y-127680000D03*
X109700000Y-129320000D03*
%TD*%
%TO.C,R12*%
X107700000Y-127680000D03*
X107700000Y-129320000D03*
%TD*%
%TO.C,R18*%
X115700000Y-127680000D03*
X115700000Y-129320000D03*
%TD*%
%TO.C,R21*%
X121700000Y-127680000D03*
X121700000Y-129320000D03*
%TD*%
%TO.C,R20*%
X119700000Y-127680000D03*
X119700000Y-129320000D03*
%TD*%
D17*
%TO.C,D5*%
X111700000Y-132290000D03*
X111700000Y-130710000D03*
%TD*%
%TO.C,D2*%
X107700000Y-132290000D03*
X107700000Y-130710000D03*
%TD*%
D16*
%TO.C,R16*%
X111700000Y-127680000D03*
X111700000Y-129320000D03*
%TD*%
D17*
%TO.C,D4*%
X109700000Y-132290000D03*
X109700000Y-130710000D03*
%TD*%
D16*
%TO.C,R19*%
X117700000Y-127680000D03*
X117700000Y-129320000D03*
%TD*%
%TO.C,R17*%
X113700000Y-127680000D03*
X113700000Y-129320000D03*
%TD*%
D18*
%TO.C,U1*%
X147875000Y-101337500D03*
X147225000Y-101337500D03*
X146575000Y-101337500D03*
X145925000Y-101337500D03*
X145275000Y-101337500D03*
X144625000Y-101337500D03*
X143975000Y-101337500D03*
X143325000Y-101337500D03*
X142675000Y-101337500D03*
X142025000Y-101337500D03*
X141375000Y-101337500D03*
X140725000Y-101337500D03*
X140725000Y-107062500D03*
X141375000Y-107062500D03*
X142025000Y-107062500D03*
X142675000Y-107062500D03*
X143325000Y-107062500D03*
X143975000Y-107062500D03*
X144625000Y-107062500D03*
X145275000Y-107062500D03*
X145925000Y-107062500D03*
X146575000Y-107062500D03*
X147225000Y-107062500D03*
X147875000Y-107062500D03*
%TD*%
D19*
%TO.C,R3*%
X155900000Y-107980000D03*
X155900000Y-109620000D03*
%TD*%
D20*
%TO.C,U3*%
X163450000Y-99700000D03*
X162800000Y-99700000D03*
X162150000Y-99700000D03*
X161500000Y-99700000D03*
X160860000Y-99700000D03*
X160200000Y-99700000D03*
X159560000Y-99700000D03*
X158910000Y-99700000D03*
X158260000Y-99700000D03*
X157610000Y-99700000D03*
X157610000Y-105420000D03*
X158260000Y-105420000D03*
X158910000Y-105420000D03*
X159560000Y-105420000D03*
X160200000Y-105420000D03*
X160860000Y-105420000D03*
X161500000Y-105420000D03*
X162150000Y-105420000D03*
X162800000Y-105420000D03*
X163450000Y-105420000D03*
%TD*%
D17*
%TO.C,D18*%
X141800000Y-130710000D03*
X141800000Y-132290000D03*
%TD*%
%TO.C,D10*%
X121700000Y-130710000D03*
X121700000Y-132290000D03*
%TD*%
D21*
%TO.C,U4*%
X93970000Y-99185000D03*
X93970000Y-96885000D03*
X93970000Y-94585000D03*
D22*
X88000000Y-95885000D03*
X88000000Y-96885000D03*
D23*
X88000000Y-96885000D03*
D22*
X88000000Y-97885000D03*
%TD*%
D16*
%TO.C,R27*%
X137800000Y-129320000D03*
X137800000Y-127680000D03*
%TD*%
D24*
%TO.C,H1*%
X82000000Y-92000000D03*
D25*
X82000000Y-92000000D03*
%TD*%
D26*
%TO.C,J2*%
X108950000Y-93038272D03*
X108950000Y-98078272D03*
X111490000Y-93038272D03*
X111490000Y-98078272D03*
X114030000Y-93038272D03*
X114030000Y-98078272D03*
X116570000Y-93038272D03*
X116570000Y-98078272D03*
X119110000Y-93038272D03*
X119110000Y-98078272D03*
X121650000Y-93038272D03*
X121650000Y-98078272D03*
X124190000Y-93038272D03*
X124190000Y-98078272D03*
X126730000Y-93038272D03*
X126730000Y-98078272D03*
X129270000Y-93038272D03*
X129270000Y-98078272D03*
X131810000Y-93038272D03*
X131810000Y-98078272D03*
X134350000Y-93038272D03*
X134350000Y-98078272D03*
X136890000Y-93038272D03*
X136890000Y-98078272D03*
X139430000Y-93038272D03*
X139430000Y-98078272D03*
X141970000Y-93038272D03*
X141970000Y-98078272D03*
X144510000Y-93038272D03*
X144510000Y-98078272D03*
X147050000Y-93038272D03*
X147050000Y-98078272D03*
%TD*%
D27*
%TO.C,C16*%
X96060000Y-94585000D03*
X97620000Y-94585000D03*
%TD*%
D17*
%TO.C,D13*%
X131800000Y-130710000D03*
X131800000Y-132290000D03*
%TD*%
%TO.C,D16*%
X137800000Y-130710000D03*
X137800000Y-132290000D03*
%TD*%
D19*
%TO.C,R6*%
X153000000Y-105180000D03*
X153000000Y-106820000D03*
%TD*%
D28*
%TO.C,H8*%
X177000000Y-89485000D03*
%TD*%
D27*
%TO.C,C18*%
X96160000Y-96885000D03*
X97720000Y-96885000D03*
%TD*%
D17*
%TO.C,D12*%
X129800000Y-130710000D03*
X129800000Y-132290000D03*
%TD*%
D28*
%TO.C,H7*%
X79000000Y-89500000D03*
%TD*%
D16*
%TO.C,R8*%
X152694704Y-101780539D03*
X152694704Y-100140539D03*
%TD*%
D29*
%TO.C,D3*%
X175375000Y-98005000D03*
X176955000Y-98005000D03*
%TD*%
D30*
%TO.C,H6*%
X153000000Y-94000000D03*
%TD*%
D19*
%TO.C,R9*%
X151600000Y-105180000D03*
X151600000Y-106820000D03*
%TD*%
D16*
%TO.C,R28*%
X139800000Y-129320000D03*
X139800000Y-127680000D03*
%TD*%
D28*
%TO.C,H9*%
X177000000Y-137000000D03*
%TD*%
D16*
%TO.C,R1*%
X150694704Y-101780539D03*
X150694704Y-100140539D03*
%TD*%
%TO.C,R26*%
X135800000Y-129320000D03*
X135800000Y-127680000D03*
%TD*%
D30*
%TO.C,H5*%
X103000000Y-94000000D03*
%TD*%
D19*
%TO.C,R2*%
X154694704Y-100140539D03*
X154694704Y-101780539D03*
%TD*%
D31*
%TO.C,X1*%
X159430000Y-94060000D03*
X159430000Y-96260000D03*
X161190000Y-96260000D03*
X161190000Y-94060000D03*
%TD*%
D32*
%TO.C,C5*%
X157810000Y-94380000D03*
X157810000Y-95940000D03*
%TD*%
D30*
%TO.C,H2*%
X174000000Y-134000000D03*
%TD*%
D16*
%TO.C,R24*%
X131800000Y-129320000D03*
X131800000Y-127680000D03*
%TD*%
D27*
%TO.C,C3*%
X157850000Y-97860000D03*
X159410000Y-97860000D03*
%TD*%
D33*
%TO.C,C1*%
X149050000Y-106980000D03*
X149050000Y-105420000D03*
%TD*%
D30*
%TO.C,H4*%
X174000000Y-92000000D03*
%TD*%
D17*
%TO.C,D15*%
X135800000Y-130710000D03*
X135800000Y-132290000D03*
%TD*%
D34*
%TO.C,S1*%
X171625000Y-102300000D03*
X175775000Y-102300000D03*
%TD*%
D33*
%TO.C,C4*%
X162510000Y-96040000D03*
X162510000Y-94480000D03*
%TD*%
D17*
%TO.C,D14*%
X133800000Y-130710000D03*
X133800000Y-132290000D03*
%TD*%
D16*
%TO.C,R23*%
X129800000Y-129320000D03*
X129800000Y-127680000D03*
%TD*%
%TO.C,R25*%
X133800000Y-129320000D03*
X133800000Y-127680000D03*
%TD*%
%TO.C,R10*%
X168800000Y-102920000D03*
X168800000Y-101280000D03*
%TD*%
D35*
%TO.C,J5*%
X163640000Y-108920000D03*
D36*
X161100000Y-108920000D03*
X158560000Y-108920000D03*
%TD*%
D19*
%TO.C,R4*%
X156200000Y-98180000D03*
X156200000Y-99820000D03*
%TD*%
D16*
%TO.C,R29*%
X141800000Y-129320000D03*
X141800000Y-127680000D03*
%TD*%
D37*
%TO.C,R7*%
X172280000Y-98000000D03*
X173920000Y-98000000D03*
%TD*%
D30*
%TO.C,H3*%
X82000000Y-134000000D03*
%TD*%
D17*
%TO.C,D17*%
X139800000Y-130710000D03*
X139800000Y-132290000D03*
%TD*%
%LPD*%
M02*
