%TF.GenerationSoftware,KiCad,Pcbnew,10.0.1*%
%TF.CreationDate,2026-06-23T18:22:49+02:00*%
%TF.ProjectId,MMS3_hat_templates,4d4d5333-5f68-4617-945f-74656d706c61,R0*%
%TF.SameCoordinates,Original*%
%TF.FileFunction,Copper,L2,Bot*%
%TF.FilePolarity,Positive*%
%FSLAX46Y46*%
G04 Gerber Fmt 4.6, Leading zero omitted, Abs format (unit mm)*
G04 Created by KiCad (PCBNEW 10.0.1) date 2026-06-23 18:22:49*
%MOMM*%
%LPD*%
G01*
G04 APERTURE LIST*
G04 Aperture macros list*
%AMRoundRect*
0 Rectangle with rounded corners*
0 $1 Rounding radius*
0 $2 $3 $4 $5 $6 $7 $8 $9 X,Y pos of 4 corners*
0 Add a 4 corners polygon primitive as box body*
4,1,4,$2,$3,$4,$5,$6,$7,$8,$9,$2,$3,0*
0 Add four circle primitives for the rounded corners*
1,1,$1+$1,$2,$3*
1,1,$1+$1,$4,$5*
1,1,$1+$1,$6,$7*
1,1,$1+$1,$8,$9*
0 Add four rect primitives between the rounded corners*
20,1,$1+$1,$2,$3,$4,$5,0*
20,1,$1+$1,$4,$5,$6,$7,0*
20,1,$1+$1,$6,$7,$8,$9,0*
20,1,$1+$1,$8,$9,$2,$3,0*%
G04 Aperture macros list end*
%TA.AperFunction,ComponentPad*%
%ADD10C,0.500000*%
%TD*%
%TA.AperFunction,SMDPad,CuDef*%
%ADD11RoundRect,0.250000X-0.920000X-1.550000X0.920000X-1.550000X0.920000X1.550000X-0.920000X1.550000X0*%
%TD*%
%TA.AperFunction,ComponentPad*%
%ADD12C,3.100000*%
%TD*%
%TA.AperFunction,ComponentPad*%
%ADD13R,1.700000X1.700000*%
%TD*%
%TA.AperFunction,ComponentPad*%
%ADD14C,1.700000*%
%TD*%
%TA.AperFunction,SMDPad,CuDef*%
%ADD15R,1.000000X3.150000*%
%TD*%
%TA.AperFunction,ViaPad*%
%ADD16C,0.500000*%
%TD*%
%TA.AperFunction,Conductor*%
%ADD17C,0.200000*%
%TD*%
%TA.AperFunction,Conductor*%
%ADD18C,0.300000*%
%TD*%
G04 APERTURE END LIST*
D10*
%TO.P,U4,4,VOUT_4*%
%TO.N,+3V3*%
X88000000Y-95885000D03*
X88000000Y-96885000D03*
D11*
X88000000Y-96885000D03*
D10*
X88000000Y-97885000D03*
%TD*%
D12*
%TO.P,H1,1,1_1*%
%TO.N,GND*%
X82000000Y-92000000D03*
%TD*%
D13*
%TO.P,J5,1,Pin_1_1*%
%TO.N,/CH32V003/SWIO*%
X163640000Y-108920000D03*
D14*
%TO.P,J5,2,Pin_2_2*%
%TO.N,GND*%
X161100000Y-108920000D03*
%TO.P,J5,3,Pin_3_3*%
%TO.N,+3V3*%
X158560000Y-108920000D03*
%TD*%
D15*
%TO.P,J1,1,Pin_1_1*%
%TO.N,GND*%
X108940000Y-93013272D03*
%TO.P,J1,2,Pin_2_2*%
%TO.N,/SEL_1*%
X108940000Y-98063272D03*
%TO.P,J1,3,Pin_3_3*%
%TO.N,+5V*%
X111480000Y-93013272D03*
%TO.P,J1,4,Pin_4_4*%
%TO.N,/SEL_2*%
X111480000Y-98063272D03*
%TO.P,J1,5,Pin_5_5*%
%TO.N,+5V*%
X114020000Y-93013272D03*
%TO.P,J1,6,Pin_6_6*%
%TO.N,/SEL_3*%
X114020000Y-98063272D03*
%TO.P,J1,7,Pin_7_7*%
%TO.N,GND*%
X116560000Y-93013272D03*
%TO.P,J1,8,Pin_8_8*%
%TO.N,/SEL_4*%
X116560000Y-98063272D03*
%TO.P,J1,9,Pin_9_9*%
%TO.N,VIN_CHAINBUS*%
X119100000Y-93013272D03*
%TO.P,J1,10,Pin_10_10*%
%TO.N,/SEL_5*%
X119100000Y-98063272D03*
%TO.P,J1,11,Pin_11_11*%
%TO.N,VIN_CHAINBUS*%
X121640000Y-93013272D03*
%TO.P,J1,12,Pin_12_12*%
%TO.N,/SEL_6*%
X121640000Y-98063272D03*
%TO.P,J1,13,Pin_13_13*%
%TO.N,VIN_CHAINBUS*%
X124180000Y-93013272D03*
%TO.P,J1,14,Pin_14_14*%
%TO.N,/SEL_7*%
X124180000Y-98063272D03*
%TO.P,J1,15,Pin_15_15*%
%TO.N,VIN_CHAINBUS*%
X126720000Y-93013272D03*
%TO.P,J1,16,Pin_16_16*%
%TO.N,/SEL_8*%
X126720000Y-98063272D03*
%TO.P,J1,17,Pin_17_17*%
%TO.N,GND*%
X129260000Y-93013272D03*
%TO.P,J1,18,Pin_18_18*%
%TO.N,/Chainbus_In.SDA*%
X129260000Y-98063272D03*
%TO.P,J1,19,Pin_19_19*%
%TO.N,GND*%
X131800000Y-93013272D03*
%TO.P,J1,20,Pin_20_20*%
%TO.N,/Chainbus_In.SCL*%
X131800000Y-98063272D03*
%TO.P,J1,21,Pin_21_21*%
%TO.N,GND*%
X134340000Y-93013272D03*
%TO.P,J1,22,Pin_22_22*%
%TO.N,/Chainbus_In.CS*%
X134340000Y-98063272D03*
%TO.P,J1,23,Pin_23_23*%
%TO.N,GND*%
X136880000Y-93013272D03*
%TO.P,J1,24,Pin_24_24*%
%TO.N,/Chainbus_In.SCK*%
X136880000Y-98063272D03*
%TO.P,J1,25,Pin_25_25*%
%TO.N,unconnected-(J1-Pin_25-Pad25)*%
X139420000Y-93013272D03*
%TO.P,J1,26,Pin_26_26*%
%TO.N,/Chainbus_In.MOSI*%
X139420000Y-98063272D03*
%TO.P,J1,27,Pin_27_27*%
%TO.N,unconnected-(J1-Pin_27-Pad27)*%
X141960000Y-93013272D03*
%TO.P,J1,28,Pin_28_28*%
%TO.N,/Chainbus_In.MISO*%
X141960000Y-98063272D03*
%TO.P,J1,29,Pin_29_29*%
%TO.N,+12V stby*%
X144500000Y-93013272D03*
%TO.P,J1,30,Pin_30_30*%
%TO.N,/Chainbus_In.TX*%
X144500000Y-98063272D03*
%TO.P,J1,31,Pin_31_31*%
%TO.N,GND*%
X147040000Y-93013272D03*
%TO.P,J1,32,Pin_32_32*%
%TO.N,/Chainbus_In.RX*%
X147040000Y-98063272D03*
%TD*%
D16*
%TO.N,+3V3*%
X142800000Y-110200000D03*
%TO.N,/NEW_SEL8*%
X140500000Y-110600000D03*
%TO.N,/NEW_SEL7*%
X138300000Y-111000000D03*
%TO.N,/NEW_SEL6*%
X137100000Y-111200000D03*
%TO.N,/NEW_SEL5*%
X136001472Y-111198528D03*
%TO.N,/NEW_SEL4*%
X134985000Y-111415000D03*
%TO.N,/NEW_SEL3*%
X133785000Y-112215000D03*
%TO.N,/NEW_SEL2*%
X132950000Y-112900000D03*
%TO.N,/NEW_SEL1*%
X127800000Y-111600000D03*
%TO.N,GND*%
X133100000Y-102400000D03*
X133050000Y-92050000D03*
X163700000Y-107100000D03*
X115600000Y-94200000D03*
X115650000Y-91750000D03*
X110100000Y-93500000D03*
X166300000Y-101500000D03*
X148000000Y-93500000D03*
X151500000Y-97400000D03*
X139700000Y-101250000D03*
X160700000Y-101300000D03*
X130500000Y-94300000D03*
X168700000Y-107000000D03*
X133400000Y-100600000D03*
X95900000Y-95700000D03*
X139400000Y-109800000D03*
X130000000Y-114500000D03*
X151700000Y-100200000D03*
X159000000Y-107500000D03*
X153900000Y-101000000D03*
X125700000Y-103000000D03*
X99400000Y-96900000D03*
X139200000Y-100600000D03*
X125500000Y-100900000D03*
X158300000Y-101900000D03*
X157900000Y-114800000D03*
X173800000Y-102300000D03*
X143900000Y-108400000D03*
X148000000Y-94200000D03*
X148150000Y-91950000D03*
X148500000Y-114800000D03*
X98800000Y-98800000D03*
X98600000Y-100700000D03*
X160100000Y-110400000D03*
X97700000Y-92500000D03*
X118800000Y-103900000D03*
X127500000Y-102800000D03*
X129300000Y-102700000D03*
X96500000Y-99200000D03*
X138700000Y-114600000D03*
X115600000Y-93500000D03*
X165200000Y-105400000D03*
X100200000Y-98000000D03*
X99200000Y-94600000D03*
X150050000Y-105400000D03*
X161500000Y-103700000D03*
X156200000Y-95900000D03*
X110100000Y-91950000D03*
X130400000Y-100400000D03*
X133100000Y-94400000D03*
X165500000Y-114200000D03*
X130500000Y-93700000D03*
X161200000Y-90700000D03*
X164700000Y-94700000D03*
X135600000Y-92000000D03*
X162200000Y-110900000D03*
X149600000Y-98300000D03*
X177200000Y-100100000D03*
X138000000Y-107700000D03*
X160500000Y-106800000D03*
X154600000Y-105200000D03*
X131100000Y-102600000D03*
X135600000Y-94500000D03*
X135600000Y-93700000D03*
X124400000Y-110700000D03*
X157100000Y-107200000D03*
X147100000Y-105600000D03*
X96200000Y-100700000D03*
X110100000Y-94200000D03*
X151700000Y-99100000D03*
X133050000Y-93700000D03*
X137100000Y-104100000D03*
X130500000Y-91950000D03*
X127300000Y-100600000D03*
%TO.N,+3V3*%
X150300000Y-107000000D03*
X170400000Y-99600000D03*
X169900000Y-102900000D03*
X154900000Y-109000000D03*
X156800000Y-97400000D03*
%TO.N,+5V*%
X112750000Y-93500000D03*
X112750000Y-91900000D03*
X112750000Y-94300000D03*
%TO.N,VIN_CHAINBUS*%
X120350000Y-94200000D03*
X122900000Y-93400000D03*
X125500000Y-93400000D03*
X125500000Y-94200000D03*
X122900000Y-94200000D03*
X120400000Y-93400000D03*
X120350000Y-91900000D03*
X125500000Y-92000000D03*
X122900000Y-91950000D03*
%TO.N,+12V stby*%
X143550000Y-92050000D03*
X143400000Y-94100000D03*
%TO.N,/SEL_1*%
X143800000Y-104900000D03*
X155300000Y-99000000D03*
X149600000Y-101300000D03*
X101000000Y-99800000D03*
X140000000Y-107200000D03*
X153500000Y-98500000D03*
X141200000Y-105500000D03*
%TO.N,/SEL_2*%
X103000000Y-100300000D03*
%TO.N,/SEL_3*%
X105000000Y-100900000D03*
%TO.N,/SEL_4*%
X107000000Y-101400000D03*
%TO.N,/SEL_5*%
X109000000Y-101800000D03*
%TO.N,/SEL_6*%
X111000000Y-102300000D03*
%TO.N,/SEL_7*%
X113100000Y-102900000D03*
%TO.N,/SEL_8*%
X115000000Y-103200000D03*
%TO.N,/NEW_SEL1*%
X120600000Y-104430000D03*
X163400000Y-100900000D03*
%TO.N,/NEW_SEL2*%
X123600000Y-103700000D03*
X162800000Y-101300000D03*
%TO.N,/NEW_SEL3*%
X162100000Y-100900000D03*
X125235000Y-103665000D03*
%TO.N,/NEW_SEL4*%
X127135000Y-103565000D03*
X158900000Y-100900000D03*
%TO.N,/NEW_SEL5*%
X165000000Y-106900000D03*
X129135000Y-103565000D03*
%TO.N,/NEW_SEL6*%
X131135000Y-103565000D03*
X162700000Y-106600000D03*
%TO.N,/NEW_SEL7*%
X133085000Y-103515000D03*
X159200000Y-110600000D03*
%TO.N,/NEW_SEL8*%
X135035000Y-103465000D03*
X158900000Y-104300000D03*
%TO.N,/Chainbus_In.RX*%
X148200000Y-98050000D03*
%TO.N,/Chainbus_In.MOSI*%
X140450000Y-98000000D03*
%TO.N,/Chainbus_In.SDA*%
X142200000Y-105600000D03*
X130300000Y-98100000D03*
%TO.N,/Chainbus_In.TX*%
X145650000Y-97950000D03*
%TO.N,/Chainbus_In.SCK*%
X137850000Y-98050000D03*
%TO.N,/Chainbus_In.MISO*%
X143000000Y-98000000D03*
%TO.N,/Chainbus_In.SCL*%
X132850000Y-98050000D03*
X143900000Y-105900000D03*
%TO.N,/Chainbus_In.CS*%
X135400000Y-98050000D03*
%TO.N,/Chainbus.SDA*%
X154500000Y-108000000D03*
X153000000Y-107550000D03*
%TO.N,/Chainbus.SCK*%
X156200000Y-103900000D03*
X156200000Y-102200000D03*
%TD*%
%TO.N,/NEW_SEL8*%
D17*
X140500000Y-110600000D02*
X140500000Y-110700000D01*
X140500000Y-110700000D02*
X139500000Y-110700000D01*
%TO.N,/NEW_SEL7*%
X133085000Y-105785000D02*
X133085000Y-103515000D01*
X158900000Y-111100000D02*
X138400000Y-111100000D01*
X159200000Y-110800000D02*
X158900000Y-111100000D01*
X159200000Y-110600000D02*
X159200000Y-110800000D01*
X138400000Y-111100000D02*
X133085000Y-105785000D01*
%TO.N,/NEW_SEL6*%
X137100000Y-111200000D02*
X137300000Y-111000000D01*
X137300000Y-111000000D02*
X131135000Y-104835000D01*
X137800000Y-111500000D02*
X137300000Y-111000000D01*
X131135000Y-104835000D02*
X131135000Y-103565000D01*
X160075635Y-111500000D02*
X137800000Y-111500000D01*
X162200000Y-109375635D02*
X160075635Y-111500000D01*
X162200000Y-107100000D02*
X162200000Y-109375635D01*
X162700000Y-106600000D02*
X162200000Y-107100000D01*
%TO.N,/NEW_SEL8*%
X135000000Y-103500000D02*
X135035000Y-103465000D01*
X135000000Y-106200000D02*
X135000000Y-103500000D01*
X139500000Y-110700000D02*
X135000000Y-106200000D01*
X158335635Y-110700000D02*
X140500000Y-110700000D01*
X159660000Y-109375635D02*
X158335635Y-110700000D01*
X159660000Y-105060000D02*
X159660000Y-109375635D01*
X158900000Y-104300000D02*
X159660000Y-105060000D01*
%TO.N,/NEW_SEL4*%
X134985000Y-111415000D02*
X135870000Y-112300000D01*
%TO.N,/NEW_SEL3*%
X125235000Y-103665000D02*
X133785000Y-112215000D01*
%TO.N,/NEW_SEL1*%
X127800000Y-111600000D02*
X129600000Y-113400000D01*
%TO.N,GND*%
X161100000Y-108000000D02*
X161600000Y-107500000D01*
X161100000Y-108920000D02*
X161100000Y-108000000D01*
%TO.N,+3V3*%
D18*
X169900000Y-100100000D02*
X170400000Y-99600000D01*
X156800000Y-97400000D02*
X156800000Y-100500000D01*
X156800000Y-100500000D02*
X150300000Y-107000000D01*
X158560000Y-108920000D02*
X158480000Y-109000000D01*
X154900000Y-109000000D02*
X150300000Y-109000000D01*
X159000000Y-99600000D02*
X156800000Y-97400000D01*
X150300000Y-107000000D02*
X150300000Y-109000000D01*
X170400000Y-99600000D02*
X159000000Y-99600000D01*
X158480000Y-109000000D02*
X154900000Y-109000000D01*
X169900000Y-102900000D02*
X169900000Y-100100000D01*
%TO.N,+12V stby*%
X143500000Y-92050000D02*
X144700000Y-92050000D01*
X143400000Y-94100000D02*
X144600000Y-94100000D01*
%TO.N,/SEL_1*%
D17*
X155300000Y-99000000D02*
X154000000Y-99000000D01*
X128919000Y-101549000D02*
X137849000Y-101549000D01*
X140251000Y-105200000D02*
X140251000Y-106949000D01*
X111253272Y-95750000D02*
X127250000Y-95750000D01*
X107203272Y-99800000D02*
X101000000Y-99800000D01*
X137849000Y-101549000D02*
X140251000Y-103951000D01*
X140900000Y-105200000D02*
X141200000Y-105500000D01*
X146000000Y-104900000D02*
X149600000Y-101300000D01*
X140251000Y-105200000D02*
X140900000Y-105200000D01*
X108940000Y-98063272D02*
X107203272Y-99800000D01*
X140251000Y-106949000D02*
X140000000Y-107200000D01*
X143800000Y-104900000D02*
X146000000Y-104900000D01*
X127250000Y-95750000D02*
X128140000Y-96640000D01*
X128140000Y-96640000D02*
X128140000Y-100770000D01*
X154000000Y-99000000D02*
X153500000Y-98500000D01*
X140251000Y-103951000D02*
X140251000Y-105200000D01*
X128140000Y-100770000D02*
X128919000Y-101549000D01*
X108940000Y-98063272D02*
X111253272Y-95750000D01*
%TO.N,/SEL_2*%
X109243272Y-100300000D02*
X103000000Y-100300000D01*
X111480000Y-98063272D02*
X109243272Y-100300000D01*
%TO.N,/SEL_3*%
X111183272Y-100900000D02*
X105000000Y-100900000D01*
X114020000Y-98063272D02*
X111183272Y-100900000D01*
%TO.N,/SEL_4*%
X107100000Y-101300000D02*
X107000000Y-101400000D01*
X113323272Y-101300000D02*
X107100000Y-101300000D01*
X116560000Y-98063272D02*
X113323272Y-101300000D01*
%TO.N,/SEL_5*%
X119100000Y-98063272D02*
X115363272Y-101800000D01*
X115363272Y-101800000D02*
X109000000Y-101800000D01*
%TO.N,/SEL_6*%
X117403272Y-102300000D02*
X111000000Y-102300000D01*
X121640000Y-98063272D02*
X117403272Y-102300000D01*
%TO.N,/SEL_7*%
X124180000Y-98063272D02*
X119543272Y-102700000D01*
X113300000Y-102700000D02*
X113100000Y-102900000D01*
X119543272Y-102700000D02*
X113300000Y-102700000D01*
%TO.N,/SEL_8*%
X115000000Y-103200000D02*
X121583272Y-103200000D01*
X121583272Y-103200000D02*
X126720000Y-98063272D01*
%TO.N,/NEW_SEL1*%
X129600000Y-113400000D02*
X163339898Y-113400000D01*
X167300000Y-109439896D02*
X167300000Y-104800000D01*
X120630000Y-104430000D02*
X127800000Y-111600000D01*
X120600000Y-104430000D02*
X120630000Y-104430000D01*
X167300000Y-104800000D02*
X163400000Y-100900000D01*
X163339898Y-113400000D02*
X167300000Y-109439896D01*
%TO.N,/NEW_SEL2*%
X163194923Y-113050000D02*
X132950000Y-113050000D01*
X163094975Y-101300000D02*
X166950000Y-105155025D01*
X166950000Y-105155025D02*
X166950000Y-109294922D01*
X132950000Y-113050000D02*
X123600000Y-103700000D01*
X162800000Y-101300000D02*
X163094975Y-101300000D01*
X166950000Y-109294922D02*
X163194923Y-113050000D01*
%TO.N,/NEW_SEL3*%
X134270000Y-112700000D02*
X163049948Y-112700000D01*
X162592893Y-101800000D02*
X162100000Y-101307107D01*
X133785000Y-112215000D02*
X134270000Y-112700000D01*
X166600000Y-105300000D02*
X163100000Y-101800000D01*
X163100000Y-101800000D02*
X162592893Y-101800000D01*
X163049948Y-112700000D02*
X166600000Y-109149948D01*
X166600000Y-109149948D02*
X166600000Y-105300000D01*
X162100000Y-101307107D02*
X162100000Y-100900000D01*
%TO.N,/NEW_SEL4*%
X135870000Y-112300000D02*
X162954974Y-112300000D01*
X163100000Y-102300000D02*
X160300000Y-102300000D01*
X127135000Y-103565000D02*
X134985000Y-111415000D01*
X160300000Y-102300000D02*
X158900000Y-100900000D01*
X162954974Y-112300000D02*
X166200000Y-109054974D01*
X166200000Y-105400000D02*
X163100000Y-102300000D01*
X166200000Y-109054974D02*
X166200000Y-105400000D01*
%TO.N,/NEW_SEL5*%
X165000000Y-109760000D02*
X165000000Y-106900000D01*
X162860000Y-111900000D02*
X165000000Y-109760000D01*
X129135000Y-103565000D02*
X129135000Y-104119922D01*
X129135000Y-104119922D02*
X136915078Y-111900000D01*
X136915078Y-111900000D02*
X162860000Y-111900000D01*
%TO.N,/Chainbus_In.RX*%
X148200000Y-98050000D02*
X147053272Y-98050000D01*
X147053272Y-98050000D02*
X147040000Y-98063272D01*
%TO.N,/Chainbus_In.MOSI*%
X140450000Y-98000000D02*
X139483272Y-98000000D01*
X139483272Y-98000000D02*
X139420000Y-98063272D01*
%TO.N,/Chainbus_In.SDA*%
X129296728Y-98100000D02*
X129260000Y-98063272D01*
X134900000Y-101198000D02*
X137994388Y-101198000D01*
X130300000Y-98100000D02*
X129296728Y-98100000D01*
X137994388Y-101198000D02*
X142200000Y-105403612D01*
X142200000Y-105403612D02*
X142200000Y-105600000D01*
X132394728Y-101198000D02*
X134900000Y-101198000D01*
X129260000Y-98063272D02*
X132394728Y-101198000D01*
%TO.N,/Chainbus_In.TX*%
X145536728Y-98063272D02*
X145650000Y-97950000D01*
X144500000Y-98063272D02*
X145536728Y-98063272D01*
%TO.N,/Chainbus_In.SCK*%
X137850000Y-98050000D02*
X136893272Y-98050000D01*
X136893272Y-98050000D02*
X136880000Y-98063272D01*
%TO.N,/Chainbus_In.MISO*%
X141960000Y-98063272D02*
X142936728Y-98063272D01*
X142936728Y-98063272D02*
X143000000Y-98000000D01*
%TO.N,/Chainbus_In.SCL*%
X132850000Y-98050000D02*
X131813272Y-98050000D01*
X142100000Y-104100000D02*
X143900000Y-105900000D01*
X131800000Y-98063272D02*
X134583728Y-100847000D01*
X138147000Y-100847000D02*
X141400000Y-104100000D01*
X134583728Y-100847000D02*
X138147000Y-100847000D01*
X131813272Y-98050000D02*
X131800000Y-98063272D01*
X141400000Y-104100000D02*
X142100000Y-104100000D01*
%TO.N,/Chainbus_In.CS*%
X135400000Y-98050000D02*
X134353272Y-98050000D01*
X134353272Y-98050000D02*
X134340000Y-98063272D01*
%TO.N,/Chainbus.SDA*%
X154050000Y-107550000D02*
X153000000Y-107550000D01*
X154500000Y-108000000D02*
X154050000Y-107550000D01*
%TO.N,/Chainbus.SCK*%
X156200000Y-102200000D02*
X156200000Y-103900000D01*
%TO.N,+3V3*%
D18*
X150300000Y-109000000D02*
X144000000Y-109000000D01*
X144000000Y-109000000D02*
X142800000Y-110200000D01*
%TD*%
%TA.AperFunction,Conductor*%
%TO.N,GND*%
G36*
X117243039Y-91319685D02*
G01*
X117288794Y-91372489D01*
X117300000Y-91424000D01*
X117300000Y-94326000D01*
X117280315Y-94393039D01*
X117227511Y-94438794D01*
X117176000Y-94450000D01*
X115374000Y-94450000D01*
X115306961Y-94430315D01*
X115261206Y-94377511D01*
X115250000Y-94326000D01*
X115250000Y-91424000D01*
X115269685Y-91356961D01*
X115322489Y-91311206D01*
X115374000Y-91300000D01*
X117176000Y-91300000D01*
X117243039Y-91319685D01*
G37*
%TD.AperFunction*%
%TD*%
%TA.AperFunction,Conductor*%
%TO.N,GND*%
G36*
X137400000Y-94600000D02*
G01*
X128700000Y-94600000D01*
X128700000Y-91450000D01*
X137400000Y-91450000D01*
X137400000Y-94600000D01*
G37*
%TD.AperFunction*%
%TD*%
%TA.AperFunction,Conductor*%
%TO.N,GND*%
G36*
X162476653Y-109597370D02*
G01*
X162494483Y-109596727D01*
X162509807Y-109605811D01*
X162527073Y-109610208D01*
X162539237Y-109623258D01*
X162554585Y-109632357D01*
X162568107Y-109651818D01*
X162568906Y-109651305D01*
X162569811Y-109652713D01*
X162570602Y-109655408D01*
X162574697Y-109661301D01*
X162574713Y-109661318D01*
X162574725Y-109661341D01*
X162575459Y-109662806D01*
X162579755Y-109686573D01*
X162589500Y-109719751D01*
X162589500Y-109789752D01*
X162601131Y-109848229D01*
X162601132Y-109848230D01*
X162601132Y-109848231D01*
X162601134Y-109848233D01*
X162645447Y-109914552D01*
X162711765Y-109958864D01*
X162711767Y-109958866D01*
X162711770Y-109958868D01*
X162762612Y-109968981D01*
X162765337Y-109969703D01*
X162770249Y-109970500D01*
X162770250Y-109970500D01*
X162770252Y-109970500D01*
X164047337Y-109970500D01*
X164082264Y-109975521D01*
X164093117Y-109978707D01*
X164151898Y-110016477D01*
X164180927Y-110080031D01*
X164170988Y-110149190D01*
X164170987Y-110149192D01*
X164167802Y-110156167D01*
X164142686Y-110192342D01*
X162784455Y-111550573D01*
X162756204Y-111571722D01*
X162733116Y-111584330D01*
X162673686Y-111599500D01*
X160718298Y-111599500D01*
X160683363Y-111594477D01*
X160672509Y-111591290D01*
X160613731Y-111553516D01*
X160584706Y-111489960D01*
X160585798Y-111482365D01*
X160594646Y-111420811D01*
X160597836Y-111413824D01*
X160622945Y-111377660D01*
X162365214Y-109635391D01*
X162393475Y-109614238D01*
X162403099Y-109608984D01*
X162404367Y-109611307D01*
X162410006Y-109609427D01*
X162424659Y-109599246D01*
X162442463Y-109598603D01*
X162459364Y-109592968D01*
X162476653Y-109597370D01*
G37*
%TD.AperFunction*%
%TA.AperFunction,Conductor*%
G36*
X160621309Y-109147646D02*
G01*
X160677243Y-109189517D01*
X160685362Y-109201826D01*
X160699898Y-109227003D01*
X160699900Y-109227005D01*
X160699901Y-109227007D01*
X160792993Y-109320099D01*
X160818169Y-109334634D01*
X160866384Y-109385202D01*
X160879606Y-109453809D01*
X160853638Y-109518673D01*
X160843849Y-109529702D01*
X160338282Y-110035268D01*
X160338282Y-110035269D01*
X160338282Y-110035270D01*
X160392449Y-110074624D01*
X160478713Y-110118578D01*
X160581783Y-110171096D01*
X160581789Y-110171098D01*
X160616390Y-110182340D01*
X160672611Y-110200607D01*
X160704284Y-110216179D01*
X160715740Y-110224012D01*
X160759970Y-110278100D01*
X160767936Y-110347514D01*
X160767935Y-110347523D01*
X160767366Y-110350810D01*
X160746031Y-110401810D01*
X160744882Y-110403416D01*
X160731715Y-110418946D01*
X160000090Y-111150573D01*
X159978046Y-111167075D01*
X159971839Y-111171722D01*
X159948751Y-111184330D01*
X159889321Y-111199500D01*
X159543238Y-111199500D01*
X159508303Y-111194477D01*
X159497449Y-111191290D01*
X159438671Y-111153516D01*
X159409646Y-111089960D01*
X159419560Y-111020868D01*
X159419819Y-111020301D01*
X159453693Y-110976134D01*
X159455437Y-110974693D01*
X159472386Y-110962929D01*
X159476613Y-110960489D01*
X159560489Y-110876613D01*
X159619799Y-110773886D01*
X159650500Y-110659309D01*
X159650500Y-110540691D01*
X159619799Y-110426114D01*
X159560489Y-110323387D01*
X159476613Y-110239511D01*
X159476610Y-110239509D01*
X159476606Y-110239506D01*
X159468655Y-110234915D01*
X159467326Y-110234103D01*
X159465698Y-110232307D01*
X159442268Y-110213882D01*
X159432687Y-110203834D01*
X159423201Y-110185433D01*
X159420397Y-110182340D01*
X159419818Y-110178871D01*
X159400673Y-110141734D01*
X159407311Y-110072189D01*
X159410473Y-110064290D01*
X159437906Y-110022699D01*
X159609665Y-109850941D01*
X159782846Y-109677759D01*
X159811087Y-109656618D01*
X159823278Y-109649961D01*
X159891548Y-109635110D01*
X159957010Y-109659524D01*
X159964535Y-109665158D01*
X159967434Y-109667328D01*
X159978477Y-109678531D01*
X159984727Y-109681716D01*
X159984728Y-109681716D01*
X160490297Y-109176145D01*
X160551618Y-109142662D01*
X160621309Y-109147646D01*
G37*
%TD.AperFunction*%
%TA.AperFunction,Conductor*%
G36*
X130139186Y-99382282D02*
G01*
X130146172Y-99385472D01*
X130182342Y-99410585D01*
X131795968Y-101024211D01*
X131817117Y-101052461D01*
X131822538Y-101062388D01*
X131826328Y-101079811D01*
X131834874Y-101095461D01*
X131833602Y-101113242D01*
X131837392Y-101130661D01*
X131831161Y-101147366D01*
X131829890Y-101165152D01*
X131819207Y-101179422D01*
X131812978Y-101196126D01*
X131798704Y-101206811D01*
X131788019Y-101221086D01*
X131757042Y-101238001D01*
X131749854Y-101240682D01*
X131706520Y-101248500D01*
X129112663Y-101248500D01*
X129077727Y-101243477D01*
X129052485Y-101236065D01*
X128999740Y-101204769D01*
X128489426Y-100694455D01*
X128489421Y-100694450D01*
X128468274Y-100666199D01*
X128455667Y-100643110D01*
X128440500Y-100583685D01*
X128440500Y-99915744D01*
X128445521Y-99880816D01*
X128446755Y-99876612D01*
X128449358Y-99867746D01*
X128487128Y-99808969D01*
X128550682Y-99779940D01*
X128612705Y-99786886D01*
X128620424Y-99789845D01*
X128644940Y-99802530D01*
X128681768Y-99827139D01*
X128681770Y-99827140D01*
X128732614Y-99837252D01*
X128735340Y-99837975D01*
X128740249Y-99838772D01*
X129779750Y-99838772D01*
X129783873Y-99838772D01*
X129791732Y-99836388D01*
X129811381Y-99832480D01*
X129826258Y-99829521D01*
X129832354Y-99828920D01*
X129832386Y-99828911D01*
X129843311Y-99826174D01*
X129853515Y-99816926D01*
X129904552Y-99782824D01*
X129948867Y-99716503D01*
X129948867Y-99716501D01*
X129948868Y-99716501D01*
X129951030Y-99705628D01*
X129951167Y-99705361D01*
X129951249Y-99704530D01*
X129957552Y-99672840D01*
X129957553Y-99672840D01*
X129957553Y-99672834D01*
X129960500Y-99658020D01*
X129960500Y-99505934D01*
X129965521Y-99471007D01*
X129967181Y-99465351D01*
X129968707Y-99460152D01*
X130006477Y-99401373D01*
X130070031Y-99372344D01*
X130139186Y-99382282D01*
G37*
%TD.AperFunction*%
%TA.AperFunction,Conductor*%
G36*
X132679186Y-99382282D02*
G01*
X132686172Y-99385472D01*
X132722342Y-99410585D01*
X133984968Y-100673211D01*
X133994980Y-100686585D01*
X134006117Y-100701461D01*
X134011195Y-100710761D01*
X134011538Y-100711388D01*
X134026392Y-100779661D01*
X134001978Y-100845126D01*
X133946046Y-100886999D01*
X133946042Y-100887001D01*
X133938854Y-100889682D01*
X133895520Y-100897500D01*
X132588391Y-100897500D01*
X132553455Y-100892477D01*
X132528213Y-100885065D01*
X132475468Y-100853769D01*
X131684759Y-100063060D01*
X131663610Y-100034810D01*
X131658188Y-100024880D01*
X131643335Y-99956610D01*
X131667749Y-99891145D01*
X131723679Y-99849273D01*
X131727558Y-99847826D01*
X131730894Y-99846583D01*
X131774208Y-99838772D01*
X132323873Y-99838772D01*
X132331732Y-99836388D01*
X132351381Y-99832480D01*
X132366258Y-99829521D01*
X132372354Y-99828920D01*
X132372386Y-99828911D01*
X132383311Y-99826174D01*
X132393515Y-99816926D01*
X132444552Y-99782824D01*
X132488867Y-99716503D01*
X132488867Y-99716501D01*
X132488868Y-99716501D01*
X132491030Y-99705628D01*
X132491167Y-99705361D01*
X132491249Y-99704530D01*
X132497552Y-99672840D01*
X132497553Y-99672840D01*
X132497553Y-99672834D01*
X132500500Y-99658020D01*
X132500500Y-99505934D01*
X132505521Y-99471007D01*
X132507181Y-99465351D01*
X132508707Y-99460152D01*
X132546477Y-99401373D01*
X132610031Y-99372344D01*
X132679186Y-99382282D01*
G37*
%TD.AperFunction*%
%TA.AperFunction,Conductor*%
G36*
X175893106Y-89005523D02*
G01*
X175908104Y-89009927D01*
X175966855Y-89047672D01*
X175968042Y-89049041D01*
X175995518Y-89103902D01*
X175997163Y-89111460D01*
X176000000Y-89137831D01*
X176000000Y-90485000D01*
X177457671Y-90485000D01*
X177492606Y-90490023D01*
X177507604Y-90494427D01*
X177566355Y-90532172D01*
X177566379Y-90532200D01*
X177566382Y-90532202D01*
X177566383Y-90532204D01*
X177567542Y-90533541D01*
X177595018Y-90588402D01*
X177596663Y-90595960D01*
X177599500Y-90622331D01*
X177599500Y-135858170D01*
X177599499Y-135858176D01*
X177599500Y-135858179D01*
X177594475Y-135893114D01*
X177590070Y-135908112D01*
X177552327Y-135966855D01*
X177552292Y-135966885D01*
X177552291Y-135966887D01*
X177552289Y-135966887D01*
X177550958Y-135968042D01*
X177496097Y-135995518D01*
X177488539Y-135997163D01*
X177462168Y-136000000D01*
X176000000Y-136000000D01*
X176000000Y-137857670D01*
X175999999Y-137857676D01*
X176000000Y-137857679D01*
X175994975Y-137892614D01*
X175990570Y-137907612D01*
X175952827Y-137966355D01*
X175952792Y-137966385D01*
X175952791Y-137966387D01*
X175952789Y-137966387D01*
X175951458Y-137967542D01*
X175896597Y-137995018D01*
X175889039Y-137996663D01*
X175862668Y-137999500D01*
X78742330Y-137999500D01*
X78742325Y-137999499D01*
X78742323Y-137999500D01*
X78707389Y-137994475D01*
X78692390Y-137990070D01*
X78633644Y-137952327D01*
X78633615Y-137952293D01*
X78633614Y-137952293D01*
X78633613Y-137952291D01*
X78632457Y-137950958D01*
X78604977Y-137896083D01*
X78603332Y-137888521D01*
X78600500Y-137862168D01*
X78600500Y-133874038D01*
X80399500Y-133874038D01*
X80399500Y-134125960D01*
X80438910Y-134374786D01*
X80438910Y-134374789D01*
X80502172Y-134569486D01*
X80516760Y-134614383D01*
X80631132Y-134838848D01*
X80779201Y-135042649D01*
X80779205Y-135042654D01*
X80779210Y-135042660D01*
X80957338Y-135220788D01*
X80957342Y-135220791D01*
X80957345Y-135220794D01*
X80957350Y-135220798D01*
X81135117Y-135349952D01*
X81161155Y-135368870D01*
X81304184Y-135441747D01*
X81304183Y-135441747D01*
X81340752Y-135460379D01*
X81382775Y-135481791D01*
X81386488Y-135483684D01*
X81390243Y-135484743D01*
X81600780Y-135553150D01*
X81625215Y-135561090D01*
X81874038Y-135600500D01*
X81874039Y-135600500D01*
X82125961Y-135600500D01*
X82125962Y-135600500D01*
X82374785Y-135561090D01*
X82614379Y-135483241D01*
X82838845Y-135368870D01*
X83042656Y-135220793D01*
X83220793Y-135042656D01*
X83368870Y-134838845D01*
X83483241Y-134614379D01*
X83561090Y-134374785D01*
X83600500Y-134125962D01*
X83600500Y-133874038D01*
X172399500Y-133874038D01*
X172399500Y-134125960D01*
X172438910Y-134374786D01*
X172438910Y-134374789D01*
X172502172Y-134569486D01*
X172516760Y-134614383D01*
X172631132Y-134838848D01*
X172779201Y-135042649D01*
X172779205Y-135042654D01*
X172779210Y-135042660D01*
X172957338Y-135220788D01*
X172957342Y-135220791D01*
X172957345Y-135220794D01*
X172957350Y-135220798D01*
X173135117Y-135349952D01*
X173161155Y-135368870D01*
X173304184Y-135441747D01*
X173304183Y-135441747D01*
X173340752Y-135460379D01*
X173382775Y-135481791D01*
X173386488Y-135483684D01*
X173390243Y-135484743D01*
X173600780Y-135553150D01*
X173625215Y-135561090D01*
X173874038Y-135600500D01*
X173874039Y-135600500D01*
X174125961Y-135600500D01*
X174125962Y-135600500D01*
X174374785Y-135561090D01*
X174614379Y-135483241D01*
X174838845Y-135368870D01*
X175042656Y-135220793D01*
X175220793Y-135042656D01*
X175368870Y-134838845D01*
X175483241Y-134614379D01*
X175561090Y-134374785D01*
X175600500Y-134125962D01*
X175600500Y-133874038D01*
X175561090Y-133625215D01*
X175561089Y-133625211D01*
X175561089Y-133625210D01*
X175485853Y-133393659D01*
X175485851Y-133393654D01*
X175483241Y-133385621D01*
X175483239Y-133385618D01*
X175483239Y-133385616D01*
X175480999Y-133381220D01*
X175480689Y-133380425D01*
X175479956Y-133379173D01*
X175460379Y-133340752D01*
X175441747Y-133304183D01*
X175441747Y-133304184D01*
X175368870Y-133161155D01*
X175349952Y-133135117D01*
X175220798Y-132957350D01*
X175220794Y-132957345D01*
X175220791Y-132957342D01*
X175220788Y-132957338D01*
X175042660Y-132779210D01*
X175042655Y-132779206D01*
X175042654Y-132779205D01*
X175042649Y-132779201D01*
X174838848Y-132631132D01*
X174838847Y-132631131D01*
X174838845Y-132631130D01*
X174768747Y-132595413D01*
X174614383Y-132516760D01*
X174530487Y-132489500D01*
X174374787Y-132438910D01*
X174208903Y-132412636D01*
X174125962Y-132399500D01*
X174125961Y-132399500D01*
X173874039Y-132399500D01*
X173874038Y-132399500D01*
X173791096Y-132412636D01*
X173625212Y-132438910D01*
X173625209Y-132438910D01*
X173385619Y-132516759D01*
X173385616Y-132516760D01*
X173231253Y-132595413D01*
X173161147Y-132631134D01*
X172957367Y-132779188D01*
X172957338Y-132779210D01*
X172779210Y-132957338D01*
X172779188Y-132957367D01*
X172631134Y-133161147D01*
X172631132Y-133161151D01*
X172516760Y-133385616D01*
X172516759Y-133385618D01*
X172516759Y-133385619D01*
X172438910Y-133625209D01*
X172438910Y-133625212D01*
X172399500Y-133874038D01*
X83600500Y-133874038D01*
X83561090Y-133625215D01*
X83561089Y-133625211D01*
X83561089Y-133625210D01*
X83485853Y-133393659D01*
X83485851Y-133393654D01*
X83483241Y-133385621D01*
X83483239Y-133385618D01*
X83483239Y-133385616D01*
X83480999Y-133381220D01*
X83480689Y-133380425D01*
X83479956Y-133379173D01*
X83460379Y-133340752D01*
X83441747Y-133304183D01*
X83441747Y-133304184D01*
X83368870Y-133161155D01*
X83349952Y-133135117D01*
X83220798Y-132957350D01*
X83220794Y-132957345D01*
X83220791Y-132957342D01*
X83220788Y-132957338D01*
X83042660Y-132779210D01*
X83042655Y-132779206D01*
X83042654Y-132779205D01*
X83042649Y-132779201D01*
X82838848Y-132631132D01*
X82838847Y-132631131D01*
X82838845Y-132631130D01*
X82768747Y-132595413D01*
X82614383Y-132516760D01*
X82530487Y-132489500D01*
X82374787Y-132438910D01*
X82208903Y-132412636D01*
X82125962Y-132399500D01*
X82125961Y-132399500D01*
X81874039Y-132399500D01*
X81874038Y-132399500D01*
X81791096Y-132412636D01*
X81625212Y-132438910D01*
X81625209Y-132438910D01*
X81385619Y-132516759D01*
X81385616Y-132516760D01*
X81231253Y-132595413D01*
X81161147Y-132631134D01*
X80957367Y-132779188D01*
X80957338Y-132779210D01*
X80779210Y-132957338D01*
X80779188Y-132957367D01*
X80631134Y-133161147D01*
X80631132Y-133161151D01*
X80516760Y-133385616D01*
X80516759Y-133385618D01*
X80516759Y-133385619D01*
X80438910Y-133625209D01*
X80438910Y-133625212D01*
X80399500Y-133874038D01*
X78600500Y-133874038D01*
X78600500Y-104370691D01*
X120149500Y-104370691D01*
X120149500Y-104489309D01*
X120180201Y-104603886D01*
X120239511Y-104706613D01*
X120323387Y-104790489D01*
X120426114Y-104849799D01*
X120540691Y-104880500D01*
X120586337Y-104880500D01*
X120621269Y-104885521D01*
X120646513Y-104892934D01*
X120699259Y-104924230D01*
X127300573Y-111525544D01*
X127321723Y-111553796D01*
X127334331Y-111576885D01*
X127349500Y-111636314D01*
X127349500Y-111659309D01*
X127380201Y-111773886D01*
X127439511Y-111876613D01*
X127523387Y-111960489D01*
X127626114Y-112019799D01*
X127740691Y-112050500D01*
X127756337Y-112050500D01*
X127791269Y-112055521D01*
X127816513Y-112062934D01*
X127869259Y-112094230D01*
X129415541Y-113640512D01*
X129416056Y-113640890D01*
X129418666Y-113642295D01*
X129484004Y-113680017D01*
X129484011Y-113680021D01*
X129560438Y-113700500D01*
X129560440Y-113700500D01*
X163379458Y-113700500D01*
X163379460Y-113700500D01*
X163455887Y-113680021D01*
X163524409Y-113640460D01*
X163580358Y-113584511D01*
X163580358Y-113584510D01*
X167540460Y-109624407D01*
X167563163Y-109585084D01*
X167580021Y-109555885D01*
X167600500Y-109479458D01*
X167600500Y-104760438D01*
X167580021Y-104684011D01*
X167566439Y-104660486D01*
X167540464Y-104615495D01*
X167540458Y-104615487D01*
X167540453Y-104615481D01*
X163899426Y-100974455D01*
X163899421Y-100974450D01*
X163878274Y-100946199D01*
X163865667Y-100923110D01*
X163850500Y-100863685D01*
X163850500Y-100840693D01*
X163850500Y-100840692D01*
X163850500Y-100840691D01*
X163819799Y-100726114D01*
X163760489Y-100623387D01*
X163676613Y-100539511D01*
X163573886Y-100480201D01*
X163459309Y-100449500D01*
X163459306Y-100449500D01*
X163340691Y-100449500D01*
X163249728Y-100473873D01*
X163249723Y-100473874D01*
X163226114Y-100480201D01*
X163226112Y-100480201D01*
X163226112Y-100480202D01*
X163204947Y-100492421D01*
X163204939Y-100492425D01*
X163123386Y-100539511D01*
X163123378Y-100539517D01*
X163039517Y-100623378D01*
X163039514Y-100623382D01*
X163039513Y-100623384D01*
X163039511Y-100623387D01*
X162983847Y-100719799D01*
X162980200Y-100726115D01*
X162980200Y-100726117D01*
X162980199Y-100726122D01*
X162976377Y-100740382D01*
X162962492Y-100772807D01*
X162956796Y-100782154D01*
X162955462Y-100781341D01*
X162942496Y-100795958D01*
X162940008Y-100800040D01*
X162938018Y-100801006D01*
X162919057Y-100822382D01*
X162919891Y-100823461D01*
X162919794Y-100823536D01*
X162916497Y-100825304D01*
X162915219Y-100826909D01*
X162914896Y-100827072D01*
X162914444Y-100827583D01*
X162909874Y-100830446D01*
X162909481Y-100829820D01*
X162883745Y-100842879D01*
X162883565Y-100842940D01*
X162843766Y-100849500D01*
X162740691Y-100849500D01*
X162724758Y-100853769D01*
X162696329Y-100861386D01*
X162686257Y-100861917D01*
X162680220Y-100864576D01*
X162652037Y-100863722D01*
X162644929Y-100864097D01*
X162642848Y-100863768D01*
X162640388Y-100863296D01*
X162639752Y-100863280D01*
X162635649Y-100862634D01*
X162606787Y-100848977D01*
X162577174Y-100836716D01*
X162575570Y-100835424D01*
X162573951Y-100833440D01*
X162572493Y-100832750D01*
X162569588Y-100828092D01*
X162543140Y-100795676D01*
X162539458Y-100788534D01*
X162529898Y-100763806D01*
X162519799Y-100726114D01*
X162460489Y-100623387D01*
X162376613Y-100539511D01*
X162273886Y-100480201D01*
X162159309Y-100449500D01*
X162159306Y-100449500D01*
X162040691Y-100449500D01*
X161949728Y-100473873D01*
X161949723Y-100473874D01*
X161926114Y-100480201D01*
X161926112Y-100480201D01*
X161926112Y-100480202D01*
X161904947Y-100492421D01*
X161904939Y-100492425D01*
X161823386Y-100539511D01*
X161823378Y-100539517D01*
X161739517Y-100623378D01*
X161739513Y-100623383D01*
X161739512Y-100623385D01*
X161739511Y-100623387D01*
X161703466Y-100685819D01*
X161698480Y-100694455D01*
X161680200Y-100726114D01*
X161655781Y-100817249D01*
X161649500Y-100840691D01*
X161649500Y-100959309D01*
X161680201Y-101073886D01*
X161739511Y-101176613D01*
X161739513Y-101176615D01*
X161750574Y-101187676D01*
X161771723Y-101215927D01*
X161784331Y-101239016D01*
X161799500Y-101298445D01*
X161799500Y-101346669D01*
X161819979Y-101423096D01*
X161851690Y-101478021D01*
X161851691Y-101478023D01*
X161859534Y-101491608D01*
X161859537Y-101491613D01*
X161859541Y-101491619D01*
X161859545Y-101491624D01*
X162143133Y-101775211D01*
X162154914Y-101790948D01*
X162164282Y-101803461D01*
X162169703Y-101813388D01*
X162184557Y-101881661D01*
X162160143Y-101947126D01*
X162104211Y-101988999D01*
X162104207Y-101989001D01*
X162097019Y-101991682D01*
X162053685Y-101999500D01*
X160493663Y-101999500D01*
X160458727Y-101994477D01*
X160433485Y-101987065D01*
X160380740Y-101955769D01*
X159399426Y-100974455D01*
X159399421Y-100974450D01*
X159378274Y-100946199D01*
X159365667Y-100923110D01*
X159350500Y-100863685D01*
X159350500Y-100840693D01*
X159350500Y-100840692D01*
X159350500Y-100840691D01*
X159319799Y-100726114D01*
X159260489Y-100623387D01*
X159176613Y-100539511D01*
X159073886Y-100480201D01*
X158959309Y-100449500D01*
X158959306Y-100449500D01*
X158840691Y-100449500D01*
X158749728Y-100473873D01*
X158749723Y-100473874D01*
X158726114Y-100480201D01*
X158726112Y-100480201D01*
X158726112Y-100480202D01*
X158704947Y-100492421D01*
X158704939Y-100492425D01*
X158623386Y-100539511D01*
X158623378Y-100539517D01*
X158539517Y-100623378D01*
X158539513Y-100623383D01*
X158539512Y-100623385D01*
X158539511Y-100623387D01*
X158503466Y-100685819D01*
X158498480Y-100694455D01*
X158480200Y-100726114D01*
X158455781Y-100817249D01*
X158449500Y-100840691D01*
X158449500Y-100959309D01*
X158480201Y-101073886D01*
X158539511Y-101176613D01*
X158623387Y-101260489D01*
X158726114Y-101319799D01*
X158840691Y-101350500D01*
X158856337Y-101350500D01*
X158885733Y-101354726D01*
X158891269Y-101355521D01*
X158916513Y-101362934D01*
X158969259Y-101394230D01*
X160115541Y-102540512D01*
X160116056Y-102540890D01*
X160118666Y-102542295D01*
X160184004Y-102580017D01*
X160184011Y-102580021D01*
X160260438Y-102600500D01*
X160339562Y-102600500D01*
X162906337Y-102600500D01*
X162941269Y-102605521D01*
X162966513Y-102612934D01*
X163019259Y-102644230D01*
X165850573Y-105475544D01*
X165871723Y-105503796D01*
X165884331Y-105526885D01*
X165899500Y-105586314D01*
X165899500Y-108861311D01*
X165899499Y-108861313D01*
X165899500Y-108861314D01*
X165894476Y-108896248D01*
X165887064Y-108921489D01*
X165855769Y-108974233D01*
X165524788Y-109305214D01*
X165496538Y-109326363D01*
X165486611Y-109331784D01*
X165418338Y-109346638D01*
X165352873Y-109322224D01*
X165311000Y-109266292D01*
X165308313Y-109259086D01*
X165300500Y-109215766D01*
X165300500Y-107305793D01*
X165305522Y-107270860D01*
X165312934Y-107245615D01*
X165344241Y-107192860D01*
X165347591Y-107189511D01*
X165360489Y-107176613D01*
X165419799Y-107073886D01*
X165450500Y-106959309D01*
X165450500Y-106840691D01*
X165419799Y-106726114D01*
X165360489Y-106623387D01*
X165276613Y-106539511D01*
X165173886Y-106480201D01*
X165059309Y-106449500D01*
X165059306Y-106449500D01*
X164940691Y-106449500D01*
X164849728Y-106473873D01*
X164849723Y-106473874D01*
X164826114Y-106480201D01*
X164826112Y-106480201D01*
X164826112Y-106480202D01*
X164804947Y-106492421D01*
X164804939Y-106492425D01*
X164723386Y-106539511D01*
X164723378Y-106539517D01*
X164639517Y-106623378D01*
X164639513Y-106623383D01*
X164580202Y-106726112D01*
X164580201Y-106726114D01*
X164549500Y-106840691D01*
X164549500Y-106959309D01*
X164580201Y-107073886D01*
X164639511Y-107176613D01*
X164639513Y-107176615D01*
X164650574Y-107187676D01*
X164671723Y-107215927D01*
X164684331Y-107239016D01*
X164699500Y-107298445D01*
X164699500Y-107738319D01*
X164694475Y-107773260D01*
X164690564Y-107786577D01*
X164652787Y-107845353D01*
X164589234Y-107874374D01*
X164578334Y-107875941D01*
X164536499Y-107874821D01*
X164534252Y-107874374D01*
X164509748Y-107869500D01*
X164509747Y-107869500D01*
X162770249Y-107869500D01*
X162770247Y-107869500D01*
X162711770Y-107881131D01*
X162711769Y-107881131D01*
X162711768Y-107881132D01*
X162695545Y-107889803D01*
X162695220Y-107889196D01*
X162673181Y-107899740D01*
X162663375Y-107902810D01*
X162593516Y-107904054D01*
X162534075Y-107867333D01*
X162505401Y-107811911D01*
X162503572Y-107803852D01*
X162500500Y-107776421D01*
X162500500Y-107293660D01*
X162505522Y-107258727D01*
X162509144Y-107246392D01*
X162509901Y-107242908D01*
X162543379Y-107181591D01*
X162625552Y-107099418D01*
X162653797Y-107078275D01*
X162676889Y-107065667D01*
X162736314Y-107050500D01*
X162759306Y-107050500D01*
X162759309Y-107050500D01*
X162873886Y-107019799D01*
X162976613Y-106960489D01*
X163060489Y-106876613D01*
X163119799Y-106773886D01*
X163150500Y-106659309D01*
X163150500Y-106540691D01*
X163119799Y-106426114D01*
X163060489Y-106323387D01*
X162976613Y-106239511D01*
X162873886Y-106180201D01*
X162759309Y-106149500D01*
X162759306Y-106149500D01*
X162640691Y-106149500D01*
X162549728Y-106173873D01*
X162549723Y-106173874D01*
X162526114Y-106180201D01*
X162526112Y-106180201D01*
X162526112Y-106180202D01*
X162504947Y-106192421D01*
X162504939Y-106192425D01*
X162423386Y-106239511D01*
X162423378Y-106239517D01*
X162339517Y-106323378D01*
X162339513Y-106323383D01*
X162280202Y-106426112D01*
X162280201Y-106426114D01*
X162249500Y-106540691D01*
X162249500Y-106540693D01*
X162249500Y-106556337D01*
X162249499Y-106556339D01*
X162249500Y-106556340D01*
X162244476Y-106591274D01*
X162237064Y-106616515D01*
X162205769Y-106669259D01*
X161959544Y-106915482D01*
X161959544Y-106915483D01*
X161959526Y-106915508D01*
X161926540Y-106972641D01*
X161926536Y-106972650D01*
X161919982Y-106984004D01*
X161919979Y-106984009D01*
X161911269Y-107016517D01*
X161910193Y-107020530D01*
X161910190Y-107020541D01*
X161899815Y-107059265D01*
X161899804Y-107059307D01*
X161899500Y-107060438D01*
X161899500Y-107592045D01*
X161899499Y-107592049D01*
X161899500Y-107592052D01*
X161894475Y-107626986D01*
X161890564Y-107640303D01*
X161852787Y-107699079D01*
X161789234Y-107728100D01*
X161789229Y-107728100D01*
X161789229Y-107728101D01*
X161789228Y-107728100D01*
X161785930Y-107728575D01*
X161730794Y-107724034D01*
X161728915Y-107723438D01*
X161710111Y-107715726D01*
X161618217Y-107668904D01*
X161618214Y-107668902D01*
X161416130Y-107603242D01*
X161206251Y-107570000D01*
X161206246Y-107570000D01*
X160993754Y-107570000D01*
X160993749Y-107570000D01*
X160793513Y-107601715D01*
X160793505Y-107601715D01*
X160793506Y-107601716D01*
X160783865Y-107603242D01*
X160581784Y-107668903D01*
X160392438Y-107765380D01*
X160338282Y-107804727D01*
X160338282Y-107804728D01*
X160843850Y-108310296D01*
X160877335Y-108371619D01*
X160872351Y-108441311D01*
X160830479Y-108497244D01*
X160818173Y-108505362D01*
X160792996Y-108519898D01*
X160792990Y-108519903D01*
X160699903Y-108612990D01*
X160699898Y-108612996D01*
X160685362Y-108638173D01*
X160634793Y-108686387D01*
X160566185Y-108699607D01*
X160501322Y-108673637D01*
X160490296Y-108663850D01*
X160009426Y-108182980D01*
X160009421Y-108182975D01*
X159988274Y-108154724D01*
X159975667Y-108131635D01*
X159960500Y-108072210D01*
X159960500Y-105020440D01*
X159960499Y-105020437D01*
X159960246Y-105019490D01*
X159960246Y-105019489D01*
X159940022Y-104944015D01*
X159940021Y-104944011D01*
X159928601Y-104924230D01*
X159924323Y-104916820D01*
X159924323Y-104916821D01*
X159924322Y-104916819D01*
X159900464Y-104875495D01*
X159900458Y-104875487D01*
X159900454Y-104875483D01*
X159900454Y-104875482D01*
X159399426Y-104374455D01*
X159399421Y-104374450D01*
X159378274Y-104346199D01*
X159365667Y-104323110D01*
X159350500Y-104263685D01*
X159350500Y-104240693D01*
X159350500Y-104240691D01*
X159319799Y-104126114D01*
X159260489Y-104023387D01*
X159176613Y-103939511D01*
X159073886Y-103880201D01*
X158959309Y-103849500D01*
X158959306Y-103849500D01*
X158840691Y-103849500D01*
X158749728Y-103873873D01*
X158749723Y-103873874D01*
X158726114Y-103880201D01*
X158726112Y-103880201D01*
X158726112Y-103880202D01*
X158704947Y-103892421D01*
X158704939Y-103892425D01*
X158623386Y-103939511D01*
X158623378Y-103939517D01*
X158539517Y-104023378D01*
X158539513Y-104023383D01*
X158539507Y-104023392D01*
X158510355Y-104073886D01*
X158480201Y-104126113D01*
X158477770Y-104135185D01*
X158449500Y-104240691D01*
X158449500Y-104359309D01*
X158480201Y-104473886D01*
X158539511Y-104576613D01*
X158623387Y-104660489D01*
X158726114Y-104719799D01*
X158840691Y-104750500D01*
X158856337Y-104750500D01*
X158891269Y-104755521D01*
X158916513Y-104762934D01*
X158969259Y-104794230D01*
X159310573Y-105135544D01*
X159331723Y-105163796D01*
X159344331Y-105186885D01*
X159359500Y-105246314D01*
X159359500Y-107940965D01*
X159359499Y-107940971D01*
X159359500Y-107940975D01*
X159356655Y-107960747D01*
X159354474Y-107975910D01*
X159350636Y-107988977D01*
X159312857Y-108047752D01*
X159249299Y-108076771D01*
X159187301Y-108069826D01*
X159183809Y-108068488D01*
X159179582Y-108066868D01*
X159155056Y-108054178D01*
X159112636Y-108025834D01*
X159057598Y-107989059D01*
X159057599Y-107989059D01*
X159057597Y-107989058D01*
X158934698Y-107938152D01*
X158904250Y-107925540D01*
X158866420Y-107909870D01*
X158866412Y-107909868D01*
X158866404Y-107909866D01*
X158866394Y-107909864D01*
X158663471Y-107869500D01*
X158663469Y-107869500D01*
X158663465Y-107869500D01*
X158456535Y-107869500D01*
X158456530Y-107869500D01*
X158456528Y-107869500D01*
X158253604Y-107909864D01*
X158253579Y-107909870D01*
X158062404Y-107989057D01*
X157890337Y-108104027D01*
X157744026Y-108250338D01*
X157744020Y-108250346D01*
X157629063Y-108422392D01*
X157629055Y-108422406D01*
X157573521Y-108556479D01*
X157573521Y-108556481D01*
X157555511Y-108586834D01*
X157545704Y-108599004D01*
X157488318Y-108638851D01*
X157479922Y-108641646D01*
X157475396Y-108643152D01*
X157436232Y-108649500D01*
X155243466Y-108649500D01*
X155211369Y-108645274D01*
X155180904Y-108637110D01*
X155151001Y-108624723D01*
X155073889Y-108580202D01*
X155073890Y-108580202D01*
X155046836Y-108572953D01*
X154959309Y-108549500D01*
X154959306Y-108549500D01*
X154904794Y-108549500D01*
X154869859Y-108544477D01*
X154859005Y-108541290D01*
X154800227Y-108503516D01*
X154771202Y-108439960D01*
X154772998Y-108427468D01*
X154781142Y-108370811D01*
X154784332Y-108363824D01*
X154809442Y-108327659D01*
X154860489Y-108276613D01*
X154919799Y-108173886D01*
X154950500Y-108059309D01*
X154950500Y-107940691D01*
X154919799Y-107826114D01*
X154860489Y-107723387D01*
X154776613Y-107639511D01*
X154673886Y-107580201D01*
X154559309Y-107549500D01*
X154559306Y-107549500D01*
X154543663Y-107549500D01*
X154543662Y-107549499D01*
X154543662Y-107549500D01*
X154508727Y-107544477D01*
X154483485Y-107537065D01*
X154430740Y-107505769D01*
X154234520Y-107309548D01*
X154234515Y-107309544D01*
X154234512Y-107309541D01*
X154234507Y-107309537D01*
X154234500Y-107309533D01*
X154230633Y-107306892D01*
X154230719Y-107306765D01*
X154225292Y-107303180D01*
X154181287Y-107270140D01*
X154171986Y-107271140D01*
X154161916Y-107268886D01*
X154126160Y-107259306D01*
X154089563Y-107249500D01*
X154089562Y-107249500D01*
X154089560Y-107249500D01*
X153405794Y-107249500D01*
X153405793Y-107249499D01*
X153405793Y-107249500D01*
X153370858Y-107244477D01*
X153345616Y-107237065D01*
X153292871Y-107205769D01*
X153276615Y-107189513D01*
X153276613Y-107189511D01*
X153173886Y-107130201D01*
X153059309Y-107099500D01*
X153059306Y-107099500D01*
X152940691Y-107099500D01*
X152849728Y-107123873D01*
X152849723Y-107123874D01*
X152826114Y-107130201D01*
X152826112Y-107130201D01*
X152826112Y-107130202D01*
X152804947Y-107142421D01*
X152804939Y-107142425D01*
X152723386Y-107189511D01*
X152723378Y-107189517D01*
X152639517Y-107273378D01*
X152639513Y-107273383D01*
X152581487Y-107373886D01*
X152580201Y-107376114D01*
X152549500Y-107490691D01*
X152549500Y-107609309D01*
X152580201Y-107723886D01*
X152639511Y-107826613D01*
X152723387Y-107910489D01*
X152826114Y-107969799D01*
X152940691Y-108000500D01*
X152940694Y-108000500D01*
X153059306Y-108000500D01*
X153059309Y-108000500D01*
X153173886Y-107969799D01*
X153276613Y-107910489D01*
X153287683Y-107899418D01*
X153315928Y-107878275D01*
X153339020Y-107865667D01*
X153398445Y-107850500D01*
X153856338Y-107850500D01*
X153891271Y-107855522D01*
X153903607Y-107859144D01*
X153907090Y-107859901D01*
X153968409Y-107893380D01*
X154000574Y-107925545D01*
X154021723Y-107953796D01*
X154033798Y-107975910D01*
X154034331Y-107976885D01*
X154049500Y-108036314D01*
X154049500Y-108059309D01*
X154080201Y-108173886D01*
X154139511Y-108276613D01*
X154223387Y-108360489D01*
X154307755Y-108409199D01*
X154319221Y-108420725D01*
X154331785Y-108427284D01*
X154335463Y-108430981D01*
X154343308Y-108439209D01*
X154349433Y-108451092D01*
X154353459Y-108455139D01*
X154358545Y-108464054D01*
X154360616Y-108472790D01*
X154375318Y-108501314D01*
X154373038Y-108525169D01*
X154374667Y-108532038D01*
X154371529Y-108540953D01*
X154368671Y-108570866D01*
X154354797Y-108588503D01*
X154351475Y-108597947D01*
X154340895Y-108606179D01*
X154325475Y-108625784D01*
X154325421Y-108625822D01*
X154324919Y-108626179D01*
X154304133Y-108634783D01*
X154296332Y-108640854D01*
X154287556Y-108641646D01*
X154273646Y-108647405D01*
X154271431Y-108647778D01*
X154250840Y-108649500D01*
X150792330Y-108649500D01*
X150757389Y-108644475D01*
X150742390Y-108640070D01*
X150683644Y-108602327D01*
X150682457Y-108600958D01*
X150654977Y-108546083D01*
X150653332Y-108538521D01*
X150650500Y-108512168D01*
X150650500Y-107339348D01*
X150652286Y-107318377D01*
X150653814Y-107309472D01*
X150654149Y-107308788D01*
X150654398Y-107307536D01*
X150654730Y-107307602D01*
X150655006Y-107307038D01*
X150655620Y-107302418D01*
X150655425Y-107302380D01*
X150656033Y-107299321D01*
X150656071Y-107299038D01*
X150656141Y-107298766D01*
X150656146Y-107298753D01*
X150656587Y-107296537D01*
X150657042Y-107295325D01*
X150657086Y-107295161D01*
X150657103Y-107295165D01*
X150670818Y-107258722D01*
X150675276Y-107251001D01*
X150719799Y-107173886D01*
X150743858Y-107084092D01*
X150744277Y-107083131D01*
X150744271Y-107082587D01*
X150745830Y-107079567D01*
X150758573Y-107050320D01*
X150762469Y-107044105D01*
X150765169Y-107040755D01*
X150772143Y-107028674D01*
X150773326Y-107026789D01*
X150775330Y-107025012D01*
X150790700Y-107004980D01*
X155539988Y-102255691D01*
X155568239Y-102234543D01*
X155580422Y-102227890D01*
X155648696Y-102213040D01*
X155714157Y-102237457D01*
X155715368Y-102238364D01*
X155715498Y-102238461D01*
X155752678Y-102283505D01*
X155754867Y-102288010D01*
X155763111Y-102310109D01*
X155780199Y-102373882D01*
X155780200Y-102373885D01*
X155783622Y-102379811D01*
X155783623Y-102379815D01*
X155783624Y-102379815D01*
X155839511Y-102476613D01*
X155839513Y-102476615D01*
X155850574Y-102487676D01*
X155871723Y-102515927D01*
X155884331Y-102539016D01*
X155899500Y-102598445D01*
X155899500Y-103494206D01*
X155894476Y-103529143D01*
X155887064Y-103554384D01*
X155855769Y-103607128D01*
X155839513Y-103623383D01*
X155815182Y-103665525D01*
X155780201Y-103726114D01*
X155749500Y-103840691D01*
X155749500Y-103959309D01*
X155780201Y-104073886D01*
X155839511Y-104176613D01*
X155923387Y-104260489D01*
X156026114Y-104319799D01*
X156140691Y-104350500D01*
X156140694Y-104350500D01*
X156259306Y-104350500D01*
X156259309Y-104350500D01*
X156373886Y-104319799D01*
X156476613Y-104260489D01*
X156560489Y-104176613D01*
X156619799Y-104073886D01*
X156650500Y-103959309D01*
X156650500Y-103840691D01*
X156619799Y-103726114D01*
X156560489Y-103623387D01*
X156549421Y-103612319D01*
X156528274Y-103584068D01*
X156515667Y-103560979D01*
X156500500Y-103501554D01*
X156500500Y-102605793D01*
X156505522Y-102570860D01*
X156512934Y-102545615D01*
X156544230Y-102492871D01*
X156560489Y-102476613D01*
X156619799Y-102373886D01*
X156650500Y-102259309D01*
X156650500Y-102140691D01*
X156619799Y-102026114D01*
X156560489Y-101923387D01*
X156476613Y-101839511D01*
X156476611Y-101839510D01*
X156476609Y-101839508D01*
X156399613Y-101795054D01*
X156399610Y-101795053D01*
X156389923Y-101789460D01*
X156373885Y-101780200D01*
X156310997Y-101763349D01*
X156306215Y-101761638D01*
X156302471Y-101758913D01*
X156283449Y-101750767D01*
X156271598Y-101743543D01*
X156252517Y-101722552D01*
X156249725Y-101720520D01*
X156249020Y-101718705D01*
X156224602Y-101691843D01*
X156213014Y-101622961D01*
X156213208Y-101621339D01*
X156233645Y-101566541D01*
X156236462Y-101562379D01*
X156251452Y-101544227D01*
X157080470Y-100715212D01*
X157126614Y-100635288D01*
X157136203Y-100599500D01*
X157150500Y-100546144D01*
X157150500Y-98563373D01*
X157155521Y-98528446D01*
X157157238Y-98522598D01*
X157158707Y-98517591D01*
X157196477Y-98458812D01*
X157260031Y-98429783D01*
X157329186Y-98439721D01*
X157336172Y-98442911D01*
X157372342Y-98468024D01*
X158784788Y-99880470D01*
X158784789Y-99880471D01*
X158784791Y-99880472D01*
X158847910Y-99916914D01*
X158850564Y-99918446D01*
X158850572Y-99918450D01*
X158864709Y-99926613D01*
X158864711Y-99926613D01*
X158864712Y-99926614D01*
X158953856Y-99950500D01*
X169407671Y-99950500D01*
X169442606Y-99955523D01*
X169457604Y-99959927D01*
X169516355Y-99997672D01*
X169516379Y-99997700D01*
X169516382Y-99997702D01*
X169516383Y-99997704D01*
X169517542Y-99999041D01*
X169545018Y-100053902D01*
X169546663Y-100061460D01*
X169549500Y-100087831D01*
X169549500Y-102556532D01*
X169545274Y-102588625D01*
X169545274Y-102588627D01*
X169537111Y-102619090D01*
X169524724Y-102648995D01*
X169480203Y-102726107D01*
X169480175Y-102726176D01*
X169479933Y-102727112D01*
X169453165Y-102827012D01*
X169449500Y-102840691D01*
X169449500Y-102959309D01*
X169480201Y-103073886D01*
X169539511Y-103176613D01*
X169623387Y-103260489D01*
X169726114Y-103319799D01*
X169840691Y-103350500D01*
X169840694Y-103350500D01*
X169959306Y-103350500D01*
X169959309Y-103350500D01*
X170073886Y-103319799D01*
X170176613Y-103260489D01*
X170260489Y-103176613D01*
X170319799Y-103073886D01*
X170350500Y-102959309D01*
X170350500Y-102840691D01*
X170319799Y-102726114D01*
X170316735Y-102720807D01*
X170316153Y-102719798D01*
X170275276Y-102648997D01*
X170262888Y-102619090D01*
X170254725Y-102588625D01*
X170250500Y-102556532D01*
X170250500Y-100314371D01*
X170255523Y-100279437D01*
X170259138Y-100267124D01*
X170259138Y-100267122D01*
X170259145Y-100267100D01*
X170259903Y-100263614D01*
X170293385Y-100202295D01*
X170404979Y-100090701D01*
X170430655Y-100071000D01*
X170457964Y-100055233D01*
X170487863Y-100042848D01*
X170573886Y-100019799D01*
X170676613Y-99960489D01*
X170760489Y-99876613D01*
X170819799Y-99773886D01*
X170850500Y-99659309D01*
X170850500Y-99540691D01*
X170819799Y-99426114D01*
X170760489Y-99323387D01*
X170676613Y-99239511D01*
X170573886Y-99180201D01*
X170459309Y-99149500D01*
X170459306Y-99149500D01*
X170340694Y-99149500D01*
X170340691Y-99149500D01*
X170286338Y-99164064D01*
X170226112Y-99180201D01*
X170148996Y-99224724D01*
X170119096Y-99237109D01*
X170088633Y-99245273D01*
X170056534Y-99249500D01*
X159214374Y-99249500D01*
X159179438Y-99244477D01*
X159154196Y-99237065D01*
X159101451Y-99205769D01*
X157290706Y-97395024D01*
X157271004Y-97369350D01*
X157255231Y-97342030D01*
X157242846Y-97312129D01*
X157219798Y-97226112D01*
X157211851Y-97212348D01*
X157160489Y-97123387D01*
X157076613Y-97039511D01*
X156973886Y-96980201D01*
X156859309Y-96949500D01*
X156859306Y-96949500D01*
X156740691Y-96949500D01*
X156649728Y-96973873D01*
X156649723Y-96973874D01*
X156626114Y-96980201D01*
X156626112Y-96980201D01*
X156626112Y-96980202D01*
X156604947Y-96992421D01*
X156604939Y-96992425D01*
X156523386Y-97039511D01*
X156523378Y-97039517D01*
X156439517Y-97123378D01*
X156439513Y-97123383D01*
X156439511Y-97123387D01*
X156380201Y-97226114D01*
X156349500Y-97340691D01*
X156349500Y-97459309D01*
X156380009Y-97573168D01*
X156380202Y-97573889D01*
X156424723Y-97651001D01*
X156437110Y-97680904D01*
X156445274Y-97711369D01*
X156449500Y-97743466D01*
X156449500Y-100285626D01*
X156444476Y-100320563D01*
X156437064Y-100345804D01*
X156405769Y-100398548D01*
X150295026Y-106509290D01*
X150269345Y-106528996D01*
X150242034Y-106544764D01*
X150212129Y-106557151D01*
X150141881Y-106575975D01*
X150125268Y-106578162D01*
X150111974Y-106588364D01*
X150023386Y-106639511D01*
X150023378Y-106639517D01*
X149939517Y-106723378D01*
X149939513Y-106723383D01*
X149939507Y-106723392D01*
X149910355Y-106773886D01*
X149880201Y-106826113D01*
X149869967Y-106864306D01*
X149849500Y-106940691D01*
X149849500Y-107059309D01*
X149871428Y-107141144D01*
X149880202Y-107173889D01*
X149924723Y-107251001D01*
X149937110Y-107280904D01*
X149945274Y-107311369D01*
X149949500Y-107343466D01*
X149949500Y-108507670D01*
X149944475Y-108542614D01*
X149940070Y-108557612D01*
X149902327Y-108616355D01*
X149900958Y-108617542D01*
X149846097Y-108645018D01*
X149838539Y-108646663D01*
X149812168Y-108649500D01*
X143953856Y-108649500D01*
X143871466Y-108671575D01*
X143871451Y-108671580D01*
X143864712Y-108673386D01*
X143864711Y-108673386D01*
X143864709Y-108673387D01*
X143864706Y-108673388D01*
X143861906Y-108675004D01*
X143861902Y-108675006D01*
X143784804Y-108719519D01*
X143784786Y-108719531D01*
X142795026Y-109709290D01*
X142769345Y-109728996D01*
X142742034Y-109744764D01*
X142712129Y-109757151D01*
X142641881Y-109775975D01*
X142625268Y-109778162D01*
X142611974Y-109788364D01*
X142523386Y-109839511D01*
X142523378Y-109839517D01*
X142439517Y-109923378D01*
X142439513Y-109923383D01*
X142402049Y-109988272D01*
X142380201Y-110026114D01*
X142349500Y-110140691D01*
X142349500Y-110140693D01*
X142349500Y-110249701D01*
X142348020Y-110268800D01*
X142344578Y-110290880D01*
X142314803Y-110354088D01*
X142256287Y-110390963D01*
X142243338Y-110394682D01*
X142209109Y-110399500D01*
X140993854Y-110399500D01*
X140958916Y-110394476D01*
X140940861Y-110389174D01*
X140927170Y-110380829D01*
X140913803Y-110377587D01*
X140886059Y-110355771D01*
X140878871Y-110348233D01*
X140861222Y-110324657D01*
X140860489Y-110323387D01*
X140776615Y-110239513D01*
X140776613Y-110239511D01*
X140673886Y-110180201D01*
X140559309Y-110149500D01*
X140559306Y-110149500D01*
X140440691Y-110149500D01*
X140349728Y-110173873D01*
X140349723Y-110173874D01*
X140326114Y-110180201D01*
X140326112Y-110180201D01*
X140326112Y-110180202D01*
X140304947Y-110192421D01*
X140304939Y-110192425D01*
X140223386Y-110239511D01*
X140223378Y-110239517D01*
X140139517Y-110323378D01*
X140139513Y-110323383D01*
X140139507Y-110323391D01*
X140138455Y-110325087D01*
X140138400Y-110325053D01*
X140138399Y-110325055D01*
X140138338Y-110325014D01*
X140138231Y-110324947D01*
X140135635Y-110328115D01*
X140135577Y-110328067D01*
X140118460Y-110349802D01*
X140104843Y-110362786D01*
X140048514Y-110393546D01*
X140038387Y-110396003D01*
X140009151Y-110399500D01*
X139693663Y-110399500D01*
X139658727Y-110394477D01*
X139633485Y-110387065D01*
X139580740Y-110355769D01*
X135349426Y-106124455D01*
X135349421Y-106124450D01*
X135328274Y-106096199D01*
X135315667Y-106073110D01*
X135300500Y-106013685D01*
X135300500Y-103905793D01*
X135305522Y-103870860D01*
X135312934Y-103845615D01*
X135344230Y-103792871D01*
X135357287Y-103779815D01*
X135395489Y-103741613D01*
X135454799Y-103638886D01*
X135485500Y-103524309D01*
X135485500Y-103405691D01*
X135454799Y-103291114D01*
X135395489Y-103188387D01*
X135311613Y-103104511D01*
X135208886Y-103045201D01*
X135094309Y-103014500D01*
X135094306Y-103014500D01*
X134975691Y-103014500D01*
X134884728Y-103038873D01*
X134884723Y-103038874D01*
X134861114Y-103045201D01*
X134861112Y-103045201D01*
X134861112Y-103045202D01*
X134839947Y-103057421D01*
X134839939Y-103057425D01*
X134758386Y-103104511D01*
X134758378Y-103104517D01*
X134674517Y-103188378D01*
X134674513Y-103188383D01*
X134674509Y-103188389D01*
X134674507Y-103188391D01*
X134632884Y-103260487D01*
X134632883Y-103260488D01*
X134615201Y-103291111D01*
X134615201Y-103291112D01*
X134588406Y-103391112D01*
X134584500Y-103405691D01*
X134584500Y-103524309D01*
X134615201Y-103638886D01*
X134665563Y-103726114D01*
X134668752Y-103731638D01*
X134677021Y-103748920D01*
X134677219Y-103749432D01*
X134677219Y-103749433D01*
X134691156Y-103785481D01*
X134699500Y-103830196D01*
X134699500Y-106239563D01*
X134713151Y-106290512D01*
X134719977Y-106315986D01*
X134719978Y-106315988D01*
X134719979Y-106315990D01*
X134722178Y-106319799D01*
X134736769Y-106345069D01*
X134736783Y-106345095D01*
X134739903Y-106350500D01*
X134759537Y-106384507D01*
X134759541Y-106384512D01*
X134759543Y-106384514D01*
X134759548Y-106384520D01*
X138950240Y-110575211D01*
X138960252Y-110588585D01*
X138971389Y-110603461D01*
X138976810Y-110613388D01*
X138991664Y-110681661D01*
X138967250Y-110747126D01*
X138911318Y-110788999D01*
X138911314Y-110789001D01*
X138904126Y-110791682D01*
X138860792Y-110799500D01*
X138793854Y-110799500D01*
X138758916Y-110794476D01*
X138740861Y-110789174D01*
X138727170Y-110780829D01*
X138713803Y-110777587D01*
X138686059Y-110755771D01*
X138678871Y-110748233D01*
X138661222Y-110724657D01*
X138660489Y-110723387D01*
X138576615Y-110639513D01*
X138576613Y-110639511D01*
X138473886Y-110580201D01*
X138359309Y-110549500D01*
X138359306Y-110549500D01*
X138343663Y-110549500D01*
X138343662Y-110549499D01*
X138343662Y-110549500D01*
X138308727Y-110544477D01*
X138283485Y-110537065D01*
X138230740Y-110505769D01*
X133434426Y-105709455D01*
X133413274Y-105681199D01*
X133400667Y-105658110D01*
X133385500Y-105598685D01*
X133385500Y-103920793D01*
X133390522Y-103885860D01*
X133397934Y-103860615D01*
X133429251Y-103807850D01*
X133431154Y-103805948D01*
X133445489Y-103791613D01*
X133504799Y-103688886D01*
X133535500Y-103574309D01*
X133535500Y-103455691D01*
X133504799Y-103341114D01*
X133445489Y-103238387D01*
X133361613Y-103154511D01*
X133258886Y-103095201D01*
X133144309Y-103064500D01*
X133144306Y-103064500D01*
X133025691Y-103064500D01*
X132934728Y-103088873D01*
X132934723Y-103088874D01*
X132911114Y-103095201D01*
X132911112Y-103095201D01*
X132911112Y-103095202D01*
X132889947Y-103107421D01*
X132889939Y-103107425D01*
X132808386Y-103154511D01*
X132808378Y-103154517D01*
X132724517Y-103238378D01*
X132724513Y-103238383D01*
X132724507Y-103238392D01*
X132666127Y-103339511D01*
X132666113Y-103339536D01*
X132665201Y-103341113D01*
X132665201Y-103341114D01*
X132634500Y-103455691D01*
X132634500Y-103574309D01*
X132665201Y-103688886D01*
X132724511Y-103791613D01*
X132724513Y-103791615D01*
X132735574Y-103802676D01*
X132756723Y-103830927D01*
X132768596Y-103852671D01*
X132769331Y-103854016D01*
X132784500Y-103913445D01*
X132784500Y-105742337D01*
X132779476Y-105777275D01*
X132776289Y-105788128D01*
X132738514Y-105846905D01*
X132674957Y-105875928D01*
X132605807Y-105865987D01*
X132598829Y-105862800D01*
X132562657Y-105837686D01*
X131484426Y-104759455D01*
X131484421Y-104759450D01*
X131463274Y-104731199D01*
X131450667Y-104708110D01*
X131435500Y-104648685D01*
X131435500Y-103970793D01*
X131440522Y-103935860D01*
X131447934Y-103910615D01*
X131479230Y-103857871D01*
X131495489Y-103841613D01*
X131554799Y-103738886D01*
X131585500Y-103624309D01*
X131585500Y-103505691D01*
X131554799Y-103391114D01*
X131495489Y-103288387D01*
X131411613Y-103204511D01*
X131308886Y-103145201D01*
X131194309Y-103114500D01*
X131194306Y-103114500D01*
X131075691Y-103114500D01*
X130984728Y-103138873D01*
X130984723Y-103138874D01*
X130961114Y-103145201D01*
X130961112Y-103145201D01*
X130961112Y-103145202D01*
X130939947Y-103157421D01*
X130939939Y-103157425D01*
X130858386Y-103204511D01*
X130858378Y-103204517D01*
X130774517Y-103288378D01*
X130774513Y-103288383D01*
X130716778Y-103388383D01*
X130715201Y-103391114D01*
X130684500Y-103505691D01*
X130684500Y-103624309D01*
X130715201Y-103738886D01*
X130774511Y-103841613D01*
X130774512Y-103841614D01*
X130774513Y-103841615D01*
X130785574Y-103852676D01*
X130806723Y-103880927D01*
X130818756Y-103902964D01*
X130819331Y-103904016D01*
X130834500Y-103963445D01*
X130834500Y-104874562D01*
X130845822Y-104916818D01*
X130854699Y-104949948D01*
X130854700Y-104949950D01*
X130854978Y-104950986D01*
X130854980Y-104950991D01*
X130859779Y-104959302D01*
X130859781Y-104959310D01*
X130859783Y-104959309D01*
X130879638Y-104993700D01*
X130879733Y-104993866D01*
X130894527Y-105019490D01*
X130894537Y-105019506D01*
X130894541Y-105019512D01*
X130894545Y-105019517D01*
X136681182Y-110806153D01*
X136701823Y-110833483D01*
X136702129Y-110834033D01*
X136707136Y-110843202D01*
X136707604Y-110843859D01*
X136709603Y-110847447D01*
X136716647Y-110878552D01*
X136723862Y-110904241D01*
X136725114Y-110904182D01*
X136725324Y-110908596D01*
X136725213Y-110909052D01*
X136725272Y-110909262D01*
X136725272Y-110909268D01*
X136725245Y-110911545D01*
X136724610Y-110911537D01*
X136724355Y-110912586D01*
X136725036Y-110915591D01*
X136720793Y-110927268D01*
X136708850Y-110976490D01*
X136691570Y-111006419D01*
X136669754Y-111034161D01*
X136659710Y-111043738D01*
X136597608Y-111075754D01*
X136528057Y-111069114D01*
X136528054Y-111069113D01*
X136528053Y-111069112D01*
X136520163Y-111065954D01*
X136478565Y-111038516D01*
X129488863Y-104048814D01*
X129467711Y-104020558D01*
X129460219Y-104006837D01*
X129456429Y-103989419D01*
X129447888Y-103973781D01*
X129445367Y-103938577D01*
X129445496Y-103936768D01*
X129464862Y-103878572D01*
X129469050Y-103872056D01*
X129485677Y-103851423D01*
X129495489Y-103841613D01*
X129554799Y-103738886D01*
X129585500Y-103624309D01*
X129585500Y-103505691D01*
X129554799Y-103391114D01*
X129495489Y-103288387D01*
X129411613Y-103204511D01*
X129308886Y-103145201D01*
X129194309Y-103114500D01*
X129194306Y-103114500D01*
X129075691Y-103114500D01*
X128984728Y-103138873D01*
X128984723Y-103138874D01*
X128961114Y-103145201D01*
X128961112Y-103145201D01*
X128961112Y-103145202D01*
X128939947Y-103157421D01*
X128939939Y-103157425D01*
X128858386Y-103204511D01*
X128858378Y-103204517D01*
X128774517Y-103288378D01*
X128774513Y-103288383D01*
X128716778Y-103388383D01*
X128715201Y-103391114D01*
X128684500Y-103505691D01*
X128684500Y-103624309D01*
X128715201Y-103738886D01*
X128774511Y-103841613D01*
X128774512Y-103841614D01*
X128774513Y-103841615D01*
X128785574Y-103852676D01*
X128806723Y-103880927D01*
X128818756Y-103902964D01*
X128819331Y-103904016D01*
X128834500Y-103963445D01*
X128834500Y-104159484D01*
X128840020Y-104180083D01*
X128854979Y-104235912D01*
X128854980Y-104235913D01*
X128868799Y-104259848D01*
X128868800Y-104259851D01*
X128871014Y-104263685D01*
X128883038Y-104284511D01*
X128894540Y-104304433D01*
X128894542Y-104304435D01*
X135525433Y-110935326D01*
X135546581Y-110963576D01*
X135553437Y-110976132D01*
X135555600Y-110980092D01*
X135570733Y-111042473D01*
X135570555Y-111049946D01*
X135552472Y-111111530D01*
X135547263Y-111120076D01*
X135495563Y-111167075D01*
X135426660Y-111178662D01*
X135365307Y-111153461D01*
X135350167Y-111141699D01*
X135338560Y-111131458D01*
X135261615Y-111054513D01*
X135261613Y-111054511D01*
X135158886Y-110995201D01*
X135044309Y-110964500D01*
X135044306Y-110964500D01*
X135028663Y-110964500D01*
X135028662Y-110964499D01*
X135028662Y-110964500D01*
X134993727Y-110959477D01*
X134968485Y-110952065D01*
X134915740Y-110920769D01*
X127634426Y-103639455D01*
X127613274Y-103611199D01*
X127600667Y-103588110D01*
X127585500Y-103528685D01*
X127585500Y-103505693D01*
X127585500Y-103505691D01*
X127554799Y-103391114D01*
X127495489Y-103288387D01*
X127411613Y-103204511D01*
X127308886Y-103145201D01*
X127194309Y-103114500D01*
X127194306Y-103114500D01*
X127075691Y-103114500D01*
X126984728Y-103138873D01*
X126984723Y-103138874D01*
X126961114Y-103145201D01*
X126961112Y-103145201D01*
X126961112Y-103145202D01*
X126939947Y-103157421D01*
X126939939Y-103157425D01*
X126858386Y-103204511D01*
X126858378Y-103204517D01*
X126774517Y-103288378D01*
X126774513Y-103288383D01*
X126716778Y-103388383D01*
X126715201Y-103391114D01*
X126684500Y-103505691D01*
X126684500Y-103624309D01*
X126715201Y-103738886D01*
X126774511Y-103841613D01*
X126858387Y-103925489D01*
X126961114Y-103984799D01*
X127075691Y-104015500D01*
X127091337Y-104015500D01*
X127126269Y-104020521D01*
X127151513Y-104027934D01*
X127204259Y-104059230D01*
X134485573Y-111340544D01*
X134506723Y-111368796D01*
X134519331Y-111391885D01*
X134534500Y-111451314D01*
X134534500Y-111474309D01*
X134565201Y-111588886D01*
X134624511Y-111691613D01*
X134708387Y-111775489D01*
X134811114Y-111834799D01*
X134925691Y-111865500D01*
X134941337Y-111865500D01*
X134973745Y-111870159D01*
X134976269Y-111870521D01*
X135001513Y-111877934D01*
X135054259Y-111909230D01*
X135320240Y-112175211D01*
X135341389Y-112203461D01*
X135346810Y-112213388D01*
X135361664Y-112281661D01*
X135337250Y-112347126D01*
X135281318Y-112388999D01*
X135281314Y-112389001D01*
X135274126Y-112391682D01*
X135230792Y-112399500D01*
X134463663Y-112399500D01*
X134431423Y-112395235D01*
X134430041Y-112394863D01*
X134416392Y-112390855D01*
X134409959Y-112389455D01*
X134407023Y-112388665D01*
X134379699Y-112371964D01*
X134351583Y-112356612D01*
X134284426Y-112289455D01*
X134263274Y-112261199D01*
X134250667Y-112238110D01*
X134235500Y-112178685D01*
X134235500Y-112155693D01*
X134235500Y-112155691D01*
X134204799Y-112041114D01*
X134145489Y-111938387D01*
X134061613Y-111854511D01*
X133958886Y-111795201D01*
X133844309Y-111764500D01*
X133844306Y-111764500D01*
X133828663Y-111764500D01*
X133828662Y-111764499D01*
X133828662Y-111764500D01*
X133793727Y-111759477D01*
X133768485Y-111752065D01*
X133715740Y-111720769D01*
X125734426Y-103739455D01*
X125713274Y-103711199D01*
X125700667Y-103688110D01*
X125685500Y-103628685D01*
X125685500Y-103605693D01*
X125685500Y-103605691D01*
X125654799Y-103491114D01*
X125648394Y-103480021D01*
X125625556Y-103440464D01*
X125595489Y-103388387D01*
X125511613Y-103304511D01*
X125408886Y-103245201D01*
X125294309Y-103214500D01*
X125294306Y-103214500D01*
X125175691Y-103214500D01*
X125084728Y-103238873D01*
X125084723Y-103238874D01*
X125061114Y-103245201D01*
X125061112Y-103245201D01*
X125061112Y-103245202D01*
X125039947Y-103257421D01*
X125039939Y-103257425D01*
X124958386Y-103304511D01*
X124958378Y-103304517D01*
X124874517Y-103388378D01*
X124874513Y-103388383D01*
X124874509Y-103388389D01*
X124874507Y-103388391D01*
X124844444Y-103440464D01*
X124821609Y-103480017D01*
X124821608Y-103480018D01*
X124821604Y-103480025D01*
X124815201Y-103491113D01*
X124792910Y-103574306D01*
X124784500Y-103605691D01*
X124784500Y-103724309D01*
X124815201Y-103838886D01*
X124874511Y-103941613D01*
X124958387Y-104025489D01*
X125061114Y-104084799D01*
X125175691Y-104115500D01*
X125191337Y-104115500D01*
X125226269Y-104120521D01*
X125251513Y-104127934D01*
X125304259Y-104159230D01*
X133285573Y-112140544D01*
X133306723Y-112168796D01*
X133319331Y-112191885D01*
X133334500Y-112251314D01*
X133334500Y-112274309D01*
X133354011Y-112347126D01*
X133357168Y-112358907D01*
X133357663Y-112365065D01*
X133359293Y-112368275D01*
X133360757Y-112403538D01*
X133359962Y-112411360D01*
X133333600Y-112476066D01*
X133276440Y-112516247D01*
X133216034Y-112521105D01*
X133208042Y-112519761D01*
X133166606Y-112504865D01*
X133123889Y-112480202D01*
X133123890Y-112480202D01*
X133105110Y-112475170D01*
X133009309Y-112449500D01*
X133009306Y-112449500D01*
X132890680Y-112449500D01*
X132885399Y-112450915D01*
X132885399Y-112450916D01*
X132850355Y-112455106D01*
X132831545Y-112454658D01*
X132769956Y-112436572D01*
X132761057Y-112431147D01*
X132737925Y-112412954D01*
X124099426Y-103774455D01*
X124078274Y-103746199D01*
X124065667Y-103723110D01*
X124050500Y-103663685D01*
X124050500Y-103640693D01*
X124050500Y-103640691D01*
X124019799Y-103526114D01*
X123960489Y-103423387D01*
X123876613Y-103339511D01*
X123773886Y-103280201D01*
X123659309Y-103249500D01*
X123659306Y-103249500D01*
X123540691Y-103249500D01*
X123449728Y-103273873D01*
X123449723Y-103273874D01*
X123426114Y-103280201D01*
X123426112Y-103280201D01*
X123426112Y-103280202D01*
X123404947Y-103292421D01*
X123404939Y-103292425D01*
X123323386Y-103339511D01*
X123323378Y-103339517D01*
X123239517Y-103423378D01*
X123239513Y-103423383D01*
X123239511Y-103423385D01*
X123220860Y-103455691D01*
X123200410Y-103491112D01*
X123200409Y-103491114D01*
X123180200Y-103526114D01*
X123153209Y-103626848D01*
X123149500Y-103640691D01*
X123149500Y-103759309D01*
X123180201Y-103873886D01*
X123239511Y-103976613D01*
X123323387Y-104060489D01*
X123426114Y-104119799D01*
X123540691Y-104150500D01*
X123556337Y-104150500D01*
X123588244Y-104155087D01*
X123591269Y-104155521D01*
X123616513Y-104162934D01*
X123669259Y-104194230D01*
X132350240Y-112875211D01*
X132371389Y-112903461D01*
X132376810Y-112913388D01*
X132391664Y-112981661D01*
X132367250Y-113047126D01*
X132311318Y-113088999D01*
X132311314Y-113089001D01*
X132304126Y-113091682D01*
X132260792Y-113099500D01*
X129793663Y-113099500D01*
X129793662Y-113099499D01*
X129793662Y-113099500D01*
X129758727Y-113094477D01*
X129733485Y-113087065D01*
X129680740Y-113055769D01*
X128299426Y-111674455D01*
X128278274Y-111646199D01*
X128265667Y-111623110D01*
X128250500Y-111563685D01*
X128250500Y-111540693D01*
X128250500Y-111540691D01*
X128219799Y-111426114D01*
X128160489Y-111323387D01*
X128076613Y-111239511D01*
X127973886Y-111180201D01*
X127859309Y-111149500D01*
X127859306Y-111149500D01*
X127843663Y-111149500D01*
X127843662Y-111149499D01*
X127843662Y-111149500D01*
X127808727Y-111144477D01*
X127783485Y-111137065D01*
X127730740Y-111105769D01*
X121099426Y-104474455D01*
X121078274Y-104446199D01*
X121065667Y-104423110D01*
X121054254Y-104378396D01*
X121051561Y-104378751D01*
X121050500Y-104370694D01*
X121050500Y-104370693D01*
X121050500Y-104370691D01*
X121019799Y-104256114D01*
X120960489Y-104153387D01*
X120876613Y-104069511D01*
X120773886Y-104010201D01*
X120659309Y-103979500D01*
X120659306Y-103979500D01*
X120540691Y-103979500D01*
X120449728Y-104003873D01*
X120449723Y-104003874D01*
X120426114Y-104010201D01*
X120426112Y-104010201D01*
X120426112Y-104010202D01*
X120404947Y-104022421D01*
X120404939Y-104022425D01*
X120323386Y-104069511D01*
X120323378Y-104069517D01*
X120239517Y-104153378D01*
X120239513Y-104153383D01*
X120239507Y-104153392D01*
X120196170Y-104228454D01*
X120196168Y-104228457D01*
X120189106Y-104240691D01*
X120180201Y-104256114D01*
X120149500Y-104370691D01*
X78600500Y-104370691D01*
X78600500Y-99740691D01*
X100549500Y-99740691D01*
X100549500Y-99859309D01*
X100580201Y-99973886D01*
X100639511Y-100076613D01*
X100723387Y-100160489D01*
X100826114Y-100219799D01*
X100940691Y-100250500D01*
X100940694Y-100250500D01*
X101059306Y-100250500D01*
X101059309Y-100250500D01*
X101173886Y-100219799D01*
X101276613Y-100160489D01*
X101287683Y-100149418D01*
X101315928Y-100128275D01*
X101339020Y-100115667D01*
X101398445Y-100100500D01*
X102408732Y-100100500D01*
X102443660Y-100105521D01*
X102449900Y-100107353D01*
X102457215Y-100109500D01*
X102515994Y-100147271D01*
X102544917Y-100210105D01*
X102548131Y-100231556D01*
X102549500Y-100249930D01*
X102549500Y-100359309D01*
X102580201Y-100473886D01*
X102639511Y-100576613D01*
X102723387Y-100660489D01*
X102826114Y-100719799D01*
X102940691Y-100750500D01*
X102940694Y-100750500D01*
X103059306Y-100750500D01*
X103059309Y-100750500D01*
X103173886Y-100719799D01*
X103276613Y-100660489D01*
X103287683Y-100649418D01*
X103315928Y-100628275D01*
X103339020Y-100615667D01*
X103398445Y-100600500D01*
X104434429Y-100600500D01*
X104469361Y-100605521D01*
X104482680Y-100609432D01*
X104541458Y-100647206D01*
X104570484Y-100710761D01*
X104571694Y-100719176D01*
X104568731Y-100768918D01*
X104555780Y-100817249D01*
X104555780Y-100817253D01*
X104549500Y-100840691D01*
X104549500Y-100959309D01*
X104580201Y-101073886D01*
X104639511Y-101176613D01*
X104723387Y-101260489D01*
X104826114Y-101319799D01*
X104940691Y-101350500D01*
X104940694Y-101350500D01*
X105059306Y-101350500D01*
X105059309Y-101350500D01*
X105173886Y-101319799D01*
X105276613Y-101260489D01*
X105287683Y-101249418D01*
X105315928Y-101228275D01*
X105339020Y-101215667D01*
X105398445Y-101200500D01*
X106408732Y-101200500D01*
X106443660Y-101205521D01*
X106449900Y-101207353D01*
X106457215Y-101209500D01*
X106515994Y-101247271D01*
X106544917Y-101310105D01*
X106548131Y-101331556D01*
X106549500Y-101349930D01*
X106549500Y-101459309D01*
X106580201Y-101573886D01*
X106639511Y-101676613D01*
X106723387Y-101760489D01*
X106826114Y-101819799D01*
X106940691Y-101850500D01*
X106940694Y-101850500D01*
X107059306Y-101850500D01*
X107059309Y-101850500D01*
X107173886Y-101819799D01*
X107276613Y-101760489D01*
X107360489Y-101676613D01*
X107360490Y-101676610D01*
X107365442Y-101670159D01*
X107365690Y-101670349D01*
X107381540Y-101650195D01*
X107395161Y-101637208D01*
X107451496Y-101606450D01*
X107461622Y-101603993D01*
X107490849Y-101600500D01*
X108408732Y-101600500D01*
X108443660Y-101605521D01*
X108449900Y-101607353D01*
X108457215Y-101609500D01*
X108515994Y-101647271D01*
X108544917Y-101710105D01*
X108548131Y-101731556D01*
X108549500Y-101749930D01*
X108549500Y-101859309D01*
X108580201Y-101973886D01*
X108639511Y-102076613D01*
X108723387Y-102160489D01*
X108826114Y-102219799D01*
X108940691Y-102250500D01*
X108940694Y-102250500D01*
X109059306Y-102250500D01*
X109059309Y-102250500D01*
X109173886Y-102219799D01*
X109276613Y-102160489D01*
X109287683Y-102149418D01*
X109315928Y-102128275D01*
X109339020Y-102115667D01*
X109398445Y-102100500D01*
X110408732Y-102100500D01*
X110443660Y-102105521D01*
X110449900Y-102107353D01*
X110457215Y-102109500D01*
X110515994Y-102147271D01*
X110544917Y-102210105D01*
X110548131Y-102231556D01*
X110549500Y-102249930D01*
X110549500Y-102359309D01*
X110580201Y-102473886D01*
X110639511Y-102576613D01*
X110723387Y-102660489D01*
X110826114Y-102719799D01*
X110940691Y-102750500D01*
X110940694Y-102750500D01*
X111059306Y-102750500D01*
X111059309Y-102750500D01*
X111173886Y-102719799D01*
X111276613Y-102660489D01*
X111287683Y-102649418D01*
X111315928Y-102628275D01*
X111339020Y-102615667D01*
X111398445Y-102600500D01*
X112534429Y-102600500D01*
X112569361Y-102605521D01*
X112582680Y-102609432D01*
X112641458Y-102647206D01*
X112670484Y-102710761D01*
X112671694Y-102719176D01*
X112668731Y-102768917D01*
X112653167Y-102827006D01*
X112653166Y-102827011D01*
X112649500Y-102840691D01*
X112649500Y-102959309D01*
X112680201Y-103073886D01*
X112739511Y-103176613D01*
X112823387Y-103260489D01*
X112926114Y-103319799D01*
X113040691Y-103350500D01*
X113040694Y-103350500D01*
X113159306Y-103350500D01*
X113159309Y-103350500D01*
X113273886Y-103319799D01*
X113376613Y-103260489D01*
X113460489Y-103176613D01*
X113511875Y-103087609D01*
X113522704Y-103071815D01*
X113525804Y-103067967D01*
X113525805Y-103067968D01*
X113539487Y-103050990D01*
X113596875Y-103011146D01*
X113609802Y-103006843D01*
X113648956Y-103000500D01*
X114408732Y-103000500D01*
X114443660Y-103005521D01*
X114448167Y-103006844D01*
X114457215Y-103009500D01*
X114515994Y-103047271D01*
X114544917Y-103110105D01*
X114548131Y-103131556D01*
X114549500Y-103149930D01*
X114549500Y-103259309D01*
X114580201Y-103373886D01*
X114639511Y-103476613D01*
X114723387Y-103560489D01*
X114826114Y-103619799D01*
X114940691Y-103650500D01*
X114940694Y-103650500D01*
X115059306Y-103650500D01*
X115059309Y-103650500D01*
X115173886Y-103619799D01*
X115276613Y-103560489D01*
X115287683Y-103549418D01*
X115315928Y-103528275D01*
X115339020Y-103515667D01*
X115398445Y-103500500D01*
X121622832Y-103500500D01*
X121622834Y-103500500D01*
X121699261Y-103480021D01*
X121767783Y-103440460D01*
X121823732Y-103384511D01*
X125795214Y-99413028D01*
X125823457Y-99391884D01*
X125833391Y-99386460D01*
X125901661Y-99371607D01*
X125967126Y-99396021D01*
X126008999Y-99451953D01*
X126009001Y-99451957D01*
X126011682Y-99459145D01*
X126019500Y-99502479D01*
X126019500Y-99658024D01*
X126031131Y-99716501D01*
X126031132Y-99716502D01*
X126031132Y-99716503D01*
X126031134Y-99716505D01*
X126075447Y-99782824D01*
X126141765Y-99827136D01*
X126141767Y-99827138D01*
X126141770Y-99827140D01*
X126192612Y-99837253D01*
X126195337Y-99837975D01*
X126200249Y-99838772D01*
X127239750Y-99838772D01*
X127243873Y-99838772D01*
X127251732Y-99836388D01*
X127271381Y-99832480D01*
X127286258Y-99829521D01*
X127292354Y-99828920D01*
X127292386Y-99828911D01*
X127303311Y-99826174D01*
X127313515Y-99816926D01*
X127364552Y-99782824D01*
X127408867Y-99716503D01*
X127408867Y-99716501D01*
X127408868Y-99716501D01*
X127411030Y-99705628D01*
X127411167Y-99705361D01*
X127411249Y-99704530D01*
X127417552Y-99672840D01*
X127417553Y-99672840D01*
X127417553Y-99672834D01*
X127420500Y-99658020D01*
X127420500Y-96662660D01*
X127425047Y-96629390D01*
X127425283Y-96628541D01*
X127426738Y-96623587D01*
X127426763Y-96623225D01*
X127428426Y-96617258D01*
X127443959Y-96592328D01*
X127457105Y-96566053D01*
X127462226Y-96563012D01*
X127465376Y-96557958D01*
X127491925Y-96545382D01*
X127517186Y-96530387D01*
X127523138Y-96530598D01*
X127528520Y-96528049D01*
X127557654Y-96531823D01*
X127575235Y-96532447D01*
X127575794Y-96529880D01*
X127577426Y-96530235D01*
X127581911Y-96532684D01*
X127587011Y-96532865D01*
X127587069Y-96532884D01*
X127588627Y-96533403D01*
X127587850Y-96535734D01*
X127597810Y-96537025D01*
X127612459Y-96549364D01*
X127638749Y-96563720D01*
X127790574Y-96715545D01*
X127811723Y-96743796D01*
X127824331Y-96766885D01*
X127839500Y-96826314D01*
X127839500Y-100809562D01*
X127849742Y-100847783D01*
X127859979Y-100885990D01*
X127859980Y-100885991D01*
X127883537Y-100926793D01*
X127899540Y-100954511D01*
X127899542Y-100954513D01*
X128734489Y-101789460D01*
X128735183Y-101789960D01*
X128737701Y-101791315D01*
X128787034Y-101819797D01*
X128787033Y-101819797D01*
X128788783Y-101820807D01*
X128803011Y-101829021D01*
X128879438Y-101849500D01*
X128958562Y-101849500D01*
X137655337Y-101849500D01*
X137686987Y-101854050D01*
X137690269Y-101854521D01*
X137715513Y-101861934D01*
X137768259Y-101893230D01*
X139901573Y-104026544D01*
X139922723Y-104054796D01*
X139935331Y-104077885D01*
X139950500Y-104137314D01*
X139950500Y-106633893D01*
X139950499Y-106633899D01*
X139950500Y-106633902D01*
X139945475Y-106668837D01*
X139941070Y-106683835D01*
X139903301Y-106742601D01*
X139896601Y-106748407D01*
X139847493Y-106774471D01*
X139826119Y-106780199D01*
X139826118Y-106780199D01*
X139826113Y-106780200D01*
X139723397Y-106839504D01*
X139723383Y-106839513D01*
X139723378Y-106839517D01*
X139639517Y-106923378D01*
X139639513Y-106923383D01*
X139639512Y-106923385D01*
X139639511Y-106923387D01*
X139604511Y-106984009D01*
X139580201Y-107026114D01*
X139549500Y-107140691D01*
X139549500Y-107259309D01*
X139580201Y-107373886D01*
X139639511Y-107476613D01*
X139723387Y-107560489D01*
X139826114Y-107619799D01*
X139940691Y-107650500D01*
X139940694Y-107650500D01*
X140059306Y-107650500D01*
X140059309Y-107650500D01*
X140173886Y-107619799D01*
X140276613Y-107560489D01*
X140360489Y-107476613D01*
X140419799Y-107373886D01*
X140450500Y-107259309D01*
X140450500Y-107243662D01*
X140455522Y-107208729D01*
X140458002Y-107200283D01*
X140462934Y-107183484D01*
X140488060Y-107141144D01*
X140486513Y-107139957D01*
X140491452Y-107133518D01*
X140491460Y-107133511D01*
X140531022Y-107064988D01*
X140551500Y-106988562D01*
X140551500Y-106909438D01*
X140551500Y-105758368D01*
X140555742Y-105742685D01*
X140555138Y-105728551D01*
X140556521Y-105723441D01*
X140559707Y-105712588D01*
X140566924Y-105701356D01*
X140568414Y-105695849D01*
X140573589Y-105686985D01*
X140580122Y-105680815D01*
X140597477Y-105653807D01*
X140619261Y-105643856D01*
X140624389Y-105639015D01*
X140633680Y-105637270D01*
X140661031Y-105624778D01*
X140683249Y-105627965D01*
X140693059Y-105626124D01*
X140705435Y-105631148D01*
X140730132Y-105634691D01*
X140730695Y-105634948D01*
X140748571Y-105648660D01*
X140757798Y-105652406D01*
X140762909Y-105659658D01*
X140774876Y-105668837D01*
X140776308Y-105670572D01*
X140788061Y-105687502D01*
X140810355Y-105726114D01*
X140839511Y-105776613D01*
X140923387Y-105860489D01*
X141026114Y-105919799D01*
X141140691Y-105950500D01*
X141140694Y-105950500D01*
X141259306Y-105950500D01*
X141259309Y-105950500D01*
X141373886Y-105919799D01*
X141476613Y-105860489D01*
X141560489Y-105776613D01*
X141560491Y-105776608D01*
X141561876Y-105774805D01*
X141574683Y-105760542D01*
X141586689Y-105749094D01*
X141648789Y-105717077D01*
X141718341Y-105723715D01*
X141719859Y-105724323D01*
X141767481Y-105758236D01*
X141770765Y-105762026D01*
X141784436Y-105781223D01*
X141817305Y-105838152D01*
X141839115Y-105875928D01*
X141839511Y-105876613D01*
X141923387Y-105960489D01*
X142026114Y-106019799D01*
X142140691Y-106050500D01*
X142140694Y-106050500D01*
X142259306Y-106050500D01*
X142259309Y-106050500D01*
X142373886Y-106019799D01*
X142476613Y-105960489D01*
X142560489Y-105876613D01*
X142619799Y-105773886D01*
X142650500Y-105659309D01*
X142650500Y-105540691D01*
X142619799Y-105426114D01*
X142619797Y-105426111D01*
X142619797Y-105426109D01*
X142619796Y-105426108D01*
X142578721Y-105354965D01*
X142574604Y-105337998D01*
X142565603Y-105322198D01*
X142564163Y-105316262D01*
X142565011Y-105298458D01*
X142562247Y-105287065D01*
X142566082Y-105275984D01*
X142567488Y-105246474D01*
X142584623Y-105222411D01*
X142585099Y-105221038D01*
X142585934Y-105219879D01*
X142588686Y-105216107D01*
X142589628Y-105215383D01*
X142603659Y-105195679D01*
X142555943Y-105231402D01*
X142486252Y-105236388D01*
X142437131Y-105213605D01*
X142434275Y-105211414D01*
X142425612Y-105203817D01*
X142424911Y-105203463D01*
X142424594Y-105202924D01*
X142422070Y-105200711D01*
X141846147Y-104624788D01*
X141824994Y-104596531D01*
X141823872Y-104594477D01*
X141822044Y-104591129D01*
X141807195Y-104522857D01*
X141831614Y-104457393D01*
X141887548Y-104415523D01*
X141957240Y-104410540D01*
X141965775Y-104412718D01*
X141966474Y-104412923D01*
X142019259Y-104444230D01*
X142597544Y-105022515D01*
X142599249Y-105025638D01*
X142618694Y-105050767D01*
X142621438Y-105055792D01*
X142625228Y-105073215D01*
X142631029Y-105083838D01*
X142633379Y-105110682D01*
X142636291Y-105124064D01*
X142612539Y-105187749D01*
X142639848Y-105176817D01*
X142644101Y-105173552D01*
X142649040Y-105173137D01*
X142672883Y-105163593D01*
X142700160Y-105168849D01*
X142713726Y-105167711D01*
X142724842Y-105173605D01*
X142741475Y-105176810D01*
X142745666Y-105178970D01*
X142774057Y-105199698D01*
X142775456Y-105200440D01*
X142775722Y-105200914D01*
X142776540Y-105201511D01*
X143400573Y-105825544D01*
X143421723Y-105853796D01*
X143434183Y-105876615D01*
X143434331Y-105876885D01*
X143449500Y-105936314D01*
X143449500Y-105959309D01*
X143480201Y-106073886D01*
X143539511Y-106176613D01*
X143623387Y-106260489D01*
X143726114Y-106319799D01*
X143840691Y-106350500D01*
X143840694Y-106350500D01*
X143959306Y-106350500D01*
X143959309Y-106350500D01*
X144073886Y-106319799D01*
X144176613Y-106260489D01*
X144260489Y-106176613D01*
X144319799Y-106073886D01*
X144350500Y-105959309D01*
X144350500Y-105840691D01*
X144319799Y-105726114D01*
X144260489Y-105623387D01*
X144176613Y-105539511D01*
X144173913Y-105537952D01*
X144086408Y-105487429D01*
X144058672Y-105465617D01*
X144049090Y-105455568D01*
X144040921Y-105439722D01*
X144038194Y-105436862D01*
X144037446Y-105432980D01*
X144017076Y-105393468D01*
X144023716Y-105323918D01*
X144024900Y-105320962D01*
X144068100Y-105266050D01*
X144075875Y-105261054D01*
X144076606Y-105260492D01*
X144076613Y-105260489D01*
X144090402Y-105246698D01*
X144093589Y-105244430D01*
X144094713Y-105242589D01*
X144112015Y-105231314D01*
X144123951Y-105222819D01*
X144125821Y-105221911D01*
X144135233Y-105217734D01*
X144141641Y-105214234D01*
X144144310Y-105212940D01*
X144160035Y-105210302D01*
X144198443Y-105200500D01*
X146039560Y-105200500D01*
X146039562Y-105200500D01*
X146115989Y-105180021D01*
X146184511Y-105140460D01*
X146240460Y-105084511D01*
X149525552Y-101799418D01*
X149553797Y-101778275D01*
X149576889Y-101765667D01*
X149636314Y-101750500D01*
X149659306Y-101750500D01*
X149659309Y-101750500D01*
X149773886Y-101719799D01*
X149876613Y-101660489D01*
X149960489Y-101576613D01*
X150019799Y-101473886D01*
X150050500Y-101359309D01*
X150050500Y-101240691D01*
X150019799Y-101126114D01*
X149960489Y-101023387D01*
X149876613Y-100939511D01*
X149773886Y-100880201D01*
X149659309Y-100849500D01*
X149659306Y-100849500D01*
X149540691Y-100849500D01*
X149449728Y-100873873D01*
X149449723Y-100873874D01*
X149426114Y-100880201D01*
X149426112Y-100880201D01*
X149426112Y-100880202D01*
X149404947Y-100892421D01*
X149404939Y-100892425D01*
X149323386Y-100939511D01*
X149323378Y-100939517D01*
X149239517Y-101023378D01*
X149239513Y-101023383D01*
X149239507Y-101023392D01*
X149210355Y-101073886D01*
X149180201Y-101126113D01*
X149169967Y-101164306D01*
X149149500Y-101240691D01*
X149149500Y-101240693D01*
X149149500Y-101256337D01*
X149149499Y-101256339D01*
X149149500Y-101256340D01*
X149144476Y-101291274D01*
X149137064Y-101316515D01*
X149105769Y-101369259D01*
X145924455Y-104550573D01*
X145896204Y-104571722D01*
X145873116Y-104584330D01*
X145813686Y-104599500D01*
X144205794Y-104599500D01*
X144205793Y-104599499D01*
X144205793Y-104599500D01*
X144170858Y-104594477D01*
X144145616Y-104587065D01*
X144092871Y-104555769D01*
X144076615Y-104539513D01*
X144076613Y-104539511D01*
X143973886Y-104480201D01*
X143859309Y-104449500D01*
X143859306Y-104449500D01*
X143740691Y-104449500D01*
X143649728Y-104473873D01*
X143649723Y-104473874D01*
X143626114Y-104480201D01*
X143626112Y-104480201D01*
X143626112Y-104480202D01*
X143604947Y-104492421D01*
X143604939Y-104492425D01*
X143523386Y-104539511D01*
X143523378Y-104539517D01*
X143439517Y-104623378D01*
X143439509Y-104623387D01*
X143439501Y-104623401D01*
X143386053Y-104715973D01*
X143386053Y-104715975D01*
X143386050Y-104715977D01*
X143386049Y-104715981D01*
X143364237Y-104743719D01*
X143360956Y-104746848D01*
X143354194Y-104753294D01*
X143292095Y-104785313D01*
X143222541Y-104778675D01*
X143222532Y-104778671D01*
X143214637Y-104775510D01*
X143173046Y-104748075D01*
X142284512Y-103859540D01*
X142284510Y-103859538D01*
X142266627Y-103849215D01*
X142266622Y-103849212D01*
X142230128Y-103828142D01*
X142230127Y-103828141D01*
X142215991Y-103819980D01*
X142215990Y-103819979D01*
X142215988Y-103819978D01*
X142215986Y-103819977D01*
X142190511Y-103813151D01*
X142190511Y-103813150D01*
X142139563Y-103799500D01*
X142139562Y-103799500D01*
X142139560Y-103799500D01*
X141593663Y-103799500D01*
X141593662Y-103799499D01*
X141593662Y-103799500D01*
X141558727Y-103794477D01*
X141533485Y-103787065D01*
X141480740Y-103755769D01*
X138331517Y-100606545D01*
X138331514Y-100606543D01*
X138331512Y-100606541D01*
X138331504Y-100606535D01*
X138331487Y-100606525D01*
X138328429Y-100604506D01*
X138306583Y-100578660D01*
X138262990Y-100566979D01*
X138262991Y-100566979D01*
X138224775Y-100556739D01*
X138224774Y-100556738D01*
X138186563Y-100546500D01*
X138186562Y-100546500D01*
X138186560Y-100546500D01*
X134777391Y-100546500D01*
X134777390Y-100546499D01*
X134777390Y-100546500D01*
X134742455Y-100541477D01*
X134717213Y-100534065D01*
X134664468Y-100502769D01*
X134224759Y-100063060D01*
X134203610Y-100034810D01*
X134198188Y-100024880D01*
X134183335Y-99956610D01*
X134207749Y-99891145D01*
X134263679Y-99849273D01*
X134267558Y-99847826D01*
X134270894Y-99846583D01*
X134314208Y-99838772D01*
X134863873Y-99838772D01*
X134871732Y-99836388D01*
X134891381Y-99832480D01*
X134906258Y-99829521D01*
X134912354Y-99828920D01*
X134912386Y-99828911D01*
X134923311Y-99826174D01*
X134933515Y-99816926D01*
X134984552Y-99782824D01*
X135028867Y-99716503D01*
X135028867Y-99716501D01*
X135028868Y-99716501D01*
X135031030Y-99705628D01*
X135031167Y-99705361D01*
X135031249Y-99704530D01*
X135037552Y-99672840D01*
X135037553Y-99672840D01*
X135037553Y-99672834D01*
X135040500Y-99658020D01*
X135040500Y-98595238D01*
X135045522Y-98560305D01*
X135049433Y-98546986D01*
X135087206Y-98488209D01*
X135150758Y-98459184D01*
X135152374Y-98458952D01*
X135210575Y-98464510D01*
X135218382Y-98467213D01*
X135218382Y-98467212D01*
X135221587Y-98468322D01*
X135228631Y-98471128D01*
X135233530Y-98472456D01*
X135244791Y-98476354D01*
X135246592Y-98476106D01*
X135260302Y-98478959D01*
X135340691Y-98500500D01*
X135340694Y-98500500D01*
X135459306Y-98500500D01*
X135459309Y-98500500D01*
X135573886Y-98469799D01*
X135676613Y-98410489D01*
X135760489Y-98326613D01*
X135819799Y-98223886D01*
X135850500Y-98109309D01*
X135850500Y-97990691D01*
X135819799Y-97876114D01*
X135760489Y-97773387D01*
X135676613Y-97689511D01*
X135573886Y-97630201D01*
X135459309Y-97599500D01*
X135459306Y-97599500D01*
X135340689Y-97599500D01*
X135260150Y-97621079D01*
X135260151Y-97621080D01*
X135232609Y-97628460D01*
X135229745Y-97629191D01*
X135209399Y-97634126D01*
X135195682Y-97637452D01*
X135125892Y-97634126D01*
X135068981Y-97593597D01*
X135067976Y-97592319D01*
X135043687Y-97539126D01*
X135042739Y-97534205D01*
X135040500Y-97510748D01*
X135040500Y-96470998D01*
X135040500Y-96468521D01*
X135040499Y-96468519D01*
X136179500Y-96468519D01*
X136179500Y-99658024D01*
X136191131Y-99716501D01*
X136191132Y-99716502D01*
X136191132Y-99716503D01*
X136191134Y-99716505D01*
X136235447Y-99782824D01*
X136301765Y-99827136D01*
X136301767Y-99827138D01*
X136301770Y-99827140D01*
X136352612Y-99837253D01*
X136355337Y-99837975D01*
X136360249Y-99838772D01*
X137399750Y-99838772D01*
X137403873Y-99838772D01*
X137411732Y-99836388D01*
X137431381Y-99832480D01*
X137446258Y-99829521D01*
X137452354Y-99828920D01*
X137452386Y-99828911D01*
X137463311Y-99826174D01*
X137473515Y-99816926D01*
X137524552Y-99782824D01*
X137568867Y-99716503D01*
X137568867Y-99716501D01*
X137568868Y-99716501D01*
X137571030Y-99705628D01*
X137571167Y-99705361D01*
X137571249Y-99704530D01*
X137577552Y-99672840D01*
X137577553Y-99672840D01*
X137577553Y-99672834D01*
X137580500Y-99658020D01*
X137580500Y-98623608D01*
X137585522Y-98588675D01*
X137587140Y-98583165D01*
X137589433Y-98575356D01*
X137627206Y-98516579D01*
X137690758Y-98487554D01*
X137696436Y-98486737D01*
X137699183Y-98486343D01*
X137748919Y-98489306D01*
X137790691Y-98500500D01*
X137790694Y-98500500D01*
X137909306Y-98500500D01*
X137909309Y-98500500D01*
X138023886Y-98469799D01*
X138126613Y-98410489D01*
X138210489Y-98326613D01*
X138269799Y-98223886D01*
X138300500Y-98109309D01*
X138300500Y-97990691D01*
X138269799Y-97876114D01*
X138210489Y-97773387D01*
X138126613Y-97689511D01*
X138023886Y-97630201D01*
X137909309Y-97599500D01*
X137909306Y-97599500D01*
X137790689Y-97599500D01*
X137753810Y-97609381D01*
X137718771Y-97613570D01*
X137704897Y-97613240D01*
X137638345Y-97591967D01*
X137593860Y-97538091D01*
X137590508Y-97530264D01*
X137580500Y-97481460D01*
X137580500Y-96470998D01*
X137580500Y-96468521D01*
X137580499Y-96468519D01*
X138719500Y-96468519D01*
X138719500Y-99658024D01*
X138731131Y-99716501D01*
X138731132Y-99716502D01*
X138731132Y-99716503D01*
X138731134Y-99716505D01*
X138775447Y-99782824D01*
X138841765Y-99827136D01*
X138841767Y-99827138D01*
X138841770Y-99827140D01*
X138892612Y-99837253D01*
X138895337Y-99837975D01*
X138900249Y-99838772D01*
X139939750Y-99838772D01*
X139943873Y-99838772D01*
X139951732Y-99836388D01*
X139971381Y-99832480D01*
X139986258Y-99829521D01*
X139992354Y-99828920D01*
X139992386Y-99828911D01*
X140003311Y-99826174D01*
X140013515Y-99816926D01*
X140064552Y-99782824D01*
X140108867Y-99716503D01*
X140108867Y-99716501D01*
X140108868Y-99716501D01*
X140111030Y-99705628D01*
X140111167Y-99705361D01*
X140111249Y-99704530D01*
X140117552Y-99672840D01*
X140117553Y-99672840D01*
X140117553Y-99672834D01*
X140120500Y-99658020D01*
X140120500Y-98557531D01*
X140125522Y-98522598D01*
X140126373Y-98519701D01*
X140129433Y-98509279D01*
X140167206Y-98450502D01*
X140230758Y-98421477D01*
X140239180Y-98420266D01*
X140288917Y-98423228D01*
X140390691Y-98450500D01*
X140390694Y-98450500D01*
X140509306Y-98450500D01*
X140509309Y-98450500D01*
X140623886Y-98419799D01*
X140726613Y-98360489D01*
X140810489Y-98276613D01*
X140869799Y-98173886D01*
X140900500Y-98059309D01*
X140900500Y-97940691D01*
X140869799Y-97826114D01*
X140810489Y-97723387D01*
X140726613Y-97639511D01*
X140623886Y-97580201D01*
X140509309Y-97549500D01*
X140509306Y-97549500D01*
X140390689Y-97549500D01*
X140293813Y-97575457D01*
X140258772Y-97579647D01*
X140244898Y-97579317D01*
X140178346Y-97558044D01*
X140133860Y-97504167D01*
X140133856Y-97504159D01*
X140130509Y-97496342D01*
X140120500Y-97447535D01*
X140120500Y-96470998D01*
X140120500Y-96468521D01*
X140120499Y-96468519D01*
X141259500Y-96468519D01*
X141259500Y-99658024D01*
X141271131Y-99716501D01*
X141271132Y-99716502D01*
X141271132Y-99716503D01*
X141271134Y-99716505D01*
X141315447Y-99782824D01*
X141381765Y-99827136D01*
X141381767Y-99827138D01*
X141381770Y-99827140D01*
X141432612Y-99837253D01*
X141435337Y-99837975D01*
X141440249Y-99838772D01*
X142479750Y-99838772D01*
X142483873Y-99838772D01*
X142491732Y-99836388D01*
X142511381Y-99832480D01*
X142526258Y-99829521D01*
X142532354Y-99828920D01*
X142532386Y-99828911D01*
X142543311Y-99826174D01*
X142553515Y-99816926D01*
X142604552Y-99782824D01*
X142648867Y-99716503D01*
X142648867Y-99716501D01*
X142648868Y-99716501D01*
X142651030Y-99705628D01*
X142651167Y-99705361D01*
X142651249Y-99704530D01*
X142657552Y-99672840D01*
X142657553Y-99672840D01*
X142657553Y-99672834D01*
X142660500Y-99658020D01*
X142660500Y-98554607D01*
X142665522Y-98519674D01*
X142669433Y-98506355D01*
X142707206Y-98447578D01*
X142770758Y-98418553D01*
X142776600Y-98417713D01*
X142827048Y-98420871D01*
X142859070Y-98429656D01*
X142868344Y-98431114D01*
X142940691Y-98450500D01*
X142940694Y-98450500D01*
X143059306Y-98450500D01*
X143059309Y-98450500D01*
X143173886Y-98419799D01*
X143276613Y-98360489D01*
X143360489Y-98276613D01*
X143419799Y-98173886D01*
X143450500Y-98059309D01*
X143450500Y-97940691D01*
X143419799Y-97826114D01*
X143360489Y-97723387D01*
X143276613Y-97639511D01*
X143173886Y-97580201D01*
X143059309Y-97549500D01*
X143059306Y-97549500D01*
X142940691Y-97549500D01*
X142846492Y-97574740D01*
X142827609Y-97578259D01*
X142800383Y-97581176D01*
X142731628Y-97568746D01*
X142680509Y-97521117D01*
X142678284Y-97517363D01*
X142677822Y-97516583D01*
X142660500Y-97453371D01*
X142660500Y-96470998D01*
X142660500Y-96468521D01*
X142660499Y-96468519D01*
X143799500Y-96468519D01*
X143799500Y-99658024D01*
X143811131Y-99716501D01*
X143811132Y-99716502D01*
X143811132Y-99716503D01*
X143811134Y-99716505D01*
X143855447Y-99782824D01*
X143921765Y-99827136D01*
X143921767Y-99827138D01*
X143921770Y-99827140D01*
X143972612Y-99837253D01*
X143975337Y-99837975D01*
X143980249Y-99838772D01*
X145019750Y-99838772D01*
X145023873Y-99838772D01*
X145031732Y-99836388D01*
X145051381Y-99832480D01*
X145066258Y-99829521D01*
X145072354Y-99828920D01*
X145072386Y-99828911D01*
X145083311Y-99826174D01*
X145093515Y-99816926D01*
X145144552Y-99782824D01*
X145188867Y-99716503D01*
X145188867Y-99716501D01*
X145188868Y-99716501D01*
X145191030Y-99705628D01*
X145191167Y-99705361D01*
X145191249Y-99704530D01*
X145197552Y-99672840D01*
X145197553Y-99672840D01*
X145197553Y-99672834D01*
X145200500Y-99658020D01*
X145200500Y-98505596D01*
X145202369Y-98484147D01*
X145204006Y-98474826D01*
X145205405Y-98471996D01*
X145205522Y-98470665D01*
X145206805Y-98466295D01*
X145207776Y-98466580D01*
X145211879Y-98450507D01*
X145211187Y-98450249D01*
X145212248Y-98447403D01*
X145212891Y-98446543D01*
X145213349Y-98444750D01*
X145214587Y-98442040D01*
X145215834Y-98442610D01*
X145224777Y-98430660D01*
X145227657Y-98420875D01*
X145232976Y-98416270D01*
X145234990Y-98412202D01*
X145241520Y-98408286D01*
X145250520Y-98396259D01*
X145249623Y-98395224D01*
X145250679Y-98394308D01*
X145252658Y-98393402D01*
X145254110Y-98391463D01*
X145254147Y-98391436D01*
X145256586Y-98389611D01*
X145257698Y-98391097D01*
X145266954Y-98386864D01*
X145280488Y-98375152D01*
X145314093Y-98365306D01*
X145314216Y-98365250D01*
X145315800Y-98365022D01*
X145333370Y-98363772D01*
X145429173Y-98363772D01*
X145445346Y-98364831D01*
X145461333Y-98366936D01*
X145477220Y-98370095D01*
X145590691Y-98400500D01*
X145590694Y-98400500D01*
X145709306Y-98400500D01*
X145709309Y-98400500D01*
X145823886Y-98369799D01*
X145926613Y-98310489D01*
X146010489Y-98226613D01*
X146069799Y-98123886D01*
X146100500Y-98009309D01*
X146100500Y-97890691D01*
X146069799Y-97776114D01*
X146010489Y-97673387D01*
X145926613Y-97589511D01*
X145823886Y-97530201D01*
X145709309Y-97499500D01*
X145709306Y-97499500D01*
X145590694Y-97499500D01*
X145590691Y-97499500D01*
X145526937Y-97516583D01*
X145476112Y-97530201D01*
X145476111Y-97530202D01*
X145401938Y-97573026D01*
X145401934Y-97573027D01*
X145401933Y-97573029D01*
X145369166Y-97586145D01*
X145355680Y-97589416D01*
X145285890Y-97586088D01*
X145229002Y-97545587D01*
X145227998Y-97544311D01*
X145203686Y-97491083D01*
X145202737Y-97486158D01*
X145200500Y-97462711D01*
X145200500Y-96470567D01*
X145200500Y-96468521D01*
X145200499Y-96468519D01*
X146339500Y-96468519D01*
X146339500Y-99658024D01*
X146351131Y-99716501D01*
X146351132Y-99716502D01*
X146351132Y-99716503D01*
X146351134Y-99716505D01*
X146395447Y-99782824D01*
X146461765Y-99827136D01*
X146461767Y-99827138D01*
X146461770Y-99827140D01*
X146512612Y-99837253D01*
X146515337Y-99837975D01*
X146520249Y-99838772D01*
X147559750Y-99838772D01*
X147563873Y-99838772D01*
X147571732Y-99836388D01*
X147591381Y-99832480D01*
X147606258Y-99829521D01*
X147612354Y-99828920D01*
X147612386Y-99828911D01*
X147623311Y-99826174D01*
X147633515Y-99816926D01*
X147684552Y-99782824D01*
X147728867Y-99716503D01*
X147728867Y-99716501D01*
X147728868Y-99716501D01*
X147731030Y-99705628D01*
X147731167Y-99705361D01*
X147731249Y-99704530D01*
X147737552Y-99672840D01*
X147737553Y-99672840D01*
X147737553Y-99672834D01*
X147740500Y-99658020D01*
X147740500Y-98537502D01*
X147745522Y-98502569D01*
X147749433Y-98489250D01*
X147787206Y-98430473D01*
X147850758Y-98401448D01*
X147852399Y-98401212D01*
X147910581Y-98406776D01*
X147915313Y-98408414D01*
X147936751Y-98418205D01*
X147985039Y-98446084D01*
X148026114Y-98469799D01*
X148140691Y-98500500D01*
X148140694Y-98500500D01*
X148259306Y-98500500D01*
X148259309Y-98500500D01*
X148373886Y-98469799D01*
X148424302Y-98440691D01*
X153049500Y-98440691D01*
X153049500Y-98559309D01*
X153080201Y-98673886D01*
X153139511Y-98776613D01*
X153223387Y-98860489D01*
X153326114Y-98919799D01*
X153440691Y-98950500D01*
X153456337Y-98950500D01*
X153491269Y-98955521D01*
X153516513Y-98962934D01*
X153569259Y-98994230D01*
X153815489Y-99240460D01*
X153884012Y-99280022D01*
X153960438Y-99300500D01*
X154039562Y-99300500D01*
X154894206Y-99300500D01*
X154929138Y-99305521D01*
X154954382Y-99312934D01*
X155007128Y-99344230D01*
X155023387Y-99360489D01*
X155126114Y-99419799D01*
X155240691Y-99450500D01*
X155240694Y-99450500D01*
X155359306Y-99450500D01*
X155359309Y-99450500D01*
X155473886Y-99419799D01*
X155576613Y-99360489D01*
X155660489Y-99276613D01*
X155719799Y-99173886D01*
X155750500Y-99059309D01*
X155750500Y-98940691D01*
X155719799Y-98826114D01*
X155660489Y-98723387D01*
X155576613Y-98639511D01*
X155473886Y-98580201D01*
X155359309Y-98549500D01*
X155359306Y-98549500D01*
X155240691Y-98549500D01*
X155149728Y-98573873D01*
X155149723Y-98573874D01*
X155126114Y-98580201D01*
X155126112Y-98580201D01*
X155126112Y-98580202D01*
X155104947Y-98592421D01*
X155104939Y-98592425D01*
X155023386Y-98639511D01*
X155023383Y-98639513D01*
X155012326Y-98650570D01*
X155012325Y-98650572D01*
X155012322Y-98650574D01*
X154984071Y-98671724D01*
X154960984Y-98684331D01*
X154901555Y-98699500D01*
X154193663Y-98699500D01*
X154158725Y-98694476D01*
X154146405Y-98690858D01*
X154146397Y-98690856D01*
X154144840Y-98690517D01*
X154142906Y-98690096D01*
X154081583Y-98656612D01*
X153999426Y-98574455D01*
X153999421Y-98574450D01*
X153978274Y-98546199D01*
X153965667Y-98523110D01*
X153950500Y-98463685D01*
X153950500Y-98440693D01*
X153950500Y-98440691D01*
X153919799Y-98326114D01*
X153860489Y-98223387D01*
X153776613Y-98139511D01*
X153673886Y-98080201D01*
X153559309Y-98049500D01*
X153559306Y-98049500D01*
X153440691Y-98049500D01*
X153349728Y-98073873D01*
X153349723Y-98073874D01*
X153326114Y-98080201D01*
X153326112Y-98080201D01*
X153326112Y-98080202D01*
X153304947Y-98092421D01*
X153304939Y-98092425D01*
X153223386Y-98139511D01*
X153223378Y-98139517D01*
X153139517Y-98223378D01*
X153139513Y-98223383D01*
X153139512Y-98223385D01*
X153114640Y-98266464D01*
X153114639Y-98266466D01*
X153108780Y-98276615D01*
X153080201Y-98326114D01*
X153049500Y-98440691D01*
X148424302Y-98440691D01*
X148476613Y-98410489D01*
X148560489Y-98326613D01*
X148619799Y-98223886D01*
X148650500Y-98109309D01*
X148650500Y-97990691D01*
X148619799Y-97876114D01*
X148560489Y-97773387D01*
X148476613Y-97689511D01*
X148373886Y-97630201D01*
X148259309Y-97599500D01*
X148259306Y-97599500D01*
X148140691Y-97599500D01*
X148052633Y-97623095D01*
X148052631Y-97623095D01*
X148040255Y-97626412D01*
X148026110Y-97630202D01*
X147938948Y-97680525D01*
X147935848Y-97682092D01*
X147931895Y-97682820D01*
X147909176Y-97691915D01*
X147895685Y-97695188D01*
X147871108Y-97694017D01*
X147867135Y-97694750D01*
X147864591Y-97693707D01*
X147825897Y-97691864D01*
X147768983Y-97651336D01*
X147768981Y-97651334D01*
X147767976Y-97650056D01*
X147743685Y-97596855D01*
X147742737Y-97591930D01*
X147740500Y-97568483D01*
X147740500Y-96470567D01*
X147740500Y-96468521D01*
X147740499Y-96468519D01*
X147728868Y-96410042D01*
X147728867Y-96410041D01*
X147684552Y-96343719D01*
X147636288Y-96311470D01*
X147628385Y-96306189D01*
X147623641Y-96302296D01*
X147618230Y-96299404D01*
X147618229Y-96299403D01*
X147559752Y-96287772D01*
X147559750Y-96287772D01*
X146520249Y-96287772D01*
X146520247Y-96287772D01*
X146461770Y-96299403D01*
X146461769Y-96299403D01*
X146461768Y-96299404D01*
X146461765Y-96299405D01*
X146461759Y-96299410D01*
X146395447Y-96343719D01*
X146351138Y-96410031D01*
X146351133Y-96410037D01*
X146351132Y-96410040D01*
X146351132Y-96410041D01*
X146351131Y-96410042D01*
X146339500Y-96468519D01*
X145200499Y-96468519D01*
X145188868Y-96410042D01*
X145188867Y-96410041D01*
X145144552Y-96343719D01*
X145096288Y-96311470D01*
X145088385Y-96306189D01*
X145083641Y-96302296D01*
X145078230Y-96299404D01*
X145078229Y-96299403D01*
X145019752Y-96287772D01*
X145019750Y-96287772D01*
X143980249Y-96287772D01*
X143980247Y-96287772D01*
X143921770Y-96299403D01*
X143921769Y-96299403D01*
X143921768Y-96299404D01*
X143921765Y-96299405D01*
X143921759Y-96299410D01*
X143855447Y-96343719D01*
X143811138Y-96410031D01*
X143811133Y-96410037D01*
X143811132Y-96410040D01*
X143811132Y-96410041D01*
X143811131Y-96410042D01*
X143799500Y-96468519D01*
X142660499Y-96468519D01*
X142659361Y-96462800D01*
X142659360Y-96462789D01*
X142648868Y-96410042D01*
X142645975Y-96404630D01*
X142642081Y-96399885D01*
X142640956Y-96398202D01*
X142604552Y-96343719D01*
X142556288Y-96311470D01*
X142548385Y-96306189D01*
X142543641Y-96302296D01*
X142538230Y-96299404D01*
X142538229Y-96299403D01*
X142479752Y-96287772D01*
X142479750Y-96287772D01*
X141440249Y-96287772D01*
X141440247Y-96287772D01*
X141381770Y-96299403D01*
X141381769Y-96299403D01*
X141381768Y-96299404D01*
X141381765Y-96299405D01*
X141381759Y-96299410D01*
X141315447Y-96343719D01*
X141271138Y-96410031D01*
X141271133Y-96410037D01*
X141271132Y-96410040D01*
X141271132Y-96410041D01*
X141271131Y-96410042D01*
X141259500Y-96468519D01*
X140120499Y-96468519D01*
X140119361Y-96462800D01*
X140119360Y-96462789D01*
X140108868Y-96410042D01*
X140105975Y-96404630D01*
X140102081Y-96399885D01*
X140100956Y-96398202D01*
X140064552Y-96343719D01*
X140016288Y-96311470D01*
X140008385Y-96306189D01*
X140003641Y-96302296D01*
X139998230Y-96299404D01*
X139998229Y-96299403D01*
X139939752Y-96287772D01*
X139939750Y-96287772D01*
X138900249Y-96287772D01*
X138900247Y-96287772D01*
X138841770Y-96299403D01*
X138841769Y-96299403D01*
X138841768Y-96299404D01*
X138841765Y-96299405D01*
X138841759Y-96299410D01*
X138775447Y-96343719D01*
X138731138Y-96410031D01*
X138731133Y-96410037D01*
X138731132Y-96410040D01*
X138731132Y-96410041D01*
X138731131Y-96410042D01*
X138719500Y-96468519D01*
X137580499Y-96468519D01*
X137579361Y-96462800D01*
X137579360Y-96462789D01*
X137568868Y-96410042D01*
X137565975Y-96404630D01*
X137562081Y-96399885D01*
X137560956Y-96398202D01*
X137524552Y-96343719D01*
X137476288Y-96311470D01*
X137468385Y-96306189D01*
X137463641Y-96302296D01*
X137458230Y-96299404D01*
X137458229Y-96299403D01*
X137399752Y-96287772D01*
X137399750Y-96287772D01*
X136360249Y-96287772D01*
X136360247Y-96287772D01*
X136301770Y-96299403D01*
X136301769Y-96299403D01*
X136301768Y-96299404D01*
X136301765Y-96299405D01*
X136301759Y-96299410D01*
X136235447Y-96343719D01*
X136191138Y-96410031D01*
X136191133Y-96410037D01*
X136191132Y-96410040D01*
X136191132Y-96410041D01*
X136191131Y-96410042D01*
X136179500Y-96468519D01*
X135040499Y-96468519D01*
X135039361Y-96462800D01*
X135039360Y-96462789D01*
X135028868Y-96410042D01*
X135025975Y-96404630D01*
X135022081Y-96399885D01*
X135020956Y-96398202D01*
X134984552Y-96343719D01*
X134936288Y-96311470D01*
X134928385Y-96306189D01*
X134923641Y-96302296D01*
X134918230Y-96299404D01*
X134918229Y-96299403D01*
X134859752Y-96287772D01*
X134859750Y-96287772D01*
X133820249Y-96287772D01*
X133820247Y-96287772D01*
X133761770Y-96299403D01*
X133761769Y-96299403D01*
X133761768Y-96299404D01*
X133761765Y-96299405D01*
X133761759Y-96299410D01*
X133695447Y-96343719D01*
X133651138Y-96410031D01*
X133651133Y-96410037D01*
X133651132Y-96410040D01*
X133651132Y-96410041D01*
X133651131Y-96410042D01*
X133645408Y-96438817D01*
X133639500Y-96468521D01*
X133639500Y-99160609D01*
X133639499Y-99160611D01*
X133639500Y-99160612D01*
X133634959Y-99192185D01*
X133634476Y-99195547D01*
X133631289Y-99206400D01*
X133593514Y-99265177D01*
X133529957Y-99294200D01*
X133460807Y-99284259D01*
X133453829Y-99281072D01*
X133417657Y-99255958D01*
X132878894Y-98717195D01*
X132857745Y-98688945D01*
X132851090Y-98676757D01*
X132847295Y-98659312D01*
X132838746Y-98643640D01*
X132840023Y-98625883D01*
X132836239Y-98608487D01*
X132842478Y-98591758D01*
X132843759Y-98573951D01*
X132860636Y-98543071D01*
X132860653Y-98543026D01*
X132861661Y-98541679D01*
X132906702Y-98504502D01*
X132911217Y-98502308D01*
X132917366Y-98500015D01*
X132917611Y-98499832D01*
X132917915Y-98499810D01*
X132933300Y-98494071D01*
X133023886Y-98469799D01*
X133126613Y-98410489D01*
X133210489Y-98326613D01*
X133269799Y-98223886D01*
X133300500Y-98109309D01*
X133300500Y-97990691D01*
X133269799Y-97876114D01*
X133210489Y-97773387D01*
X133126613Y-97689511D01*
X133023886Y-97630201D01*
X132909309Y-97599500D01*
X132909306Y-97599500D01*
X132790691Y-97599500D01*
X132700774Y-97623593D01*
X132677437Y-97629846D01*
X132658595Y-97633361D01*
X132648064Y-97634492D01*
X132640423Y-97635313D01*
X132571665Y-97622906D01*
X132520529Y-97575294D01*
X132520526Y-97575288D01*
X132517853Y-97570782D01*
X132500500Y-97507518D01*
X132500500Y-96470567D01*
X132500500Y-96468521D01*
X132500499Y-96468519D01*
X132488868Y-96410042D01*
X132488867Y-96410041D01*
X132444552Y-96343719D01*
X132396288Y-96311470D01*
X132388385Y-96306189D01*
X132383641Y-96302296D01*
X132378230Y-96299404D01*
X132378229Y-96299403D01*
X132319752Y-96287772D01*
X132319750Y-96287772D01*
X131280249Y-96287772D01*
X131280247Y-96287772D01*
X131221770Y-96299403D01*
X131221769Y-96299403D01*
X131221768Y-96299404D01*
X131221765Y-96299405D01*
X131221759Y-96299410D01*
X131155447Y-96343719D01*
X131111138Y-96410031D01*
X131111133Y-96410037D01*
X131111132Y-96410040D01*
X131111132Y-96410041D01*
X131111131Y-96410042D01*
X131105408Y-96438817D01*
X131099500Y-96468521D01*
X131099500Y-99160609D01*
X131099499Y-99160611D01*
X131099500Y-99160612D01*
X131094959Y-99192185D01*
X131094476Y-99195547D01*
X131091289Y-99206400D01*
X131053514Y-99265177D01*
X130989957Y-99294200D01*
X130920807Y-99284259D01*
X130913829Y-99281072D01*
X130877657Y-99255958D01*
X130376214Y-98754515D01*
X130355065Y-98726265D01*
X130348410Y-98714077D01*
X130344615Y-98696632D01*
X130336066Y-98680960D01*
X130337343Y-98663203D01*
X130333559Y-98645807D01*
X130339798Y-98629078D01*
X130341079Y-98611271D01*
X130357956Y-98580391D01*
X130357973Y-98580346D01*
X130358981Y-98578999D01*
X130404022Y-98541822D01*
X130408537Y-98539628D01*
X130414685Y-98537335D01*
X130414931Y-98537152D01*
X130415235Y-98537130D01*
X130430623Y-98531390D01*
X130473886Y-98519799D01*
X130576613Y-98460489D01*
X130660489Y-98376613D01*
X130719799Y-98273886D01*
X130750500Y-98159309D01*
X130750500Y-98040691D01*
X130719799Y-97926114D01*
X130660489Y-97823387D01*
X130576613Y-97739511D01*
X130473886Y-97680201D01*
X130359309Y-97649500D01*
X130359306Y-97649500D01*
X130240691Y-97649500D01*
X130146492Y-97674740D01*
X130127609Y-97678259D01*
X130100383Y-97681176D01*
X130031628Y-97668746D01*
X129980509Y-97621117D01*
X129979021Y-97618607D01*
X129977822Y-97616583D01*
X129960500Y-97553371D01*
X129960500Y-96470567D01*
X129960500Y-96468521D01*
X129960499Y-96468519D01*
X129948868Y-96410042D01*
X129948867Y-96410041D01*
X129904552Y-96343719D01*
X129856288Y-96311470D01*
X129848385Y-96306189D01*
X129843641Y-96302296D01*
X129838230Y-96299404D01*
X129838229Y-96299403D01*
X129779752Y-96287772D01*
X129779750Y-96287772D01*
X128740249Y-96287772D01*
X128740247Y-96287772D01*
X128681770Y-96299403D01*
X128681769Y-96299403D01*
X128681768Y-96299404D01*
X128681411Y-96299594D01*
X128681253Y-96299748D01*
X128615447Y-96343719D01*
X128575605Y-96403347D01*
X128571617Y-96407258D01*
X128553089Y-96430247D01*
X128495693Y-96470090D01*
X128425869Y-96472577D01*
X128420792Y-96471281D01*
X128363788Y-96438817D01*
X127434512Y-95509540D01*
X127428064Y-95504593D01*
X127429483Y-95502742D01*
X127409311Y-95481587D01*
X127365990Y-95469979D01*
X127365991Y-95469979D01*
X127327775Y-95459739D01*
X127327774Y-95459738D01*
X127289563Y-95449500D01*
X127289562Y-95449500D01*
X111292834Y-95449500D01*
X111213710Y-95449500D01*
X111213708Y-95449500D01*
X111137283Y-95469977D01*
X111137280Y-95469978D01*
X111068771Y-95509533D01*
X111068756Y-95509543D01*
X111068754Y-95509544D01*
X109864788Y-96713512D01*
X109844212Y-96728916D01*
X109836538Y-96734661D01*
X109826611Y-96740082D01*
X109758338Y-96754936D01*
X109692873Y-96730522D01*
X109651000Y-96674590D01*
X109648313Y-96667384D01*
X109640500Y-96624064D01*
X109640500Y-96470567D01*
X109640500Y-96468521D01*
X109640499Y-96468519D01*
X109628868Y-96410042D01*
X109628867Y-96410041D01*
X109584552Y-96343719D01*
X109536288Y-96311470D01*
X109528385Y-96306189D01*
X109523641Y-96302296D01*
X109518230Y-96299404D01*
X109518229Y-96299403D01*
X109459752Y-96287772D01*
X109459750Y-96287772D01*
X108420249Y-96287772D01*
X108420247Y-96287772D01*
X108361770Y-96299403D01*
X108361769Y-96299403D01*
X108361768Y-96299404D01*
X108361765Y-96299405D01*
X108361759Y-96299410D01*
X108295447Y-96343719D01*
X108251138Y-96410031D01*
X108251133Y-96410037D01*
X108251132Y-96410040D01*
X108251132Y-96410041D01*
X108251131Y-96410042D01*
X108245408Y-96438817D01*
X108239500Y-96468521D01*
X108239500Y-98269609D01*
X108239499Y-98269611D01*
X108239500Y-98269612D01*
X108234476Y-98304546D01*
X108227064Y-98329787D01*
X108195769Y-98382531D01*
X107127727Y-99450573D01*
X107099476Y-99471722D01*
X107076388Y-99484330D01*
X107016958Y-99499500D01*
X101405794Y-99499500D01*
X101405793Y-99499499D01*
X101405793Y-99499500D01*
X101370858Y-99494477D01*
X101345616Y-99487065D01*
X101292871Y-99455769D01*
X101276615Y-99439513D01*
X101276613Y-99439511D01*
X101173886Y-99380201D01*
X101059309Y-99349500D01*
X101059306Y-99349500D01*
X100940691Y-99349500D01*
X100849728Y-99373873D01*
X100849723Y-99373874D01*
X100826114Y-99380201D01*
X100826112Y-99380201D01*
X100826112Y-99380202D01*
X100804947Y-99392421D01*
X100804939Y-99392425D01*
X100723386Y-99439511D01*
X100723378Y-99439517D01*
X100639517Y-99523378D01*
X100639513Y-99523383D01*
X100639511Y-99523387D01*
X100580201Y-99626114D01*
X100549500Y-99740691D01*
X78600500Y-99740691D01*
X78600500Y-95280730D01*
X86629500Y-95280730D01*
X86629500Y-98489269D01*
X86630694Y-98502001D01*
X86631812Y-98513929D01*
X86631978Y-98517499D01*
X86632353Y-98519703D01*
X86675588Y-98643258D01*
X86677205Y-98647879D01*
X86677206Y-98647880D01*
X86677207Y-98647882D01*
X86757850Y-98757150D01*
X86867117Y-98837792D01*
X86867118Y-98837793D01*
X86995299Y-98882646D01*
X86995303Y-98882647D01*
X87013742Y-98884375D01*
X87025730Y-98885500D01*
X87025734Y-98885500D01*
X87025739Y-98885500D01*
X88974270Y-98885500D01*
X88974271Y-98885500D01*
X88975576Y-98885377D01*
X89004699Y-98882646D01*
X89004701Y-98882646D01*
X89068790Y-98860219D01*
X89132882Y-98837793D01*
X89242150Y-98757150D01*
X89322793Y-98647882D01*
X89346476Y-98580201D01*
X89367646Y-98519701D01*
X89367646Y-98519699D01*
X89370384Y-98490498D01*
X89370500Y-98489270D01*
X89370500Y-95280728D01*
X89368188Y-95256079D01*
X89368020Y-95252502D01*
X89367646Y-95250300D01*
X89367646Y-95250298D01*
X89322793Y-95122119D01*
X89322792Y-95122117D01*
X89322792Y-95122116D01*
X89242151Y-95012851D01*
X89242150Y-95012850D01*
X89132882Y-94932207D01*
X89132880Y-94932206D01*
X89004704Y-94887354D01*
X89004702Y-94887353D01*
X89004700Y-94887353D01*
X88974270Y-94884500D01*
X88974266Y-94884500D01*
X88974264Y-94884500D01*
X87025734Y-94884500D01*
X87025730Y-94884500D01*
X87007074Y-94886249D01*
X87001069Y-94886812D01*
X86997499Y-94886978D01*
X86995297Y-94887353D01*
X86867118Y-94932206D01*
X86757849Y-95012849D01*
X86677206Y-95122118D01*
X86632353Y-95250297D01*
X86631978Y-95252499D01*
X86631877Y-95254664D01*
X86631901Y-95255070D01*
X86631850Y-95255655D01*
X86629500Y-95280730D01*
X78600500Y-95280730D01*
X78600500Y-93874038D01*
X101399500Y-93874038D01*
X101399500Y-93878501D01*
X101399500Y-94125966D01*
X101420620Y-94259308D01*
X101420620Y-94259309D01*
X101438910Y-94374786D01*
X101438910Y-94374789D01*
X101498513Y-94558225D01*
X101516760Y-94614383D01*
X101558164Y-94695642D01*
X101586116Y-94750500D01*
X101626808Y-94830363D01*
X101631128Y-94838841D01*
X101631137Y-94838856D01*
X101757550Y-95012849D01*
X101779201Y-95042649D01*
X101779205Y-95042654D01*
X101779210Y-95042660D01*
X101957338Y-95220788D01*
X101957342Y-95220791D01*
X101957345Y-95220794D01*
X101957350Y-95220798D01*
X102135117Y-95349952D01*
X102161155Y-95368870D01*
X102304184Y-95441747D01*
X102304183Y-95441747D01*
X102339493Y-95459738D01*
X102382066Y-95481430D01*
X102386488Y-95483684D01*
X102390243Y-95484743D01*
X102466567Y-95509542D01*
X102625215Y-95561090D01*
X102874038Y-95600500D01*
X102874039Y-95600500D01*
X103125961Y-95600500D01*
X103125962Y-95600500D01*
X103374785Y-95561090D01*
X103614379Y-95483241D01*
X103838845Y-95368870D01*
X104042656Y-95220793D01*
X104220793Y-95042656D01*
X104368870Y-94838845D01*
X104483241Y-94614379D01*
X104561090Y-94374785D01*
X104600500Y-94125962D01*
X104600500Y-93874038D01*
X104561090Y-93625215D01*
X104483241Y-93385621D01*
X104368870Y-93161155D01*
X104331146Y-93109232D01*
X104220798Y-92957350D01*
X104220794Y-92957345D01*
X104220791Y-92957342D01*
X104220788Y-92957338D01*
X104042660Y-92779210D01*
X104042655Y-92779206D01*
X104042654Y-92779205D01*
X104042649Y-92779201D01*
X103838848Y-92631132D01*
X103838847Y-92631131D01*
X103838845Y-92631130D01*
X103768747Y-92595413D01*
X103614383Y-92516760D01*
X103469846Y-92469797D01*
X103374787Y-92438910D01*
X103180373Y-92408118D01*
X103125962Y-92399500D01*
X103125961Y-92399500D01*
X102874039Y-92399500D01*
X102874038Y-92399500D01*
X102819627Y-92408118D01*
X102625212Y-92438910D01*
X102625209Y-92438910D01*
X102395988Y-92513390D01*
X102385616Y-92516760D01*
X102231253Y-92595413D01*
X102161147Y-92631134D01*
X101957367Y-92779188D01*
X101957338Y-92779210D01*
X101779210Y-92957338D01*
X101779188Y-92957367D01*
X101631134Y-93161147D01*
X101631132Y-93161151D01*
X101516760Y-93385616D01*
X101516759Y-93385618D01*
X101516759Y-93385619D01*
X101438910Y-93625209D01*
X101438910Y-93625212D01*
X101414993Y-93776217D01*
X101414977Y-93776321D01*
X101414931Y-93776613D01*
X101399500Y-93874038D01*
X78600500Y-93874038D01*
X78600500Y-91390418D01*
X107940000Y-91390418D01*
X107940000Y-91390427D01*
X107940000Y-92763272D01*
X108300000Y-92763272D01*
X108300000Y-93263272D01*
X107940000Y-93263272D01*
X107940000Y-94636124D01*
X107946400Y-94695642D01*
X107946402Y-94695649D01*
X107966860Y-94750500D01*
X107996645Y-94830358D01*
X107996649Y-94830365D01*
X108037175Y-94884500D01*
X108082807Y-94945457D01*
X108082809Y-94945459D01*
X108082812Y-94945462D01*
X108197906Y-95031622D01*
X108197913Y-95031626D01*
X108332620Y-95081868D01*
X108332627Y-95081870D01*
X108339468Y-95082605D01*
X108392138Y-95088270D01*
X108392155Y-95088271D01*
X108392172Y-95088272D01*
X108690000Y-95088272D01*
X108690000Y-94600000D01*
X109190000Y-94600000D01*
X109190000Y-95088272D01*
X109487828Y-95088272D01*
X109487836Y-95088272D01*
X109487847Y-95088271D01*
X109523560Y-95084430D01*
X109547372Y-95081870D01*
X109547379Y-95081868D01*
X109682086Y-95031626D01*
X109682093Y-95031622D01*
X109797187Y-94945462D01*
X109797190Y-94945459D01*
X109883350Y-94830365D01*
X109883354Y-94830358D01*
X109933596Y-94695651D01*
X109933598Y-94695644D01*
X109937915Y-94655500D01*
X109939998Y-94636132D01*
X109940000Y-94636099D01*
X109940000Y-94600000D01*
X110350000Y-94600000D01*
X110350000Y-91450000D01*
X109940000Y-91450000D01*
X109940000Y-91418519D01*
X110779500Y-91418519D01*
X110779500Y-94608024D01*
X110791131Y-94666501D01*
X110791132Y-94666502D01*
X110791132Y-94666503D01*
X110791134Y-94666505D01*
X110835447Y-94732824D01*
X110901765Y-94777136D01*
X110901767Y-94777138D01*
X110901770Y-94777140D01*
X110960247Y-94788771D01*
X110960250Y-94788772D01*
X110960252Y-94788772D01*
X111022312Y-94788772D01*
X111024954Y-94788885D01*
X111028250Y-94790008D01*
X111054593Y-94793796D01*
X111064705Y-94796765D01*
X111066102Y-94797175D01*
X111124000Y-94805500D01*
X114375991Y-94805500D01*
X114376000Y-94805500D01*
X114419684Y-94800803D01*
X114461963Y-94791605D01*
X114481582Y-94788955D01*
X114484945Y-94788772D01*
X114539750Y-94788772D01*
X114539751Y-94788771D01*
X114554568Y-94785824D01*
X114586258Y-94779521D01*
X114592354Y-94778920D01*
X114592386Y-94778911D01*
X114603311Y-94776174D01*
X114613515Y-94766926D01*
X114664552Y-94732824D01*
X114708867Y-94666503D01*
X114708867Y-94666501D01*
X114708868Y-94666501D01*
X114711030Y-94655627D01*
X114711166Y-94655362D01*
X114711249Y-94654528D01*
X114714912Y-94636116D01*
X114720072Y-94610168D01*
X114720500Y-94608203D01*
X114720500Y-91418336D01*
X114720080Y-91416405D01*
X114719066Y-91411310D01*
X114719066Y-91411306D01*
X114719064Y-91411299D01*
X114711250Y-91372019D01*
X114710648Y-91365912D01*
X114708867Y-91360042D01*
X114708867Y-91360041D01*
X114668749Y-91300000D01*
X115250000Y-91300000D01*
X115250000Y-94450000D01*
X115560000Y-94450000D01*
X115560000Y-94636124D01*
X115566400Y-94695642D01*
X115566402Y-94695649D01*
X115586860Y-94750500D01*
X115616645Y-94830358D01*
X115616649Y-94830365D01*
X115657175Y-94884500D01*
X115702807Y-94945457D01*
X115702809Y-94945459D01*
X115702812Y-94945462D01*
X115817906Y-95031622D01*
X115817913Y-95031626D01*
X115952620Y-95081868D01*
X115952627Y-95081870D01*
X115959468Y-95082605D01*
X116012138Y-95088270D01*
X116012155Y-95088271D01*
X116012172Y-95088272D01*
X116310000Y-95088272D01*
X116310000Y-94450000D01*
X116810000Y-94450000D01*
X116810000Y-95088272D01*
X117107828Y-95088272D01*
X117107836Y-95088272D01*
X117107847Y-95088271D01*
X117143560Y-95084430D01*
X117167372Y-95081870D01*
X117167379Y-95081868D01*
X117302086Y-95031626D01*
X117302093Y-95031622D01*
X117417187Y-94945462D01*
X117417190Y-94945459D01*
X117503350Y-94830365D01*
X117503354Y-94830358D01*
X117553596Y-94695651D01*
X117553598Y-94695644D01*
X117557915Y-94655500D01*
X117559998Y-94636132D01*
X117560000Y-94636099D01*
X117560000Y-93263272D01*
X117300000Y-93263272D01*
X117300000Y-92763272D01*
X117560000Y-92763272D01*
X117560000Y-91579491D01*
X118346630Y-91579491D01*
X118346860Y-91593345D01*
X118346860Y-91593349D01*
X118392496Y-94331484D01*
X118392497Y-94331493D01*
X118397537Y-94373428D01*
X118397692Y-94374326D01*
X118397809Y-94375691D01*
X118397917Y-94376590D01*
X118397886Y-94376593D01*
X118399500Y-94395423D01*
X118399500Y-94608024D01*
X118411131Y-94666501D01*
X118411132Y-94666502D01*
X118411132Y-94666503D01*
X118411134Y-94666505D01*
X118455447Y-94732824D01*
X118521765Y-94777136D01*
X118521767Y-94777138D01*
X118521770Y-94777140D01*
X118572612Y-94787253D01*
X118575337Y-94787975D01*
X118580249Y-94788772D01*
X119619750Y-94788772D01*
X119623873Y-94788772D01*
X119631732Y-94786388D01*
X119651381Y-94782480D01*
X119666258Y-94779521D01*
X119672354Y-94778920D01*
X119672386Y-94778911D01*
X119683311Y-94776174D01*
X119693515Y-94766926D01*
X119744552Y-94732824D01*
X119759396Y-94710609D01*
X119813008Y-94665804D01*
X119862498Y-94655500D01*
X120877502Y-94655500D01*
X120944541Y-94675185D01*
X120960092Y-94687007D01*
X120971845Y-94697502D01*
X120995447Y-94732824D01*
X121058836Y-94775179D01*
X121059930Y-94776156D01*
X121061770Y-94777140D01*
X121112612Y-94787253D01*
X121115337Y-94787975D01*
X121120249Y-94788772D01*
X122159750Y-94788772D01*
X122163873Y-94788772D01*
X122171732Y-94786388D01*
X122191381Y-94782480D01*
X122206258Y-94779521D01*
X122212354Y-94778920D01*
X122212386Y-94778911D01*
X122223311Y-94776174D01*
X122233515Y-94766926D01*
X122284552Y-94732824D01*
X122299396Y-94710609D01*
X122353008Y-94665804D01*
X122402498Y-94655500D01*
X123417502Y-94655500D01*
X123484541Y-94675185D01*
X123500092Y-94687007D01*
X123511845Y-94697502D01*
X123535447Y-94732824D01*
X123598836Y-94775179D01*
X123599930Y-94776156D01*
X123601770Y-94777140D01*
X123652612Y-94787253D01*
X123655337Y-94787975D01*
X123660249Y-94788772D01*
X124699750Y-94788772D01*
X124703873Y-94788772D01*
X124711732Y-94786388D01*
X124731381Y-94782480D01*
X124746258Y-94779521D01*
X124752354Y-94778920D01*
X124752386Y-94778911D01*
X124763311Y-94776174D01*
X124773515Y-94766926D01*
X124824552Y-94732824D01*
X124839396Y-94710609D01*
X124893008Y-94665804D01*
X124942498Y-94655500D01*
X125957502Y-94655500D01*
X126024541Y-94675185D01*
X126040092Y-94687007D01*
X126051845Y-94697502D01*
X126075447Y-94732824D01*
X126138836Y-94775179D01*
X126139930Y-94776156D01*
X126141770Y-94777140D01*
X126192612Y-94787253D01*
X126195337Y-94787975D01*
X126200249Y-94788772D01*
X127239750Y-94788772D01*
X127243873Y-94788772D01*
X127251732Y-94786388D01*
X127271381Y-94782480D01*
X127286258Y-94779521D01*
X127292354Y-94778920D01*
X127292386Y-94778911D01*
X127303311Y-94776174D01*
X127313515Y-94766926D01*
X127364552Y-94732824D01*
X127408867Y-94666503D01*
X127408867Y-94666501D01*
X127408868Y-94666501D01*
X127411030Y-94655628D01*
X127411167Y-94655361D01*
X127411249Y-94654532D01*
X127414910Y-94636124D01*
X127416743Y-94626904D01*
X127449125Y-94564993D01*
X127458733Y-94556037D01*
X127463199Y-94552297D01*
X127481447Y-94535005D01*
X127527417Y-94455942D01*
X127548216Y-94389239D01*
X127557503Y-94331491D01*
X127603370Y-91579491D01*
X127599059Y-91534056D01*
X127599058Y-91534051D01*
X127599058Y-91534048D01*
X127587875Y-91480504D01*
X127587870Y-91480479D01*
X127585026Y-91468627D01*
X127543350Y-91390418D01*
X128260000Y-91390418D01*
X128260000Y-91390427D01*
X128260000Y-92763272D01*
X128700000Y-92763272D01*
X128700000Y-93263272D01*
X128260000Y-93263272D01*
X128260000Y-94636124D01*
X128266400Y-94695642D01*
X128266402Y-94695649D01*
X128286860Y-94750500D01*
X128316645Y-94830358D01*
X128316649Y-94830365D01*
X128357175Y-94884500D01*
X128402807Y-94945457D01*
X128402809Y-94945459D01*
X128402812Y-94945462D01*
X128517906Y-95031622D01*
X128517913Y-95031626D01*
X128652620Y-95081868D01*
X128652627Y-95081870D01*
X128659468Y-95082605D01*
X128712138Y-95088270D01*
X128712155Y-95088271D01*
X128712172Y-95088272D01*
X129010000Y-95088272D01*
X129010000Y-94600000D01*
X129510000Y-94600000D01*
X129510000Y-95088272D01*
X129807828Y-95088272D01*
X129807836Y-95088272D01*
X129807847Y-95088271D01*
X129843560Y-95084430D01*
X129867372Y-95081870D01*
X129867379Y-95081868D01*
X130002086Y-95031626D01*
X130002093Y-95031622D01*
X130117187Y-94945462D01*
X130117190Y-94945459D01*
X130203350Y-94830365D01*
X130203354Y-94830358D01*
X130253596Y-94695651D01*
X130253598Y-94695644D01*
X130257915Y-94655500D01*
X130259998Y-94636132D01*
X130260000Y-94636099D01*
X130260000Y-94600000D01*
X130800000Y-94600000D01*
X130800000Y-94636124D01*
X130806400Y-94695642D01*
X130806402Y-94695649D01*
X130826860Y-94750500D01*
X130856645Y-94830358D01*
X130856649Y-94830365D01*
X130897175Y-94884500D01*
X130942807Y-94945457D01*
X130942809Y-94945459D01*
X130942812Y-94945462D01*
X131057906Y-95031622D01*
X131057913Y-95031626D01*
X131192620Y-95081868D01*
X131192627Y-95081870D01*
X131199468Y-95082605D01*
X131252138Y-95088270D01*
X131252155Y-95088271D01*
X131252172Y-95088272D01*
X131550000Y-95088272D01*
X131550000Y-94600000D01*
X132050000Y-94600000D01*
X132050000Y-95088272D01*
X132347828Y-95088272D01*
X132347836Y-95088272D01*
X132347847Y-95088271D01*
X132383560Y-95084430D01*
X132407372Y-95081870D01*
X132407379Y-95081868D01*
X132542086Y-95031626D01*
X132542093Y-95031622D01*
X132657187Y-94945462D01*
X132657190Y-94945459D01*
X132743350Y-94830365D01*
X132743354Y-94830358D01*
X132793596Y-94695651D01*
X132793598Y-94695644D01*
X132797915Y-94655500D01*
X132799998Y-94636132D01*
X132800000Y-94636099D01*
X132800000Y-94600000D01*
X133340000Y-94600000D01*
X133340000Y-94636124D01*
X133346400Y-94695642D01*
X133346402Y-94695649D01*
X133366860Y-94750500D01*
X133396645Y-94830358D01*
X133396649Y-94830365D01*
X133437175Y-94884500D01*
X133482807Y-94945457D01*
X133482809Y-94945459D01*
X133482812Y-94945462D01*
X133597906Y-95031622D01*
X133597913Y-95031626D01*
X133732620Y-95081868D01*
X133732627Y-95081870D01*
X133739468Y-95082605D01*
X133792138Y-95088270D01*
X133792155Y-95088271D01*
X133792172Y-95088272D01*
X134090000Y-95088272D01*
X134090000Y-94600000D01*
X134590000Y-94600000D01*
X134590000Y-95088272D01*
X134887828Y-95088272D01*
X134887836Y-95088272D01*
X134887847Y-95088271D01*
X134923560Y-95084430D01*
X134947372Y-95081870D01*
X134947379Y-95081868D01*
X135082086Y-95031626D01*
X135082093Y-95031622D01*
X135197187Y-94945462D01*
X135197190Y-94945459D01*
X135283350Y-94830365D01*
X135283354Y-94830358D01*
X135333596Y-94695651D01*
X135333598Y-94695644D01*
X135337915Y-94655500D01*
X135339998Y-94636132D01*
X135340000Y-94636099D01*
X135340000Y-94600000D01*
X135880000Y-94600000D01*
X135880000Y-94636124D01*
X135886400Y-94695642D01*
X135886402Y-94695649D01*
X135906860Y-94750500D01*
X135936645Y-94830358D01*
X135936649Y-94830365D01*
X135977175Y-94884500D01*
X136022807Y-94945457D01*
X136022809Y-94945459D01*
X136022812Y-94945462D01*
X136137906Y-95031622D01*
X136137913Y-95031626D01*
X136272620Y-95081868D01*
X136272627Y-95081870D01*
X136279468Y-95082605D01*
X136332138Y-95088270D01*
X136332155Y-95088271D01*
X136332172Y-95088272D01*
X136630000Y-95088272D01*
X136630000Y-94600000D01*
X137130000Y-94600000D01*
X137130000Y-95088272D01*
X137427828Y-95088272D01*
X137427836Y-95088272D01*
X137427847Y-95088271D01*
X137463560Y-95084430D01*
X137487372Y-95081870D01*
X137487379Y-95081868D01*
X137622086Y-95031626D01*
X137622093Y-95031622D01*
X137737187Y-94945462D01*
X137737190Y-94945459D01*
X137823350Y-94830365D01*
X137823354Y-94830358D01*
X137873596Y-94695651D01*
X137873598Y-94695644D01*
X137877915Y-94655500D01*
X137879998Y-94636132D01*
X137880000Y-94636099D01*
X137880000Y-93263272D01*
X137400000Y-93263272D01*
X137400000Y-92763272D01*
X137880000Y-92763272D01*
X137880000Y-91418519D01*
X138719500Y-91418519D01*
X138719500Y-94608024D01*
X138731131Y-94666501D01*
X138731132Y-94666502D01*
X138731132Y-94666503D01*
X138731134Y-94666505D01*
X138775447Y-94732824D01*
X138841765Y-94777136D01*
X138841767Y-94777138D01*
X138841770Y-94777140D01*
X138892612Y-94787253D01*
X138895337Y-94787975D01*
X138900249Y-94788772D01*
X139939750Y-94788772D01*
X139943873Y-94788772D01*
X139951732Y-94786388D01*
X139971381Y-94782480D01*
X139986258Y-94779521D01*
X139992354Y-94778920D01*
X139992386Y-94778911D01*
X140003311Y-94776174D01*
X140013515Y-94766926D01*
X140064552Y-94732824D01*
X140108867Y-94666503D01*
X140108867Y-94666501D01*
X140108868Y-94666501D01*
X140111030Y-94655627D01*
X140111166Y-94655362D01*
X140111249Y-94654528D01*
X140114912Y-94636116D01*
X140120072Y-94610168D01*
X140120500Y-94608203D01*
X140120500Y-91420998D01*
X140120500Y-91418521D01*
X140120499Y-91418519D01*
X141259500Y-91418519D01*
X141259500Y-94608024D01*
X141271131Y-94666501D01*
X141271132Y-94666502D01*
X141271132Y-94666503D01*
X141271134Y-94666505D01*
X141315447Y-94732824D01*
X141381765Y-94777136D01*
X141381767Y-94777138D01*
X141381770Y-94777140D01*
X141432612Y-94787253D01*
X141435337Y-94787975D01*
X141440249Y-94788772D01*
X142479750Y-94788772D01*
X142483873Y-94788772D01*
X142491732Y-94786388D01*
X142511381Y-94782480D01*
X142526258Y-94779521D01*
X142532354Y-94778920D01*
X142532386Y-94778911D01*
X142543311Y-94776174D01*
X142553515Y-94766926D01*
X142604552Y-94732824D01*
X142648867Y-94666503D01*
X142648867Y-94666501D01*
X142648868Y-94666501D01*
X142651030Y-94655627D01*
X142651166Y-94655362D01*
X142651249Y-94654528D01*
X142654912Y-94636116D01*
X142660072Y-94610168D01*
X142660500Y-94608203D01*
X142660500Y-94040691D01*
X142949500Y-94040691D01*
X142949500Y-94159309D01*
X142980201Y-94273886D01*
X143039511Y-94376613D01*
X143123387Y-94460489D01*
X143226114Y-94519799D01*
X143340691Y-94550500D01*
X143340694Y-94550500D01*
X143459306Y-94550500D01*
X143459309Y-94550500D01*
X143573886Y-94519799D01*
X143598065Y-94505838D01*
X143630824Y-94492724D01*
X143644310Y-94489452D01*
X143714100Y-94492773D01*
X143771011Y-94533295D01*
X143772040Y-94534604D01*
X143796311Y-94587767D01*
X143797670Y-94594819D01*
X143799312Y-94606123D01*
X143799498Y-94608012D01*
X143799500Y-94608021D01*
X143799500Y-94608024D01*
X143811131Y-94666501D01*
X143811132Y-94666502D01*
X143814024Y-94671913D01*
X143817917Y-94676657D01*
X143855447Y-94732824D01*
X143921769Y-94777139D01*
X143921770Y-94777140D01*
X143980247Y-94788771D01*
X143980250Y-94788772D01*
X143980252Y-94788772D01*
X143980288Y-94788772D01*
X145019750Y-94788772D01*
X145023873Y-94788772D01*
X145031732Y-94786388D01*
X145051381Y-94782480D01*
X145066258Y-94779521D01*
X145072354Y-94778920D01*
X145072386Y-94778911D01*
X145083311Y-94776174D01*
X145093515Y-94766926D01*
X145144552Y-94732824D01*
X145188867Y-94666503D01*
X145188867Y-94666501D01*
X145188868Y-94666501D01*
X145191030Y-94655627D01*
X145191166Y-94655362D01*
X145191249Y-94654528D01*
X145194912Y-94636116D01*
X145200072Y-94610168D01*
X145200500Y-94608203D01*
X145200500Y-91418336D01*
X145200080Y-91416405D01*
X145199066Y-91411310D01*
X145199066Y-91411306D01*
X145199064Y-91411299D01*
X145194910Y-91390418D01*
X146040000Y-91390418D01*
X146040000Y-91390427D01*
X146040000Y-92763272D01*
X146350000Y-92763272D01*
X146350000Y-93263272D01*
X146040000Y-93263272D01*
X146040000Y-94636124D01*
X146046400Y-94695642D01*
X146046402Y-94695649D01*
X146066860Y-94750500D01*
X146096645Y-94830358D01*
X146096649Y-94830365D01*
X146137175Y-94884500D01*
X146182807Y-94945457D01*
X146182809Y-94945459D01*
X146182812Y-94945462D01*
X146297906Y-95031622D01*
X146297913Y-95031626D01*
X146432620Y-95081868D01*
X146432627Y-95081870D01*
X146439468Y-95082605D01*
X146492138Y-95088270D01*
X146492155Y-95088271D01*
X146492172Y-95088272D01*
X146790000Y-95088272D01*
X146790000Y-94600000D01*
X147290000Y-94600000D01*
X147290000Y-95088272D01*
X147587828Y-95088272D01*
X147587836Y-95088272D01*
X147587847Y-95088271D01*
X147623560Y-95084430D01*
X147647372Y-95081870D01*
X147647379Y-95081868D01*
X147782086Y-95031626D01*
X147782093Y-95031622D01*
X147897187Y-94945462D01*
X147897190Y-94945459D01*
X147983350Y-94830365D01*
X147983354Y-94830358D01*
X148033596Y-94695651D01*
X148033598Y-94695644D01*
X148037915Y-94655500D01*
X148039998Y-94636132D01*
X148040000Y-94636099D01*
X148040000Y-94600000D01*
X148400000Y-94600000D01*
X148400000Y-93874038D01*
X151399500Y-93874038D01*
X151399500Y-93878501D01*
X151399500Y-94125966D01*
X151420620Y-94259308D01*
X151420620Y-94259309D01*
X151438910Y-94374786D01*
X151438910Y-94374789D01*
X151498513Y-94558225D01*
X151516760Y-94614383D01*
X151558164Y-94695642D01*
X151586116Y-94750500D01*
X151626808Y-94830363D01*
X151631128Y-94838841D01*
X151631137Y-94838856D01*
X151757550Y-95012849D01*
X151779201Y-95042649D01*
X151779205Y-95042654D01*
X151779210Y-95042660D01*
X151957338Y-95220788D01*
X151957342Y-95220791D01*
X151957345Y-95220794D01*
X151957350Y-95220798D01*
X152135117Y-95349952D01*
X152161155Y-95368870D01*
X152304184Y-95441747D01*
X152304183Y-95441747D01*
X152339493Y-95459738D01*
X152382066Y-95481430D01*
X152386488Y-95483684D01*
X152390243Y-95484743D01*
X152466567Y-95509542D01*
X152625215Y-95561090D01*
X152874038Y-95600500D01*
X152874039Y-95600500D01*
X153125961Y-95600500D01*
X153125962Y-95600500D01*
X153374785Y-95561090D01*
X153614379Y-95483241D01*
X153838845Y-95368870D01*
X154042656Y-95220793D01*
X154220793Y-95042656D01*
X154368870Y-94838845D01*
X154483241Y-94614379D01*
X154561090Y-94374785D01*
X154600500Y-94125962D01*
X154600500Y-93874038D01*
X154561090Y-93625215D01*
X154561089Y-93625211D01*
X154561089Y-93625210D01*
X154485853Y-93393659D01*
X154485851Y-93393654D01*
X154483241Y-93385621D01*
X154483239Y-93385618D01*
X154483239Y-93385616D01*
X154480999Y-93381220D01*
X154480689Y-93380425D01*
X154479956Y-93379173D01*
X154460379Y-93340752D01*
X154441747Y-93304183D01*
X154441747Y-93304184D01*
X154368870Y-93161155D01*
X154331146Y-93109232D01*
X154220798Y-92957350D01*
X154220794Y-92957345D01*
X154220791Y-92957342D01*
X154220788Y-92957338D01*
X154042660Y-92779210D01*
X154042655Y-92779206D01*
X154042654Y-92779205D01*
X154042649Y-92779201D01*
X153838848Y-92631132D01*
X153838847Y-92631131D01*
X153838845Y-92631130D01*
X153768747Y-92595413D01*
X153614383Y-92516760D01*
X153469846Y-92469797D01*
X153374787Y-92438910D01*
X153180373Y-92408118D01*
X153125962Y-92399500D01*
X153125961Y-92399500D01*
X152874039Y-92399500D01*
X152874038Y-92399500D01*
X152819627Y-92408118D01*
X152625212Y-92438910D01*
X152625209Y-92438910D01*
X152395988Y-92513390D01*
X152385616Y-92516760D01*
X152231253Y-92595413D01*
X152161147Y-92631134D01*
X151957367Y-92779188D01*
X151957338Y-92779210D01*
X151779210Y-92957338D01*
X151779188Y-92957367D01*
X151631134Y-93161147D01*
X151631132Y-93161151D01*
X151516760Y-93385616D01*
X151516759Y-93385618D01*
X151516759Y-93385619D01*
X151438910Y-93625209D01*
X151438910Y-93625212D01*
X151414993Y-93776217D01*
X151414977Y-93776321D01*
X151414931Y-93776613D01*
X151399500Y-93874038D01*
X148400000Y-93874038D01*
X148400000Y-91874038D01*
X172399500Y-91874038D01*
X172399500Y-91878664D01*
X172399500Y-92125961D01*
X172417994Y-92242728D01*
X172438910Y-92374786D01*
X172438910Y-92374789D01*
X172490053Y-92532188D01*
X172516760Y-92614383D01*
X172631132Y-92838848D01*
X172779201Y-93042649D01*
X172779205Y-93042654D01*
X172779210Y-93042660D01*
X172957336Y-93220786D01*
X172957345Y-93220794D01*
X172957369Y-93220812D01*
X173005487Y-93255772D01*
X173005491Y-93255774D01*
X173161155Y-93368870D01*
X173302112Y-93440691D01*
X173379169Y-93479954D01*
X173380768Y-93480890D01*
X173384463Y-93482680D01*
X173386479Y-93483681D01*
X173390245Y-93484744D01*
X173615209Y-93557839D01*
X173625215Y-93561090D01*
X173874038Y-93600500D01*
X173874039Y-93600500D01*
X174125961Y-93600500D01*
X174125962Y-93600500D01*
X174374785Y-93561090D01*
X174614379Y-93483241D01*
X174838845Y-93368870D01*
X175042656Y-93220793D01*
X175220793Y-93042656D01*
X175368870Y-92838845D01*
X175483241Y-92614379D01*
X175561090Y-92374785D01*
X175600500Y-92125962D01*
X175600500Y-91874038D01*
X175600497Y-91874022D01*
X175573806Y-91705500D01*
X175561090Y-91625215D01*
X175561089Y-91625211D01*
X175561089Y-91625210D01*
X175485854Y-91393663D01*
X175483241Y-91385621D01*
X175483239Y-91385618D01*
X175483239Y-91385616D01*
X175480998Y-91381218D01*
X175480688Y-91380423D01*
X175479953Y-91379167D01*
X175436415Y-91293719D01*
X175411488Y-91244797D01*
X175368870Y-91161155D01*
X175310693Y-91081081D01*
X175220798Y-90957350D01*
X175220794Y-90957345D01*
X175220791Y-90957342D01*
X175220788Y-90957338D01*
X175042660Y-90779210D01*
X175042655Y-90779206D01*
X175042654Y-90779205D01*
X175042649Y-90779201D01*
X174838848Y-90631132D01*
X174838847Y-90631131D01*
X174838845Y-90631130D01*
X174768747Y-90595413D01*
X174614383Y-90516760D01*
X174516636Y-90485000D01*
X174374787Y-90438910D01*
X174208903Y-90412636D01*
X174125962Y-90399500D01*
X174125961Y-90399500D01*
X173874039Y-90399500D01*
X173874038Y-90399500D01*
X173791096Y-90412636D01*
X173625212Y-90438910D01*
X173625209Y-90438910D01*
X173402709Y-90511206D01*
X173385616Y-90516760D01*
X173238157Y-90591895D01*
X173161147Y-90631134D01*
X172957367Y-90779188D01*
X172957338Y-90779210D01*
X172779210Y-90957338D01*
X172779188Y-90957367D01*
X172631134Y-91161147D01*
X172516759Y-91385618D01*
X172438910Y-91625210D01*
X172438909Y-91625214D01*
X172426194Y-91705500D01*
X172426151Y-91705774D01*
X172399500Y-91874038D01*
X148400000Y-91874038D01*
X148400000Y-91450000D01*
X148040000Y-91450000D01*
X148040000Y-91390444D01*
X148039999Y-91390427D01*
X148039998Y-91390418D01*
X148039998Y-91390410D01*
X148033598Y-91330900D01*
X148033596Y-91330893D01*
X148011821Y-91272510D01*
X147983354Y-91196185D01*
X147983350Y-91196178D01*
X147897190Y-91081084D01*
X147897187Y-91081081D01*
X147897185Y-91081079D01*
X147839317Y-91037759D01*
X147782093Y-90994921D01*
X147782086Y-90994917D01*
X147714732Y-90969796D01*
X147647377Y-90944674D01*
X147647370Y-90944672D01*
X147587852Y-90938272D01*
X147587844Y-90938272D01*
X147290000Y-90938272D01*
X147290000Y-91450000D01*
X146790000Y-91450000D01*
X146790000Y-90938272D01*
X146492146Y-90938272D01*
X146432628Y-90944672D01*
X146432621Y-90944674D01*
X146297910Y-90994918D01*
X146297907Y-90994920D01*
X146182813Y-91081079D01*
X146182812Y-91081081D01*
X146182809Y-91081084D01*
X146125369Y-91157813D01*
X146096648Y-91196179D01*
X146096646Y-91196182D01*
X146046402Y-91330893D01*
X146046400Y-91330900D01*
X146040000Y-91390418D01*
X145194910Y-91390418D01*
X145191250Y-91372019D01*
X145190648Y-91365912D01*
X145188867Y-91360042D01*
X145188867Y-91360041D01*
X145144552Y-91293719D01*
X145108146Y-91269393D01*
X145088385Y-91256189D01*
X145083641Y-91252296D01*
X145078230Y-91249404D01*
X145078229Y-91249403D01*
X145019752Y-91237772D01*
X145019750Y-91237772D01*
X143980249Y-91237772D01*
X143980247Y-91237772D01*
X143921770Y-91249403D01*
X143921769Y-91249403D01*
X143921768Y-91249404D01*
X143921765Y-91249405D01*
X143921759Y-91249410D01*
X143855447Y-91293719D01*
X143811138Y-91360031D01*
X143811133Y-91360037D01*
X143811132Y-91360040D01*
X143811132Y-91360041D01*
X143811131Y-91360042D01*
X143799500Y-91418519D01*
X143799500Y-91418521D01*
X143799500Y-91471031D01*
X143799499Y-91471035D01*
X143799500Y-91471038D01*
X143794475Y-91505972D01*
X143790564Y-91519289D01*
X143752787Y-91578065D01*
X143689240Y-91607085D01*
X143689230Y-91607086D01*
X143689229Y-91607087D01*
X143689227Y-91607086D01*
X143680826Y-91608295D01*
X143631083Y-91605333D01*
X143609314Y-91599500D01*
X143609313Y-91599500D01*
X143609309Y-91599500D01*
X143490691Y-91599500D01*
X143399728Y-91623873D01*
X143399723Y-91623874D01*
X143376114Y-91630201D01*
X143376112Y-91630201D01*
X143376112Y-91630202D01*
X143354947Y-91642421D01*
X143354939Y-91642425D01*
X143273386Y-91689511D01*
X143273378Y-91689517D01*
X143189517Y-91773378D01*
X143189513Y-91773383D01*
X143189507Y-91773392D01*
X143131409Y-91874022D01*
X143131400Y-91874037D01*
X143130201Y-91876112D01*
X143099500Y-91990691D01*
X143099500Y-92109309D01*
X143130201Y-92223886D01*
X143189511Y-92326613D01*
X143273387Y-92410489D01*
X143376114Y-92469799D01*
X143490691Y-92500500D01*
X143490694Y-92500500D01*
X143609306Y-92500500D01*
X143609308Y-92500500D01*
X143609309Y-92500500D01*
X143626185Y-92495977D01*
X143661226Y-92491787D01*
X143675104Y-92492117D01*
X143741654Y-92513390D01*
X143786140Y-92567267D01*
X143786141Y-92567269D01*
X143789488Y-92575085D01*
X143799500Y-92623898D01*
X143799500Y-93577855D01*
X143794475Y-93612796D01*
X143790564Y-93626113D01*
X143780920Y-93641117D01*
X143775891Y-93658233D01*
X143762420Y-93669899D01*
X143752787Y-93684889D01*
X143736560Y-93692298D01*
X143723077Y-93703977D01*
X143689242Y-93713904D01*
X143689229Y-93713911D01*
X143689211Y-93713914D01*
X143687602Y-93714145D01*
X143629418Y-93708581D01*
X143624686Y-93706943D01*
X143618746Y-93704230D01*
X143618445Y-93704187D01*
X143618215Y-93703987D01*
X143603249Y-93697153D01*
X143573888Y-93680202D01*
X143573887Y-93680201D01*
X143573886Y-93680201D01*
X143459309Y-93649500D01*
X143459306Y-93649500D01*
X143340691Y-93649500D01*
X143249728Y-93673873D01*
X143249723Y-93673874D01*
X143226114Y-93680201D01*
X143226112Y-93680201D01*
X143226112Y-93680202D01*
X143204947Y-93692421D01*
X143204939Y-93692425D01*
X143123386Y-93739511D01*
X143123378Y-93739517D01*
X143039517Y-93823378D01*
X143039513Y-93823383D01*
X142980202Y-93926112D01*
X142980201Y-93926114D01*
X142949500Y-94040691D01*
X142660500Y-94040691D01*
X142660500Y-91418335D01*
X142660069Y-91416353D01*
X142648868Y-91360042D01*
X142645975Y-91354630D01*
X142642081Y-91349885D01*
X142632209Y-91335111D01*
X142604552Y-91293719D01*
X142568146Y-91269393D01*
X142548385Y-91256189D01*
X142543641Y-91252296D01*
X142538230Y-91249404D01*
X142538229Y-91249403D01*
X142479752Y-91237772D01*
X142479750Y-91237772D01*
X141440249Y-91237772D01*
X141440247Y-91237772D01*
X141381770Y-91249403D01*
X141381769Y-91249403D01*
X141381768Y-91249404D01*
X141381765Y-91249405D01*
X141381759Y-91249410D01*
X141315447Y-91293719D01*
X141271138Y-91360031D01*
X141271133Y-91360037D01*
X141271132Y-91360040D01*
X141271132Y-91360041D01*
X141271131Y-91360042D01*
X141259500Y-91418519D01*
X140120499Y-91418519D01*
X140119361Y-91412800D01*
X140119360Y-91412789D01*
X140108868Y-91360042D01*
X140105975Y-91354630D01*
X140102081Y-91349885D01*
X140092209Y-91335111D01*
X140064552Y-91293719D01*
X140028146Y-91269393D01*
X140008385Y-91256189D01*
X140003641Y-91252296D01*
X139998230Y-91249404D01*
X139998229Y-91249403D01*
X139939752Y-91237772D01*
X139939750Y-91237772D01*
X138900249Y-91237772D01*
X138900247Y-91237772D01*
X138841770Y-91249403D01*
X138841769Y-91249403D01*
X138841768Y-91249404D01*
X138836355Y-91252296D01*
X138831614Y-91256188D01*
X138775447Y-91293718D01*
X138775446Y-91293719D01*
X138748272Y-91334386D01*
X138748270Y-91334391D01*
X138731132Y-91360041D01*
X138731131Y-91360042D01*
X138719500Y-91418519D01*
X137880000Y-91418519D01*
X137880000Y-91390444D01*
X137879999Y-91390427D01*
X137879998Y-91390418D01*
X137879998Y-91390410D01*
X137873598Y-91330900D01*
X137873596Y-91330893D01*
X137851821Y-91272510D01*
X137823354Y-91196185D01*
X137823350Y-91196178D01*
X137737190Y-91081084D01*
X137737187Y-91081081D01*
X137737185Y-91081079D01*
X137679317Y-91037759D01*
X137622093Y-90994921D01*
X137622088Y-90994918D01*
X137622089Y-90994918D01*
X137487377Y-90944674D01*
X137487370Y-90944672D01*
X137427852Y-90938272D01*
X137427844Y-90938272D01*
X137130000Y-90938272D01*
X137130000Y-91450000D01*
X136630000Y-91450000D01*
X136630000Y-90938272D01*
X136332146Y-90938272D01*
X136272628Y-90944672D01*
X136272621Y-90944674D01*
X136137910Y-90994918D01*
X136137907Y-90994920D01*
X136022813Y-91081079D01*
X136022812Y-91081081D01*
X136022809Y-91081084D01*
X135965369Y-91157813D01*
X135936648Y-91196179D01*
X135936646Y-91196182D01*
X135886402Y-91330893D01*
X135886400Y-91330900D01*
X135880000Y-91390418D01*
X135880000Y-91390427D01*
X135880000Y-91450000D01*
X135340000Y-91450000D01*
X135340000Y-91390444D01*
X135339999Y-91390427D01*
X135339998Y-91390418D01*
X135339998Y-91390410D01*
X135333598Y-91330900D01*
X135333596Y-91330893D01*
X135311821Y-91272510D01*
X135283354Y-91196185D01*
X135283350Y-91196178D01*
X135197190Y-91081084D01*
X135197187Y-91081081D01*
X135197185Y-91081079D01*
X135139317Y-91037759D01*
X135082093Y-90994921D01*
X135082088Y-90994918D01*
X135082089Y-90994918D01*
X134947377Y-90944674D01*
X134947370Y-90944672D01*
X134887852Y-90938272D01*
X134887844Y-90938272D01*
X134590000Y-90938272D01*
X134590000Y-91450000D01*
X134090000Y-91450000D01*
X134090000Y-90938272D01*
X133792146Y-90938272D01*
X133732628Y-90944672D01*
X133732621Y-90944674D01*
X133597910Y-90994918D01*
X133597907Y-90994920D01*
X133482813Y-91081079D01*
X133482812Y-91081081D01*
X133482809Y-91081084D01*
X133425369Y-91157813D01*
X133396648Y-91196179D01*
X133396646Y-91196182D01*
X133346402Y-91330893D01*
X133346400Y-91330900D01*
X133340000Y-91390418D01*
X133340000Y-91390427D01*
X133340000Y-91450000D01*
X132800000Y-91450000D01*
X132800000Y-91390444D01*
X132799999Y-91390427D01*
X132799998Y-91390418D01*
X132799998Y-91390410D01*
X132793598Y-91330900D01*
X132793596Y-91330893D01*
X132771821Y-91272510D01*
X132743354Y-91196185D01*
X132743350Y-91196178D01*
X132657190Y-91081084D01*
X132657187Y-91081081D01*
X132657185Y-91081079D01*
X132599317Y-91037759D01*
X132542093Y-90994921D01*
X132542088Y-90994918D01*
X132542089Y-90994918D01*
X132407377Y-90944674D01*
X132407370Y-90944672D01*
X132347852Y-90938272D01*
X132347844Y-90938272D01*
X132050000Y-90938272D01*
X132050000Y-91450000D01*
X131550000Y-91450000D01*
X131550000Y-90938272D01*
X131252146Y-90938272D01*
X131192628Y-90944672D01*
X131192621Y-90944674D01*
X131057910Y-90994918D01*
X131057907Y-90994920D01*
X130942813Y-91081079D01*
X130942812Y-91081081D01*
X130942809Y-91081084D01*
X130885369Y-91157813D01*
X130856648Y-91196179D01*
X130856646Y-91196182D01*
X130806402Y-91330893D01*
X130806400Y-91330900D01*
X130800000Y-91390418D01*
X130800000Y-91390427D01*
X130800000Y-91450000D01*
X130260000Y-91450000D01*
X130260000Y-91390444D01*
X130259999Y-91390427D01*
X130259998Y-91390418D01*
X130259998Y-91390410D01*
X130253598Y-91330900D01*
X130253596Y-91330893D01*
X130231821Y-91272510D01*
X130203354Y-91196185D01*
X130203350Y-91196178D01*
X130117190Y-91081084D01*
X130117187Y-91081081D01*
X130117185Y-91081079D01*
X130059317Y-91037759D01*
X130002093Y-90994921D01*
X130002088Y-90994918D01*
X130002089Y-90994918D01*
X129867377Y-90944674D01*
X129867370Y-90944672D01*
X129807852Y-90938272D01*
X129807844Y-90938272D01*
X129510000Y-90938272D01*
X129510000Y-91450000D01*
X129010000Y-91450000D01*
X129010000Y-90938272D01*
X128712146Y-90938272D01*
X128652628Y-90944672D01*
X128652621Y-90944674D01*
X128517910Y-90994918D01*
X128517907Y-90994920D01*
X128402813Y-91081079D01*
X128402812Y-91081081D01*
X128402809Y-91081084D01*
X128345369Y-91157813D01*
X128316648Y-91196179D01*
X128316646Y-91196182D01*
X128266402Y-91330893D01*
X128266400Y-91330900D01*
X128260000Y-91390418D01*
X127543350Y-91390418D01*
X127542016Y-91387915D01*
X127496261Y-91335111D01*
X127496255Y-91335104D01*
X127478673Y-91317160D01*
X127478672Y-91317159D01*
X127478670Y-91317157D01*
X127478668Y-91317156D01*
X127478666Y-91317154D01*
X127398856Y-91272511D01*
X127398851Y-91272509D01*
X127331813Y-91252824D01*
X127275988Y-91244797D01*
X127269451Y-91243678D01*
X127239755Y-91237772D01*
X127239752Y-91237772D01*
X127239748Y-91237772D01*
X126200252Y-91237772D01*
X126200247Y-91237772D01*
X126178397Y-91242118D01*
X126154208Y-91244500D01*
X124745791Y-91244500D01*
X124721602Y-91242118D01*
X124699752Y-91237772D01*
X124699751Y-91237772D01*
X123660248Y-91237772D01*
X123660247Y-91237772D01*
X123638397Y-91242118D01*
X123614208Y-91244500D01*
X122205791Y-91244500D01*
X122181602Y-91242118D01*
X122159752Y-91237772D01*
X122159751Y-91237772D01*
X121120248Y-91237772D01*
X121120247Y-91237772D01*
X121098397Y-91242118D01*
X121074208Y-91244500D01*
X119665791Y-91244500D01*
X119641602Y-91242118D01*
X119619752Y-91237772D01*
X119619751Y-91237772D01*
X118580249Y-91237772D01*
X118580247Y-91237772D01*
X118521770Y-91249403D01*
X118521769Y-91249403D01*
X118521768Y-91249404D01*
X118521767Y-91249404D01*
X118521762Y-91249408D01*
X118455447Y-91293719D01*
X118411134Y-91360037D01*
X118411132Y-91360040D01*
X118411131Y-91360042D01*
X118408749Y-91372019D01*
X118407705Y-91377265D01*
X118406066Y-91381825D01*
X118405387Y-91386889D01*
X118401700Y-91399894D01*
X118372553Y-91454105D01*
X118353988Y-91521463D01*
X118346630Y-91579491D01*
X117560000Y-91579491D01*
X117560000Y-91390444D01*
X117559999Y-91390427D01*
X117559998Y-91390418D01*
X117559998Y-91390410D01*
X117553598Y-91330900D01*
X117553596Y-91330893D01*
X117531821Y-91272510D01*
X117503354Y-91196185D01*
X117503350Y-91196178D01*
X117417190Y-91081084D01*
X117417187Y-91081081D01*
X117417185Y-91081079D01*
X117359317Y-91037759D01*
X117302093Y-90994921D01*
X117302088Y-90994918D01*
X117302089Y-90994918D01*
X117167377Y-90944674D01*
X117167370Y-90944672D01*
X117107852Y-90938272D01*
X117107844Y-90938272D01*
X116810000Y-90938272D01*
X116810000Y-91300000D01*
X116310000Y-91300000D01*
X116310000Y-90938272D01*
X116012146Y-90938272D01*
X115952628Y-90944672D01*
X115952621Y-90944674D01*
X115817910Y-90994918D01*
X115817907Y-90994920D01*
X115702813Y-91081079D01*
X115702812Y-91081081D01*
X115702809Y-91081084D01*
X115645369Y-91157813D01*
X115616648Y-91196179D01*
X115616646Y-91196182D01*
X115577924Y-91300000D01*
X115250000Y-91300000D01*
X114668749Y-91300000D01*
X114664552Y-91293719D01*
X114628146Y-91269393D01*
X114608385Y-91256189D01*
X114603641Y-91252296D01*
X114598230Y-91249404D01*
X114598229Y-91249403D01*
X114539752Y-91237772D01*
X114539750Y-91237772D01*
X113500248Y-91237772D01*
X113500247Y-91237772D01*
X113478397Y-91242118D01*
X113454208Y-91244500D01*
X112045791Y-91244500D01*
X112021602Y-91242118D01*
X111999752Y-91237772D01*
X111999751Y-91237772D01*
X110960249Y-91237772D01*
X110960247Y-91237772D01*
X110901770Y-91249403D01*
X110901769Y-91249403D01*
X110901768Y-91249404D01*
X110896355Y-91252296D01*
X110891614Y-91256188D01*
X110835447Y-91293718D01*
X110835446Y-91293719D01*
X110808272Y-91334386D01*
X110808270Y-91334391D01*
X110791132Y-91360041D01*
X110791131Y-91360042D01*
X110779500Y-91418519D01*
X109940000Y-91418519D01*
X109940000Y-91390444D01*
X109939999Y-91390427D01*
X109939998Y-91390418D01*
X109939998Y-91390410D01*
X109933598Y-91330900D01*
X109933596Y-91330893D01*
X109911821Y-91272510D01*
X109883354Y-91196185D01*
X109883350Y-91196178D01*
X109797190Y-91081084D01*
X109797187Y-91081081D01*
X109797185Y-91081079D01*
X109739317Y-91037759D01*
X109682093Y-90994921D01*
X109682088Y-90994918D01*
X109682089Y-90994918D01*
X109547377Y-90944674D01*
X109547370Y-90944672D01*
X109487852Y-90938272D01*
X109487844Y-90938272D01*
X109190000Y-90938272D01*
X109190000Y-91450000D01*
X108690000Y-91450000D01*
X108690000Y-90938272D01*
X108392146Y-90938272D01*
X108332628Y-90944672D01*
X108332621Y-90944674D01*
X108197910Y-90994918D01*
X108197907Y-90994920D01*
X108082813Y-91081079D01*
X108082812Y-91081081D01*
X108082809Y-91081084D01*
X108025369Y-91157813D01*
X107996648Y-91196179D01*
X107996646Y-91196182D01*
X107946402Y-91330893D01*
X107946400Y-91330900D01*
X107940000Y-91390418D01*
X78600500Y-91390418D01*
X78600500Y-90641829D01*
X78605523Y-90606893D01*
X78608734Y-90595960D01*
X78609927Y-90591894D01*
X78647672Y-90533144D01*
X78647700Y-90533119D01*
X78647699Y-90533119D01*
X78649041Y-90531956D01*
X78703920Y-90504477D01*
X78711479Y-90502833D01*
X78737832Y-90500000D01*
X80000000Y-90500000D01*
X80000000Y-89142329D01*
X80005023Y-89107393D01*
X80009427Y-89092395D01*
X80047172Y-89033644D01*
X80047200Y-89033619D01*
X80047199Y-89033619D01*
X80048541Y-89032456D01*
X80103420Y-89004977D01*
X80110979Y-89003333D01*
X80137332Y-89000500D01*
X175858170Y-89000500D01*
X175893106Y-89005523D01*
G37*
%TD.AperFunction*%
%TD*%
%TA.AperFunction,Conductor*%
%TO.N,GND*%
G36*
X110293039Y-91469685D02*
G01*
X110338794Y-91522489D01*
X110350000Y-91574000D01*
X110350000Y-94476000D01*
X110330315Y-94543039D01*
X110277511Y-94588794D01*
X110226000Y-94600000D01*
X108424000Y-94600000D01*
X108356961Y-94580315D01*
X108311206Y-94527511D01*
X108300000Y-94476000D01*
X108300000Y-91574000D01*
X108319685Y-91506961D01*
X108372489Y-91461206D01*
X108424000Y-91450000D01*
X110226000Y-91450000D01*
X110293039Y-91469685D01*
G37*
%TD.AperFunction*%
%TD*%
%TA.AperFunction,Conductor*%
%TO.N,GND*%
G36*
X148400000Y-94600000D02*
G01*
X146350000Y-94600000D01*
X146350000Y-91450000D01*
X148400000Y-91450000D01*
X148400000Y-94600000D01*
G37*
%TD.AperFunction*%
%TD*%
%TA.AperFunction,Conductor*%
%TO.N,+5V*%
G36*
X114443039Y-91469685D02*
G01*
X114488794Y-91522489D01*
X114500000Y-91574000D01*
X114500000Y-94476000D01*
X114480315Y-94543039D01*
X114427511Y-94588794D01*
X114376000Y-94600000D01*
X111124000Y-94600000D01*
X111056961Y-94580315D01*
X111011206Y-94527511D01*
X111000000Y-94476000D01*
X111000000Y-91574000D01*
X111019685Y-91506961D01*
X111072489Y-91461206D01*
X111124000Y-91450000D01*
X114376000Y-91450000D01*
X114443039Y-91469685D01*
G37*
%TD.AperFunction*%
%TD*%
%TA.AperFunction,Conductor*%
%TO.N,VIN_CHAINBUS*%
G36*
X127340955Y-91469685D02*
G01*
X127386710Y-91522489D01*
X127397899Y-91576066D01*
X127352032Y-94328066D01*
X127331233Y-94394769D01*
X127277674Y-94439637D01*
X127228049Y-94450000D01*
X118721951Y-94450000D01*
X118654912Y-94430315D01*
X118609157Y-94377511D01*
X118597968Y-94328066D01*
X118552101Y-91576066D01*
X118570666Y-91508708D01*
X118622700Y-91462080D01*
X118676084Y-91450000D01*
X127273916Y-91450000D01*
X127340955Y-91469685D01*
G37*
%TD.AperFunction*%
%TD*%
M02*
