%TF.GenerationSoftware,KiCad,Pcbnew,10.0.1*%
%TF.CreationDate,2026-06-23T18:22:49+02:00*%
%TF.ProjectId,MMS3_hat_templates,4d4d5333-5f68-4617-945f-74656d706c61,R0*%
%TF.SameCoordinates,Original*%
%TF.FileFunction,Legend,Bot*%
%TF.FilePolarity,Positive*%
%FSLAX46Y46*%
G04 Gerber Fmt 4.6, Leading zero omitted, Abs format (unit mm)*
G04 Created by KiCad (PCBNEW 10.0.1) date 2026-06-23 18:22:49*
%MOMM*%
%LPD*%
G01*
G04 APERTURE LIST*
%ADD10C,0.100000*%
%ADD11C,0.200000*%
%ADD12C,0.150000*%
%ADD13C,0.220000*%
%ADD14C,0.300000*%
%ADD15C,0.400000*%
%ADD16C,0.120000*%
%ADD17C,0.000000*%
%ADD18C,3.100000*%
%ADD19C,1.296000*%
%ADD20C,2.700000*%
%ADD21R,1.700000X1.700000*%
%ADD22C,1.700000*%
%ADD23R,1.000000X3.150000*%
G04 APERTURE END LIST*
D10*
X87300000Y-107700000D02*
X105975267Y-107700000D01*
X121300000Y-106700000D02*
G75*
G02*
X111300000Y-106700000I-5000000J0D01*
G01*
X111300000Y-106700000D02*
G75*
G02*
X121300000Y-106700000I5000000J0D01*
G01*
X122100000Y-104500000D02*
X137700000Y-104500000D01*
X137700000Y-111500000D01*
X122100000Y-111500000D01*
X122100000Y-104500000D01*
X122150000Y-102050000D02*
X123250000Y-102050000D01*
X122150000Y-103500000D02*
X123250000Y-103500000D01*
X122150000Y-104000000D02*
X122150000Y-101400000D01*
X123297214Y-102800000D02*
G75*
G02*
X122402786Y-102800000I-447214J0D01*
G01*
X122402786Y-102800000D02*
G75*
G02*
X123297214Y-102800000I447214J0D01*
G01*
X123250000Y-102050000D02*
X123550000Y-102350000D01*
X123250000Y-103500000D02*
X123550000Y-103200000D01*
X123550000Y-102400000D02*
X123550000Y-104000000D01*
X123550000Y-104000000D02*
X122150000Y-104000000D01*
X123550000Y-104000000D02*
X153600000Y-104000000D01*
X123950000Y-101400000D02*
X122150000Y-101400000D01*
X123950000Y-101400000D02*
X123950000Y-102400000D01*
X123950000Y-102400000D02*
X123550000Y-102400000D01*
X129950000Y-92375000D02*
X129950000Y-91925000D01*
X138100000Y-104500000D02*
X153600000Y-111500000D01*
X138100000Y-104500000D02*
X153600000Y-104500000D01*
X153600000Y-111500000D01*
X138100000Y-111500000D01*
X138100000Y-104500000D01*
X139150000Y-92375000D02*
X139150000Y-91925000D01*
X139850000Y-92375000D02*
X139850000Y-91925000D01*
X149050000Y-92375000D02*
X149050000Y-91925000D01*
X151800000Y-101400000D02*
X123950000Y-101400000D01*
X151800000Y-101400000D02*
X151800000Y-102400000D01*
X151800000Y-101400000D02*
X153600000Y-101400000D01*
X151800000Y-102400000D02*
X152200000Y-102400000D01*
X152200000Y-102400000D02*
X152200000Y-104000000D01*
X152500000Y-102050000D02*
X152200000Y-102350000D01*
X153347214Y-102800000D02*
G75*
G02*
X152452786Y-102800000I-447214J0D01*
G01*
X152452786Y-102800000D02*
G75*
G02*
X153347214Y-102800000I447214J0D01*
G01*
X153600000Y-102050000D02*
X152500000Y-102050000D01*
X153600000Y-104000000D02*
X153600000Y-101400000D01*
X162900157Y-98488709D02*
X167000157Y-98488709D01*
D11*
X162993724Y-97805113D02*
X163006276Y-94594887D01*
X163900319Y-94243219D02*
G75*
G02*
X165004043Y-94210110I578381J-867481D01*
G01*
X163910841Y-94243032D02*
G75*
G02*
X163007659Y-94598655I-880041J910332D01*
G01*
X163930242Y-97452851D02*
G75*
G02*
X165033945Y-97419778I578358J-868049D01*
G01*
X163941803Y-97453739D02*
G75*
G02*
X162995108Y-97808255I-881003J911339D01*
G01*
X165018800Y-97419001D02*
X165035690Y-94230974D01*
X165018800Y-97419001D02*
G75*
G02*
X166122532Y-97452043I525400J-900599D01*
G01*
X165035690Y-94230974D02*
G75*
G02*
X166112016Y-94257439I516710J-885726D01*
G01*
X167000000Y-97800000D02*
G75*
G02*
X166117333Y-97446361I-8000J1258400D01*
G01*
X167000000Y-97800000D02*
X167010626Y-94616537D01*
D10*
X167000157Y-98488709D02*
X166550157Y-98938709D01*
D11*
X167010626Y-94616537D02*
G75*
G02*
X166112014Y-94257450I-10426J1277837D01*
G01*
D10*
X137077068Y-105107507D02*
X136734211Y-105107507D01*
X136905639Y-105707507D02*
X136905639Y-105107507D01*
X136534210Y-105707507D02*
X136534210Y-105107507D01*
X136277068Y-105707507D02*
X136277068Y-105393221D01*
X136277068Y-105393221D02*
X136305639Y-105336078D01*
X136305639Y-105336078D02*
X136362782Y-105307507D01*
X136362782Y-105307507D02*
X136448496Y-105307507D01*
X136448496Y-105307507D02*
X136505639Y-105336078D01*
X136505639Y-105336078D02*
X136534210Y-105364650D01*
X135991353Y-105707507D02*
X135991353Y-105307507D01*
X135991353Y-105107507D02*
X136019925Y-105136078D01*
X136019925Y-105136078D02*
X135991353Y-105164650D01*
X135991353Y-105164650D02*
X135962782Y-105136078D01*
X135962782Y-105136078D02*
X135991353Y-105107507D01*
X135991353Y-105107507D02*
X135991353Y-105164650D01*
X135734211Y-105678936D02*
X135677068Y-105707507D01*
X135677068Y-105707507D02*
X135562782Y-105707507D01*
X135562782Y-105707507D02*
X135505639Y-105678936D01*
X135505639Y-105678936D02*
X135477068Y-105621793D01*
X135477068Y-105621793D02*
X135477068Y-105593221D01*
X135477068Y-105593221D02*
X135505639Y-105536078D01*
X135505639Y-105536078D02*
X135562782Y-105507507D01*
X135562782Y-105507507D02*
X135648497Y-105507507D01*
X135648497Y-105507507D02*
X135705639Y-105478936D01*
X135705639Y-105478936D02*
X135734211Y-105421793D01*
X135734211Y-105421793D02*
X135734211Y-105393221D01*
X135734211Y-105393221D02*
X135705639Y-105336078D01*
X135705639Y-105336078D02*
X135648497Y-105307507D01*
X135648497Y-105307507D02*
X135562782Y-105307507D01*
X135562782Y-105307507D02*
X135505639Y-105336078D01*
X134762782Y-105707507D02*
X134762782Y-105307507D01*
X134762782Y-105107507D02*
X134791354Y-105136078D01*
X134791354Y-105136078D02*
X134762782Y-105164650D01*
X134762782Y-105164650D02*
X134734211Y-105136078D01*
X134734211Y-105136078D02*
X134762782Y-105107507D01*
X134762782Y-105107507D02*
X134762782Y-105164650D01*
X134505640Y-105678936D02*
X134448497Y-105707507D01*
X134448497Y-105707507D02*
X134334211Y-105707507D01*
X134334211Y-105707507D02*
X134277068Y-105678936D01*
X134277068Y-105678936D02*
X134248497Y-105621793D01*
X134248497Y-105621793D02*
X134248497Y-105593221D01*
X134248497Y-105593221D02*
X134277068Y-105536078D01*
X134277068Y-105536078D02*
X134334211Y-105507507D01*
X134334211Y-105507507D02*
X134419926Y-105507507D01*
X134419926Y-105507507D02*
X134477068Y-105478936D01*
X134477068Y-105478936D02*
X134505640Y-105421793D01*
X134505640Y-105421793D02*
X134505640Y-105393221D01*
X134505640Y-105393221D02*
X134477068Y-105336078D01*
X134477068Y-105336078D02*
X134419926Y-105307507D01*
X134419926Y-105307507D02*
X134334211Y-105307507D01*
X134334211Y-105307507D02*
X134277068Y-105336078D01*
X133534211Y-105307507D02*
X133534211Y-105907507D01*
X133534211Y-105336078D02*
X133477069Y-105307507D01*
X133477069Y-105307507D02*
X133362783Y-105307507D01*
X133362783Y-105307507D02*
X133305640Y-105336078D01*
X133305640Y-105336078D02*
X133277069Y-105364650D01*
X133277069Y-105364650D02*
X133248497Y-105421793D01*
X133248497Y-105421793D02*
X133248497Y-105593221D01*
X133248497Y-105593221D02*
X133277069Y-105650364D01*
X133277069Y-105650364D02*
X133305640Y-105678936D01*
X133305640Y-105678936D02*
X133362783Y-105707507D01*
X133362783Y-105707507D02*
X133477069Y-105707507D01*
X133477069Y-105707507D02*
X133534211Y-105678936D01*
X132991354Y-105707507D02*
X132991354Y-105307507D01*
X132991354Y-105421793D02*
X132962783Y-105364650D01*
X132962783Y-105364650D02*
X132934212Y-105336078D01*
X132934212Y-105336078D02*
X132877069Y-105307507D01*
X132877069Y-105307507D02*
X132819926Y-105307507D01*
X132534211Y-105707507D02*
X132591354Y-105678936D01*
X132591354Y-105678936D02*
X132619925Y-105650364D01*
X132619925Y-105650364D02*
X132648497Y-105593221D01*
X132648497Y-105593221D02*
X132648497Y-105421793D01*
X132648497Y-105421793D02*
X132619925Y-105364650D01*
X132619925Y-105364650D02*
X132591354Y-105336078D01*
X132591354Y-105336078D02*
X132534211Y-105307507D01*
X132534211Y-105307507D02*
X132448497Y-105307507D01*
X132448497Y-105307507D02*
X132391354Y-105336078D01*
X132391354Y-105336078D02*
X132362783Y-105364650D01*
X132362783Y-105364650D02*
X132334211Y-105421793D01*
X132334211Y-105421793D02*
X132334211Y-105593221D01*
X132334211Y-105593221D02*
X132362783Y-105650364D01*
X132362783Y-105650364D02*
X132391354Y-105678936D01*
X132391354Y-105678936D02*
X132448497Y-105707507D01*
X132448497Y-105707507D02*
X132534211Y-105707507D01*
X132162783Y-105307507D02*
X131934211Y-105307507D01*
X132077068Y-105107507D02*
X132077068Y-105621793D01*
X132077068Y-105621793D02*
X132048497Y-105678936D01*
X132048497Y-105678936D02*
X131991354Y-105707507D01*
X131991354Y-105707507D02*
X131934211Y-105707507D01*
X131648497Y-105707507D02*
X131705640Y-105678936D01*
X131705640Y-105678936D02*
X131734211Y-105650364D01*
X131734211Y-105650364D02*
X131762783Y-105593221D01*
X131762783Y-105593221D02*
X131762783Y-105421793D01*
X131762783Y-105421793D02*
X131734211Y-105364650D01*
X131734211Y-105364650D02*
X131705640Y-105336078D01*
X131705640Y-105336078D02*
X131648497Y-105307507D01*
X131648497Y-105307507D02*
X131562783Y-105307507D01*
X131562783Y-105307507D02*
X131505640Y-105336078D01*
X131505640Y-105336078D02*
X131477069Y-105364650D01*
X131477069Y-105364650D02*
X131448497Y-105421793D01*
X131448497Y-105421793D02*
X131448497Y-105593221D01*
X131448497Y-105593221D02*
X131477069Y-105650364D01*
X131477069Y-105650364D02*
X131505640Y-105678936D01*
X131505640Y-105678936D02*
X131562783Y-105707507D01*
X131562783Y-105707507D02*
X131648497Y-105707507D01*
X131277069Y-105307507D02*
X131048497Y-105307507D01*
X131191354Y-105107507D02*
X131191354Y-105621793D01*
X131191354Y-105621793D02*
X131162783Y-105678936D01*
X131162783Y-105678936D02*
X131105640Y-105707507D01*
X131105640Y-105707507D02*
X131048497Y-105707507D01*
X130905640Y-105307507D02*
X130762783Y-105707507D01*
X130619926Y-105307507D02*
X130762783Y-105707507D01*
X130762783Y-105707507D02*
X130819926Y-105850364D01*
X130819926Y-105850364D02*
X130848497Y-105878936D01*
X130848497Y-105878936D02*
X130905640Y-105907507D01*
X130391354Y-105307507D02*
X130391354Y-105907507D01*
X130391354Y-105336078D02*
X130334212Y-105307507D01*
X130334212Y-105307507D02*
X130219926Y-105307507D01*
X130219926Y-105307507D02*
X130162783Y-105336078D01*
X130162783Y-105336078D02*
X130134212Y-105364650D01*
X130134212Y-105364650D02*
X130105640Y-105421793D01*
X130105640Y-105421793D02*
X130105640Y-105593221D01*
X130105640Y-105593221D02*
X130134212Y-105650364D01*
X130134212Y-105650364D02*
X130162783Y-105678936D01*
X130162783Y-105678936D02*
X130219926Y-105707507D01*
X130219926Y-105707507D02*
X130334212Y-105707507D01*
X130334212Y-105707507D02*
X130391354Y-105678936D01*
X129619926Y-105678936D02*
X129677069Y-105707507D01*
X129677069Y-105707507D02*
X129791355Y-105707507D01*
X129791355Y-105707507D02*
X129848497Y-105678936D01*
X129848497Y-105678936D02*
X129877069Y-105621793D01*
X129877069Y-105621793D02*
X129877069Y-105393221D01*
X129877069Y-105393221D02*
X129848497Y-105336078D01*
X129848497Y-105336078D02*
X129791355Y-105307507D01*
X129791355Y-105307507D02*
X129677069Y-105307507D01*
X129677069Y-105307507D02*
X129619926Y-105336078D01*
X129619926Y-105336078D02*
X129591355Y-105393221D01*
X129591355Y-105393221D02*
X129591355Y-105450364D01*
X129591355Y-105450364D02*
X129877069Y-105507507D01*
X128619926Y-105707507D02*
X128619926Y-105107507D01*
X128619926Y-105678936D02*
X128677068Y-105707507D01*
X128677068Y-105707507D02*
X128791354Y-105707507D01*
X128791354Y-105707507D02*
X128848497Y-105678936D01*
X128848497Y-105678936D02*
X128877068Y-105650364D01*
X128877068Y-105650364D02*
X128905640Y-105593221D01*
X128905640Y-105593221D02*
X128905640Y-105421793D01*
X128905640Y-105421793D02*
X128877068Y-105364650D01*
X128877068Y-105364650D02*
X128848497Y-105336078D01*
X128848497Y-105336078D02*
X128791354Y-105307507D01*
X128791354Y-105307507D02*
X128677068Y-105307507D01*
X128677068Y-105307507D02*
X128619926Y-105336078D01*
X128105640Y-105678936D02*
X128162783Y-105707507D01*
X128162783Y-105707507D02*
X128277069Y-105707507D01*
X128277069Y-105707507D02*
X128334211Y-105678936D01*
X128334211Y-105678936D02*
X128362783Y-105621793D01*
X128362783Y-105621793D02*
X128362783Y-105393221D01*
X128362783Y-105393221D02*
X128334211Y-105336078D01*
X128334211Y-105336078D02*
X128277069Y-105307507D01*
X128277069Y-105307507D02*
X128162783Y-105307507D01*
X128162783Y-105307507D02*
X128105640Y-105336078D01*
X128105640Y-105336078D02*
X128077069Y-105393221D01*
X128077069Y-105393221D02*
X128077069Y-105450364D01*
X128077069Y-105450364D02*
X128362783Y-105507507D01*
X127877068Y-105307507D02*
X127734211Y-105707507D01*
X127734211Y-105707507D02*
X127591354Y-105307507D01*
X127362782Y-105707507D02*
X127362782Y-105307507D01*
X127362782Y-105107507D02*
X127391354Y-105136078D01*
X127391354Y-105136078D02*
X127362782Y-105164650D01*
X127362782Y-105164650D02*
X127334211Y-105136078D01*
X127334211Y-105136078D02*
X127362782Y-105107507D01*
X127362782Y-105107507D02*
X127362782Y-105164650D01*
X126819926Y-105678936D02*
X126877068Y-105707507D01*
X126877068Y-105707507D02*
X126991354Y-105707507D01*
X126991354Y-105707507D02*
X127048497Y-105678936D01*
X127048497Y-105678936D02*
X127077068Y-105650364D01*
X127077068Y-105650364D02*
X127105640Y-105593221D01*
X127105640Y-105593221D02*
X127105640Y-105421793D01*
X127105640Y-105421793D02*
X127077068Y-105364650D01*
X127077068Y-105364650D02*
X127048497Y-105336078D01*
X127048497Y-105336078D02*
X126991354Y-105307507D01*
X126991354Y-105307507D02*
X126877068Y-105307507D01*
X126877068Y-105307507D02*
X126819926Y-105336078D01*
X126334211Y-105678936D02*
X126391354Y-105707507D01*
X126391354Y-105707507D02*
X126505640Y-105707507D01*
X126505640Y-105707507D02*
X126562782Y-105678936D01*
X126562782Y-105678936D02*
X126591354Y-105621793D01*
X126591354Y-105621793D02*
X126591354Y-105393221D01*
X126591354Y-105393221D02*
X126562782Y-105336078D01*
X126562782Y-105336078D02*
X126505640Y-105307507D01*
X126505640Y-105307507D02*
X126391354Y-105307507D01*
X126391354Y-105307507D02*
X126334211Y-105336078D01*
X126334211Y-105336078D02*
X126305640Y-105393221D01*
X126305640Y-105393221D02*
X126305640Y-105450364D01*
X126305640Y-105450364D02*
X126591354Y-105507507D01*
X136991353Y-106673473D02*
X136991353Y-106073473D01*
X136791354Y-106273473D02*
X136562782Y-106273473D01*
X136705639Y-106073473D02*
X136705639Y-106587759D01*
X136705639Y-106587759D02*
X136677068Y-106644902D01*
X136677068Y-106644902D02*
X136619925Y-106673473D01*
X136619925Y-106673473D02*
X136562782Y-106673473D01*
X135905639Y-106673473D02*
X135905639Y-106273473D01*
X135905639Y-106073473D02*
X135934211Y-106102044D01*
X135934211Y-106102044D02*
X135905639Y-106130616D01*
X135905639Y-106130616D02*
X135877068Y-106102044D01*
X135877068Y-106102044D02*
X135905639Y-106073473D01*
X135905639Y-106073473D02*
X135905639Y-106130616D01*
X135648497Y-106644902D02*
X135591354Y-106673473D01*
X135591354Y-106673473D02*
X135477068Y-106673473D01*
X135477068Y-106673473D02*
X135419925Y-106644902D01*
X135419925Y-106644902D02*
X135391354Y-106587759D01*
X135391354Y-106587759D02*
X135391354Y-106559187D01*
X135391354Y-106559187D02*
X135419925Y-106502044D01*
X135419925Y-106502044D02*
X135477068Y-106473473D01*
X135477068Y-106473473D02*
X135562783Y-106473473D01*
X135562783Y-106473473D02*
X135619925Y-106444902D01*
X135619925Y-106444902D02*
X135648497Y-106387759D01*
X135648497Y-106387759D02*
X135648497Y-106359187D01*
X135648497Y-106359187D02*
X135619925Y-106302044D01*
X135619925Y-106302044D02*
X135562783Y-106273473D01*
X135562783Y-106273473D02*
X135477068Y-106273473D01*
X135477068Y-106273473D02*
X135419925Y-106302044D01*
X134677068Y-106273473D02*
X134677068Y-106673473D01*
X134677068Y-106330616D02*
X134648497Y-106302044D01*
X134648497Y-106302044D02*
X134591354Y-106273473D01*
X134591354Y-106273473D02*
X134505640Y-106273473D01*
X134505640Y-106273473D02*
X134448497Y-106302044D01*
X134448497Y-106302044D02*
X134419926Y-106359187D01*
X134419926Y-106359187D02*
X134419926Y-106673473D01*
X134048497Y-106673473D02*
X134105640Y-106644902D01*
X134105640Y-106644902D02*
X134134211Y-106616330D01*
X134134211Y-106616330D02*
X134162783Y-106559187D01*
X134162783Y-106559187D02*
X134162783Y-106387759D01*
X134162783Y-106387759D02*
X134134211Y-106330616D01*
X134134211Y-106330616D02*
X134105640Y-106302044D01*
X134105640Y-106302044D02*
X134048497Y-106273473D01*
X134048497Y-106273473D02*
X133962783Y-106273473D01*
X133962783Y-106273473D02*
X133905640Y-106302044D01*
X133905640Y-106302044D02*
X133877069Y-106330616D01*
X133877069Y-106330616D02*
X133848497Y-106387759D01*
X133848497Y-106387759D02*
X133848497Y-106559187D01*
X133848497Y-106559187D02*
X133877069Y-106616330D01*
X133877069Y-106616330D02*
X133905640Y-106644902D01*
X133905640Y-106644902D02*
X133962783Y-106673473D01*
X133962783Y-106673473D02*
X134048497Y-106673473D01*
X133677069Y-106273473D02*
X133448497Y-106273473D01*
X133591354Y-106073473D02*
X133591354Y-106587759D01*
X133591354Y-106587759D02*
X133562783Y-106644902D01*
X133562783Y-106644902D02*
X133505640Y-106673473D01*
X133505640Y-106673473D02*
X133448497Y-106673473D01*
X132534212Y-106644902D02*
X132591354Y-106673473D01*
X132591354Y-106673473D02*
X132705640Y-106673473D01*
X132705640Y-106673473D02*
X132762783Y-106644902D01*
X132762783Y-106644902D02*
X132791354Y-106616330D01*
X132791354Y-106616330D02*
X132819926Y-106559187D01*
X132819926Y-106559187D02*
X132819926Y-106387759D01*
X132819926Y-106387759D02*
X132791354Y-106330616D01*
X132791354Y-106330616D02*
X132762783Y-106302044D01*
X132762783Y-106302044D02*
X132705640Y-106273473D01*
X132705640Y-106273473D02*
X132591354Y-106273473D01*
X132591354Y-106273473D02*
X132534212Y-106302044D01*
X132048497Y-106644902D02*
X132105640Y-106673473D01*
X132105640Y-106673473D02*
X132219926Y-106673473D01*
X132219926Y-106673473D02*
X132277068Y-106644902D01*
X132277068Y-106644902D02*
X132305640Y-106587759D01*
X132305640Y-106587759D02*
X132305640Y-106359187D01*
X132305640Y-106359187D02*
X132277068Y-106302044D01*
X132277068Y-106302044D02*
X132219926Y-106273473D01*
X132219926Y-106273473D02*
X132105640Y-106273473D01*
X132105640Y-106273473D02*
X132048497Y-106302044D01*
X132048497Y-106302044D02*
X132019926Y-106359187D01*
X132019926Y-106359187D02*
X132019926Y-106416330D01*
X132019926Y-106416330D02*
X132305640Y-106473473D01*
X131762782Y-106673473D02*
X131762782Y-106273473D01*
X131762782Y-106387759D02*
X131734211Y-106330616D01*
X131734211Y-106330616D02*
X131705640Y-106302044D01*
X131705640Y-106302044D02*
X131648497Y-106273473D01*
X131648497Y-106273473D02*
X131591354Y-106273473D01*
X131477068Y-106273473D02*
X131248496Y-106273473D01*
X131391353Y-106073473D02*
X131391353Y-106587759D01*
X131391353Y-106587759D02*
X131362782Y-106644902D01*
X131362782Y-106644902D02*
X131305639Y-106673473D01*
X131305639Y-106673473D02*
X131248496Y-106673473D01*
X131048496Y-106673473D02*
X131048496Y-106273473D01*
X131048496Y-106073473D02*
X131077068Y-106102044D01*
X131077068Y-106102044D02*
X131048496Y-106130616D01*
X131048496Y-106130616D02*
X131019925Y-106102044D01*
X131019925Y-106102044D02*
X131048496Y-106073473D01*
X131048496Y-106073473D02*
X131048496Y-106130616D01*
X130848497Y-106273473D02*
X130619925Y-106273473D01*
X130762782Y-106673473D02*
X130762782Y-106159187D01*
X130762782Y-106159187D02*
X130734211Y-106102044D01*
X130734211Y-106102044D02*
X130677068Y-106073473D01*
X130677068Y-106073473D02*
X130619925Y-106073473D01*
X130419925Y-106673473D02*
X130419925Y-106273473D01*
X130419925Y-106073473D02*
X130448497Y-106102044D01*
X130448497Y-106102044D02*
X130419925Y-106130616D01*
X130419925Y-106130616D02*
X130391354Y-106102044D01*
X130391354Y-106102044D02*
X130419925Y-106073473D01*
X130419925Y-106073473D02*
X130419925Y-106130616D01*
X129905640Y-106644902D02*
X129962783Y-106673473D01*
X129962783Y-106673473D02*
X130077069Y-106673473D01*
X130077069Y-106673473D02*
X130134211Y-106644902D01*
X130134211Y-106644902D02*
X130162783Y-106587759D01*
X130162783Y-106587759D02*
X130162783Y-106359187D01*
X130162783Y-106359187D02*
X130134211Y-106302044D01*
X130134211Y-106302044D02*
X130077069Y-106273473D01*
X130077069Y-106273473D02*
X129962783Y-106273473D01*
X129962783Y-106273473D02*
X129905640Y-106302044D01*
X129905640Y-106302044D02*
X129877069Y-106359187D01*
X129877069Y-106359187D02*
X129877069Y-106416330D01*
X129877069Y-106416330D02*
X130162783Y-106473473D01*
X129362783Y-106673473D02*
X129362783Y-106073473D01*
X129362783Y-106644902D02*
X129419925Y-106673473D01*
X129419925Y-106673473D02*
X129534211Y-106673473D01*
X129534211Y-106673473D02*
X129591354Y-106644902D01*
X129591354Y-106644902D02*
X129619925Y-106616330D01*
X129619925Y-106616330D02*
X129648497Y-106559187D01*
X129648497Y-106559187D02*
X129648497Y-106387759D01*
X129648497Y-106387759D02*
X129619925Y-106330616D01*
X129619925Y-106330616D02*
X129591354Y-106302044D01*
X129591354Y-106302044D02*
X129534211Y-106273473D01*
X129534211Y-106273473D02*
X129419925Y-106273473D01*
X129419925Y-106273473D02*
X129362783Y-106302044D01*
X128362783Y-106673473D02*
X128362783Y-106359187D01*
X128362783Y-106359187D02*
X128391354Y-106302044D01*
X128391354Y-106302044D02*
X128448497Y-106273473D01*
X128448497Y-106273473D02*
X128562783Y-106273473D01*
X128562783Y-106273473D02*
X128619925Y-106302044D01*
X128362783Y-106644902D02*
X128419925Y-106673473D01*
X128419925Y-106673473D02*
X128562783Y-106673473D01*
X128562783Y-106673473D02*
X128619925Y-106644902D01*
X128619925Y-106644902D02*
X128648497Y-106587759D01*
X128648497Y-106587759D02*
X128648497Y-106530616D01*
X128648497Y-106530616D02*
X128619925Y-106473473D01*
X128619925Y-106473473D02*
X128562783Y-106444902D01*
X128562783Y-106444902D02*
X128419925Y-106444902D01*
X128419925Y-106444902D02*
X128362783Y-106416330D01*
X127819926Y-106644902D02*
X127877068Y-106673473D01*
X127877068Y-106673473D02*
X127991354Y-106673473D01*
X127991354Y-106673473D02*
X128048497Y-106644902D01*
X128048497Y-106644902D02*
X128077068Y-106616330D01*
X128077068Y-106616330D02*
X128105640Y-106559187D01*
X128105640Y-106559187D02*
X128105640Y-106387759D01*
X128105640Y-106387759D02*
X128077068Y-106330616D01*
X128077068Y-106330616D02*
X128048497Y-106302044D01*
X128048497Y-106302044D02*
X127991354Y-106273473D01*
X127991354Y-106273473D02*
X127877068Y-106273473D01*
X127877068Y-106273473D02*
X127819926Y-106302044D01*
X127305640Y-106644902D02*
X127362782Y-106673473D01*
X127362782Y-106673473D02*
X127477068Y-106673473D01*
X127477068Y-106673473D02*
X127534211Y-106644902D01*
X127534211Y-106644902D02*
X127562782Y-106616330D01*
X127562782Y-106616330D02*
X127591354Y-106559187D01*
X127591354Y-106559187D02*
X127591354Y-106387759D01*
X127591354Y-106387759D02*
X127562782Y-106330616D01*
X127562782Y-106330616D02*
X127534211Y-106302044D01*
X127534211Y-106302044D02*
X127477068Y-106273473D01*
X127477068Y-106273473D02*
X127362782Y-106273473D01*
X127362782Y-106273473D02*
X127305640Y-106302044D01*
X126962782Y-106673473D02*
X127019925Y-106644902D01*
X127019925Y-106644902D02*
X127048496Y-106616330D01*
X127048496Y-106616330D02*
X127077068Y-106559187D01*
X127077068Y-106559187D02*
X127077068Y-106387759D01*
X127077068Y-106387759D02*
X127048496Y-106330616D01*
X127048496Y-106330616D02*
X127019925Y-106302044D01*
X127019925Y-106302044D02*
X126962782Y-106273473D01*
X126962782Y-106273473D02*
X126877068Y-106273473D01*
X126877068Y-106273473D02*
X126819925Y-106302044D01*
X126819925Y-106302044D02*
X126791354Y-106330616D01*
X126791354Y-106330616D02*
X126762782Y-106387759D01*
X126762782Y-106387759D02*
X126762782Y-106559187D01*
X126762782Y-106559187D02*
X126791354Y-106616330D01*
X126791354Y-106616330D02*
X126819925Y-106644902D01*
X126819925Y-106644902D02*
X126877068Y-106673473D01*
X126877068Y-106673473D02*
X126962782Y-106673473D01*
X126505639Y-106673473D02*
X126505639Y-106273473D01*
X126505639Y-106387759D02*
X126477068Y-106330616D01*
X126477068Y-106330616D02*
X126448497Y-106302044D01*
X126448497Y-106302044D02*
X126391354Y-106273473D01*
X126391354Y-106273473D02*
X126334211Y-106273473D01*
X125877068Y-106673473D02*
X125877068Y-106073473D01*
X125877068Y-106644902D02*
X125934210Y-106673473D01*
X125934210Y-106673473D02*
X126048496Y-106673473D01*
X126048496Y-106673473D02*
X126105639Y-106644902D01*
X126105639Y-106644902D02*
X126134210Y-106616330D01*
X126134210Y-106616330D02*
X126162782Y-106559187D01*
X126162782Y-106559187D02*
X126162782Y-106387759D01*
X126162782Y-106387759D02*
X126134210Y-106330616D01*
X126134210Y-106330616D02*
X126105639Y-106302044D01*
X126105639Y-106302044D02*
X126048496Y-106273473D01*
X126048496Y-106273473D02*
X125934210Y-106273473D01*
X125934210Y-106273473D02*
X125877068Y-106302044D01*
X125591353Y-106673473D02*
X125591353Y-106273473D01*
X125591353Y-106073473D02*
X125619925Y-106102044D01*
X125619925Y-106102044D02*
X125591353Y-106130616D01*
X125591353Y-106130616D02*
X125562782Y-106102044D01*
X125562782Y-106102044D02*
X125591353Y-106073473D01*
X125591353Y-106073473D02*
X125591353Y-106130616D01*
X125305639Y-106273473D02*
X125305639Y-106673473D01*
X125305639Y-106330616D02*
X125277068Y-106302044D01*
X125277068Y-106302044D02*
X125219925Y-106273473D01*
X125219925Y-106273473D02*
X125134211Y-106273473D01*
X125134211Y-106273473D02*
X125077068Y-106302044D01*
X125077068Y-106302044D02*
X125048497Y-106359187D01*
X125048497Y-106359187D02*
X125048497Y-106673473D01*
X124505640Y-106273473D02*
X124505640Y-106759187D01*
X124505640Y-106759187D02*
X124534211Y-106816330D01*
X124534211Y-106816330D02*
X124562782Y-106844902D01*
X124562782Y-106844902D02*
X124619925Y-106873473D01*
X124619925Y-106873473D02*
X124705640Y-106873473D01*
X124705640Y-106873473D02*
X124762782Y-106844902D01*
X124505640Y-106644902D02*
X124562782Y-106673473D01*
X124562782Y-106673473D02*
X124677068Y-106673473D01*
X124677068Y-106673473D02*
X124734211Y-106644902D01*
X124734211Y-106644902D02*
X124762782Y-106616330D01*
X124762782Y-106616330D02*
X124791354Y-106559187D01*
X124791354Y-106559187D02*
X124791354Y-106387759D01*
X124791354Y-106387759D02*
X124762782Y-106330616D01*
X124762782Y-106330616D02*
X124734211Y-106302044D01*
X124734211Y-106302044D02*
X124677068Y-106273473D01*
X124677068Y-106273473D02*
X124562782Y-106273473D01*
X124562782Y-106273473D02*
X124505640Y-106302044D01*
X137077068Y-107239439D02*
X136848496Y-107239439D01*
X136991353Y-107039439D02*
X136991353Y-107553725D01*
X136991353Y-107553725D02*
X136962782Y-107610868D01*
X136962782Y-107610868D02*
X136905639Y-107639439D01*
X136905639Y-107639439D02*
X136848496Y-107639439D01*
X136562782Y-107639439D02*
X136619925Y-107610868D01*
X136619925Y-107610868D02*
X136648496Y-107582296D01*
X136648496Y-107582296D02*
X136677068Y-107525153D01*
X136677068Y-107525153D02*
X136677068Y-107353725D01*
X136677068Y-107353725D02*
X136648496Y-107296582D01*
X136648496Y-107296582D02*
X136619925Y-107268010D01*
X136619925Y-107268010D02*
X136562782Y-107239439D01*
X136562782Y-107239439D02*
X136477068Y-107239439D01*
X136477068Y-107239439D02*
X136419925Y-107268010D01*
X136419925Y-107268010D02*
X136391354Y-107296582D01*
X136391354Y-107296582D02*
X136362782Y-107353725D01*
X136362782Y-107353725D02*
X136362782Y-107525153D01*
X136362782Y-107525153D02*
X136391354Y-107582296D01*
X136391354Y-107582296D02*
X136419925Y-107610868D01*
X136419925Y-107610868D02*
X136477068Y-107639439D01*
X136477068Y-107639439D02*
X136562782Y-107639439D01*
X135391354Y-107610868D02*
X135448496Y-107639439D01*
X135448496Y-107639439D02*
X135562782Y-107639439D01*
X135562782Y-107639439D02*
X135619925Y-107610868D01*
X135619925Y-107610868D02*
X135648496Y-107582296D01*
X135648496Y-107582296D02*
X135677068Y-107525153D01*
X135677068Y-107525153D02*
X135677068Y-107353725D01*
X135677068Y-107353725D02*
X135648496Y-107296582D01*
X135648496Y-107296582D02*
X135619925Y-107268010D01*
X135619925Y-107268010D02*
X135562782Y-107239439D01*
X135562782Y-107239439D02*
X135448496Y-107239439D01*
X135448496Y-107239439D02*
X135391354Y-107268010D01*
X134877068Y-107239439D02*
X134877068Y-107639439D01*
X135134210Y-107239439D02*
X135134210Y-107553725D01*
X135134210Y-107553725D02*
X135105639Y-107610868D01*
X135105639Y-107610868D02*
X135048496Y-107639439D01*
X135048496Y-107639439D02*
X134962782Y-107639439D01*
X134962782Y-107639439D02*
X134905639Y-107610868D01*
X134905639Y-107610868D02*
X134877068Y-107582296D01*
X134591353Y-107639439D02*
X134591353Y-107239439D01*
X134591353Y-107353725D02*
X134562782Y-107296582D01*
X134562782Y-107296582D02*
X134534211Y-107268010D01*
X134534211Y-107268010D02*
X134477068Y-107239439D01*
X134477068Y-107239439D02*
X134419925Y-107239439D01*
X134219924Y-107639439D02*
X134219924Y-107239439D01*
X134219924Y-107353725D02*
X134191353Y-107296582D01*
X134191353Y-107296582D02*
X134162782Y-107268010D01*
X134162782Y-107268010D02*
X134105639Y-107239439D01*
X134105639Y-107239439D02*
X134048496Y-107239439D01*
X133619924Y-107610868D02*
X133677067Y-107639439D01*
X133677067Y-107639439D02*
X133791353Y-107639439D01*
X133791353Y-107639439D02*
X133848495Y-107610868D01*
X133848495Y-107610868D02*
X133877067Y-107553725D01*
X133877067Y-107553725D02*
X133877067Y-107325153D01*
X133877067Y-107325153D02*
X133848495Y-107268010D01*
X133848495Y-107268010D02*
X133791353Y-107239439D01*
X133791353Y-107239439D02*
X133677067Y-107239439D01*
X133677067Y-107239439D02*
X133619924Y-107268010D01*
X133619924Y-107268010D02*
X133591353Y-107325153D01*
X133591353Y-107325153D02*
X133591353Y-107382296D01*
X133591353Y-107382296D02*
X133877067Y-107439439D01*
X133334209Y-107239439D02*
X133334209Y-107639439D01*
X133334209Y-107296582D02*
X133305638Y-107268010D01*
X133305638Y-107268010D02*
X133248495Y-107239439D01*
X133248495Y-107239439D02*
X133162781Y-107239439D01*
X133162781Y-107239439D02*
X133105638Y-107268010D01*
X133105638Y-107268010D02*
X133077067Y-107325153D01*
X133077067Y-107325153D02*
X133077067Y-107639439D01*
X132877067Y-107239439D02*
X132648495Y-107239439D01*
X132791352Y-107039439D02*
X132791352Y-107553725D01*
X132791352Y-107553725D02*
X132762781Y-107610868D01*
X132762781Y-107610868D02*
X132705638Y-107639439D01*
X132705638Y-107639439D02*
X132648495Y-107639439D01*
X131991352Y-107325153D02*
X131791352Y-107325153D01*
X131705638Y-107639439D02*
X131991352Y-107639439D01*
X131991352Y-107639439D02*
X131991352Y-107039439D01*
X131991352Y-107039439D02*
X131705638Y-107039439D01*
X131448495Y-107039439D02*
X131448495Y-107525153D01*
X131448495Y-107525153D02*
X131419924Y-107582296D01*
X131419924Y-107582296D02*
X131391353Y-107610868D01*
X131391353Y-107610868D02*
X131334210Y-107639439D01*
X131334210Y-107639439D02*
X131219924Y-107639439D01*
X131219924Y-107639439D02*
X131162781Y-107610868D01*
X131162781Y-107610868D02*
X131134210Y-107582296D01*
X131134210Y-107582296D02*
X131105638Y-107525153D01*
X131105638Y-107525153D02*
X131105638Y-107039439D01*
X130277067Y-107639439D02*
X130334210Y-107610868D01*
X130334210Y-107610868D02*
X130362781Y-107553725D01*
X130362781Y-107553725D02*
X130362781Y-107039439D01*
X129791353Y-107639439D02*
X129791353Y-107325153D01*
X129791353Y-107325153D02*
X129819924Y-107268010D01*
X129819924Y-107268010D02*
X129877067Y-107239439D01*
X129877067Y-107239439D02*
X129991353Y-107239439D01*
X129991353Y-107239439D02*
X130048495Y-107268010D01*
X129791353Y-107610868D02*
X129848495Y-107639439D01*
X129848495Y-107639439D02*
X129991353Y-107639439D01*
X129991353Y-107639439D02*
X130048495Y-107610868D01*
X130048495Y-107610868D02*
X130077067Y-107553725D01*
X130077067Y-107553725D02*
X130077067Y-107496582D01*
X130077067Y-107496582D02*
X130048495Y-107439439D01*
X130048495Y-107439439D02*
X129991353Y-107410868D01*
X129991353Y-107410868D02*
X129848495Y-107410868D01*
X129848495Y-107410868D02*
X129791353Y-107382296D01*
X129562781Y-107239439D02*
X129448496Y-107639439D01*
X129448496Y-107639439D02*
X129334210Y-107353725D01*
X129334210Y-107353725D02*
X129219924Y-107639439D01*
X129219924Y-107639439D02*
X129105638Y-107239439D01*
X128905639Y-107610868D02*
X128848496Y-107639439D01*
X128848496Y-107639439D02*
X128734210Y-107639439D01*
X128734210Y-107639439D02*
X128677067Y-107610868D01*
X128677067Y-107610868D02*
X128648496Y-107553725D01*
X128648496Y-107553725D02*
X128648496Y-107525153D01*
X128648496Y-107525153D02*
X128677067Y-107468010D01*
X128677067Y-107468010D02*
X128734210Y-107439439D01*
X128734210Y-107439439D02*
X128819925Y-107439439D01*
X128819925Y-107439439D02*
X128877067Y-107410868D01*
X128877067Y-107410868D02*
X128905639Y-107353725D01*
X128905639Y-107353725D02*
X128905639Y-107325153D01*
X128905639Y-107325153D02*
X128877067Y-107268010D01*
X128877067Y-107268010D02*
X128819925Y-107239439D01*
X128819925Y-107239439D02*
X128734210Y-107239439D01*
X128734210Y-107239439D02*
X128677067Y-107268010D01*
X128391353Y-107582296D02*
X128362782Y-107610868D01*
X128362782Y-107610868D02*
X128391353Y-107639439D01*
X128391353Y-107639439D02*
X128419925Y-107610868D01*
X128419925Y-107610868D02*
X128391353Y-107582296D01*
X128391353Y-107582296D02*
X128391353Y-107639439D01*
X136991353Y-108605405D02*
X136991353Y-108005405D01*
X136991353Y-108005405D02*
X136848496Y-108005405D01*
X136848496Y-108005405D02*
X136762782Y-108033976D01*
X136762782Y-108033976D02*
X136705639Y-108091119D01*
X136705639Y-108091119D02*
X136677068Y-108148262D01*
X136677068Y-108148262D02*
X136648496Y-108262548D01*
X136648496Y-108262548D02*
X136648496Y-108348262D01*
X136648496Y-108348262D02*
X136677068Y-108462548D01*
X136677068Y-108462548D02*
X136705639Y-108519691D01*
X136705639Y-108519691D02*
X136762782Y-108576834D01*
X136762782Y-108576834D02*
X136848496Y-108605405D01*
X136848496Y-108605405D02*
X136991353Y-108605405D01*
X136305639Y-108605405D02*
X136362782Y-108576834D01*
X136362782Y-108576834D02*
X136391353Y-108548262D01*
X136391353Y-108548262D02*
X136419925Y-108491119D01*
X136419925Y-108491119D02*
X136419925Y-108319691D01*
X136419925Y-108319691D02*
X136391353Y-108262548D01*
X136391353Y-108262548D02*
X136362782Y-108233976D01*
X136362782Y-108233976D02*
X136305639Y-108205405D01*
X136305639Y-108205405D02*
X136219925Y-108205405D01*
X136219925Y-108205405D02*
X136162782Y-108233976D01*
X136162782Y-108233976D02*
X136134211Y-108262548D01*
X136134211Y-108262548D02*
X136105639Y-108319691D01*
X136105639Y-108319691D02*
X136105639Y-108491119D01*
X136105639Y-108491119D02*
X136134211Y-108548262D01*
X136134211Y-108548262D02*
X136162782Y-108576834D01*
X136162782Y-108576834D02*
X136219925Y-108605405D01*
X136219925Y-108605405D02*
X136305639Y-108605405D01*
X135391353Y-108205405D02*
X135391353Y-108605405D01*
X135391353Y-108262548D02*
X135362782Y-108233976D01*
X135362782Y-108233976D02*
X135305639Y-108205405D01*
X135305639Y-108205405D02*
X135219925Y-108205405D01*
X135219925Y-108205405D02*
X135162782Y-108233976D01*
X135162782Y-108233976D02*
X135134211Y-108291119D01*
X135134211Y-108291119D02*
X135134211Y-108605405D01*
X134762782Y-108605405D02*
X134819925Y-108576834D01*
X134819925Y-108576834D02*
X134848496Y-108548262D01*
X134848496Y-108548262D02*
X134877068Y-108491119D01*
X134877068Y-108491119D02*
X134877068Y-108319691D01*
X134877068Y-108319691D02*
X134848496Y-108262548D01*
X134848496Y-108262548D02*
X134819925Y-108233976D01*
X134819925Y-108233976D02*
X134762782Y-108205405D01*
X134762782Y-108205405D02*
X134677068Y-108205405D01*
X134677068Y-108205405D02*
X134619925Y-108233976D01*
X134619925Y-108233976D02*
X134591354Y-108262548D01*
X134591354Y-108262548D02*
X134562782Y-108319691D01*
X134562782Y-108319691D02*
X134562782Y-108491119D01*
X134562782Y-108491119D02*
X134591354Y-108548262D01*
X134591354Y-108548262D02*
X134619925Y-108576834D01*
X134619925Y-108576834D02*
X134677068Y-108605405D01*
X134677068Y-108605405D02*
X134762782Y-108605405D01*
X134391354Y-108205405D02*
X134162782Y-108205405D01*
X134305639Y-108005405D02*
X134305639Y-108519691D01*
X134305639Y-108519691D02*
X134277068Y-108576834D01*
X134277068Y-108576834D02*
X134219925Y-108605405D01*
X134219925Y-108605405D02*
X134162782Y-108605405D01*
X133534211Y-108576834D02*
X133477068Y-108605405D01*
X133477068Y-108605405D02*
X133362782Y-108605405D01*
X133362782Y-108605405D02*
X133305639Y-108576834D01*
X133305639Y-108576834D02*
X133277068Y-108519691D01*
X133277068Y-108519691D02*
X133277068Y-108491119D01*
X133277068Y-108491119D02*
X133305639Y-108433976D01*
X133305639Y-108433976D02*
X133362782Y-108405405D01*
X133362782Y-108405405D02*
X133448497Y-108405405D01*
X133448497Y-108405405D02*
X133505639Y-108376834D01*
X133505639Y-108376834D02*
X133534211Y-108319691D01*
X133534211Y-108319691D02*
X133534211Y-108291119D01*
X133534211Y-108291119D02*
X133505639Y-108233976D01*
X133505639Y-108233976D02*
X133448497Y-108205405D01*
X133448497Y-108205405D02*
X133362782Y-108205405D01*
X133362782Y-108205405D02*
X133305639Y-108233976D01*
X132791354Y-108576834D02*
X132848497Y-108605405D01*
X132848497Y-108605405D02*
X132962783Y-108605405D01*
X132962783Y-108605405D02*
X133019925Y-108576834D01*
X133019925Y-108576834D02*
X133048497Y-108519691D01*
X133048497Y-108519691D02*
X133048497Y-108291119D01*
X133048497Y-108291119D02*
X133019925Y-108233976D01*
X133019925Y-108233976D02*
X132962783Y-108205405D01*
X132962783Y-108205405D02*
X132848497Y-108205405D01*
X132848497Y-108205405D02*
X132791354Y-108233976D01*
X132791354Y-108233976D02*
X132762783Y-108291119D01*
X132762783Y-108291119D02*
X132762783Y-108348262D01*
X132762783Y-108348262D02*
X133048497Y-108405405D01*
X132419925Y-108605405D02*
X132477068Y-108576834D01*
X132477068Y-108576834D02*
X132505639Y-108519691D01*
X132505639Y-108519691D02*
X132505639Y-108005405D01*
X132105639Y-108605405D02*
X132162782Y-108576834D01*
X132162782Y-108576834D02*
X132191353Y-108519691D01*
X132191353Y-108519691D02*
X132191353Y-108005405D01*
X131334210Y-108605405D02*
X131391353Y-108576834D01*
X131391353Y-108576834D02*
X131419924Y-108548262D01*
X131419924Y-108548262D02*
X131448496Y-108491119D01*
X131448496Y-108491119D02*
X131448496Y-108319691D01*
X131448496Y-108319691D02*
X131419924Y-108262548D01*
X131419924Y-108262548D02*
X131391353Y-108233976D01*
X131391353Y-108233976D02*
X131334210Y-108205405D01*
X131334210Y-108205405D02*
X131248496Y-108205405D01*
X131248496Y-108205405D02*
X131191353Y-108233976D01*
X131191353Y-108233976D02*
X131162782Y-108262548D01*
X131162782Y-108262548D02*
X131134210Y-108319691D01*
X131134210Y-108319691D02*
X131134210Y-108491119D01*
X131134210Y-108491119D02*
X131162782Y-108548262D01*
X131162782Y-108548262D02*
X131191353Y-108576834D01*
X131191353Y-108576834D02*
X131248496Y-108605405D01*
X131248496Y-108605405D02*
X131334210Y-108605405D01*
X130877067Y-108605405D02*
X130877067Y-108205405D01*
X130877067Y-108319691D02*
X130848496Y-108262548D01*
X130848496Y-108262548D02*
X130819925Y-108233976D01*
X130819925Y-108233976D02*
X130762782Y-108205405D01*
X130762782Y-108205405D02*
X130705639Y-108205405D01*
X129791353Y-108205405D02*
X129791353Y-108605405D01*
X130048495Y-108205405D02*
X130048495Y-108519691D01*
X130048495Y-108519691D02*
X130019924Y-108576834D01*
X130019924Y-108576834D02*
X129962781Y-108605405D01*
X129962781Y-108605405D02*
X129877067Y-108605405D01*
X129877067Y-108605405D02*
X129819924Y-108576834D01*
X129819924Y-108576834D02*
X129791353Y-108548262D01*
X129534210Y-108576834D02*
X129477067Y-108605405D01*
X129477067Y-108605405D02*
X129362781Y-108605405D01*
X129362781Y-108605405D02*
X129305638Y-108576834D01*
X129305638Y-108576834D02*
X129277067Y-108519691D01*
X129277067Y-108519691D02*
X129277067Y-108491119D01*
X129277067Y-108491119D02*
X129305638Y-108433976D01*
X129305638Y-108433976D02*
X129362781Y-108405405D01*
X129362781Y-108405405D02*
X129448496Y-108405405D01*
X129448496Y-108405405D02*
X129505638Y-108376834D01*
X129505638Y-108376834D02*
X129534210Y-108319691D01*
X129534210Y-108319691D02*
X129534210Y-108291119D01*
X129534210Y-108291119D02*
X129505638Y-108233976D01*
X129505638Y-108233976D02*
X129448496Y-108205405D01*
X129448496Y-108205405D02*
X129362781Y-108205405D01*
X129362781Y-108205405D02*
X129305638Y-108233976D01*
X128791353Y-108576834D02*
X128848496Y-108605405D01*
X128848496Y-108605405D02*
X128962782Y-108605405D01*
X128962782Y-108605405D02*
X129019924Y-108576834D01*
X129019924Y-108576834D02*
X129048496Y-108519691D01*
X129048496Y-108519691D02*
X129048496Y-108291119D01*
X129048496Y-108291119D02*
X129019924Y-108233976D01*
X129019924Y-108233976D02*
X128962782Y-108205405D01*
X128962782Y-108205405D02*
X128848496Y-108205405D01*
X128848496Y-108205405D02*
X128791353Y-108233976D01*
X128791353Y-108233976D02*
X128762782Y-108291119D01*
X128762782Y-108291119D02*
X128762782Y-108348262D01*
X128762782Y-108348262D02*
X129048496Y-108405405D01*
X127962781Y-108605405D02*
X128019924Y-108576834D01*
X128019924Y-108576834D02*
X128048495Y-108548262D01*
X128048495Y-108548262D02*
X128077067Y-108491119D01*
X128077067Y-108491119D02*
X128077067Y-108319691D01*
X128077067Y-108319691D02*
X128048495Y-108262548D01*
X128048495Y-108262548D02*
X128019924Y-108233976D01*
X128019924Y-108233976D02*
X127962781Y-108205405D01*
X127962781Y-108205405D02*
X127877067Y-108205405D01*
X127877067Y-108205405D02*
X127819924Y-108233976D01*
X127819924Y-108233976D02*
X127791353Y-108262548D01*
X127791353Y-108262548D02*
X127762781Y-108319691D01*
X127762781Y-108319691D02*
X127762781Y-108491119D01*
X127762781Y-108491119D02*
X127791353Y-108548262D01*
X127791353Y-108548262D02*
X127819924Y-108576834D01*
X127819924Y-108576834D02*
X127877067Y-108605405D01*
X127877067Y-108605405D02*
X127962781Y-108605405D01*
X127248496Y-108205405D02*
X127248496Y-108605405D01*
X127505638Y-108205405D02*
X127505638Y-108519691D01*
X127505638Y-108519691D02*
X127477067Y-108576834D01*
X127477067Y-108576834D02*
X127419924Y-108605405D01*
X127419924Y-108605405D02*
X127334210Y-108605405D01*
X127334210Y-108605405D02*
X127277067Y-108576834D01*
X127277067Y-108576834D02*
X127248496Y-108548262D01*
X127048496Y-108205405D02*
X126819924Y-108205405D01*
X126962781Y-108005405D02*
X126962781Y-108519691D01*
X126962781Y-108519691D02*
X126934210Y-108576834D01*
X126934210Y-108576834D02*
X126877067Y-108605405D01*
X126877067Y-108605405D02*
X126819924Y-108605405D01*
X126648496Y-108576834D02*
X126591353Y-108605405D01*
X126591353Y-108605405D02*
X126477067Y-108605405D01*
X126477067Y-108605405D02*
X126419924Y-108576834D01*
X126419924Y-108576834D02*
X126391353Y-108519691D01*
X126391353Y-108519691D02*
X126391353Y-108491119D01*
X126391353Y-108491119D02*
X126419924Y-108433976D01*
X126419924Y-108433976D02*
X126477067Y-108405405D01*
X126477067Y-108405405D02*
X126562782Y-108405405D01*
X126562782Y-108405405D02*
X126619924Y-108376834D01*
X126619924Y-108376834D02*
X126648496Y-108319691D01*
X126648496Y-108319691D02*
X126648496Y-108291119D01*
X126648496Y-108291119D02*
X126619924Y-108233976D01*
X126619924Y-108233976D02*
X126562782Y-108205405D01*
X126562782Y-108205405D02*
X126477067Y-108205405D01*
X126477067Y-108205405D02*
X126419924Y-108233976D01*
X126134210Y-108605405D02*
X126134210Y-108205405D01*
X126134210Y-108005405D02*
X126162782Y-108033976D01*
X126162782Y-108033976D02*
X126134210Y-108062548D01*
X126134210Y-108062548D02*
X126105639Y-108033976D01*
X126105639Y-108033976D02*
X126134210Y-108005405D01*
X126134210Y-108005405D02*
X126134210Y-108062548D01*
X125591354Y-108605405D02*
X125591354Y-108005405D01*
X125591354Y-108576834D02*
X125648496Y-108605405D01*
X125648496Y-108605405D02*
X125762782Y-108605405D01*
X125762782Y-108605405D02*
X125819925Y-108576834D01*
X125819925Y-108576834D02*
X125848496Y-108548262D01*
X125848496Y-108548262D02*
X125877068Y-108491119D01*
X125877068Y-108491119D02*
X125877068Y-108319691D01*
X125877068Y-108319691D02*
X125848496Y-108262548D01*
X125848496Y-108262548D02*
X125819925Y-108233976D01*
X125819925Y-108233976D02*
X125762782Y-108205405D01*
X125762782Y-108205405D02*
X125648496Y-108205405D01*
X125648496Y-108205405D02*
X125591354Y-108233976D01*
X125077068Y-108576834D02*
X125134211Y-108605405D01*
X125134211Y-108605405D02*
X125248497Y-108605405D01*
X125248497Y-108605405D02*
X125305639Y-108576834D01*
X125305639Y-108576834D02*
X125334211Y-108519691D01*
X125334211Y-108519691D02*
X125334211Y-108291119D01*
X125334211Y-108291119D02*
X125305639Y-108233976D01*
X125305639Y-108233976D02*
X125248497Y-108205405D01*
X125248497Y-108205405D02*
X125134211Y-108205405D01*
X125134211Y-108205405D02*
X125077068Y-108233976D01*
X125077068Y-108233976D02*
X125048497Y-108291119D01*
X125048497Y-108291119D02*
X125048497Y-108348262D01*
X125048497Y-108348262D02*
X125334211Y-108405405D01*
X124248496Y-108605405D02*
X124305639Y-108576834D01*
X124305639Y-108576834D02*
X124334210Y-108548262D01*
X124334210Y-108548262D02*
X124362782Y-108491119D01*
X124362782Y-108491119D02*
X124362782Y-108319691D01*
X124362782Y-108319691D02*
X124334210Y-108262548D01*
X124334210Y-108262548D02*
X124305639Y-108233976D01*
X124305639Y-108233976D02*
X124248496Y-108205405D01*
X124248496Y-108205405D02*
X124162782Y-108205405D01*
X124162782Y-108205405D02*
X124105639Y-108233976D01*
X124105639Y-108233976D02*
X124077068Y-108262548D01*
X124077068Y-108262548D02*
X124048496Y-108319691D01*
X124048496Y-108319691D02*
X124048496Y-108491119D01*
X124048496Y-108491119D02*
X124077068Y-108548262D01*
X124077068Y-108548262D02*
X124105639Y-108576834D01*
X124105639Y-108576834D02*
X124162782Y-108605405D01*
X124162782Y-108605405D02*
X124248496Y-108605405D01*
X123877068Y-108205405D02*
X123648496Y-108205405D01*
X123791353Y-108605405D02*
X123791353Y-108091119D01*
X123791353Y-108091119D02*
X123762782Y-108033976D01*
X123762782Y-108033976D02*
X123705639Y-108005405D01*
X123705639Y-108005405D02*
X123648496Y-108005405D01*
X136991353Y-109571371D02*
X136991353Y-109171371D01*
X136991353Y-109285657D02*
X136962782Y-109228514D01*
X136962782Y-109228514D02*
X136934211Y-109199942D01*
X136934211Y-109199942D02*
X136877068Y-109171371D01*
X136877068Y-109171371D02*
X136819925Y-109171371D01*
X136391353Y-109542800D02*
X136448496Y-109571371D01*
X136448496Y-109571371D02*
X136562782Y-109571371D01*
X136562782Y-109571371D02*
X136619924Y-109542800D01*
X136619924Y-109542800D02*
X136648496Y-109485657D01*
X136648496Y-109485657D02*
X136648496Y-109257085D01*
X136648496Y-109257085D02*
X136619924Y-109199942D01*
X136619924Y-109199942D02*
X136562782Y-109171371D01*
X136562782Y-109171371D02*
X136448496Y-109171371D01*
X136448496Y-109171371D02*
X136391353Y-109199942D01*
X136391353Y-109199942D02*
X136362782Y-109257085D01*
X136362782Y-109257085D02*
X136362782Y-109314228D01*
X136362782Y-109314228D02*
X136648496Y-109371371D01*
X136134210Y-109542800D02*
X136077067Y-109571371D01*
X136077067Y-109571371D02*
X135962781Y-109571371D01*
X135962781Y-109571371D02*
X135905638Y-109542800D01*
X135905638Y-109542800D02*
X135877067Y-109485657D01*
X135877067Y-109485657D02*
X135877067Y-109457085D01*
X135877067Y-109457085D02*
X135905638Y-109399942D01*
X135905638Y-109399942D02*
X135962781Y-109371371D01*
X135962781Y-109371371D02*
X136048496Y-109371371D01*
X136048496Y-109371371D02*
X136105638Y-109342800D01*
X136105638Y-109342800D02*
X136134210Y-109285657D01*
X136134210Y-109285657D02*
X136134210Y-109257085D01*
X136134210Y-109257085D02*
X136105638Y-109199942D01*
X136105638Y-109199942D02*
X136048496Y-109171371D01*
X136048496Y-109171371D02*
X135962781Y-109171371D01*
X135962781Y-109171371D02*
X135905638Y-109199942D01*
X135391353Y-109542800D02*
X135448496Y-109571371D01*
X135448496Y-109571371D02*
X135562782Y-109571371D01*
X135562782Y-109571371D02*
X135619924Y-109542800D01*
X135619924Y-109542800D02*
X135648496Y-109485657D01*
X135648496Y-109485657D02*
X135648496Y-109257085D01*
X135648496Y-109257085D02*
X135619924Y-109199942D01*
X135619924Y-109199942D02*
X135562782Y-109171371D01*
X135562782Y-109171371D02*
X135448496Y-109171371D01*
X135448496Y-109171371D02*
X135391353Y-109199942D01*
X135391353Y-109199942D02*
X135362782Y-109257085D01*
X135362782Y-109257085D02*
X135362782Y-109314228D01*
X135362782Y-109314228D02*
X135648496Y-109371371D01*
X134848496Y-109571371D02*
X134848496Y-109257085D01*
X134848496Y-109257085D02*
X134877067Y-109199942D01*
X134877067Y-109199942D02*
X134934210Y-109171371D01*
X134934210Y-109171371D02*
X135048496Y-109171371D01*
X135048496Y-109171371D02*
X135105638Y-109199942D01*
X134848496Y-109542800D02*
X134905638Y-109571371D01*
X134905638Y-109571371D02*
X135048496Y-109571371D01*
X135048496Y-109571371D02*
X135105638Y-109542800D01*
X135105638Y-109542800D02*
X135134210Y-109485657D01*
X135134210Y-109485657D02*
X135134210Y-109428514D01*
X135134210Y-109428514D02*
X135105638Y-109371371D01*
X135105638Y-109371371D02*
X135048496Y-109342800D01*
X135048496Y-109342800D02*
X134905638Y-109342800D01*
X134905638Y-109342800D02*
X134848496Y-109314228D01*
X134562781Y-109571371D02*
X134562781Y-109171371D01*
X134562781Y-109285657D02*
X134534210Y-109228514D01*
X134534210Y-109228514D02*
X134505639Y-109199942D01*
X134505639Y-109199942D02*
X134448496Y-109171371D01*
X134448496Y-109171371D02*
X134391353Y-109171371D01*
X133934210Y-109542800D02*
X133991352Y-109571371D01*
X133991352Y-109571371D02*
X134105638Y-109571371D01*
X134105638Y-109571371D02*
X134162781Y-109542800D01*
X134162781Y-109542800D02*
X134191352Y-109514228D01*
X134191352Y-109514228D02*
X134219924Y-109457085D01*
X134219924Y-109457085D02*
X134219924Y-109285657D01*
X134219924Y-109285657D02*
X134191352Y-109228514D01*
X134191352Y-109228514D02*
X134162781Y-109199942D01*
X134162781Y-109199942D02*
X134105638Y-109171371D01*
X134105638Y-109171371D02*
X133991352Y-109171371D01*
X133991352Y-109171371D02*
X133934210Y-109199942D01*
X133677066Y-109571371D02*
X133677066Y-108971371D01*
X133419924Y-109571371D02*
X133419924Y-109257085D01*
X133419924Y-109257085D02*
X133448495Y-109199942D01*
X133448495Y-109199942D02*
X133505638Y-109171371D01*
X133505638Y-109171371D02*
X133591352Y-109171371D01*
X133591352Y-109171371D02*
X133648495Y-109199942D01*
X133648495Y-109199942D02*
X133677066Y-109228514D01*
X132677066Y-109171371D02*
X132677066Y-109771371D01*
X132677066Y-109199942D02*
X132619924Y-109171371D01*
X132619924Y-109171371D02*
X132505638Y-109171371D01*
X132505638Y-109171371D02*
X132448495Y-109199942D01*
X132448495Y-109199942D02*
X132419924Y-109228514D01*
X132419924Y-109228514D02*
X132391352Y-109285657D01*
X132391352Y-109285657D02*
X132391352Y-109457085D01*
X132391352Y-109457085D02*
X132419924Y-109514228D01*
X132419924Y-109514228D02*
X132448495Y-109542800D01*
X132448495Y-109542800D02*
X132505638Y-109571371D01*
X132505638Y-109571371D02*
X132619924Y-109571371D01*
X132619924Y-109571371D02*
X132677066Y-109542800D01*
X131877067Y-109171371D02*
X131877067Y-109571371D01*
X132134209Y-109171371D02*
X132134209Y-109485657D01*
X132134209Y-109485657D02*
X132105638Y-109542800D01*
X132105638Y-109542800D02*
X132048495Y-109571371D01*
X132048495Y-109571371D02*
X131962781Y-109571371D01*
X131962781Y-109571371D02*
X131905638Y-109542800D01*
X131905638Y-109542800D02*
X131877067Y-109514228D01*
X131591352Y-109571371D02*
X131591352Y-109171371D01*
X131591352Y-109285657D02*
X131562781Y-109228514D01*
X131562781Y-109228514D02*
X131534210Y-109199942D01*
X131534210Y-109199942D02*
X131477067Y-109171371D01*
X131477067Y-109171371D02*
X131419924Y-109171371D01*
X131219923Y-109171371D02*
X131219923Y-109771371D01*
X131219923Y-109199942D02*
X131162781Y-109171371D01*
X131162781Y-109171371D02*
X131048495Y-109171371D01*
X131048495Y-109171371D02*
X130991352Y-109199942D01*
X130991352Y-109199942D02*
X130962781Y-109228514D01*
X130962781Y-109228514D02*
X130934209Y-109285657D01*
X130934209Y-109285657D02*
X130934209Y-109457085D01*
X130934209Y-109457085D02*
X130962781Y-109514228D01*
X130962781Y-109514228D02*
X130991352Y-109542800D01*
X130991352Y-109542800D02*
X131048495Y-109571371D01*
X131048495Y-109571371D02*
X131162781Y-109571371D01*
X131162781Y-109571371D02*
X131219923Y-109542800D01*
X130591352Y-109571371D02*
X130648495Y-109542800D01*
X130648495Y-109542800D02*
X130677066Y-109514228D01*
X130677066Y-109514228D02*
X130705638Y-109457085D01*
X130705638Y-109457085D02*
X130705638Y-109285657D01*
X130705638Y-109285657D02*
X130677066Y-109228514D01*
X130677066Y-109228514D02*
X130648495Y-109199942D01*
X130648495Y-109199942D02*
X130591352Y-109171371D01*
X130591352Y-109171371D02*
X130505638Y-109171371D01*
X130505638Y-109171371D02*
X130448495Y-109199942D01*
X130448495Y-109199942D02*
X130419924Y-109228514D01*
X130419924Y-109228514D02*
X130391352Y-109285657D01*
X130391352Y-109285657D02*
X130391352Y-109457085D01*
X130391352Y-109457085D02*
X130419924Y-109514228D01*
X130419924Y-109514228D02*
X130448495Y-109542800D01*
X130448495Y-109542800D02*
X130505638Y-109571371D01*
X130505638Y-109571371D02*
X130591352Y-109571371D01*
X130162781Y-109542800D02*
X130105638Y-109571371D01*
X130105638Y-109571371D02*
X129991352Y-109571371D01*
X129991352Y-109571371D02*
X129934209Y-109542800D01*
X129934209Y-109542800D02*
X129905638Y-109485657D01*
X129905638Y-109485657D02*
X129905638Y-109457085D01*
X129905638Y-109457085D02*
X129934209Y-109399942D01*
X129934209Y-109399942D02*
X129991352Y-109371371D01*
X129991352Y-109371371D02*
X130077067Y-109371371D01*
X130077067Y-109371371D02*
X130134209Y-109342800D01*
X130134209Y-109342800D02*
X130162781Y-109285657D01*
X130162781Y-109285657D02*
X130162781Y-109257085D01*
X130162781Y-109257085D02*
X130134209Y-109199942D01*
X130134209Y-109199942D02*
X130077067Y-109171371D01*
X130077067Y-109171371D02*
X129991352Y-109171371D01*
X129991352Y-109171371D02*
X129934209Y-109199942D01*
X129419924Y-109542800D02*
X129477067Y-109571371D01*
X129477067Y-109571371D02*
X129591353Y-109571371D01*
X129591353Y-109571371D02*
X129648495Y-109542800D01*
X129648495Y-109542800D02*
X129677067Y-109485657D01*
X129677067Y-109485657D02*
X129677067Y-109257085D01*
X129677067Y-109257085D02*
X129648495Y-109199942D01*
X129648495Y-109199942D02*
X129591353Y-109171371D01*
X129591353Y-109171371D02*
X129477067Y-109171371D01*
X129477067Y-109171371D02*
X129419924Y-109199942D01*
X129419924Y-109199942D02*
X129391353Y-109257085D01*
X129391353Y-109257085D02*
X129391353Y-109314228D01*
X129391353Y-109314228D02*
X129677067Y-109371371D01*
X129162781Y-109542800D02*
X129105638Y-109571371D01*
X129105638Y-109571371D02*
X128991352Y-109571371D01*
X128991352Y-109571371D02*
X128934209Y-109542800D01*
X128934209Y-109542800D02*
X128905638Y-109485657D01*
X128905638Y-109485657D02*
X128905638Y-109457085D01*
X128905638Y-109457085D02*
X128934209Y-109399942D01*
X128934209Y-109399942D02*
X128991352Y-109371371D01*
X128991352Y-109371371D02*
X129077067Y-109371371D01*
X129077067Y-109371371D02*
X129134209Y-109342800D01*
X129134209Y-109342800D02*
X129162781Y-109285657D01*
X129162781Y-109285657D02*
X129162781Y-109257085D01*
X129162781Y-109257085D02*
X129134209Y-109199942D01*
X129134209Y-109199942D02*
X129077067Y-109171371D01*
X129077067Y-109171371D02*
X128991352Y-109171371D01*
X128991352Y-109171371D02*
X128934209Y-109199942D01*
X128648495Y-109514228D02*
X128619924Y-109542800D01*
X128619924Y-109542800D02*
X128648495Y-109571371D01*
X128648495Y-109571371D02*
X128677067Y-109542800D01*
X128677067Y-109542800D02*
X128648495Y-109514228D01*
X128648495Y-109514228D02*
X128648495Y-109571371D01*
D12*
X151192448Y-103533472D02*
X151140067Y-103114424D01*
X151140067Y-103114424D02*
X151166258Y-103038234D01*
X151166258Y-103038234D02*
X151232925Y-103000138D01*
X151232925Y-103000138D02*
X151375782Y-103000138D01*
X151375782Y-103000138D02*
X151451972Y-103038234D01*
X151187687Y-103495377D02*
X151263877Y-103533472D01*
X151263877Y-103533472D02*
X151442448Y-103533472D01*
X151442448Y-103533472D02*
X151509115Y-103495377D01*
X151509115Y-103495377D02*
X151535306Y-103419186D01*
X151535306Y-103419186D02*
X151525782Y-103342996D01*
X151525782Y-103342996D02*
X151480544Y-103266805D01*
X151480544Y-103266805D02*
X151404353Y-103228710D01*
X151404353Y-103228710D02*
X151225782Y-103228710D01*
X151225782Y-103228710D02*
X151149591Y-103190615D01*
X150835306Y-103533472D02*
X150768639Y-103000138D01*
X150787687Y-103152519D02*
X150742449Y-103076329D01*
X150742449Y-103076329D02*
X150701973Y-103038234D01*
X150701973Y-103038234D02*
X150625782Y-103000138D01*
X150625782Y-103000138D02*
X150554354Y-103000138D01*
X150411496Y-103000138D02*
X150125782Y-103000138D01*
X150271020Y-102733472D02*
X150356734Y-103419186D01*
X150356734Y-103419186D02*
X150330544Y-103495377D01*
X150330544Y-103495377D02*
X150263877Y-103533472D01*
X150263877Y-103533472D02*
X150192449Y-103533472D01*
X149942449Y-103533472D02*
X149842449Y-102733472D01*
X149621020Y-103533472D02*
X149568639Y-103114424D01*
X149568639Y-103114424D02*
X149594830Y-103038234D01*
X149594830Y-103038234D02*
X149661497Y-103000138D01*
X149661497Y-103000138D02*
X149768639Y-103000138D01*
X149768639Y-103000138D02*
X149844830Y-103038234D01*
X149844830Y-103038234D02*
X149885306Y-103076329D01*
X149156735Y-103533472D02*
X149223402Y-103495377D01*
X149223402Y-103495377D02*
X149254354Y-103457281D01*
X149254354Y-103457281D02*
X149280545Y-103381091D01*
X149280545Y-103381091D02*
X149251973Y-103152519D01*
X149251973Y-103152519D02*
X149206735Y-103076329D01*
X149206735Y-103076329D02*
X149166259Y-103038234D01*
X149166259Y-103038234D02*
X149090068Y-103000138D01*
X149090068Y-103000138D02*
X148982926Y-103000138D01*
X148982926Y-103000138D02*
X148916259Y-103038234D01*
X148916259Y-103038234D02*
X148885307Y-103076329D01*
X148885307Y-103076329D02*
X148859116Y-103152519D01*
X148859116Y-103152519D02*
X148887688Y-103381091D01*
X148887688Y-103381091D02*
X148932926Y-103457281D01*
X148932926Y-103457281D02*
X148973402Y-103495377D01*
X148973402Y-103495377D02*
X149049592Y-103533472D01*
X149049592Y-103533472D02*
X149156735Y-103533472D01*
X148585307Y-103533472D02*
X148518640Y-103000138D01*
X148537688Y-103152519D02*
X148492450Y-103076329D01*
X148492450Y-103076329D02*
X148451974Y-103038234D01*
X148451974Y-103038234D02*
X148375783Y-103000138D01*
X148375783Y-103000138D02*
X148304355Y-103000138D01*
X148121021Y-103533472D02*
X148021021Y-102733472D01*
X147799592Y-103533472D02*
X147747211Y-103114424D01*
X147747211Y-103114424D02*
X147773402Y-103038234D01*
X147773402Y-103038234D02*
X147840069Y-103000138D01*
X147840069Y-103000138D02*
X147947211Y-103000138D01*
X147947211Y-103000138D02*
X148023402Y-103038234D01*
X148023402Y-103038234D02*
X148063878Y-103076329D01*
X147432926Y-103457281D02*
X147401974Y-103495377D01*
X147401974Y-103495377D02*
X147442450Y-103533472D01*
X147442450Y-103533472D02*
X147473402Y-103495377D01*
X147473402Y-103495377D02*
X147432926Y-103457281D01*
X147432926Y-103457281D02*
X147442450Y-103533472D01*
X146697212Y-103000138D02*
X146778164Y-103647757D01*
X146778164Y-103647757D02*
X146823402Y-103723948D01*
X146823402Y-103723948D02*
X146863878Y-103762043D01*
X146863878Y-103762043D02*
X146940069Y-103800138D01*
X146940069Y-103800138D02*
X147047212Y-103800138D01*
X147047212Y-103800138D02*
X147113878Y-103762043D01*
X146759117Y-103495377D02*
X146835307Y-103533472D01*
X146835307Y-103533472D02*
X146978164Y-103533472D01*
X146978164Y-103533472D02*
X147044831Y-103495377D01*
X147044831Y-103495377D02*
X147075783Y-103457281D01*
X147075783Y-103457281D02*
X147101974Y-103381091D01*
X147101974Y-103381091D02*
X147073402Y-103152519D01*
X147073402Y-103152519D02*
X147028164Y-103076329D01*
X147028164Y-103076329D02*
X146987688Y-103038234D01*
X146987688Y-103038234D02*
X146911497Y-103000138D01*
X146911497Y-103000138D02*
X146768640Y-103000138D01*
X146768640Y-103000138D02*
X146701974Y-103038234D01*
X146406736Y-103533472D02*
X146340069Y-103000138D01*
X146306736Y-102733472D02*
X146347212Y-102771567D01*
X146347212Y-102771567D02*
X146316260Y-102809662D01*
X146316260Y-102809662D02*
X146275784Y-102771567D01*
X146275784Y-102771567D02*
X146306736Y-102733472D01*
X146306736Y-102733472D02*
X146316260Y-102809662D01*
X146090069Y-103000138D02*
X145804355Y-103000138D01*
X145949593Y-102733472D02*
X146035307Y-103419186D01*
X146035307Y-103419186D02*
X146009117Y-103495377D01*
X146009117Y-103495377D02*
X145942450Y-103533472D01*
X145942450Y-103533472D02*
X145871022Y-103533472D01*
X145621022Y-103533472D02*
X145521022Y-102733472D01*
X145299593Y-103533472D02*
X145247212Y-103114424D01*
X145247212Y-103114424D02*
X145273403Y-103038234D01*
X145273403Y-103038234D02*
X145340070Y-103000138D01*
X145340070Y-103000138D02*
X145447212Y-103000138D01*
X145447212Y-103000138D02*
X145523403Y-103038234D01*
X145523403Y-103038234D02*
X145563879Y-103076329D01*
X144554356Y-103000138D02*
X144621022Y-103533472D01*
X144875784Y-103000138D02*
X144928165Y-103419186D01*
X144928165Y-103419186D02*
X144901975Y-103495377D01*
X144901975Y-103495377D02*
X144835308Y-103533472D01*
X144835308Y-103533472D02*
X144728165Y-103533472D01*
X144728165Y-103533472D02*
X144651975Y-103495377D01*
X144651975Y-103495377D02*
X144611499Y-103457281D01*
X144263880Y-103533472D02*
X144163880Y-102733472D01*
X144201975Y-103038234D02*
X144125785Y-103000138D01*
X144125785Y-103000138D02*
X143982928Y-103000138D01*
X143982928Y-103000138D02*
X143916261Y-103038234D01*
X143916261Y-103038234D02*
X143885309Y-103076329D01*
X143885309Y-103076329D02*
X143859118Y-103152519D01*
X143859118Y-103152519D02*
X143887690Y-103381091D01*
X143887690Y-103381091D02*
X143932928Y-103457281D01*
X143932928Y-103457281D02*
X143973404Y-103495377D01*
X143973404Y-103495377D02*
X144049594Y-103533472D01*
X144049594Y-103533472D02*
X144192451Y-103533472D01*
X144192451Y-103533472D02*
X144259118Y-103495377D01*
X143575785Y-103457281D02*
X143544833Y-103495377D01*
X143544833Y-103495377D02*
X143585309Y-103533472D01*
X143585309Y-103533472D02*
X143616261Y-103495377D01*
X143616261Y-103495377D02*
X143575785Y-103457281D01*
X143575785Y-103457281D02*
X143585309Y-103533472D01*
X143228166Y-103533472D02*
X143161499Y-103000138D01*
X143128166Y-102733472D02*
X143168642Y-102771567D01*
X143168642Y-102771567D02*
X143137690Y-102809662D01*
X143137690Y-102809662D02*
X143097214Y-102771567D01*
X143097214Y-102771567D02*
X143128166Y-102733472D01*
X143128166Y-102733472D02*
X143137690Y-102809662D01*
X142763880Y-103533472D02*
X142830547Y-103495377D01*
X142830547Y-103495377D02*
X142861499Y-103457281D01*
X142861499Y-103457281D02*
X142887690Y-103381091D01*
X142887690Y-103381091D02*
X142859118Y-103152519D01*
X142859118Y-103152519D02*
X142813880Y-103076329D01*
X142813880Y-103076329D02*
X142773404Y-103038234D01*
X142773404Y-103038234D02*
X142697213Y-103000138D01*
X142697213Y-103000138D02*
X142590071Y-103000138D01*
X142590071Y-103000138D02*
X142523404Y-103038234D01*
X142523404Y-103038234D02*
X142492452Y-103076329D01*
X142492452Y-103076329D02*
X142466261Y-103152519D01*
X142466261Y-103152519D02*
X142494833Y-103381091D01*
X142494833Y-103381091D02*
X142540071Y-103457281D01*
X142540071Y-103457281D02*
X142580547Y-103495377D01*
X142580547Y-103495377D02*
X142656737Y-103533472D01*
X142656737Y-103533472D02*
X142763880Y-103533472D01*
X141551976Y-102695377D02*
X142323404Y-103723948D01*
X140968643Y-103457281D02*
X141009119Y-103495377D01*
X141009119Y-103495377D02*
X141121024Y-103533472D01*
X141121024Y-103533472D02*
X141192452Y-103533472D01*
X141192452Y-103533472D02*
X141294833Y-103495377D01*
X141294833Y-103495377D02*
X141356738Y-103419186D01*
X141356738Y-103419186D02*
X141382928Y-103342996D01*
X141382928Y-103342996D02*
X141399595Y-103190615D01*
X141399595Y-103190615D02*
X141385309Y-103076329D01*
X141385309Y-103076329D02*
X141330548Y-102923948D01*
X141330548Y-102923948D02*
X141285309Y-102847757D01*
X141285309Y-102847757D02*
X141204357Y-102771567D01*
X141204357Y-102771567D02*
X141092452Y-102733472D01*
X141092452Y-102733472D02*
X141021024Y-102733472D01*
X141021024Y-102733472D02*
X140918643Y-102771567D01*
X140918643Y-102771567D02*
X140887690Y-102809662D01*
X140656738Y-103533472D02*
X140556738Y-102733472D01*
X140335309Y-103533472D02*
X140282928Y-103114424D01*
X140282928Y-103114424D02*
X140309119Y-103038234D01*
X140309119Y-103038234D02*
X140375786Y-103000138D01*
X140375786Y-103000138D02*
X140482928Y-103000138D01*
X140482928Y-103000138D02*
X140559119Y-103038234D01*
X140559119Y-103038234D02*
X140599595Y-103076329D01*
X139656738Y-103533472D02*
X139604357Y-103114424D01*
X139604357Y-103114424D02*
X139630548Y-103038234D01*
X139630548Y-103038234D02*
X139697215Y-103000138D01*
X139697215Y-103000138D02*
X139840072Y-103000138D01*
X139840072Y-103000138D02*
X139916262Y-103038234D01*
X139651977Y-103495377D02*
X139728167Y-103533472D01*
X139728167Y-103533472D02*
X139906738Y-103533472D01*
X139906738Y-103533472D02*
X139973405Y-103495377D01*
X139973405Y-103495377D02*
X139999596Y-103419186D01*
X139999596Y-103419186D02*
X139990072Y-103342996D01*
X139990072Y-103342996D02*
X139944834Y-103266805D01*
X139944834Y-103266805D02*
X139868643Y-103228710D01*
X139868643Y-103228710D02*
X139690072Y-103228710D01*
X139690072Y-103228710D02*
X139613881Y-103190615D01*
X139299596Y-103533472D02*
X139232929Y-103000138D01*
X139199596Y-102733472D02*
X139240072Y-102771567D01*
X139240072Y-102771567D02*
X139209120Y-102809662D01*
X139209120Y-102809662D02*
X139168644Y-102771567D01*
X139168644Y-102771567D02*
X139199596Y-102733472D01*
X139199596Y-102733472D02*
X139209120Y-102809662D01*
X138875786Y-103000138D02*
X138942453Y-103533472D01*
X138885310Y-103076329D02*
X138844834Y-103038234D01*
X138844834Y-103038234D02*
X138768643Y-103000138D01*
X138768643Y-103000138D02*
X138661501Y-103000138D01*
X138661501Y-103000138D02*
X138594834Y-103038234D01*
X138594834Y-103038234D02*
X138568643Y-103114424D01*
X138568643Y-103114424D02*
X138621024Y-103533472D01*
X137961501Y-103114424D02*
X137859120Y-103152519D01*
X137859120Y-103152519D02*
X137828168Y-103190615D01*
X137828168Y-103190615D02*
X137801977Y-103266805D01*
X137801977Y-103266805D02*
X137816263Y-103381091D01*
X137816263Y-103381091D02*
X137861501Y-103457281D01*
X137861501Y-103457281D02*
X137901977Y-103495377D01*
X137901977Y-103495377D02*
X137978168Y-103533472D01*
X137978168Y-103533472D02*
X138263882Y-103533472D01*
X138263882Y-103533472D02*
X138163882Y-102733472D01*
X138163882Y-102733472D02*
X137913882Y-102733472D01*
X137913882Y-102733472D02*
X137847215Y-102771567D01*
X137847215Y-102771567D02*
X137816263Y-102809662D01*
X137816263Y-102809662D02*
X137790072Y-102885853D01*
X137790072Y-102885853D02*
X137799596Y-102962043D01*
X137799596Y-102962043D02*
X137844834Y-103038234D01*
X137844834Y-103038234D02*
X137885311Y-103076329D01*
X137885311Y-103076329D02*
X137961501Y-103114424D01*
X137961501Y-103114424D02*
X138211501Y-103114424D01*
X137125787Y-103000138D02*
X137192453Y-103533472D01*
X137447215Y-103000138D02*
X137499596Y-103419186D01*
X137499596Y-103419186D02*
X137473406Y-103495377D01*
X137473406Y-103495377D02*
X137406739Y-103533472D01*
X137406739Y-103533472D02*
X137299596Y-103533472D01*
X137299596Y-103533472D02*
X137223406Y-103495377D01*
X137223406Y-103495377D02*
X137182930Y-103457281D01*
X136866263Y-103495377D02*
X136799597Y-103533472D01*
X136799597Y-103533472D02*
X136656740Y-103533472D01*
X136656740Y-103533472D02*
X136580549Y-103495377D01*
X136580549Y-103495377D02*
X136535311Y-103419186D01*
X136535311Y-103419186D02*
X136530549Y-103381091D01*
X136530549Y-103381091D02*
X136556740Y-103304900D01*
X136556740Y-103304900D02*
X136623406Y-103266805D01*
X136623406Y-103266805D02*
X136730549Y-103266805D01*
X136730549Y-103266805D02*
X136797216Y-103228710D01*
X136797216Y-103228710D02*
X136823406Y-103152519D01*
X136823406Y-103152519D02*
X136818644Y-103114424D01*
X136818644Y-103114424D02*
X136773406Y-103038234D01*
X136773406Y-103038234D02*
X136697216Y-103000138D01*
X136697216Y-103000138D02*
X136590073Y-103000138D01*
X136590073Y-103000138D02*
X136523406Y-103038234D01*
X150767982Y-102456200D02*
X150848935Y-102494295D01*
X150848935Y-102494295D02*
X151001316Y-102494295D01*
X151001316Y-102494295D02*
X151072744Y-102456200D01*
X151072744Y-102456200D02*
X151106077Y-102418104D01*
X151106077Y-102418104D02*
X151134649Y-102341914D01*
X151134649Y-102341914D02*
X151106077Y-102113342D01*
X151106077Y-102113342D02*
X151058458Y-102037152D01*
X151058458Y-102037152D02*
X151015601Y-101999057D01*
X151015601Y-101999057D02*
X150934649Y-101960961D01*
X150934649Y-101960961D02*
X150782268Y-101960961D01*
X150782268Y-101960961D02*
X150710839Y-101999057D01*
X150315602Y-102494295D02*
X150387030Y-102456200D01*
X150387030Y-102456200D02*
X150420363Y-102418104D01*
X150420363Y-102418104D02*
X150448935Y-102341914D01*
X150448935Y-102341914D02*
X150420363Y-102113342D01*
X150420363Y-102113342D02*
X150372744Y-102037152D01*
X150372744Y-102037152D02*
X150329887Y-101999057D01*
X150329887Y-101999057D02*
X150248935Y-101960961D01*
X150248935Y-101960961D02*
X150134649Y-101960961D01*
X150134649Y-101960961D02*
X150063221Y-101999057D01*
X150063221Y-101999057D02*
X150029887Y-102037152D01*
X150029887Y-102037152D02*
X150001316Y-102113342D01*
X150001316Y-102113342D02*
X150029887Y-102341914D01*
X150029887Y-102341914D02*
X150077506Y-102418104D01*
X150077506Y-102418104D02*
X150120363Y-102456200D01*
X150120363Y-102456200D02*
X150201316Y-102494295D01*
X150201316Y-102494295D02*
X150315602Y-102494295D01*
X149639411Y-101960961D02*
X149706077Y-102494295D01*
X149648934Y-102037152D02*
X149606077Y-101999057D01*
X149606077Y-101999057D02*
X149525125Y-101960961D01*
X149525125Y-101960961D02*
X149410839Y-101960961D01*
X149410839Y-101960961D02*
X149339411Y-101999057D01*
X149339411Y-101999057D02*
X149310839Y-102075247D01*
X149310839Y-102075247D02*
X149363220Y-102494295D01*
X148915601Y-101960961D02*
X148982267Y-102494295D01*
X148925124Y-102037152D02*
X148882267Y-101999057D01*
X148882267Y-101999057D02*
X148801315Y-101960961D01*
X148801315Y-101960961D02*
X148687029Y-101960961D01*
X148687029Y-101960961D02*
X148615601Y-101999057D01*
X148615601Y-101999057D02*
X148587029Y-102075247D01*
X148587029Y-102075247D02*
X148639410Y-102494295D01*
X147948933Y-102456200D02*
X148029886Y-102494295D01*
X148029886Y-102494295D02*
X148182267Y-102494295D01*
X148182267Y-102494295D02*
X148253695Y-102456200D01*
X148253695Y-102456200D02*
X148282267Y-102380009D01*
X148282267Y-102380009D02*
X148244172Y-102075247D01*
X148244172Y-102075247D02*
X148196552Y-101999057D01*
X148196552Y-101999057D02*
X148115600Y-101960961D01*
X148115600Y-101960961D02*
X147963219Y-101960961D01*
X147963219Y-101960961D02*
X147891791Y-101999057D01*
X147891791Y-101999057D02*
X147863219Y-102075247D01*
X147863219Y-102075247D02*
X147872743Y-102151438D01*
X147872743Y-102151438D02*
X148263219Y-102227628D01*
X147225124Y-102456200D02*
X147306077Y-102494295D01*
X147306077Y-102494295D02*
X147458458Y-102494295D01*
X147458458Y-102494295D02*
X147529886Y-102456200D01*
X147529886Y-102456200D02*
X147563219Y-102418104D01*
X147563219Y-102418104D02*
X147591791Y-102341914D01*
X147591791Y-102341914D02*
X147563219Y-102113342D01*
X147563219Y-102113342D02*
X147515600Y-102037152D01*
X147515600Y-102037152D02*
X147472743Y-101999057D01*
X147472743Y-101999057D02*
X147391791Y-101960961D01*
X147391791Y-101960961D02*
X147239410Y-101960961D01*
X147239410Y-101960961D02*
X147167981Y-101999057D01*
X146934648Y-101960961D02*
X146629886Y-101960961D01*
X146787029Y-101694295D02*
X146872744Y-102380009D01*
X146872744Y-102380009D02*
X146844172Y-102456200D01*
X146844172Y-102456200D02*
X146772744Y-102494295D01*
X146772744Y-102494295D02*
X146696553Y-102494295D01*
X146315601Y-102494295D02*
X146387029Y-102456200D01*
X146387029Y-102456200D02*
X146420362Y-102418104D01*
X146420362Y-102418104D02*
X146448934Y-102341914D01*
X146448934Y-102341914D02*
X146420362Y-102113342D01*
X146420362Y-102113342D02*
X146372743Y-102037152D01*
X146372743Y-102037152D02*
X146329886Y-101999057D01*
X146329886Y-101999057D02*
X146248934Y-101960961D01*
X146248934Y-101960961D02*
X146134648Y-101960961D01*
X146134648Y-101960961D02*
X146063220Y-101999057D01*
X146063220Y-101999057D02*
X146029886Y-102037152D01*
X146029886Y-102037152D02*
X146001315Y-102113342D01*
X146001315Y-102113342D02*
X146029886Y-102341914D01*
X146029886Y-102341914D02*
X146077505Y-102418104D01*
X146077505Y-102418104D02*
X146120362Y-102456200D01*
X146120362Y-102456200D02*
X146201315Y-102494295D01*
X146201315Y-102494295D02*
X146315601Y-102494295D01*
X145706076Y-102494295D02*
X145639410Y-101960961D01*
X145658457Y-102113342D02*
X145610838Y-102037152D01*
X145610838Y-102037152D02*
X145567981Y-101999057D01*
X145567981Y-101999057D02*
X145487029Y-101960961D01*
X145487029Y-101960961D02*
X145410838Y-101960961D01*
X144534648Y-101960961D02*
X144634648Y-102760961D01*
X144539409Y-101999057D02*
X144458457Y-101960961D01*
X144458457Y-101960961D02*
X144306076Y-101960961D01*
X144306076Y-101960961D02*
X144234648Y-101999057D01*
X144234648Y-101999057D02*
X144201314Y-102037152D01*
X144201314Y-102037152D02*
X144172743Y-102113342D01*
X144172743Y-102113342D02*
X144201314Y-102341914D01*
X144201314Y-102341914D02*
X144248933Y-102418104D01*
X144248933Y-102418104D02*
X144291790Y-102456200D01*
X144291790Y-102456200D02*
X144372743Y-102494295D01*
X144372743Y-102494295D02*
X144525124Y-102494295D01*
X144525124Y-102494295D02*
X144596552Y-102456200D01*
X143763219Y-102494295D02*
X143834647Y-102456200D01*
X143834647Y-102456200D02*
X143867980Y-102418104D01*
X143867980Y-102418104D02*
X143896552Y-102341914D01*
X143896552Y-102341914D02*
X143867980Y-102113342D01*
X143867980Y-102113342D02*
X143820361Y-102037152D01*
X143820361Y-102037152D02*
X143777504Y-101999057D01*
X143777504Y-101999057D02*
X143696552Y-101960961D01*
X143696552Y-101960961D02*
X143582266Y-101960961D01*
X143582266Y-101960961D02*
X143510838Y-101999057D01*
X143510838Y-101999057D02*
X143477504Y-102037152D01*
X143477504Y-102037152D02*
X143448933Y-102113342D01*
X143448933Y-102113342D02*
X143477504Y-102341914D01*
X143477504Y-102341914D02*
X143525123Y-102418104D01*
X143525123Y-102418104D02*
X143567980Y-102456200D01*
X143567980Y-102456200D02*
X143648933Y-102494295D01*
X143648933Y-102494295D02*
X143763219Y-102494295D01*
X143163218Y-101960961D02*
X143077504Y-102494295D01*
X143077504Y-102494295D02*
X142877504Y-102113342D01*
X142877504Y-102113342D02*
X142772742Y-102494295D01*
X142772742Y-102494295D02*
X142553694Y-101960961D01*
X142006075Y-102456200D02*
X142087028Y-102494295D01*
X142087028Y-102494295D02*
X142239409Y-102494295D01*
X142239409Y-102494295D02*
X142310837Y-102456200D01*
X142310837Y-102456200D02*
X142339409Y-102380009D01*
X142339409Y-102380009D02*
X142301314Y-102075247D01*
X142301314Y-102075247D02*
X142253694Y-101999057D01*
X142253694Y-101999057D02*
X142172742Y-101960961D01*
X142172742Y-101960961D02*
X142020361Y-101960961D01*
X142020361Y-101960961D02*
X141948933Y-101999057D01*
X141948933Y-101999057D02*
X141920361Y-102075247D01*
X141920361Y-102075247D02*
X141929885Y-102151438D01*
X141929885Y-102151438D02*
X142320361Y-102227628D01*
X141629885Y-102494295D02*
X141563219Y-101960961D01*
X141582266Y-102113342D02*
X141534647Y-102037152D01*
X141534647Y-102037152D02*
X141491790Y-101999057D01*
X141491790Y-101999057D02*
X141410838Y-101960961D01*
X141410838Y-101960961D02*
X141334647Y-101960961D01*
X140825123Y-102456200D02*
X140906076Y-102494295D01*
X140906076Y-102494295D02*
X141058457Y-102494295D01*
X141058457Y-102494295D02*
X141129885Y-102456200D01*
X141129885Y-102456200D02*
X141158457Y-102380009D01*
X141158457Y-102380009D02*
X141120362Y-102075247D01*
X141120362Y-102075247D02*
X141072742Y-101999057D01*
X141072742Y-101999057D02*
X140991790Y-101960961D01*
X140991790Y-101960961D02*
X140839409Y-101960961D01*
X140839409Y-101960961D02*
X140767981Y-101999057D01*
X140767981Y-101999057D02*
X140739409Y-102075247D01*
X140739409Y-102075247D02*
X140748933Y-102151438D01*
X140748933Y-102151438D02*
X141139409Y-102227628D01*
X140106076Y-102494295D02*
X140006076Y-101694295D01*
X140101314Y-102456200D02*
X140182267Y-102494295D01*
X140182267Y-102494295D02*
X140334648Y-102494295D01*
X140334648Y-102494295D02*
X140406076Y-102456200D01*
X140406076Y-102456200D02*
X140439409Y-102418104D01*
X140439409Y-102418104D02*
X140467981Y-102341914D01*
X140467981Y-102341914D02*
X140439409Y-102113342D01*
X140439409Y-102113342D02*
X140391790Y-102037152D01*
X140391790Y-102037152D02*
X140348933Y-101999057D01*
X140348933Y-101999057D02*
X140267981Y-101960961D01*
X140267981Y-101960961D02*
X140115600Y-101960961D01*
X140115600Y-101960961D02*
X140044171Y-101999057D01*
X139115599Y-102494295D02*
X139015599Y-101694295D01*
X139053694Y-101999057D02*
X138972742Y-101960961D01*
X138972742Y-101960961D02*
X138820361Y-101960961D01*
X138820361Y-101960961D02*
X138748933Y-101999057D01*
X138748933Y-101999057D02*
X138715599Y-102037152D01*
X138715599Y-102037152D02*
X138687028Y-102113342D01*
X138687028Y-102113342D02*
X138715599Y-102341914D01*
X138715599Y-102341914D02*
X138763218Y-102418104D01*
X138763218Y-102418104D02*
X138806075Y-102456200D01*
X138806075Y-102456200D02*
X138887028Y-102494295D01*
X138887028Y-102494295D02*
X139039409Y-102494295D01*
X139039409Y-102494295D02*
X139110837Y-102456200D01*
X138401313Y-101960961D02*
X138277504Y-102494295D01*
X138020361Y-101960961D02*
X138277504Y-102494295D01*
X138277504Y-102494295D02*
X138377504Y-102684771D01*
X138377504Y-102684771D02*
X138420361Y-102722866D01*
X138420361Y-102722866D02*
X138501313Y-102760961D01*
D11*
X116363660Y-107262457D02*
X116458898Y-107214838D01*
X116458898Y-107214838D02*
X116554136Y-107119600D01*
X116554136Y-107119600D02*
X116696993Y-106976742D01*
X116696993Y-106976742D02*
X116792231Y-106929123D01*
X116792231Y-106929123D02*
X116887469Y-106929123D01*
X116839850Y-107167219D02*
X116935088Y-107119600D01*
X116935088Y-107119600D02*
X117030326Y-107024361D01*
X117030326Y-107024361D02*
X117077945Y-106833885D01*
X117077945Y-106833885D02*
X117077945Y-106500552D01*
X117077945Y-106500552D02*
X117030326Y-106310076D01*
X117030326Y-106310076D02*
X116935088Y-106214838D01*
X116935088Y-106214838D02*
X116839850Y-106167219D01*
X116839850Y-106167219D02*
X116649374Y-106167219D01*
X116649374Y-106167219D02*
X116554136Y-106214838D01*
X116554136Y-106214838D02*
X116458898Y-106310076D01*
X116458898Y-106310076D02*
X116411279Y-106500552D01*
X116411279Y-106500552D02*
X116411279Y-106833885D01*
X116411279Y-106833885D02*
X116458898Y-107024361D01*
X116458898Y-107024361D02*
X116554136Y-107119600D01*
X116554136Y-107119600D02*
X116649374Y-107167219D01*
X116649374Y-107167219D02*
X116839850Y-107167219D01*
X115411279Y-107071980D02*
X115458898Y-107119600D01*
X115458898Y-107119600D02*
X115601755Y-107167219D01*
X115601755Y-107167219D02*
X115696993Y-107167219D01*
X115696993Y-107167219D02*
X115839850Y-107119600D01*
X115839850Y-107119600D02*
X115935088Y-107024361D01*
X115935088Y-107024361D02*
X115982707Y-106929123D01*
X115982707Y-106929123D02*
X116030326Y-106738647D01*
X116030326Y-106738647D02*
X116030326Y-106595790D01*
X116030326Y-106595790D02*
X115982707Y-106405314D01*
X115982707Y-106405314D02*
X115935088Y-106310076D01*
X115935088Y-106310076D02*
X115839850Y-106214838D01*
X115839850Y-106214838D02*
X115696993Y-106167219D01*
X115696993Y-106167219D02*
X115601755Y-106167219D01*
X115601755Y-106167219D02*
X115458898Y-106214838D01*
X115458898Y-106214838D02*
X115411279Y-106262457D01*
X124277945Y-105919600D02*
X124135088Y-105967219D01*
X124135088Y-105967219D02*
X123896993Y-105967219D01*
X123896993Y-105967219D02*
X123801755Y-105919600D01*
X123801755Y-105919600D02*
X123754136Y-105871980D01*
X123754136Y-105871980D02*
X123706517Y-105776742D01*
X123706517Y-105776742D02*
X123706517Y-105681504D01*
X123706517Y-105681504D02*
X123754136Y-105586266D01*
X123754136Y-105586266D02*
X123801755Y-105538647D01*
X123801755Y-105538647D02*
X123896993Y-105491028D01*
X123896993Y-105491028D02*
X124087469Y-105443409D01*
X124087469Y-105443409D02*
X124182707Y-105395790D01*
X124182707Y-105395790D02*
X124230326Y-105348171D01*
X124230326Y-105348171D02*
X124277945Y-105252933D01*
X124277945Y-105252933D02*
X124277945Y-105157695D01*
X124277945Y-105157695D02*
X124230326Y-105062457D01*
X124230326Y-105062457D02*
X124182707Y-105014838D01*
X124182707Y-105014838D02*
X124087469Y-104967219D01*
X124087469Y-104967219D02*
X123849374Y-104967219D01*
X123849374Y-104967219D02*
X123706517Y-105014838D01*
X123277945Y-105967219D02*
X123277945Y-104967219D01*
X123277945Y-104967219D02*
X122706517Y-105967219D01*
X122706517Y-105967219D02*
X122706517Y-104967219D01*
X165630326Y-101257275D02*
X165630326Y-100257275D01*
X165630326Y-100257275D02*
X165392231Y-100257275D01*
X165392231Y-100257275D02*
X165249374Y-100304894D01*
X165249374Y-100304894D02*
X165154136Y-100400132D01*
X165154136Y-100400132D02*
X165106517Y-100495370D01*
X165106517Y-100495370D02*
X165058898Y-100685846D01*
X165058898Y-100685846D02*
X165058898Y-100828703D01*
X165058898Y-100828703D02*
X165106517Y-101019179D01*
X165106517Y-101019179D02*
X165154136Y-101114417D01*
X165154136Y-101114417D02*
X165249374Y-101209656D01*
X165249374Y-101209656D02*
X165392231Y-101257275D01*
X165392231Y-101257275D02*
X165630326Y-101257275D01*
X164630326Y-100733465D02*
X164296993Y-100733465D01*
X164154136Y-101257275D02*
X164630326Y-101257275D01*
X164630326Y-101257275D02*
X164630326Y-100257275D01*
X164630326Y-100257275D02*
X164154136Y-100257275D01*
X163868421Y-100257275D02*
X163535088Y-101257275D01*
X163535088Y-101257275D02*
X163201755Y-100257275D01*
X162868421Y-101257275D02*
X162868421Y-100257275D01*
X161820803Y-101162036D02*
X161868422Y-101209656D01*
X161868422Y-101209656D02*
X162011279Y-101257275D01*
X162011279Y-101257275D02*
X162106517Y-101257275D01*
X162106517Y-101257275D02*
X162249374Y-101209656D01*
X162249374Y-101209656D02*
X162344612Y-101114417D01*
X162344612Y-101114417D02*
X162392231Y-101019179D01*
X162392231Y-101019179D02*
X162439850Y-100828703D01*
X162439850Y-100828703D02*
X162439850Y-100685846D01*
X162439850Y-100685846D02*
X162392231Y-100495370D01*
X162392231Y-100495370D02*
X162344612Y-100400132D01*
X162344612Y-100400132D02*
X162249374Y-100304894D01*
X162249374Y-100304894D02*
X162106517Y-100257275D01*
X162106517Y-100257275D02*
X162011279Y-100257275D01*
X162011279Y-100257275D02*
X161868422Y-100304894D01*
X161868422Y-100304894D02*
X161820803Y-100352513D01*
X161392231Y-100733465D02*
X161058898Y-100733465D01*
X160916041Y-101257275D02*
X161392231Y-101257275D01*
X161392231Y-101257275D02*
X161392231Y-100257275D01*
X161392231Y-100257275D02*
X160916041Y-100257275D01*
X159725564Y-100733465D02*
X159392231Y-100733465D01*
X159249374Y-101257275D02*
X159725564Y-101257275D01*
X159725564Y-101257275D02*
X159725564Y-100257275D01*
X159725564Y-100257275D02*
X159249374Y-100257275D01*
X158868421Y-101209656D02*
X158725564Y-101257275D01*
X158725564Y-101257275D02*
X158487469Y-101257275D01*
X158487469Y-101257275D02*
X158392231Y-101209656D01*
X158392231Y-101209656D02*
X158344612Y-101162036D01*
X158344612Y-101162036D02*
X158296993Y-101066798D01*
X158296993Y-101066798D02*
X158296993Y-100971560D01*
X158296993Y-100971560D02*
X158344612Y-100876322D01*
X158344612Y-100876322D02*
X158392231Y-100828703D01*
X158392231Y-100828703D02*
X158487469Y-100781084D01*
X158487469Y-100781084D02*
X158677945Y-100733465D01*
X158677945Y-100733465D02*
X158773183Y-100685846D01*
X158773183Y-100685846D02*
X158820802Y-100638227D01*
X158820802Y-100638227D02*
X158868421Y-100542989D01*
X158868421Y-100542989D02*
X158868421Y-100447751D01*
X158868421Y-100447751D02*
X158820802Y-100352513D01*
X158820802Y-100352513D02*
X158773183Y-100304894D01*
X158773183Y-100304894D02*
X158677945Y-100257275D01*
X158677945Y-100257275D02*
X158439850Y-100257275D01*
X158439850Y-100257275D02*
X158296993Y-100304894D01*
X157868421Y-101257275D02*
X157868421Y-100257275D01*
X157868421Y-100257275D02*
X157630326Y-100257275D01*
X157630326Y-100257275D02*
X157487469Y-100304894D01*
X157487469Y-100304894D02*
X157392231Y-100400132D01*
X157392231Y-100400132D02*
X157344612Y-100495370D01*
X157344612Y-100495370D02*
X157296993Y-100685846D01*
X157296993Y-100685846D02*
X157296993Y-100828703D01*
X157296993Y-100828703D02*
X157344612Y-101019179D01*
X157344612Y-101019179D02*
X157392231Y-101114417D01*
X157392231Y-101114417D02*
X157487469Y-101209656D01*
X157487469Y-101209656D02*
X157630326Y-101257275D01*
X157630326Y-101257275D02*
X157868421Y-101257275D01*
X165677945Y-102819600D02*
X165535088Y-102867219D01*
X165535088Y-102867219D02*
X165296993Y-102867219D01*
X165296993Y-102867219D02*
X165201755Y-102819600D01*
X165201755Y-102819600D02*
X165154136Y-102771980D01*
X165154136Y-102771980D02*
X165106517Y-102676742D01*
X165106517Y-102676742D02*
X165106517Y-102581504D01*
X165106517Y-102581504D02*
X165154136Y-102486266D01*
X165154136Y-102486266D02*
X165201755Y-102438647D01*
X165201755Y-102438647D02*
X165296993Y-102391028D01*
X165296993Y-102391028D02*
X165487469Y-102343409D01*
X165487469Y-102343409D02*
X165582707Y-102295790D01*
X165582707Y-102295790D02*
X165630326Y-102248171D01*
X165630326Y-102248171D02*
X165677945Y-102152933D01*
X165677945Y-102152933D02*
X165677945Y-102057695D01*
X165677945Y-102057695D02*
X165630326Y-101962457D01*
X165630326Y-101962457D02*
X165582707Y-101914838D01*
X165582707Y-101914838D02*
X165487469Y-101867219D01*
X165487469Y-101867219D02*
X165249374Y-101867219D01*
X165249374Y-101867219D02*
X165106517Y-101914838D01*
X164677945Y-102343409D02*
X164344612Y-102343409D01*
X164201755Y-102867219D02*
X164677945Y-102867219D01*
X164677945Y-102867219D02*
X164677945Y-101867219D01*
X164677945Y-101867219D02*
X164201755Y-101867219D01*
X163773183Y-102867219D02*
X163773183Y-101867219D01*
X163773183Y-101867219D02*
X163201755Y-102867219D01*
X163201755Y-102867219D02*
X163201755Y-101867219D01*
X162773183Y-102819600D02*
X162630326Y-102867219D01*
X162630326Y-102867219D02*
X162392231Y-102867219D01*
X162392231Y-102867219D02*
X162296993Y-102819600D01*
X162296993Y-102819600D02*
X162249374Y-102771980D01*
X162249374Y-102771980D02*
X162201755Y-102676742D01*
X162201755Y-102676742D02*
X162201755Y-102581504D01*
X162201755Y-102581504D02*
X162249374Y-102486266D01*
X162249374Y-102486266D02*
X162296993Y-102438647D01*
X162296993Y-102438647D02*
X162392231Y-102391028D01*
X162392231Y-102391028D02*
X162582707Y-102343409D01*
X162582707Y-102343409D02*
X162677945Y-102295790D01*
X162677945Y-102295790D02*
X162725564Y-102248171D01*
X162725564Y-102248171D02*
X162773183Y-102152933D01*
X162773183Y-102152933D02*
X162773183Y-102057695D01*
X162773183Y-102057695D02*
X162725564Y-101962457D01*
X162725564Y-101962457D02*
X162677945Y-101914838D01*
X162677945Y-101914838D02*
X162582707Y-101867219D01*
X162582707Y-101867219D02*
X162344612Y-101867219D01*
X162344612Y-101867219D02*
X162201755Y-101914838D01*
X161773183Y-102343409D02*
X161439850Y-102343409D01*
X161296993Y-102867219D02*
X161773183Y-102867219D01*
X161773183Y-102867219D02*
X161773183Y-101867219D01*
X161773183Y-101867219D02*
X161296993Y-101867219D01*
X161011278Y-101867219D02*
X160439850Y-101867219D01*
X160725564Y-102867219D02*
X160725564Y-101867219D01*
X160106516Y-102867219D02*
X160106516Y-101867219D01*
X159773183Y-101867219D02*
X159439850Y-102867219D01*
X159439850Y-102867219D02*
X159106517Y-101867219D01*
X158773183Y-102343409D02*
X158439850Y-102343409D01*
X158296993Y-102867219D02*
X158773183Y-102867219D01*
X158773183Y-102867219D02*
X158773183Y-101867219D01*
X158773183Y-101867219D02*
X158296993Y-101867219D01*
D13*
X105892168Y-109666179D02*
X105892168Y-108666179D01*
X105892168Y-108666179D02*
X105558835Y-109380464D01*
X105558835Y-109380464D02*
X105225502Y-108666179D01*
X105225502Y-108666179D02*
X105225502Y-109666179D01*
X104749311Y-109666179D02*
X104749311Y-108666179D01*
X104273121Y-109666179D02*
X104273121Y-108666179D01*
X104273121Y-108666179D02*
X103701693Y-109666179D01*
X103701693Y-109666179D02*
X103701693Y-108666179D01*
X103225502Y-109666179D02*
X103225502Y-108666179D01*
X101987407Y-109666179D02*
X101987407Y-108666179D01*
X101987407Y-108666179D02*
X101654074Y-109380464D01*
X101654074Y-109380464D02*
X101320741Y-108666179D01*
X101320741Y-108666179D02*
X101320741Y-109666179D01*
X100654074Y-108666179D02*
X100463598Y-108666179D01*
X100463598Y-108666179D02*
X100368360Y-108713798D01*
X100368360Y-108713798D02*
X100273122Y-108809036D01*
X100273122Y-108809036D02*
X100225503Y-108999512D01*
X100225503Y-108999512D02*
X100225503Y-109332845D01*
X100225503Y-109332845D02*
X100273122Y-109523321D01*
X100273122Y-109523321D02*
X100368360Y-109618560D01*
X100368360Y-109618560D02*
X100463598Y-109666179D01*
X100463598Y-109666179D02*
X100654074Y-109666179D01*
X100654074Y-109666179D02*
X100749312Y-109618560D01*
X100749312Y-109618560D02*
X100844550Y-109523321D01*
X100844550Y-109523321D02*
X100892169Y-109332845D01*
X100892169Y-109332845D02*
X100892169Y-108999512D01*
X100892169Y-108999512D02*
X100844550Y-108809036D01*
X100844550Y-108809036D02*
X100749312Y-108713798D01*
X100749312Y-108713798D02*
X100654074Y-108666179D01*
X99796931Y-109666179D02*
X99796931Y-108666179D01*
X99796931Y-108666179D02*
X99558836Y-108666179D01*
X99558836Y-108666179D02*
X99415979Y-108713798D01*
X99415979Y-108713798D02*
X99320741Y-108809036D01*
X99320741Y-108809036D02*
X99273122Y-108904274D01*
X99273122Y-108904274D02*
X99225503Y-109094750D01*
X99225503Y-109094750D02*
X99225503Y-109237607D01*
X99225503Y-109237607D02*
X99273122Y-109428083D01*
X99273122Y-109428083D02*
X99320741Y-109523321D01*
X99320741Y-109523321D02*
X99415979Y-109618560D01*
X99415979Y-109618560D02*
X99558836Y-109666179D01*
X99558836Y-109666179D02*
X99796931Y-109666179D01*
X98796931Y-108666179D02*
X98796931Y-109475702D01*
X98796931Y-109475702D02*
X98749312Y-109570940D01*
X98749312Y-109570940D02*
X98701693Y-109618560D01*
X98701693Y-109618560D02*
X98606455Y-109666179D01*
X98606455Y-109666179D02*
X98415979Y-109666179D01*
X98415979Y-109666179D02*
X98320741Y-109618560D01*
X98320741Y-109618560D02*
X98273122Y-109570940D01*
X98273122Y-109570940D02*
X98225503Y-109475702D01*
X98225503Y-109475702D02*
X98225503Y-108666179D01*
X97177884Y-109570940D02*
X97225503Y-109618560D01*
X97225503Y-109618560D02*
X97368360Y-109666179D01*
X97368360Y-109666179D02*
X97463598Y-109666179D01*
X97463598Y-109666179D02*
X97606455Y-109618560D01*
X97606455Y-109618560D02*
X97701693Y-109523321D01*
X97701693Y-109523321D02*
X97749312Y-109428083D01*
X97749312Y-109428083D02*
X97796931Y-109237607D01*
X97796931Y-109237607D02*
X97796931Y-109094750D01*
X97796931Y-109094750D02*
X97749312Y-108904274D01*
X97749312Y-108904274D02*
X97701693Y-108809036D01*
X97701693Y-108809036D02*
X97606455Y-108713798D01*
X97606455Y-108713798D02*
X97463598Y-108666179D01*
X97463598Y-108666179D02*
X97368360Y-108666179D01*
X97368360Y-108666179D02*
X97225503Y-108713798D01*
X97225503Y-108713798D02*
X97177884Y-108761417D01*
X96796931Y-109380464D02*
X96320741Y-109380464D01*
X96892169Y-109666179D02*
X96558836Y-108666179D01*
X96558836Y-108666179D02*
X96225503Y-109666179D01*
X95320741Y-109666179D02*
X95654074Y-109189988D01*
X95892169Y-109666179D02*
X95892169Y-108666179D01*
X95892169Y-108666179D02*
X95511217Y-108666179D01*
X95511217Y-108666179D02*
X95415979Y-108713798D01*
X95415979Y-108713798D02*
X95368360Y-108761417D01*
X95368360Y-108761417D02*
X95320741Y-108856655D01*
X95320741Y-108856655D02*
X95320741Y-108999512D01*
X95320741Y-108999512D02*
X95368360Y-109094750D01*
X95368360Y-109094750D02*
X95415979Y-109142369D01*
X95415979Y-109142369D02*
X95511217Y-109189988D01*
X95511217Y-109189988D02*
X95892169Y-109189988D01*
X94892169Y-109666179D02*
X94892169Y-108666179D01*
X94892169Y-108666179D02*
X94654074Y-108666179D01*
X94654074Y-108666179D02*
X94511217Y-108713798D01*
X94511217Y-108713798D02*
X94415979Y-108809036D01*
X94415979Y-108809036D02*
X94368360Y-108904274D01*
X94368360Y-108904274D02*
X94320741Y-109094750D01*
X94320741Y-109094750D02*
X94320741Y-109237607D01*
X94320741Y-109237607D02*
X94368360Y-109428083D01*
X94368360Y-109428083D02*
X94415979Y-109523321D01*
X94415979Y-109523321D02*
X94511217Y-109618560D01*
X94511217Y-109618560D02*
X94654074Y-109666179D01*
X94654074Y-109666179D02*
X94892169Y-109666179D01*
X93177883Y-109618560D02*
X93035026Y-109666179D01*
X93035026Y-109666179D02*
X92796931Y-109666179D01*
X92796931Y-109666179D02*
X92701693Y-109618560D01*
X92701693Y-109618560D02*
X92654074Y-109570940D01*
X92654074Y-109570940D02*
X92606455Y-109475702D01*
X92606455Y-109475702D02*
X92606455Y-109380464D01*
X92606455Y-109380464D02*
X92654074Y-109285226D01*
X92654074Y-109285226D02*
X92701693Y-109237607D01*
X92701693Y-109237607D02*
X92796931Y-109189988D01*
X92796931Y-109189988D02*
X92987407Y-109142369D01*
X92987407Y-109142369D02*
X93082645Y-109094750D01*
X93082645Y-109094750D02*
X93130264Y-109047131D01*
X93130264Y-109047131D02*
X93177883Y-108951893D01*
X93177883Y-108951893D02*
X93177883Y-108856655D01*
X93177883Y-108856655D02*
X93130264Y-108761417D01*
X93130264Y-108761417D02*
X93082645Y-108713798D01*
X93082645Y-108713798D02*
X92987407Y-108666179D01*
X92987407Y-108666179D02*
X92749312Y-108666179D01*
X92749312Y-108666179D02*
X92606455Y-108713798D01*
X91987407Y-109189988D02*
X91987407Y-109666179D01*
X92320740Y-108666179D02*
X91987407Y-109189988D01*
X91987407Y-109189988D02*
X91654074Y-108666179D01*
X91368359Y-109618560D02*
X91225502Y-109666179D01*
X91225502Y-109666179D02*
X90987407Y-109666179D01*
X90987407Y-109666179D02*
X90892169Y-109618560D01*
X90892169Y-109618560D02*
X90844550Y-109570940D01*
X90844550Y-109570940D02*
X90796931Y-109475702D01*
X90796931Y-109475702D02*
X90796931Y-109380464D01*
X90796931Y-109380464D02*
X90844550Y-109285226D01*
X90844550Y-109285226D02*
X90892169Y-109237607D01*
X90892169Y-109237607D02*
X90987407Y-109189988D01*
X90987407Y-109189988D02*
X91177883Y-109142369D01*
X91177883Y-109142369D02*
X91273121Y-109094750D01*
X91273121Y-109094750D02*
X91320740Y-109047131D01*
X91320740Y-109047131D02*
X91368359Y-108951893D01*
X91368359Y-108951893D02*
X91368359Y-108856655D01*
X91368359Y-108856655D02*
X91320740Y-108761417D01*
X91320740Y-108761417D02*
X91273121Y-108713798D01*
X91273121Y-108713798D02*
X91177883Y-108666179D01*
X91177883Y-108666179D02*
X90939788Y-108666179D01*
X90939788Y-108666179D02*
X90796931Y-108713798D01*
X90511216Y-108666179D02*
X89939788Y-108666179D01*
X90225502Y-109666179D02*
X90225502Y-108666179D01*
X89606454Y-109142369D02*
X89273121Y-109142369D01*
X89130264Y-109666179D02*
X89606454Y-109666179D01*
X89606454Y-109666179D02*
X89606454Y-108666179D01*
X89606454Y-108666179D02*
X89130264Y-108666179D01*
X88701692Y-109666179D02*
X88701692Y-108666179D01*
X88701692Y-108666179D02*
X88368359Y-109380464D01*
X88368359Y-109380464D02*
X88035026Y-108666179D01*
X88035026Y-108666179D02*
X88035026Y-109666179D01*
D14*
G36*
X106154797Y-102547906D02*
G01*
X104119033Y-102547906D01*
X103333487Y-105589340D01*
X102551299Y-102547906D01*
X100522557Y-102547906D01*
X100522557Y-107550000D01*
X101786209Y-107550000D01*
X101786209Y-103731263D01*
X102766538Y-107550000D01*
X103910816Y-107550000D01*
X104887482Y-103731263D01*
X104887482Y-107550000D01*
X106154797Y-107550000D01*
X106154797Y-102547906D01*
G37*
G36*
X99550471Y-102547906D02*
G01*
X97514706Y-102547906D01*
X96729160Y-105589340D01*
X95946973Y-102547906D01*
X93918230Y-102547906D01*
X93918230Y-107550000D01*
X95181882Y-107550000D01*
X95181882Y-103731263D01*
X96162212Y-107550000D01*
X97306489Y-107550000D01*
X98283155Y-103731263D01*
X98283155Y-107550000D01*
X99550471Y-107550000D01*
X99550471Y-102547906D01*
G37*
G36*
X93198935Y-105883958D02*
G01*
X91726762Y-105791451D01*
X91679646Y-106027428D01*
X91613483Y-106206296D01*
X91531978Y-106339471D01*
X91401630Y-106471340D01*
X91247866Y-106565438D01*
X91066007Y-106623850D01*
X90849014Y-106644469D01*
X90633247Y-106625052D01*
X90466725Y-106572069D01*
X90338546Y-106489986D01*
X90236166Y-106377717D01*
X90178207Y-106259736D01*
X90159028Y-106131864D01*
X90177136Y-106010071D01*
X90232160Y-105895849D01*
X90329692Y-105785345D01*
X90457918Y-105702599D01*
X90703326Y-105606199D01*
X91122260Y-105496833D01*
X91647697Y-105357294D01*
X92050760Y-105207568D01*
X92353096Y-105051566D01*
X92573674Y-104891721D01*
X92766460Y-104687948D01*
X92901213Y-104463021D01*
X92982768Y-104212380D01*
X93010868Y-103929099D01*
X92986354Y-103679313D01*
X92912716Y-103438592D01*
X92787081Y-103202782D01*
X92618273Y-102996449D01*
X92396908Y-102817484D01*
X92114192Y-102665448D01*
X91807786Y-102563914D01*
X91404876Y-102495321D01*
X90882903Y-102469748D01*
X90392422Y-102496478D01*
X89995107Y-102569913D01*
X89675292Y-102681956D01*
X89419583Y-102827564D01*
X89200398Y-103024557D01*
X89027298Y-103273149D01*
X88899149Y-103582646D01*
X88819966Y-103966346D01*
X90278401Y-104052442D01*
X90335889Y-103833586D01*
X90418261Y-103672577D01*
X90522644Y-103556934D01*
X90655127Y-103474273D01*
X90823277Y-103421366D01*
X91036775Y-103402145D01*
X91284485Y-103433838D01*
X91443440Y-103516024D01*
X91546556Y-103643518D01*
X91579911Y-103792629D01*
X91553334Y-103902377D01*
X91467254Y-104006341D01*
X91316663Y-104088992D01*
X90947932Y-104189829D01*
X90267142Y-104353872D01*
X89799362Y-104500619D01*
X89494687Y-104630076D01*
X89218020Y-104798064D01*
X89008577Y-104982152D01*
X88855992Y-105182676D01*
X88745469Y-105409820D01*
X88678766Y-105654312D01*
X88656018Y-105920594D01*
X88685712Y-106232444D01*
X88773907Y-106525481D01*
X88922548Y-106805059D01*
X89121509Y-107051084D01*
X89367634Y-107255032D01*
X89667184Y-107419024D01*
X89992748Y-107529926D01*
X90390051Y-107602072D01*
X90872827Y-107628157D01*
X91415991Y-107602403D01*
X91846292Y-107532482D01*
X92183236Y-107427621D01*
X92443830Y-107294288D01*
X92642062Y-107135703D01*
X92859460Y-106875476D01*
X93023977Y-106583747D01*
X93137597Y-106255511D01*
X93198935Y-105883958D01*
G37*
G36*
X85145359Y-104947676D02*
G01*
X85291834Y-104842277D01*
X85378367Y-104739092D01*
X85426165Y-104607206D01*
X85446266Y-104372728D01*
X85408436Y-104152789D01*
X85290986Y-103941864D01*
X85075994Y-103731835D01*
X84816134Y-103565983D01*
X84475194Y-103415826D01*
X84036008Y-103285359D01*
X83345019Y-103166749D01*
X82539776Y-103124647D01*
X81955650Y-103167053D01*
X81522786Y-103279773D01*
X81206699Y-103447536D01*
X80960789Y-103692388D01*
X80811761Y-104002551D01*
X80758757Y-104399106D01*
X80802181Y-104754610D01*
X80927773Y-105058562D01*
X81139541Y-105322930D01*
X81482205Y-105585150D01*
X81820073Y-105728633D01*
X82662345Y-105963752D01*
X84354012Y-106329113D01*
X83642466Y-106405678D01*
X83097627Y-106518157D01*
X82621819Y-106702466D01*
X82274040Y-106952909D01*
X82106421Y-107167505D01*
X82003330Y-107429014D01*
X81966782Y-107751095D01*
X82014790Y-108099227D01*
X82165227Y-108457219D01*
X82437194Y-108835533D01*
X82776644Y-109160847D01*
X83208081Y-109456074D01*
X83746824Y-109719692D01*
X84315776Y-109908694D01*
X84934558Y-110025019D01*
X85610886Y-110065052D01*
X86099219Y-110035036D01*
X86473679Y-109954412D01*
X86757362Y-109833998D01*
X86996097Y-109654501D01*
X87125490Y-109460123D01*
X87167690Y-109241953D01*
X87136544Y-109035541D01*
X87034822Y-108803782D01*
X86888042Y-108587293D01*
X86718771Y-108405666D01*
X86534593Y-108272732D01*
X86403210Y-108237627D01*
X86332320Y-108256691D01*
X86311374Y-108307480D01*
X86369016Y-108462819D01*
X86420795Y-108574193D01*
X86372160Y-108675615D01*
X86173133Y-108786196D01*
X85905207Y-108851846D01*
X85529309Y-108877055D01*
X84990682Y-108846029D01*
X84472714Y-108753956D01*
X83978026Y-108608631D01*
X83554849Y-108431556D01*
X83178082Y-108216848D01*
X82915422Y-108009993D01*
X82730608Y-107782426D01*
X82680949Y-107607969D01*
X82729605Y-107396945D01*
X82877021Y-107232245D01*
X83157711Y-107105317D01*
X83696970Y-107009993D01*
X84610956Y-106970006D01*
X85252337Y-107019832D01*
X85550802Y-107069169D01*
X85620274Y-107047684D01*
X85648499Y-106932393D01*
X85622664Y-106704462D01*
X85529797Y-106378939D01*
X85388409Y-106081428D01*
X85247941Y-105934905D01*
X85078277Y-105873793D01*
X84481507Y-105752700D01*
X83338939Y-105536301D01*
X82842078Y-105408299D01*
X82200767Y-105194849D01*
X81823928Y-105017140D01*
X81584787Y-104834836D01*
X81423933Y-104626568D01*
X81380600Y-104468471D01*
X81424638Y-104318533D01*
X81568323Y-104196723D01*
X81868432Y-104102764D01*
X82419609Y-104062540D01*
X82928455Y-104078353D01*
X83417585Y-104125066D01*
X83874745Y-104199309D01*
X84172784Y-104276008D01*
X84398907Y-104375094D01*
X84442428Y-104434766D01*
X84389183Y-104539302D01*
X84279274Y-104601339D01*
X84092184Y-104665819D01*
X84019399Y-104717110D01*
X83983251Y-104806503D01*
X84037991Y-104870595D01*
X84321966Y-104931621D01*
X85145359Y-104947676D01*
G37*
G36*
X133384612Y-103195729D02*
G01*
X133386688Y-103253248D01*
X133392916Y-103293792D01*
X133403785Y-103322857D01*
X133425645Y-103350701D01*
X133483653Y-103391123D01*
X133588799Y-103438506D01*
X133730949Y-103476120D01*
X133812606Y-103487346D01*
X133903750Y-103491263D01*
X134023884Y-103484707D01*
X134132712Y-103465762D01*
X134231646Y-103435209D01*
X134324889Y-103391244D01*
X134407399Y-103335499D01*
X134480286Y-103267536D01*
X134541968Y-103188951D01*
X134594440Y-103096712D01*
X134637456Y-102988977D01*
X134666829Y-102876323D01*
X134685472Y-102747457D01*
X134692044Y-102600143D01*
X134684897Y-102450333D01*
X134664465Y-102317274D01*
X134631960Y-102198974D01*
X134585253Y-102085767D01*
X134529162Y-101988256D01*
X134463921Y-101904661D01*
X134387216Y-101831707D01*
X134301247Y-101771687D01*
X134205024Y-101724043D01*
X134102655Y-101690229D01*
X133992154Y-101669487D01*
X133872243Y-101662372D01*
X133730216Y-101674951D01*
X133603820Y-101707801D01*
X133499284Y-101754452D01*
X133434438Y-101799881D01*
X133409159Y-101831022D01*
X133398290Y-101862651D01*
X133392062Y-101907958D01*
X133389986Y-101972438D01*
X133392794Y-102042536D01*
X133402320Y-102089187D01*
X133418684Y-102115321D01*
X133440544Y-102123503D01*
X133461502Y-102118480D01*
X133492445Y-102099323D01*
X133573778Y-102045345D01*
X133692602Y-101991367D01*
X133765398Y-101973661D01*
X133857222Y-101967187D01*
X133958254Y-101978291D01*
X134045167Y-102010296D01*
X134121194Y-102062087D01*
X134185973Y-102133272D01*
X134236036Y-102219545D01*
X134274023Y-102326713D01*
X134296180Y-102444196D01*
X134304064Y-102582313D01*
X134295449Y-102732550D01*
X134271946Y-102852323D01*
X134231716Y-102959001D01*
X134180478Y-103040268D01*
X134114562Y-103104891D01*
X134036985Y-103150300D01*
X133949301Y-103177093D01*
X133847697Y-103186448D01*
X133755683Y-103180526D01*
X133682466Y-103164344D01*
X133562909Y-103115495D01*
X133480966Y-103067257D01*
X133449876Y-103050083D01*
X133431018Y-103045764D01*
X133409159Y-103051259D01*
X133395603Y-103072875D01*
X133387421Y-103118060D01*
X133384612Y-103195729D01*
G37*
G36*
X131982780Y-103413105D02*
G01*
X131990963Y-103437041D01*
X132018318Y-103454138D01*
X132070952Y-103464396D01*
X132153506Y-103467815D01*
X132237648Y-103464396D01*
X132290282Y-103454138D01*
X132317515Y-103437041D01*
X132325697Y-103412983D01*
X132325697Y-102715547D01*
X132329433Y-102631210D01*
X132338764Y-102575718D01*
X132355030Y-102527670D01*
X132376256Y-102488768D01*
X132404423Y-102456512D01*
X132439759Y-102432592D01*
X132480981Y-102417878D01*
X132530617Y-102412686D01*
X132594603Y-102423996D01*
X132663119Y-102460680D01*
X132728174Y-102516313D01*
X132802459Y-102600387D01*
X132802459Y-103412983D01*
X132810642Y-103437041D01*
X132838729Y-103454138D01*
X132891364Y-103464396D01*
X132974528Y-103467815D01*
X133057937Y-103464396D01*
X133110572Y-103454138D01*
X133138538Y-103437163D01*
X133146720Y-103413227D01*
X133146720Y-101619385D01*
X133138538Y-101594961D01*
X133110572Y-101576521D01*
X133057937Y-101564919D01*
X132974528Y-101560767D01*
X132891364Y-101564919D01*
X132838729Y-101576399D01*
X132810642Y-101594717D01*
X132802459Y-101619263D01*
X132802459Y-102289344D01*
X132710481Y-102211245D01*
X132621475Y-102158796D01*
X132527148Y-102126412D01*
X132429501Y-102115687D01*
X132311269Y-102126674D01*
X132219818Y-102156720D01*
X132142057Y-102205736D01*
X132081821Y-102268827D01*
X132037014Y-102344861D01*
X132005983Y-102434912D01*
X131989091Y-102535064D01*
X131982780Y-102665233D01*
X131982780Y-103413105D01*
G37*
G36*
X131300610Y-102128998D02*
G01*
X131440561Y-102163192D01*
X131552669Y-102208499D01*
X131619591Y-102252463D01*
X131645481Y-102296304D01*
X131652320Y-102362372D01*
X131648290Y-102419036D01*
X131636688Y-102462267D01*
X131617515Y-102489256D01*
X131590893Y-102498660D01*
X131568046Y-102494552D01*
X131534228Y-102479242D01*
X131447400Y-102436133D01*
X131327843Y-102393147D01*
X131257571Y-102378745D01*
X131174214Y-102373607D01*
X131111435Y-102377377D01*
X131064183Y-102387407D01*
X131023439Y-102405446D01*
X130993108Y-102430150D01*
X130970562Y-102462120D01*
X130954884Y-102502568D01*
X130943283Y-102603928D01*
X130943283Y-102678422D01*
X131062107Y-102678422D01*
X131219753Y-102685021D01*
X131347749Y-102703091D01*
X131463992Y-102735599D01*
X131553401Y-102779050D01*
X131626505Y-102837899D01*
X131677721Y-102908988D01*
X131708473Y-102992544D01*
X131719364Y-103094368D01*
X131710768Y-103188907D01*
X131686636Y-103266803D01*
X131646926Y-103335017D01*
X131594434Y-103390635D01*
X131530291Y-103433989D01*
X131453628Y-103465861D01*
X131369816Y-103484707D01*
X131275331Y-103491263D01*
X131161833Y-103479690D01*
X131061496Y-103446078D01*
X130970814Y-103392302D01*
X130890038Y-103320293D01*
X130890038Y-103417257D01*
X130878436Y-103447421D01*
X130838869Y-103463053D01*
X130749354Y-103467815D01*
X130662648Y-103463053D01*
X130619539Y-103447421D01*
X130605861Y-103417257D01*
X130605861Y-103104504D01*
X130943283Y-103104504D01*
X131007979Y-103168858D01*
X131066992Y-103212215D01*
X131130553Y-103239741D01*
X131200226Y-103248974D01*
X131279346Y-103237270D01*
X131334804Y-103205376D01*
X131370654Y-103154816D01*
X131383286Y-103085331D01*
X131378851Y-103042211D01*
X131366189Y-103005708D01*
X131344593Y-102973961D01*
X131312212Y-102946357D01*
X131271744Y-102925624D01*
X131216591Y-102909598D01*
X131154764Y-102900622D01*
X131074441Y-102897264D01*
X130943283Y-102897264D01*
X130943283Y-103104504D01*
X130605861Y-103104504D01*
X130605861Y-102596967D01*
X130613901Y-102475978D01*
X130635903Y-102379591D01*
X130675395Y-102295483D01*
X130731524Y-102229870D01*
X130804213Y-102180295D01*
X130898953Y-102143775D01*
X131006163Y-102123290D01*
X131144173Y-102115687D01*
X131300610Y-102128998D01*
G37*
G36*
X129918440Y-103413105D02*
G01*
X129926622Y-103437041D01*
X129954710Y-103454138D01*
X130007344Y-103464396D01*
X130090509Y-103467815D01*
X130173918Y-103464396D01*
X130226552Y-103454138D01*
X130254518Y-103437041D01*
X130262700Y-103413105D01*
X130262700Y-102196531D01*
X130254518Y-102172595D01*
X130226552Y-102154888D01*
X130173918Y-102143286D01*
X130090509Y-102139134D01*
X130007344Y-102143286D01*
X129954710Y-102154888D01*
X129926622Y-102172595D01*
X129918440Y-102196531D01*
X129918440Y-103413105D01*
G37*
G36*
X129892550Y-101784738D02*
G01*
X129898363Y-101852594D01*
X129913271Y-101898167D01*
X129934926Y-101927742D01*
X129988261Y-101955415D01*
X130091974Y-101967187D01*
X130196805Y-101955656D01*
X130248412Y-101929085D01*
X130276974Y-101880993D01*
X130288712Y-101791454D01*
X130276597Y-101698276D01*
X130247069Y-101647840D01*
X130216222Y-101627723D01*
X130166293Y-101613377D01*
X130089288Y-101607662D01*
X129985632Y-101619332D01*
X129933583Y-101646496D01*
X129904440Y-101695267D01*
X129892550Y-101784738D01*
G37*
G36*
X128412927Y-103413105D02*
G01*
X128421109Y-103437041D01*
X128448464Y-103454138D01*
X128501099Y-103464396D01*
X128583653Y-103467815D01*
X128667794Y-103464396D01*
X128720429Y-103454138D01*
X128747662Y-103437041D01*
X128755844Y-103412983D01*
X128755844Y-102715547D01*
X128759580Y-102631210D01*
X128768911Y-102575718D01*
X128785177Y-102527670D01*
X128806402Y-102488768D01*
X128834569Y-102456512D01*
X128869905Y-102432592D01*
X128911128Y-102417878D01*
X128960764Y-102412686D01*
X129024750Y-102423996D01*
X129093265Y-102460680D01*
X129158320Y-102516313D01*
X129232606Y-102600387D01*
X129232606Y-103412983D01*
X129240788Y-103437041D01*
X129268876Y-103454138D01*
X129321510Y-103464396D01*
X129404675Y-103467815D01*
X129488084Y-103464396D01*
X129540718Y-103454138D01*
X129568684Y-103437041D01*
X129576866Y-103413105D01*
X129576866Y-102193845D01*
X129570027Y-102169909D01*
X129545481Y-102152812D01*
X129499685Y-102142554D01*
X129429344Y-102139134D01*
X129356926Y-102142554D01*
X129312595Y-102152812D01*
X129290003Y-102169909D01*
X129283164Y-102193845D01*
X129283164Y-102334651D01*
X129178124Y-102236352D01*
X129077634Y-102170397D01*
X128970345Y-102129233D01*
X128859647Y-102115687D01*
X128741416Y-102126674D01*
X128649965Y-102156720D01*
X128572156Y-102205619D01*
X128511967Y-102268217D01*
X128467163Y-102343551D01*
X128436130Y-102432958D01*
X128419217Y-102532154D01*
X128412927Y-102659860D01*
X128412927Y-103413105D01*
G37*
G36*
X127989367Y-101700470D02*
G01*
X128023237Y-101720258D01*
X128045398Y-101752984D01*
X128053890Y-101806964D01*
X128053890Y-103346671D01*
X128045398Y-103400650D01*
X128023237Y-103433377D01*
X127989367Y-103453165D01*
X127947278Y-103460000D01*
X127477355Y-103460000D01*
X127373221Y-103456594D01*
X127284036Y-103447055D01*
X127199015Y-103430343D01*
X127120760Y-103406877D01*
X127046914Y-103375527D01*
X126980687Y-103337267D01*
X126921440Y-103290673D01*
X126871388Y-103236273D01*
X126830914Y-103173785D01*
X126799703Y-103101207D01*
X126780446Y-103021967D01*
X126774720Y-102944525D01*
X127146650Y-102944525D01*
X127152162Y-103000659D01*
X127167899Y-103048450D01*
X127193271Y-103090436D01*
X127226639Y-103124654D01*
X127267017Y-103151166D01*
X127315422Y-103170816D01*
X127369756Y-103182181D01*
X127441695Y-103186448D01*
X127701325Y-103186448D01*
X127701325Y-102686238D01*
X127488224Y-102686238D01*
X127394508Y-102691185D01*
X127328367Y-102703946D01*
X127270903Y-102726024D01*
X127227250Y-102754260D01*
X127192527Y-102790665D01*
X127167166Y-102835104D01*
X127151978Y-102885526D01*
X127146650Y-102944525D01*
X126774720Y-102944525D01*
X126773691Y-102930603D01*
X126780792Y-102843490D01*
X126801046Y-102768304D01*
X126833602Y-102700031D01*
X126875418Y-102642152D01*
X126926631Y-102593189D01*
X126986182Y-102554103D01*
X127052103Y-102525296D01*
X127124790Y-102506353D01*
X127068789Y-102480801D01*
X127020254Y-102448956D01*
X126977903Y-102410533D01*
X126943073Y-102367013D01*
X126915592Y-102318362D01*
X126895324Y-102263942D01*
X126883045Y-102206010D01*
X126881604Y-102184441D01*
X127238241Y-102184441D01*
X127253262Y-102275666D01*
X127272290Y-102316292D01*
X127299057Y-102351259D01*
X127333114Y-102379707D01*
X127376238Y-102402062D01*
X127426880Y-102415332D01*
X127500558Y-102420502D01*
X127701325Y-102420502D01*
X127701325Y-101959371D01*
X127519609Y-101959371D01*
X127440586Y-101963642D01*
X127386496Y-101974515D01*
X127339878Y-101993346D01*
X127303820Y-102017745D01*
X127275257Y-102049229D01*
X127254605Y-102088454D01*
X127242498Y-102132736D01*
X127238241Y-102184441D01*
X126881604Y-102184441D01*
X126878838Y-102143042D01*
X126889618Y-102033289D01*
X126919870Y-101943618D01*
X126969806Y-101866310D01*
X127038084Y-101803545D01*
X127121757Y-101756292D01*
X127227983Y-101720990D01*
X127347029Y-101701099D01*
X127503244Y-101693635D01*
X127947278Y-101693635D01*
X127989367Y-101700470D01*
G37*
G36*
X125349511Y-103413105D02*
G01*
X125356350Y-103437041D01*
X125380286Y-103454138D01*
X125425348Y-103464396D01*
X125495690Y-103467815D01*
X125568841Y-103464396D01*
X125613171Y-103454138D01*
X125636374Y-103437041D01*
X125643213Y-103413105D01*
X125643213Y-103272299D01*
X125748257Y-103370514D01*
X125848866Y-103436552D01*
X125955870Y-103477753D01*
X126065387Y-103491263D01*
X126184803Y-103480244D01*
X126276413Y-103450230D01*
X126354174Y-103401214D01*
X126414410Y-103338122D01*
X126459139Y-103262262D01*
X126489637Y-103173381D01*
X126505926Y-103073944D01*
X126512107Y-102940251D01*
X126512107Y-102193845D01*
X126504658Y-102169909D01*
X126477302Y-102152812D01*
X126424057Y-102142554D01*
X126341381Y-102139134D01*
X126258094Y-102142554D01*
X126205460Y-102152812D01*
X126177372Y-102170031D01*
X126169190Y-102193967D01*
X126169190Y-102884563D01*
X126165640Y-102974896D01*
X126156978Y-103031231D01*
X126141023Y-103079226D01*
X126119364Y-103118304D01*
X126090625Y-103150519D01*
X126055129Y-103174480D01*
X126013913Y-103189102D01*
X125964270Y-103194263D01*
X125900426Y-103182827D01*
X125832501Y-103145781D01*
X125767481Y-103089593D01*
X125691085Y-103004364D01*
X125691085Y-102193845D01*
X125683635Y-102169909D01*
X125656280Y-102152812D01*
X125603646Y-102142554D01*
X125520237Y-102139134D01*
X125437072Y-102142554D01*
X125385048Y-102152812D01*
X125357693Y-102169909D01*
X125349511Y-102193845D01*
X125349511Y-103413105D01*
G37*
G36*
X124144783Y-103068722D02*
G01*
X124154919Y-103168357D01*
X124183740Y-103252027D01*
X124230683Y-103324759D01*
X124293771Y-103384651D01*
X124369946Y-103430614D01*
X124461810Y-103464518D01*
X124561311Y-103484377D01*
X124672103Y-103491263D01*
X124802529Y-103481371D01*
X124913904Y-103456336D01*
X124995969Y-103425439D01*
X125043719Y-103395764D01*
X125066922Y-103350823D01*
X125075104Y-103258866D01*
X125072418Y-103194630D01*
X125064235Y-103155917D01*
X125050558Y-103136622D01*
X125030041Y-103131737D01*
X124985711Y-103148712D01*
X124912561Y-103185837D01*
X124810833Y-103223572D01*
X124750429Y-103236541D01*
X124678942Y-103241158D01*
X124596388Y-103231632D01*
X124533496Y-103204277D01*
X124509994Y-103183937D01*
X124493196Y-103159092D01*
X124479518Y-103096078D01*
X124485932Y-103057715D01*
X124504797Y-103025736D01*
X124533357Y-102998821D01*
X124571720Y-102974445D01*
X124665997Y-102933412D01*
X124773953Y-102891036D01*
X124881908Y-102837669D01*
X124931714Y-102804199D01*
X124976064Y-102763907D01*
X125013223Y-102716256D01*
X125042986Y-102658517D01*
X125061520Y-102593269D01*
X125068265Y-102510872D01*
X125059576Y-102426110D01*
X125034193Y-102350160D01*
X124992624Y-102282493D01*
X124935764Y-102225108D01*
X124866049Y-102179699D01*
X124779326Y-102144385D01*
X124683735Y-102123178D01*
X124572330Y-102115687D01*
X124461078Y-102124235D01*
X124363381Y-102145607D01*
X124289619Y-102173206D01*
X124246510Y-102198852D01*
X124228070Y-102219734D01*
X124219888Y-102244159D01*
X124215125Y-102279574D01*
X124213049Y-102331964D01*
X124215125Y-102391926D01*
X124221964Y-102428684D01*
X124234909Y-102447002D01*
X124254082Y-102451765D01*
X124292306Y-102436866D01*
X124357152Y-102404870D01*
X124447400Y-102372875D01*
X124500617Y-102361902D01*
X124564148Y-102357976D01*
X124644870Y-102367623D01*
X124700802Y-102395223D01*
X124733653Y-102437355D01*
X124744521Y-102489012D01*
X124737896Y-102528387D01*
X124718632Y-102560087D01*
X124689434Y-102586432D01*
X124650244Y-102610767D01*
X124554012Y-102651800D01*
X124444713Y-102693443D01*
X124335415Y-102746078D01*
X124284262Y-102779627D01*
X124239061Y-102819961D01*
X124201149Y-102867431D01*
X124170795Y-102924497D01*
X124151676Y-102988836D01*
X124144783Y-103068722D01*
G37*
D15*
G36*
X164092793Y-95266421D02*
G01*
X164092793Y-96279967D01*
X164082901Y-96416072D01*
X164068804Y-96458220D01*
X164050661Y-96483116D01*
X163993875Y-96506197D01*
X163902284Y-96509128D01*
X163902284Y-96567747D01*
X164524737Y-96567747D01*
X164524737Y-96509128D01*
X164419590Y-96500335D01*
X164363536Y-96466264D01*
X164339173Y-96395922D01*
X164334044Y-96279235D01*
X164334044Y-95795451D01*
X164338257Y-95607506D01*
X164352179Y-95506023D01*
X164379473Y-95465356D01*
X164426551Y-95456930D01*
X164467401Y-95462059D01*
X164521806Y-95478912D01*
X164547085Y-95421576D01*
X164161303Y-95266421D01*
X164092793Y-95266421D01*
G37*
G36*
X164213510Y-94609896D02*
G01*
X164156378Y-94620551D01*
X164110012Y-94652028D01*
X164078834Y-94698744D01*
X164068247Y-94756442D01*
X164078655Y-94812481D01*
X164109829Y-94859939D01*
X164156293Y-94892122D01*
X164213510Y-94902987D01*
X164270570Y-94892131D01*
X164317008Y-94859939D01*
X164348182Y-94812481D01*
X164358590Y-94756442D01*
X164348044Y-94698729D01*
X164317008Y-94652028D01*
X164270517Y-94620537D01*
X164213510Y-94609896D01*
G37*
%TO.C,J1*%
D16*
X107560000Y-92888272D02*
X107560000Y-98188272D01*
X107560000Y-92888272D02*
X108130000Y-92888272D01*
X107560000Y-98188272D02*
X108130000Y-98188272D01*
X108130000Y-91498272D02*
X108130000Y-92888272D01*
X109750000Y-92888272D02*
X110670000Y-92888272D01*
X109750000Y-98188272D02*
X110670000Y-98188272D01*
X112290000Y-92888272D02*
X113210000Y-92888272D01*
X112290000Y-98188272D02*
X113210000Y-98188272D01*
X114830000Y-92888272D02*
X115750000Y-92888272D01*
X114830000Y-98188272D02*
X115750000Y-98188272D01*
X117370000Y-92888272D02*
X118290000Y-92888272D01*
X117370000Y-98188272D02*
X118290000Y-98188272D01*
X119910000Y-92888272D02*
X120830000Y-92888272D01*
X119910000Y-98188272D02*
X120830000Y-98188272D01*
X122450000Y-92888272D02*
X123370000Y-92888272D01*
X122450000Y-98188272D02*
X123370000Y-98188272D01*
X124990000Y-92888272D02*
X125910000Y-92888272D01*
X124990000Y-98188272D02*
X125910000Y-98188272D01*
X127530000Y-92888272D02*
X128450000Y-92888272D01*
X127530000Y-98188272D02*
X128450000Y-98188272D01*
X130070000Y-92888272D02*
X130990000Y-92888272D01*
X130070000Y-98188272D02*
X130990000Y-98188272D01*
X132610000Y-92888272D02*
X133530000Y-92888272D01*
X132610000Y-98188272D02*
X133530000Y-98188272D01*
X135150000Y-92888272D02*
X136070000Y-92888272D01*
X135150000Y-98188272D02*
X136070000Y-98188272D01*
X137690000Y-92888272D02*
X138610000Y-92888272D01*
X137690000Y-98188272D02*
X138610000Y-98188272D01*
X140230000Y-92888272D02*
X141150000Y-92888272D01*
X140230000Y-98188272D02*
X141150000Y-98188272D01*
X142770000Y-92888272D02*
X143690000Y-92888272D01*
X142770000Y-98188272D02*
X143690000Y-98188272D01*
X145310000Y-92888272D02*
X146230000Y-92888272D01*
X145310000Y-98188272D02*
X146230000Y-98188272D01*
X147850000Y-92888272D02*
X148420000Y-92888272D01*
X147850000Y-98188272D02*
X148420000Y-98188272D01*
X148420000Y-92888272D02*
X148420000Y-98188272D01*
D17*
%TO.C,G\u002A\u002A\u002A*%
G36*
X169570832Y-95504752D02*
G01*
X169570832Y-95959383D01*
X169116202Y-95959383D01*
X168661571Y-95959383D01*
X168661571Y-95504752D01*
X168661571Y-95050122D01*
X169116202Y-95050122D01*
X169570832Y-95050122D01*
X169570832Y-95504752D01*
G37*
G36*
X169873919Y-99747969D02*
G01*
X169873919Y-99899513D01*
X169722376Y-99899513D01*
X169570832Y-99899513D01*
X169570832Y-99747969D01*
X169570832Y-99596426D01*
X169722376Y-99596426D01*
X169873919Y-99596426D01*
X169873919Y-99747969D01*
G37*
G36*
X170177006Y-101263404D02*
G01*
X170177006Y-101414947D01*
X170025462Y-101414947D01*
X169873919Y-101414947D01*
X169873919Y-101263404D01*
X169873919Y-101111860D01*
X170025462Y-101111860D01*
X170177006Y-101111860D01*
X170177006Y-101263404D01*
G37*
G36*
X170480093Y-98232535D02*
G01*
X170480093Y-98384078D01*
X170328549Y-98384078D01*
X170177006Y-98384078D01*
X170177006Y-98232535D01*
X170177006Y-98080991D01*
X170328549Y-98080991D01*
X170480093Y-98080991D01*
X170480093Y-98232535D01*
G37*
G36*
X170783180Y-94595492D02*
G01*
X170783180Y-94747035D01*
X170631636Y-94747035D01*
X170480093Y-94747035D01*
X170480093Y-94595492D01*
X170480093Y-94443948D01*
X170631636Y-94443948D01*
X170783180Y-94443948D01*
X170783180Y-94595492D01*
G37*
G36*
X171692440Y-95504752D02*
G01*
X171692440Y-95656296D01*
X171540897Y-95656296D01*
X171389353Y-95656296D01*
X171389353Y-95504752D01*
X171389353Y-95353209D01*
X171540897Y-95353209D01*
X171692440Y-95353209D01*
X171692440Y-95504752D01*
G37*
G36*
X172298614Y-95201666D02*
G01*
X172298614Y-95353209D01*
X172147071Y-95353209D01*
X171995527Y-95353209D01*
X171995527Y-95201666D01*
X171995527Y-95050122D01*
X172147071Y-95050122D01*
X172298614Y-95050122D01*
X172298614Y-95201666D01*
G37*
G36*
X172298614Y-98535621D02*
G01*
X172298614Y-98687165D01*
X172147071Y-98687165D01*
X171995527Y-98687165D01*
X171995527Y-98535621D01*
X171995527Y-98384078D01*
X172147071Y-98384078D01*
X172298614Y-98384078D01*
X172298614Y-98535621D01*
G37*
G36*
X173510962Y-98838708D02*
G01*
X173510962Y-98990252D01*
X173359418Y-98990252D01*
X173207875Y-98990252D01*
X173207875Y-98838708D01*
X173207875Y-98687165D01*
X173359418Y-98687165D01*
X173510962Y-98687165D01*
X173510962Y-98838708D01*
G37*
G36*
X174420222Y-96414013D02*
G01*
X174420222Y-96565557D01*
X174268679Y-96565557D01*
X174117136Y-96565557D01*
X174117136Y-96414013D01*
X174117136Y-96262470D01*
X174268679Y-96262470D01*
X174420222Y-96262470D01*
X174420222Y-96414013D01*
G37*
G36*
X174723309Y-98535621D02*
G01*
X174723309Y-98687165D01*
X174571766Y-98687165D01*
X174420222Y-98687165D01*
X174420222Y-98535621D01*
X174420222Y-98384078D01*
X174571766Y-98384078D01*
X174723309Y-98384078D01*
X174723309Y-98535621D01*
G37*
G36*
X175026396Y-98232535D02*
G01*
X175026396Y-98384078D01*
X174874853Y-98384078D01*
X174723309Y-98384078D01*
X174723309Y-98232535D01*
X174723309Y-98080991D01*
X174874853Y-98080991D01*
X175026396Y-98080991D01*
X175026396Y-98232535D01*
G37*
G36*
X176238744Y-95504752D02*
G01*
X176238744Y-95959383D01*
X175784114Y-95959383D01*
X175329483Y-95959383D01*
X175329483Y-95504752D01*
X175329483Y-95050122D01*
X175784114Y-95050122D01*
X176238744Y-95050122D01*
X176238744Y-95504752D01*
G37*
G36*
X176238744Y-102172664D02*
G01*
X176238744Y-102627295D01*
X175784114Y-102627295D01*
X175329483Y-102627295D01*
X175329483Y-102172664D01*
X175329483Y-101718034D01*
X175784114Y-101718034D01*
X176238744Y-101718034D01*
X176238744Y-102172664D01*
G37*
G36*
X175935657Y-100505686D02*
G01*
X175935657Y-100808773D01*
X175784114Y-100808773D01*
X175632570Y-100808773D01*
X175632570Y-100505686D01*
X175632570Y-100202599D01*
X175784114Y-100202599D01*
X175935657Y-100202599D01*
X175935657Y-100505686D01*
G37*
G36*
X176541831Y-100657230D02*
G01*
X176541831Y-100808773D01*
X176390287Y-100808773D01*
X176238744Y-100808773D01*
X176238744Y-100657230D01*
X176238744Y-100505686D01*
X176390287Y-100505686D01*
X176541831Y-100505686D01*
X176541831Y-100657230D01*
G37*
G36*
X171389353Y-94595492D02*
G01*
X171389353Y-94747035D01*
X171540897Y-94747035D01*
X171692440Y-94747035D01*
X171692440Y-94898579D01*
X171692440Y-95050122D01*
X171389353Y-95050122D01*
X171086267Y-95050122D01*
X171086267Y-94747035D01*
X171086267Y-94443948D01*
X171237810Y-94443948D01*
X171389353Y-94443948D01*
X171389353Y-94595492D01*
G37*
G36*
X168510028Y-102627295D02*
G01*
X168661571Y-102627295D01*
X168661571Y-102930382D01*
X168661571Y-103233468D01*
X168510028Y-103233468D01*
X168358484Y-103233468D01*
X168358484Y-102930382D01*
X168358484Y-102627295D01*
X168510028Y-102627295D01*
G37*
G36*
X168358484Y-102475751D02*
G01*
X168358484Y-102627295D01*
X168206941Y-102627295D01*
X168055398Y-102627295D01*
X168055398Y-102475751D01*
X168055398Y-102324208D01*
X168206941Y-102324208D01*
X168358484Y-102324208D01*
X168358484Y-102475751D01*
G37*
G36*
X172601701Y-102475751D02*
G01*
X172601701Y-102627295D01*
X172753245Y-102627295D01*
X172904788Y-102627295D01*
X172904788Y-102930382D01*
X172904788Y-103233468D01*
X172753245Y-103233468D01*
X172601701Y-103233468D01*
X172601701Y-103081925D01*
X172601701Y-102930382D01*
X172450158Y-102930382D01*
X172298614Y-102930382D01*
X172298614Y-102627295D01*
X172298614Y-102324208D01*
X172450158Y-102324208D01*
X172601701Y-102324208D01*
X172601701Y-102475751D01*
G37*
G36*
X170177006Y-96565557D02*
G01*
X169116202Y-96565557D01*
X168055398Y-96565557D01*
X168055398Y-95504752D01*
X168055398Y-94747035D01*
X168358484Y-94747035D01*
X168358484Y-95504752D01*
X168358484Y-96262470D01*
X169116202Y-96262470D01*
X169873919Y-96262470D01*
X169873919Y-95504752D01*
X169873919Y-94747035D01*
X169116202Y-94747035D01*
X168358484Y-94747035D01*
X168055398Y-94747035D01*
X168055398Y-94443948D01*
X169116202Y-94443948D01*
X170177006Y-94443948D01*
X170177006Y-95504752D01*
X170177006Y-96565557D01*
G37*
G36*
X176844918Y-96565557D02*
G01*
X175784114Y-96565557D01*
X174723309Y-96565557D01*
X174723309Y-95504752D01*
X174723309Y-94747035D01*
X175026396Y-94747035D01*
X175026396Y-95504752D01*
X175026396Y-96262470D01*
X175784114Y-96262470D01*
X176541831Y-96262470D01*
X176541831Y-95504752D01*
X176541831Y-94747035D01*
X175784114Y-94747035D01*
X175026396Y-94747035D01*
X174723309Y-94747035D01*
X174723309Y-94443948D01*
X175784114Y-94443948D01*
X176844918Y-94443948D01*
X176844918Y-95504752D01*
X176844918Y-96565557D01*
G37*
G36*
X176844918Y-103233468D02*
G01*
X175784114Y-103233468D01*
X174723309Y-103233468D01*
X174723309Y-102172664D01*
X174723309Y-101414947D01*
X175026396Y-101414947D01*
X175026396Y-102172664D01*
X175026396Y-102930382D01*
X175784114Y-102930382D01*
X176541831Y-102930382D01*
X176541831Y-102172664D01*
X176541831Y-101414947D01*
X175784114Y-101414947D01*
X175026396Y-101414947D01*
X174723309Y-101414947D01*
X174723309Y-101111860D01*
X175784114Y-101111860D01*
X176844918Y-101111860D01*
X176844918Y-102172664D01*
X176844918Y-103233468D01*
G37*
G36*
X175935657Y-99444882D02*
G01*
X175935657Y-99596426D01*
X176087200Y-99596426D01*
X176238744Y-99596426D01*
X176238744Y-99444882D01*
X176238744Y-99293339D01*
X176541831Y-99293339D01*
X176844918Y-99293339D01*
X176844918Y-99444882D01*
X176844918Y-99596426D01*
X176693374Y-99596426D01*
X176541831Y-99596426D01*
X176541831Y-99747969D01*
X176541831Y-99899513D01*
X176390287Y-99899513D01*
X176238744Y-99899513D01*
X176238744Y-100051056D01*
X176238744Y-100202599D01*
X176087200Y-100202599D01*
X175935657Y-100202599D01*
X175935657Y-100051056D01*
X175935657Y-99899513D01*
X175784114Y-99899513D01*
X175632570Y-99899513D01*
X175632570Y-99596426D01*
X175632570Y-99293339D01*
X175784114Y-99293339D01*
X175935657Y-99293339D01*
X175935657Y-99444882D01*
G37*
G36*
X176693374Y-99899513D02*
G01*
X176844918Y-99899513D01*
X176844918Y-100051056D01*
X176844918Y-100202599D01*
X176693374Y-100202599D01*
X176541831Y-100202599D01*
X176541831Y-100051056D01*
X176541831Y-99899513D01*
X176693374Y-99899513D01*
G37*
G36*
X175329483Y-97171730D02*
G01*
X175329483Y-97474817D01*
X175632570Y-97474817D01*
X175935657Y-97474817D01*
X175935657Y-97323274D01*
X175935657Y-97171730D01*
X175784114Y-97171730D01*
X175632570Y-97171730D01*
X175632570Y-97020187D01*
X175632570Y-96868644D01*
X176087200Y-96868644D01*
X176541831Y-96868644D01*
X176541831Y-97323274D01*
X176541831Y-97777904D01*
X176238744Y-97777904D01*
X175935657Y-97777904D01*
X175935657Y-97929448D01*
X175935657Y-98080991D01*
X175784114Y-98080991D01*
X175632570Y-98080991D01*
X175632570Y-97929448D01*
X175632570Y-97777904D01*
X175481027Y-97777904D01*
X175329483Y-97777904D01*
X175329483Y-97626361D01*
X175329483Y-97474817D01*
X175177940Y-97474817D01*
X175026396Y-97474817D01*
X175026396Y-97323274D01*
X175026396Y-97171730D01*
X174874853Y-97171730D01*
X174723309Y-97171730D01*
X174723309Y-97020187D01*
X174723309Y-96868644D01*
X175026396Y-96868644D01*
X175329483Y-96868644D01*
X175329483Y-97171730D01*
G37*
G36*
X176693374Y-97777904D02*
G01*
X176844918Y-97777904D01*
X176844918Y-97929448D01*
X176844918Y-98080991D01*
X176693374Y-98080991D01*
X176541831Y-98080991D01*
X176541831Y-97929448D01*
X176541831Y-97777904D01*
X176693374Y-97777904D01*
G37*
G36*
X171692440Y-99596426D02*
G01*
X171540897Y-99596426D01*
X171389353Y-99596426D01*
X171389353Y-99747969D01*
X171389353Y-99899513D01*
X170934723Y-99899513D01*
X170480093Y-99899513D01*
X170480093Y-99747969D01*
X170480093Y-99596426D01*
X170328549Y-99596426D01*
X170177006Y-99596426D01*
X170177006Y-99293339D01*
X170783180Y-99293339D01*
X170783180Y-99444882D01*
X170783180Y-99596426D01*
X170934723Y-99596426D01*
X171086267Y-99596426D01*
X171086267Y-99444882D01*
X171086267Y-99293339D01*
X170934723Y-99293339D01*
X170783180Y-99293339D01*
X170177006Y-99293339D01*
X170177006Y-98990252D01*
X170328549Y-98990252D01*
X170480093Y-98990252D01*
X170480093Y-98838708D01*
X170480093Y-98687165D01*
X170631636Y-98687165D01*
X170783180Y-98687165D01*
X170783180Y-98232535D01*
X170783180Y-97777904D01*
X170934723Y-97777904D01*
X171086267Y-97777904D01*
X171086267Y-98080991D01*
X171086267Y-98384078D01*
X171237810Y-98384078D01*
X171389353Y-98384078D01*
X171389353Y-98232535D01*
X171389353Y-98080991D01*
X171540897Y-98080991D01*
X171692440Y-98080991D01*
X171692440Y-98232535D01*
X171692440Y-98384078D01*
X171540897Y-98384078D01*
X171389353Y-98384078D01*
X171389353Y-98687165D01*
X171389353Y-98990252D01*
X171237810Y-98990252D01*
X171086267Y-98990252D01*
X171086267Y-99141795D01*
X171086267Y-99293339D01*
X171389353Y-99293339D01*
X171692440Y-99293339D01*
X171692440Y-98990252D01*
X171692440Y-98687165D01*
X171843984Y-98687165D01*
X171995527Y-98687165D01*
X171995527Y-98990252D01*
X171995527Y-99293339D01*
X172147071Y-99293339D01*
X172298614Y-99293339D01*
X172298614Y-99141795D01*
X172298614Y-98990252D01*
X172450158Y-98990252D01*
X172601701Y-98990252D01*
X172601701Y-99141795D01*
X172601701Y-99293339D01*
X172450158Y-99293339D01*
X172298614Y-99293339D01*
X172298614Y-99444882D01*
X172298614Y-99596426D01*
X172147071Y-99596426D01*
X171995527Y-99596426D01*
X171995527Y-99444882D01*
X171995527Y-99293339D01*
X171843984Y-99293339D01*
X171692440Y-99293339D01*
X171692440Y-99444882D01*
X171692440Y-99596426D01*
G37*
G36*
X171389353Y-101111860D02*
G01*
X171237810Y-101111860D01*
X171086267Y-101111860D01*
X171086267Y-101263404D01*
X171086267Y-101414947D01*
X170934723Y-101414947D01*
X170783180Y-101414947D01*
X170783180Y-101718034D01*
X170783180Y-102021121D01*
X170934723Y-102021121D01*
X171086267Y-102021121D01*
X171086267Y-101718034D01*
X171086267Y-101414947D01*
X171237810Y-101414947D01*
X171389353Y-101414947D01*
X171389353Y-101566490D01*
X171389353Y-101718034D01*
X171540897Y-101718034D01*
X171692440Y-101718034D01*
X171692440Y-102172664D01*
X171692440Y-102324208D01*
X171692440Y-102627295D01*
X171540897Y-102627295D01*
X171389353Y-102627295D01*
X171389353Y-102778838D01*
X171389353Y-102930382D01*
X171237810Y-102930382D01*
X171086267Y-102930382D01*
X171086267Y-103081925D01*
X171086267Y-103233468D01*
X170328549Y-103233468D01*
X169570832Y-103233468D01*
X169570832Y-103081925D01*
X169570832Y-102930382D01*
X169419289Y-102930382D01*
X169267745Y-102930382D01*
X169267745Y-103081925D01*
X169267745Y-103233468D01*
X169116202Y-103233468D01*
X168964658Y-103233468D01*
X168964658Y-102930382D01*
X168964658Y-102627295D01*
X169267745Y-102627295D01*
X169570832Y-102627295D01*
X169570832Y-102778838D01*
X169570832Y-102930382D01*
X169722376Y-102930382D01*
X169873919Y-102930382D01*
X169873919Y-102778838D01*
X169873919Y-102627295D01*
X170025462Y-102627295D01*
X170177006Y-102627295D01*
X170177006Y-102778838D01*
X170177006Y-102930382D01*
X170328549Y-102930382D01*
X170480093Y-102930382D01*
X170480093Y-102627295D01*
X170480093Y-102324208D01*
X170631636Y-102324208D01*
X170783180Y-102324208D01*
X170783180Y-102475751D01*
X170783180Y-102627295D01*
X171086267Y-102627295D01*
X171389353Y-102627295D01*
X171389353Y-102475751D01*
X171389353Y-102324208D01*
X171086267Y-102324208D01*
X170783180Y-102324208D01*
X170783180Y-102172664D01*
X170783180Y-102021121D01*
X170177006Y-102021121D01*
X169570832Y-102021121D01*
X169570832Y-102172664D01*
X169570832Y-102324208D01*
X169419289Y-102324208D01*
X169267745Y-102324208D01*
X169267745Y-102172664D01*
X169267745Y-102021121D01*
X169116202Y-102021121D01*
X168964658Y-102021121D01*
X168964658Y-102172664D01*
X168964658Y-102324208D01*
X168661571Y-102324208D01*
X168358484Y-102324208D01*
X168358484Y-101718034D01*
X168358484Y-101111860D01*
X168206941Y-101111860D01*
X168055398Y-101111860D01*
X168055398Y-100960317D01*
X168055398Y-100808773D01*
X168206941Y-100808773D01*
X168358484Y-100808773D01*
X168358484Y-100657230D01*
X168358484Y-100505686D01*
X168661571Y-100505686D01*
X168661571Y-100808773D01*
X168661571Y-101111860D01*
X168813115Y-101111860D01*
X168964658Y-101111860D01*
X168964658Y-101263404D01*
X168964658Y-101414947D01*
X168813115Y-101414947D01*
X168661571Y-101414947D01*
X168661571Y-101566490D01*
X168661571Y-101718034D01*
X168964658Y-101718034D01*
X169267745Y-101718034D01*
X169267745Y-101414947D01*
X169267745Y-101263404D01*
X169570832Y-101263404D01*
X169570832Y-101718034D01*
X170025462Y-101718034D01*
X170480093Y-101718034D01*
X170480093Y-101263404D01*
X170480093Y-100808773D01*
X170783180Y-100808773D01*
X170783180Y-100960317D01*
X170783180Y-101111860D01*
X170934723Y-101111860D01*
X171086267Y-101111860D01*
X171086267Y-100960317D01*
X171086267Y-100808773D01*
X170934723Y-100808773D01*
X170783180Y-100808773D01*
X170480093Y-100808773D01*
X170025462Y-100808773D01*
X169570832Y-100808773D01*
X169570832Y-101111860D01*
X169570832Y-101263404D01*
X169267745Y-101263404D01*
X169267745Y-101111860D01*
X169116202Y-101111860D01*
X168964658Y-101111860D01*
X168964658Y-100808773D01*
X168964658Y-100505686D01*
X168813115Y-100505686D01*
X168661571Y-100505686D01*
X168358484Y-100505686D01*
X168206941Y-100505686D01*
X168055398Y-100505686D01*
X168055398Y-100354143D01*
X168055398Y-100202599D01*
X168358484Y-100202599D01*
X168661571Y-100202599D01*
X168661571Y-99899513D01*
X168661571Y-99596426D01*
X168813115Y-99596426D01*
X168964658Y-99596426D01*
X168964658Y-99747969D01*
X168964658Y-99899513D01*
X169116202Y-99899513D01*
X169267745Y-99899513D01*
X169267745Y-100202599D01*
X169267745Y-100505686D01*
X169419289Y-100505686D01*
X169570832Y-100505686D01*
X169570832Y-100354143D01*
X169570832Y-100202599D01*
X169722376Y-100202599D01*
X169873919Y-100202599D01*
X169873919Y-100051056D01*
X169873919Y-99899513D01*
X170025462Y-99899513D01*
X170177006Y-99899513D01*
X170177006Y-100051056D01*
X170177006Y-100202599D01*
X171237810Y-100202599D01*
X172298614Y-100202599D01*
X172298614Y-100051056D01*
X172298614Y-99899513D01*
X172450158Y-99899513D01*
X172601701Y-99899513D01*
X172601701Y-100202599D01*
X172601701Y-100505686D01*
X172450158Y-100505686D01*
X172298614Y-100505686D01*
X172298614Y-100657230D01*
X172298614Y-100808773D01*
X172450158Y-100808773D01*
X172601701Y-100808773D01*
X172601701Y-100657230D01*
X172601701Y-100505686D01*
X172753245Y-100505686D01*
X172904788Y-100505686D01*
X172904788Y-100657230D01*
X172904788Y-100808773D01*
X173207875Y-100808773D01*
X173510962Y-100808773D01*
X173510962Y-100657230D01*
X173510962Y-100505686D01*
X173359418Y-100505686D01*
X173207875Y-100505686D01*
X173207875Y-100354143D01*
X173207875Y-100202599D01*
X173056331Y-100202599D01*
X172904788Y-100202599D01*
X172904788Y-100051056D01*
X172904788Y-99899513D01*
X172753245Y-99899513D01*
X172601701Y-99899513D01*
X172601701Y-99747969D01*
X172601701Y-99596426D01*
X172904788Y-99596426D01*
X173207875Y-99596426D01*
X173207875Y-99444882D01*
X173207875Y-99293339D01*
X173359418Y-99293339D01*
X173510962Y-99293339D01*
X173510962Y-99141795D01*
X173510962Y-98990252D01*
X173662505Y-98990252D01*
X173814049Y-98990252D01*
X173814049Y-99141795D01*
X173814049Y-99293339D01*
X173965592Y-99293339D01*
X174117136Y-99293339D01*
X174117136Y-99747969D01*
X174117136Y-100202599D01*
X173965592Y-100202599D01*
X173814049Y-100202599D01*
X173814049Y-99899513D01*
X173814049Y-99596426D01*
X173662505Y-99596426D01*
X173510962Y-99596426D01*
X173510962Y-99899513D01*
X173510962Y-100202599D01*
X173662505Y-100202599D01*
X173814049Y-100202599D01*
X173814049Y-100505686D01*
X173814049Y-100808773D01*
X173965592Y-100808773D01*
X174117136Y-100808773D01*
X174117136Y-100657230D01*
X174117136Y-100505686D01*
X174268679Y-100505686D01*
X174420222Y-100505686D01*
X174420222Y-100354143D01*
X174420222Y-100202599D01*
X174571766Y-100202599D01*
X174723309Y-100202599D01*
X174723309Y-100354143D01*
X174723309Y-100505686D01*
X174874853Y-100505686D01*
X175026396Y-100505686D01*
X175026396Y-100354143D01*
X175026396Y-100202599D01*
X174874853Y-100202599D01*
X174723309Y-100202599D01*
X174723309Y-100051056D01*
X174723309Y-99899513D01*
X174874853Y-99899513D01*
X175026396Y-99899513D01*
X175026396Y-99747969D01*
X175026396Y-99596426D01*
X174874853Y-99596426D01*
X174723309Y-99596426D01*
X174723309Y-99444882D01*
X174723309Y-99293339D01*
X174874853Y-99293339D01*
X175026396Y-99293339D01*
X175026396Y-99141795D01*
X175026396Y-98990252D01*
X174874853Y-98990252D01*
X174723309Y-98990252D01*
X174723309Y-98838708D01*
X174723309Y-98687165D01*
X174874853Y-98687165D01*
X175026396Y-98687165D01*
X175026396Y-98535621D01*
X175026396Y-98384078D01*
X175177940Y-98384078D01*
X175329483Y-98384078D01*
X175329483Y-98232535D01*
X175329483Y-98080991D01*
X175481027Y-98080991D01*
X175632570Y-98080991D01*
X175632570Y-98384078D01*
X175632570Y-98687165D01*
X175935657Y-98687165D01*
X176238744Y-98687165D01*
X176238744Y-98384078D01*
X176238744Y-98080991D01*
X176390287Y-98080991D01*
X176541831Y-98080991D01*
X176541831Y-98232535D01*
X176541831Y-98384078D01*
X176693374Y-98384078D01*
X176844918Y-98384078D01*
X176844918Y-98687165D01*
X176844918Y-98990252D01*
X176693374Y-98990252D01*
X176541831Y-98990252D01*
X176541831Y-98838708D01*
X176541831Y-98687165D01*
X176390287Y-98687165D01*
X176238744Y-98687165D01*
X176238744Y-98838708D01*
X176238744Y-98990252D01*
X175935657Y-98990252D01*
X175632570Y-98990252D01*
X175632570Y-98838708D01*
X175632570Y-98687165D01*
X175481027Y-98687165D01*
X175329483Y-98687165D01*
X175329483Y-99596426D01*
X175329483Y-100505686D01*
X175177940Y-100505686D01*
X175026396Y-100505686D01*
X175026396Y-100657230D01*
X175026396Y-100808773D01*
X174723309Y-100808773D01*
X174420222Y-100808773D01*
X174420222Y-100960317D01*
X174420222Y-101111860D01*
X173965592Y-101111860D01*
X173510962Y-101111860D01*
X173510962Y-101263404D01*
X173510962Y-101414947D01*
X173965592Y-101414947D01*
X174420222Y-101414947D01*
X174420222Y-101566490D01*
X174420222Y-101718034D01*
X174268679Y-101718034D01*
X174117136Y-101718034D01*
X174117136Y-101869577D01*
X174117136Y-102021121D01*
X174268679Y-102021121D01*
X174420222Y-102021121D01*
X174420222Y-102475751D01*
X174420222Y-102930382D01*
X174268679Y-102930382D01*
X174117136Y-102930382D01*
X174117136Y-103081925D01*
X174117136Y-103233468D01*
X173965592Y-103233468D01*
X173814049Y-103233468D01*
X173814049Y-103081925D01*
X173814049Y-102930382D01*
X173662505Y-102930382D01*
X173510962Y-102930382D01*
X173510962Y-102324208D01*
X173510962Y-101718034D01*
X173207875Y-101718034D01*
X172904788Y-101718034D01*
X172904788Y-101869577D01*
X172904788Y-102021121D01*
X173056331Y-102021121D01*
X173207875Y-102021121D01*
X173207875Y-102172664D01*
X173207875Y-102324208D01*
X172904788Y-102324208D01*
X172601701Y-102324208D01*
X172601701Y-102172664D01*
X172601701Y-102021121D01*
X172450158Y-102021121D01*
X172298614Y-102021121D01*
X172298614Y-101869577D01*
X172298614Y-101718034D01*
X172147071Y-101718034D01*
X171995527Y-101718034D01*
X171995527Y-101566490D01*
X171995527Y-101414947D01*
X172147071Y-101414947D01*
X172298614Y-101414947D01*
X172298614Y-101111860D01*
X172298614Y-100808773D01*
X172147071Y-100808773D01*
X171995527Y-100808773D01*
X171995527Y-100960317D01*
X171995527Y-101111860D01*
X171843984Y-101111860D01*
X171692440Y-101111860D01*
X171692440Y-100960317D01*
X171692440Y-100808773D01*
X171540897Y-100808773D01*
X171389353Y-100808773D01*
X171389353Y-100960317D01*
X171389353Y-101111860D01*
G37*
G36*
X169722376Y-102324208D02*
G01*
X169873919Y-102324208D01*
X169873919Y-102475751D01*
X169873919Y-102627295D01*
X169722376Y-102627295D01*
X169570832Y-102627295D01*
X169570832Y-102475751D01*
X169570832Y-102324208D01*
X169722376Y-102324208D01*
G37*
G36*
X173814049Y-97474817D02*
G01*
X173662505Y-97474817D01*
X173510962Y-97474817D01*
X173510962Y-97626361D01*
X173510962Y-97777904D01*
X173662505Y-97777904D01*
X173814049Y-97777904D01*
X173814049Y-97929448D01*
X173814049Y-98080991D01*
X173965592Y-98080991D01*
X174117136Y-98080991D01*
X174117136Y-97777904D01*
X174117136Y-97474817D01*
X174571766Y-97474817D01*
X175026396Y-97474817D01*
X175026396Y-97626361D01*
X175026396Y-97777904D01*
X174723309Y-97777904D01*
X174420222Y-97777904D01*
X174420222Y-98080991D01*
X174420222Y-98384078D01*
X174268679Y-98384078D01*
X174117136Y-98384078D01*
X174117136Y-98687165D01*
X174117136Y-98990252D01*
X173965592Y-98990252D01*
X173814049Y-98990252D01*
X173814049Y-98535621D01*
X173814049Y-98080991D01*
X173510962Y-98080991D01*
X173207875Y-98080991D01*
X173207875Y-98384078D01*
X173207875Y-98687165D01*
X172904788Y-98687165D01*
X172601701Y-98687165D01*
X172601701Y-98384078D01*
X172601701Y-98080991D01*
X172147071Y-98080991D01*
X171692440Y-98080991D01*
X171692440Y-97929448D01*
X172904788Y-97929448D01*
X172904788Y-98080991D01*
X173056331Y-98080991D01*
X173207875Y-98080991D01*
X173207875Y-97929448D01*
X173207875Y-97777904D01*
X173056331Y-97777904D01*
X172904788Y-97777904D01*
X172904788Y-97929448D01*
X171692440Y-97929448D01*
X171692440Y-97777904D01*
X171540897Y-97777904D01*
X171389353Y-97777904D01*
X171389353Y-97626361D01*
X172601701Y-97626361D01*
X172601701Y-97777904D01*
X172753245Y-97777904D01*
X172904788Y-97777904D01*
X172904788Y-97626361D01*
X172904788Y-97474817D01*
X172753245Y-97474817D01*
X172601701Y-97474817D01*
X172601701Y-97626361D01*
X171389353Y-97626361D01*
X171389353Y-97474817D01*
X171086267Y-97474817D01*
X170783180Y-97474817D01*
X170783180Y-97626361D01*
X170783180Y-97777904D01*
X170631636Y-97777904D01*
X170480093Y-97777904D01*
X170480093Y-97626361D01*
X170480093Y-97474817D01*
X170328549Y-97474817D01*
X170177006Y-97474817D01*
X170177006Y-97626361D01*
X170177006Y-97777904D01*
X170025462Y-97777904D01*
X169873919Y-97777904D01*
X169873919Y-98080991D01*
X169873919Y-98384078D01*
X170025462Y-98384078D01*
X170177006Y-98384078D01*
X170177006Y-98535621D01*
X170177006Y-98687165D01*
X170025462Y-98687165D01*
X169873919Y-98687165D01*
X169873919Y-98838708D01*
X169873919Y-98990252D01*
X169722376Y-98990252D01*
X169570832Y-98990252D01*
X169570832Y-99293339D01*
X169570832Y-99596426D01*
X169267745Y-99596426D01*
X168964658Y-99596426D01*
X168964658Y-99141795D01*
X168964658Y-98687165D01*
X168813115Y-98687165D01*
X168661571Y-98687165D01*
X168661571Y-98838708D01*
X168661571Y-98990252D01*
X168510028Y-98990252D01*
X168358484Y-98990252D01*
X168358484Y-99141795D01*
X168358484Y-99293339D01*
X168510028Y-99293339D01*
X168661571Y-99293339D01*
X168661571Y-99444882D01*
X168661571Y-99596426D01*
X168358484Y-99596426D01*
X168055398Y-99596426D01*
X168055398Y-98687165D01*
X168055398Y-98535621D01*
X168358484Y-98535621D01*
X168358484Y-98687165D01*
X168510028Y-98687165D01*
X168661571Y-98687165D01*
X168661571Y-98535621D01*
X168661571Y-98384078D01*
X168510028Y-98384078D01*
X168358484Y-98384078D01*
X168358484Y-98535621D01*
X168055398Y-98535621D01*
X168055398Y-97777904D01*
X168206941Y-97777904D01*
X168358484Y-97777904D01*
X168358484Y-97929448D01*
X168358484Y-98080991D01*
X168661571Y-98080991D01*
X168964658Y-98080991D01*
X168964658Y-98232535D01*
X168964658Y-98384078D01*
X169116202Y-98384078D01*
X169267745Y-98384078D01*
X169267745Y-98535621D01*
X169267745Y-98687165D01*
X169419289Y-98687165D01*
X169570832Y-98687165D01*
X169570832Y-98080991D01*
X169570832Y-97474817D01*
X169419289Y-97474817D01*
X169267745Y-97474817D01*
X169267745Y-97777904D01*
X169267745Y-98080991D01*
X169116202Y-98080991D01*
X168964658Y-98080991D01*
X168964658Y-97929448D01*
X168964658Y-97777904D01*
X168661571Y-97777904D01*
X168358484Y-97777904D01*
X168358484Y-97626361D01*
X168358484Y-97474817D01*
X168206941Y-97474817D01*
X168055398Y-97474817D01*
X168055398Y-97323274D01*
X168055398Y-97171730D01*
X168206941Y-97171730D01*
X168358484Y-97171730D01*
X168358484Y-97323274D01*
X168358484Y-97474817D01*
X168510028Y-97474817D01*
X168661571Y-97474817D01*
X168661571Y-97323274D01*
X168661571Y-97171730D01*
X168510028Y-97171730D01*
X168358484Y-97171730D01*
X168358484Y-97020187D01*
X168358484Y-96868644D01*
X168661571Y-96868644D01*
X168964658Y-96868644D01*
X168964658Y-97020187D01*
X168964658Y-97171730D01*
X169722376Y-97171730D01*
X170480093Y-97171730D01*
X170480093Y-97323274D01*
X170480093Y-97474817D01*
X170631636Y-97474817D01*
X170783180Y-97474817D01*
X170783180Y-97323274D01*
X170783180Y-97171730D01*
X170934723Y-97171730D01*
X171086267Y-97171730D01*
X171086267Y-96717100D01*
X171086267Y-96262470D01*
X170934723Y-96262470D01*
X170783180Y-96262470D01*
X170783180Y-96565557D01*
X170783180Y-96868644D01*
X170631636Y-96868644D01*
X170480093Y-96868644D01*
X170480093Y-96414013D01*
X170480093Y-95959383D01*
X170631636Y-95959383D01*
X170783180Y-95959383D01*
X170783180Y-95807839D01*
X170783180Y-95656296D01*
X170631636Y-95656296D01*
X170480093Y-95656296D01*
X170480093Y-95353209D01*
X170480093Y-95050122D01*
X170631636Y-95050122D01*
X170783180Y-95050122D01*
X170783180Y-95201666D01*
X170783180Y-95353209D01*
X170934723Y-95353209D01*
X171086267Y-95353209D01*
X171086267Y-95656296D01*
X171086267Y-95959383D01*
X171237810Y-95959383D01*
X171389353Y-95959383D01*
X171389353Y-96262470D01*
X171389353Y-96565557D01*
X171540897Y-96565557D01*
X171692440Y-96565557D01*
X171692440Y-96262470D01*
X171692440Y-95959383D01*
X171995527Y-95959383D01*
X172298614Y-95959383D01*
X172298614Y-95807839D01*
X172298614Y-95656296D01*
X172450158Y-95656296D01*
X172601701Y-95656296D01*
X172601701Y-95807839D01*
X172601701Y-95959383D01*
X172753245Y-95959383D01*
X172904788Y-95959383D01*
X172904788Y-95807839D01*
X172904788Y-95656296D01*
X172753245Y-95656296D01*
X172601701Y-95656296D01*
X172601701Y-95201666D01*
X172601701Y-94747035D01*
X172298614Y-94747035D01*
X171995527Y-94747035D01*
X171995527Y-94595492D01*
X171995527Y-94443948D01*
X172298614Y-94443948D01*
X172601701Y-94443948D01*
X172601701Y-94595492D01*
X172601701Y-94747035D01*
X172753245Y-94747035D01*
X172904788Y-94747035D01*
X172904788Y-94595492D01*
X172904788Y-94443948D01*
X173056331Y-94443948D01*
X173207875Y-94443948D01*
X173207875Y-94595492D01*
X173207875Y-94747035D01*
X173056331Y-94747035D01*
X172904788Y-94747035D01*
X172904788Y-95201666D01*
X172904788Y-95656296D01*
X173207875Y-95656296D01*
X173510962Y-95656296D01*
X173510962Y-95504752D01*
X173510962Y-95353209D01*
X173359418Y-95353209D01*
X173207875Y-95353209D01*
X173207875Y-95050122D01*
X173207875Y-94747035D01*
X173510962Y-94747035D01*
X173814049Y-94747035D01*
X173814049Y-94898579D01*
X173814049Y-95050122D01*
X173965592Y-95050122D01*
X174117136Y-95050122D01*
X174117136Y-94898579D01*
X174117136Y-94747035D01*
X174268679Y-94747035D01*
X174420222Y-94747035D01*
X174420222Y-95050122D01*
X174420222Y-95353209D01*
X174268679Y-95353209D01*
X174117136Y-95353209D01*
X174117136Y-95504752D01*
X174117136Y-95656296D01*
X173965592Y-95656296D01*
X173814049Y-95656296D01*
X173814049Y-95807839D01*
X173814049Y-95959383D01*
X173359418Y-95959383D01*
X172904788Y-95959383D01*
X172904788Y-96110926D01*
X172904788Y-96262470D01*
X172753245Y-96262470D01*
X172601701Y-96262470D01*
X172601701Y-96414013D01*
X172601701Y-96565557D01*
X172450158Y-96565557D01*
X172298614Y-96565557D01*
X172298614Y-96414013D01*
X172298614Y-96262470D01*
X172147071Y-96262470D01*
X171995527Y-96262470D01*
X171995527Y-96565557D01*
X171995527Y-96868644D01*
X171692440Y-96868644D01*
X171389353Y-96868644D01*
X171389353Y-97020187D01*
X171389353Y-97171730D01*
X171540897Y-97171730D01*
X171692440Y-97171730D01*
X171692440Y-97323274D01*
X171692440Y-97474817D01*
X171843984Y-97474817D01*
X171995527Y-97474817D01*
X171995527Y-97323274D01*
X172298614Y-97323274D01*
X172298614Y-97474817D01*
X172450158Y-97474817D01*
X172601701Y-97474817D01*
X172601701Y-97323274D01*
X172601701Y-97171730D01*
X172450158Y-97171730D01*
X172298614Y-97171730D01*
X172298614Y-97323274D01*
X171995527Y-97323274D01*
X171995527Y-97171730D01*
X171995527Y-96868644D01*
X172298614Y-96868644D01*
X172601701Y-96868644D01*
X172601701Y-97020187D01*
X172601701Y-97171730D01*
X172753245Y-97171730D01*
X172904788Y-97171730D01*
X173207875Y-97171730D01*
X173207875Y-97323274D01*
X173207875Y-97474817D01*
X173359418Y-97474817D01*
X173510962Y-97474817D01*
X173510962Y-97323274D01*
X173510962Y-97171730D01*
X173359418Y-97171730D01*
X173207875Y-97171730D01*
X172904788Y-97171730D01*
X172904788Y-97020187D01*
X172904788Y-96868644D01*
X173056331Y-96868644D01*
X173207875Y-96868644D01*
X173207875Y-96717100D01*
X173207875Y-96565557D01*
X173359418Y-96565557D01*
X173510962Y-96565557D01*
X173510962Y-96414013D01*
X173510962Y-96262470D01*
X173662505Y-96262470D01*
X173814049Y-96262470D01*
X173814049Y-96414013D01*
X173814049Y-96565557D01*
X173662505Y-96565557D01*
X173510962Y-96565557D01*
X173510962Y-96868644D01*
X173510962Y-97171730D01*
X173662505Y-97171730D01*
X173814049Y-97171730D01*
X173814049Y-97020187D01*
X173814049Y-96868644D01*
X173965592Y-96868644D01*
X174117136Y-96868644D01*
X174117136Y-97020187D01*
X174117136Y-97171730D01*
X173965592Y-97171730D01*
X173814049Y-97171730D01*
X173814049Y-97323274D01*
X173814049Y-97474817D01*
G37*
G36*
X173056331Y-96262470D02*
G01*
X173207875Y-96262470D01*
X173207875Y-96414013D01*
X173207875Y-96565557D01*
X173056331Y-96565557D01*
X172904788Y-96565557D01*
X172904788Y-96414013D01*
X172904788Y-96262470D01*
X173056331Y-96262470D01*
G37*
%TD*%
%LPC*%
D18*
%TO.C,H1*%
X82000000Y-92000000D03*
%TD*%
D19*
%TO.C,H8*%
X177000000Y-89485000D03*
%TD*%
%TO.C,H7*%
X79000000Y-89500000D03*
%TD*%
D20*
%TO.C,H6*%
X153000000Y-94000000D03*
%TD*%
D19*
%TO.C,H9*%
X177000000Y-137000000D03*
%TD*%
D20*
%TO.C,H5*%
X103000000Y-94000000D03*
%TD*%
%TO.C,H2*%
X174000000Y-134000000D03*
%TD*%
%TO.C,H4*%
X174000000Y-92000000D03*
%TD*%
D21*
%TO.C,J5*%
X163640000Y-108920000D03*
D22*
X161100000Y-108920000D03*
X158560000Y-108920000D03*
%TD*%
D20*
%TO.C,H3*%
X82000000Y-134000000D03*
%TD*%
D23*
%TO.C,J1*%
X108940000Y-93013272D03*
X108940000Y-98063272D03*
X111480000Y-93013272D03*
X111480000Y-98063272D03*
X114020000Y-93013272D03*
X114020000Y-98063272D03*
X116560000Y-93013272D03*
X116560000Y-98063272D03*
X119100000Y-93013272D03*
X119100000Y-98063272D03*
X121640000Y-93013272D03*
X121640000Y-98063272D03*
X124180000Y-93013272D03*
X124180000Y-98063272D03*
X126720000Y-93013272D03*
X126720000Y-98063272D03*
X129260000Y-93013272D03*
X129260000Y-98063272D03*
X131800000Y-93013272D03*
X131800000Y-98063272D03*
X134340000Y-93013272D03*
X134340000Y-98063272D03*
X136880000Y-93013272D03*
X136880000Y-98063272D03*
X139420000Y-93013272D03*
X139420000Y-98063272D03*
X141960000Y-93013272D03*
X141960000Y-98063272D03*
X144500000Y-93013272D03*
X144500000Y-98063272D03*
X147040000Y-93013272D03*
X147040000Y-98063272D03*
%TD*%
%LPD*%
M02*
