M48
; DRILL file KiCad 10.0.1 date 2026-06-23T18:22:49
; FORMAT={-:-/ absolute / inch / decimal}
; #@! TF.CreationDate,2026-06-23T18:22:49+02:00
; #@! TF.GenerationSoftware,Kicad,Pcbnew,10.0.1
; #@! TF.FileFunction,Plated,1,2,PTH
FMAT,2
INCH
; #@! TA.AperFunction,Plated,PTH,ViaDrill
T1C0.0118
; #@! TA.AperFunction,Plated,PTH,ComponentDrill
T2C0.0118
; #@! TA.AperFunction,Plated,PTH,ComponentDrill
T3C0.0394
; #@! TA.AperFunction,Plated,PTH,ComponentDrill
T4C0.1063
%
G90
G05
T1
X3.7756Y-3.7677
X3.7874Y-3.9646
X3.7992Y-3.9055
X3.8465Y-3.6417
X3.8819Y-3.9646
X3.8898Y-3.8898
X3.9055Y-3.7244
X3.9134Y-3.815
X3.9449Y-3.8583
X3.9764Y-3.9291
X4.0551Y-3.9488
X4.1339Y-3.9724
X4.2126Y-3.9921
X4.2913Y-4.0079
X4.3346Y-3.6201
X4.3346Y-3.6811
X4.3346Y-3.7087
X4.3701Y-4.0276
X4.439Y-3.6181
X4.439Y-3.6811
X4.439Y-3.7126
X4.4528Y-4.0512
X4.5276Y-4.063
X4.5512Y-3.6811
X4.5512Y-3.7087
X4.5531Y-3.6122
X4.6772Y-4.0906
X4.7382Y-3.6181
X4.7382Y-3.7087
X4.7402Y-3.6772
X4.748Y-4.1114
X4.8386Y-3.6201
X4.8386Y-3.6772
X4.8386Y-3.7087
X4.8661Y-4.0827
X4.8976Y-4.3583
X4.9305Y-4.0813
X4.9409Y-3.622
X4.9409Y-3.6772
X4.9409Y-3.7087
X4.9409Y-3.9724
X4.9488Y-4.0551
X5.0053Y-4.0774
X5.0118Y-3.9606
X5.0197Y-4.0472
X5.0315Y-4.3937
X5.0841Y-4.0774
X5.0906Y-4.0433
X5.1181Y-4.5079
X5.1299Y-3.8622
X5.1339Y-3.9528
X5.1378Y-3.6201
X5.1378Y-3.689
X5.1378Y-3.7126
X5.1614Y-4.0394
X5.1628Y-4.0774
X5.2303Y-3.8602
X5.2343Y-4.4449
X5.2382Y-3.624
X5.2382Y-3.689
X5.2396Y-4.0754
X5.2402Y-3.7165
X5.2402Y-4.0315
X5.252Y-3.9606
X5.2671Y-4.4179
X5.3144Y-4.3864
X5.3163Y-4.0734
X5.3307Y-3.8602
X5.3386Y-3.622
X5.3386Y-3.689
X5.3386Y-3.7205
X5.3544Y-4.3779
X5.3976Y-4.0984
X5.3976Y-4.378
X5.4272Y-3.8602
X5.4331Y-4.2402
X5.4449Y-4.3701
X5.4606Y-4.5118
X5.4803Y-3.9606
X5.4882Y-4.3228
X5.5Y-3.9862
X5.5118Y-4.2205
X5.5295Y-3.8583
X5.5315Y-4.3543
X5.5591Y-4.1535
X5.5984Y-4.1575
X5.622Y-4.3386
X5.6299Y-3.8583
X5.6457Y-3.7047
X5.6516Y-3.624
X5.6614Y-4.1299
X5.6654Y-4.1693
X5.6654Y-4.2677
X5.7343Y-3.8563
X5.7913Y-4.1575
X5.8268Y-3.6811
X5.8268Y-3.7087
X5.8327Y-3.6201
X5.8346Y-3.8602
X5.8465Y-4.5197
X5.8898Y-3.8701
X5.8898Y-3.9882
X5.9075Y-4.1496
X5.9173Y-4.2126
X5.9646Y-3.8346
X5.9724Y-3.9016
X5.9724Y-3.9449
X6.0236Y-4.2343
X6.0433Y-3.878
X6.0591Y-3.9764
X6.0827Y-4.252
X6.0866Y-4.1417
X6.0984Y-4.2913
X6.1142Y-3.8976
X6.1496Y-3.7756
X6.1496Y-4.0236
X6.1496Y-4.0906
X6.1732Y-3.8346
X6.185Y-4.2205
X6.2165Y-4.5197
X6.2323Y-4.0118
X6.2559Y-3.9724
X6.2559Y-4.1063
X6.2598Y-4.2323
X6.2677Y-4.3543
X6.3031Y-4.3465
X6.3189Y-4.2047
X6.3268Y-3.9882
X6.3465Y-3.5709
X6.3583Y-4.0827
X6.3819Y-3.9724
X6.3858Y-4.3661
X6.4055Y-4.1969
X6.4094Y-3.9882
X6.4331Y-3.9724
X6.4449Y-4.2165
X6.4843Y-3.7283
X6.4961Y-4.2087
X6.5039Y-4.1496
X6.5157Y-4.4961
X6.5472Y-3.9961
X6.6417Y-4.2126
X6.689Y-4.0512
X6.7087Y-3.9213
X6.8425Y-4.0276
X6.9764Y-3.9409
T2
X3.4646Y-3.775
X3.4646Y-3.8144
X3.4646Y-3.8537
T3
X6.2425Y-4.2882
X6.3425Y-4.2882
X6.4425Y-4.2882
T4
X3.2283Y-3.622
M30
